<?xml version="1.0" encoding="UTF-8" standalone="no"?>
<svg
   xmlns:dc="http://purl.org/dc/elements/1.1/"
   xmlns:cc="http://creativecommons.org/ns#"
   xmlns:rdf="http://www.w3.org/1999/02/22-rdf-syntax-ns#"
   xmlns:svg="http://www.w3.org/2000/svg"
   xmlns="http://www.w3.org/2000/svg"
   xmlns:sodipodi="http://sodipodi.sourceforge.net/DTD/sodipodi-0.dtd"
   xmlns:inkscape="http://www.inkscape.org/namespaces/inkscape"
   height="121.75"
   width="571.91998"
   version="1.1"
   id="svg1114"
   sodipodi:docname="system.svg"
   inkscape:version="0.92.2 (5c3e80d, 2017-08-06)">
  <metadata
     id="metadata1120">
    <rdf:RDF>
      <cc:Work
         rdf:about="">
        <dc:format>image/svg+xml</dc:format>
        <dc:type
           rdf:resource="http://purl.org/dc/dcmitype/StillImage" />
        <dc:title></dc:title>
      </cc:Work>
    </rdf:RDF>
  </metadata>
  <defs
     id="defs1118" />
  <sodipodi:namedview
     pagecolor="#ffffff"
     bordercolor="#666666"
     borderopacity="1"
     objecttolerance="10"
     gridtolerance="10"
     guidetolerance="10"
     inkscape:pageopacity="0"
     inkscape:pageshadow="2"
     inkscape:window-width="1920"
     inkscape:window-height="1017"
     id="namedview1116"
     showgrid="false"
     inkscape:pagecheckerboard="true"
     inkscape:zoom="1.2559092"
     inkscape:cx="111.16896"
     inkscape:cy="32.380042"
     inkscape:window-x="1912"
     inkscape:window-y="-8"
     inkscape:window-maximized="1"
     inkscape:current-layer="svg1114" />
  <g
     id="g1112"
     style="fill:#000000;fill-opacity:1;stroke:#000000;stroke-opacity:1"
     transform="translate(2)">
    <path
       d="m 207.01,5.28 c 4.73,-6.05 14.5,-7.08 20.3,-2 2.37,1.99 4.03,4.74 4.88,7.7 10.73,36.93 21.5,73.83 32.22,110.75 h -19 c -2.98,-10.17 -5.9,-20.37 -8.85,-30.56 -12.24,-0.02 -24.48,0 -36.73,0 -3,10.18 -5.96,20.37 -8.9,30.57 -6.3,-0.02 -12.6,0 -18.9,0 10.2,-35.23 20.4,-70.45 30.65,-105.65 1.22,-3.69 1.68,-7.8 4.33,-10.81 M 218.2,27.9 c -4.49,15.3 -8.89,30.62 -13.35,45.92 8.9,0.05 17.8,0.02 26.7,0.02 C 227.09,58.53 222.65,43.21 218.2,27.9 Z M 340.41,6.07 c 3.3,-4.79 9.68,-7.1 15.3,-5.63 5.14,1.18 9.07,5.62 10.43,10.6 10.72,36.9 21.48,73.78 32.2,110.67 -6.35,0.05 -12.68,0 -19.02,0.03 -2.95,-10.2 -5.87,-20.4 -8.84,-30.58 -12.23,0 -24.45,-0.02 -36.67,0.01 -2.92,10.2 -5.94,20.37 -8.86,30.56 h -18.87 c 10.19,-35.4 20.5,-70.79 30.77,-106.18 1.07,-3.2 1.49,-6.72 3.56,-9.48 m -1.54,67.77 h 26.58 c -4.4,-15.34 -8.89,-30.66 -13.28,-46 -4.43,15.33 -8.9,30.65 -13.3,46 z M 250.24,0.26 h 68.72 v 18.53 h -25.3 V 121.73 H 275.53 V 18.8 h -25.3 V 0.26 Z m 168.23,0.75 c 1.74,-0.6 3.6,-0.8 5.44,-0.76 7.22,0.02 14.45,0 21.67,0 12.16,0.23 23.77,7.78 29.04,18.73 3.64,7.1 4.02,15.37 3.1,23.17 -0.64,8.16 -4.06,16.33 -10.34,21.74 -3.3,2.95 -7.44,4.74 -10.99,7.38 -1.94,1.48 -2.04,4.36 -1.04,6.42 9.6,14.8 19.56,29.37 29.34,44.04 -7.15,0.02 -14.31,-0.01 -21.47,0.02 -9.37,-14.08 -18.65,-28.22 -27.98,-42.32 a 15.65,15.65 0 0 1 -1.85,-13.9 c 1.28,-3.51 4.36,-6.08 7.77,-7.4 6.53,-2.5 12.96,-6.4 16.58,-12.56 2.75,-4.63 2.6,-10.34 1.37,-15.4 -1.45,-6.58 -7.86,-11.75 -14.63,-11.52 -4.68,0.03 -9.36,-0.02 -14.03,0.02 -2.12,-0.05 -4.1,1.79 -4.08,3.93 -0.02,33.05 0,66.1 -0.01,99.14 H 408.1 c -0.01,-35.58 0.01,-71.16 -0.01,-106.73 0.04,-6.24 4.47,-12.1 10.38,-14 z m 75.79,-0.75 h 19.21 c 0,40.5 0.02,80.98 -0.01,121.48 -6.4,-0.02 -12.8,0 -19.2,0 V 0.25 Z M 54.17,0 h 9.23 c 0.02,7.23 0,14.47 0,21.7 0.04,6.04 -0.13,12.08 -0.38,18.1 -0.41,8.72 -0.96,17.45 -2.4,26.06 a 66.28,66.28 0 0 1 -5.6,17.1 C 50.87,91.72 44.34,99.13 37,105.36 30.43,111.14 22.6,115.35 14.35,118.2 A 77.4,77.4 0 0 1 0,121.73 v -18.2 A 53.41,53.41 0 0 0 16.8,97.8 60.62,60.62 0 0 0 33.36,84.84 69.03,69.03 0 0 0 45.07,66.57 c 3.47,-7.62 5.33,-15.86 6.6,-24.1 a 250.8,250.8 0 0 0 2.49,-31.69 c 0.03,-3.6 0,-7.18 0.01,-10.77 z M 67.12,0.02 C 72.78,-0.02 78.44,0.02 84.1,0 v 121.73 c -5.65,0.01 -11.3,-0.02 -16.95,0.02 C 67.07,108.81 67.14,95.87 67.12,82.94 L 67.11,0.02 Z M 87.89,0 h 9.17 c -0.1,12.38 0.33,24.77 1.8,37.06 1.2,9.55 2.91,19.17 6.71,28.06 3.6,8.6 8.8,16.6 15.57,23.05 a 59.61,59.61 0 0 0 22.82,13.64 c 2.37,0.76 4.8,1.35 7.27,1.71 v 18.2 a 76.18,76.18 0 0 1 -14.24,-3.49 72.4,72.4 0 0 1 -15.74,-7.59 74.29,74.29 0 0 1 -9.95,-7.92 A 67.87,67.87 0 0 1 98.08,86.46 71.24,71.24 0 0 1 91.85,71.32 C 90.43,66.05 89.82,60.6 89.27,55.18 A 363.42,363.42 0 0 1 87.89,19.95 Z"
       id="path1108"
       style="fill:#000000;fill-opacity:1;stroke:#000000;stroke-opacity:1"
       inkscape:connector-curvature="0" />
    <path
       d="m 54.17,0 c 0,3.6 0.02,7.19 -0.01,10.78 -0.25,10.6 -0.9,21.2 -2.5,31.68 -1.26,8.25 -3.12,16.49 -6.59,24.11 A 68.9,68.9 0 0 1 33.36,84.84 60.52,60.52 0 0 1 16.79,97.8 53.2,53.2 0 0 1 0,103.53 v 18.2 a 77.48,77.48 0 0 0 14.35,-3.52 c 8.24,-2.85 16.08,-7.06 22.65,-12.84 7.34,-6.23 13.87,-13.64 18.03,-22.4 a 66.32,66.32 0 0 0 5.59,-17.1 c 1.44,-8.61 1.99,-17.34 2.4,-26.05 0.25,-6.03 0.42,-12.07 0.39,-18.11 V 0 h -9.24 m 12.95,0.02 c 0.02,27.64 0,55.27 0,82.92 0.03,12.94 -0.04,25.88 0.04,38.81 5.65,-0.05 11.3,-0.01 16.95,-0.02 V 0 c -5.67,0.01 -11.33,-0.02 -17,0.02 M 87.89,0 v 19.95 a 363.4,363.4 0 0 0 1.38,35.23 c 0.55,5.42 1.16,10.87 2.58,16.14 a 71.27,71.27 0 0 0 6.23,15.14 67.87,67.87 0 0 0 13.22,16.26 74.2,74.2 0 0 0 9.95,7.92 72.41,72.41 0 0 0 15.74,7.6 76.1,76.1 0 0 0 14.24,3.47 v -18.19 c -2.47,-0.35 -4.9,-0.95 -7.27,-1.71 A 59.6,59.6 0 0 1 121.14,88.17 c -6.77,-6.44 -11.96,-14.44 -15.57,-23.05 -3.8,-8.9 -5.5,-18.51 -6.7,-28.06 -1.48,-12.29 -1.9,-24.68 -1.8,-37.05 h -9.18 m 447.55,109.69 7.13,2.17 -0.14,-2.44 c 0,-6.72 5.75,-11.14 12.15,-11.14 7.32,0 12.33,5.7 12.33,12.84 0,4.28 -2.25,8.56 -6.07,10.58 l -3.04,-3.22 c 2.94,-1.06 5.15,-4.6 5.15,-7.68 0,-4.7 -3.86,-8.38 -8.51,-8.38 a 8.38,8.38 0 0 0 -8.24,8.28 8.43,8.43 0 0 0 3.09,6.49 v 0.83 l -17.81,-5.34 v -13.9 h 3.95 v 10.91 z m 26.78,-34.27 h 3.96 v 22.4 L 547.54,82.65 c -1.75,-1.43 -3.91,-3.08 -6.21,-3.08 -3.64,0 -6.63,3.22 -6.63,6.8 a 6.78,6.78 0 0 0 6.35,6.68 v 4.32 c -6.16,-0.68 -10.3,-4.69 -10.3,-11 0,-5.88 4.36,-10.94 10.4,-10.94 2.57,0 5.14,0.96 7.13,2.57 l 13.94,11.41 z M 530.75,56.47 A 18.1,18.1 0 0 0 548.9,74.5 c 9.93,0 18.02,-8.08 18.02,-18.02 0,-10.22 -7.95,-18.23 -18.1,-18.23 -10.15,0 -18.09,8 -18.09,18.23 z M 548.9,42.5 c 7.84,0 13.97,6.23 13.97,14.2 0,7.46 -6.27,13.53 -13.97,13.53 -7.79,0 -14.13,-6.07 -14.13,-13.54 0,-8.09 6.08,-14.2 14.13,-14.2 z M 530.75,18.23 a 18.1,18.1 0 0 0 18.16,18.02 c 9.93,0 18.02,-8.08 18.02,-18.02 C 566.93,8.01 558.98,0 548.83,0 538.68,0 530.74,8.01 530.74,18.23 Z M 548.9,4.26 c 7.84,0 13.97,6.23 13.97,14.2 0,7.46 -6.27,13.53 -13.97,13.53 -7.79,0 -14.13,-6.07 -14.13,-13.53 0,-8.1 6.08,-14.2 14.13,-14.2 z"
       id="path1110"
       style="fill:#000000;fill-opacity:1;stroke:#000000;stroke-opacity:1"
       inkscape:connector-curvature="0" />
  </g>
</svg>
