<?xml version="1.0" encoding="utf-8"?>
<!-- Generator: Adobe Illustrator 13.0.0, SVG Export Plug-In . SVG Version: 6.00 Build 14948)  -->
<!DOCTYPE svg [
	<!ENTITY ns_flows "http://ns.adobe.com/Flows/1.0/">
	<!ENTITY ns_extend "http://ns.adobe.com/Extensibility/1.0/">
	<!ENTITY ns_ai "http://ns.adobe.com/AdobeIllustrator/10.0/">
	<!ENTITY ns_graphs "http://ns.adobe.com/Graphs/1.0/">
	<!ENTITY ns_vars "http://ns.adobe.com/Variables/1.0/">
	<!ENTITY ns_imrep "http://ns.adobe.com/ImageReplacement/1.0/">
	<!ENTITY ns_sfw "http://ns.adobe.com/SaveForWeb/1.0/">
	<!ENTITY ns_custom "http://ns.adobe.com/GenericCustomNamespace/1.0/">
	<!ENTITY ns_adobe_xpath "http://ns.adobe.com/XPath/1.0/">
]>
<svg version="1.2" baseProfile="tiny" id="Layer_3" xmlns:x="&ns_extend;" xmlns:i="&ns_ai;" xmlns:graph="&ns_graphs;"
	 xmlns="http://www.w3.org/2000/svg" xmlns:xlink="http://www.w3.org/1999/xlink" xmlns:a="http://ns.adobe.com/AdobeSVGViewerExtensions/3.0/"
	 x="0px" y="0px" width="598.191px" height="350.257px" viewBox="0 0 598.191 350.257" xml:space="preserve">
<metadata>
	<sfw  xmlns="&ns_sfw;">
		<slices></slices>
		<sliceSourceBounds  x="-7245" y="-5" width="16397" height="704.659" bottomLeftOrigin="true"></sliceSourceBounds>
	</sfw>
</metadata>
<path fill="#F7F7F7" d="M140.292,319.361c-5.096-0.726-10.048-2.006-14.924-3.494l0,0l-0.58-0.176l-0.046-0.603
	c-0.287-3.566-0.42-7.171-0.42-10.761l0,0c0-5.234,0.286-10.445,0.811-15.466l0,0c-2.925-1.269-5.723-2.803-8.509-4.369l0,0
	c-2.606-1.708-5.352-3.329-7.849-5.395l0,0c-7.525,4.692-15.564,8.543-24.172,11.616l0,0l-0.521,0.187l-0.395-0.385
	c-3.69-3.582-6.967-7.566-10.019-11.64l0,0l-0.366-0.49l0.324-0.513c4.784-7.627,9.833-14.494,15.76-20.97l0,0
	c-1.6-2.726-3.063-5.531-4.264-8.488l0,0c-1.461-2.946-2.241-6.06-3.262-8.982l0,0c-8.598-0.669-17.676-2.212-26.397-4.795l0,0
	l-0.538-0.159l-0.086-0.554c-0.784-5.004-1.243-10.042-1.243-15.121l0,0c0-0.086,0-0.168,0.002-0.243l0,0l0.004-0.586l0.54-0.226
	c8.064-3.378,16.723-5.923,25.065-7.683l0,0c0.225-3.239,1.041-6.316,1.484-9.349l0,0l0.01-0.068l0.019-0.065
	c0.917-2.934,1.511-6.069,2.714-9.098l0,0c-6.674-5.64-13.051-12.174-18.532-19.36l0,0l-0.329-0.431l0.232-0.487
	c2.228-4.692,5.117-8.954,7.92-13.201l0,0l0.345-0.523l0.608,0.152c8.729,2.168,17.059,5.044,24.851,8.522l0,0
	c2.184-2.197,4.231-4.667,6.777-6.645l0,0c2.375-2.163,4.928-4.075,7.566-5.854l0,0c-2.178-8.653-3.251-17.32-3.638-26.616l0,0
	l-0.025-0.59l0.536-0.251c4.59-2.144,9.226-4.366,14.188-5.868l0,0l0.552-0.167l0.379,0.439c5.732,6.697,10.78,13.896,15.089,21.434
	l0,0c3.136-0.779,6.305-1.055,9.439-1.475l0,0c2.418-0.155,4.868-0.292,7.326-0.292l0,0c0.735,0,1.471,0.013,2.208,0.041l0,0
	c3.308-8.011,7.601-16.196,12.723-23.589l0,0l0.312-0.452l0.542,0.08c5.096,0.726,10.046,2.006,14.924,3.494l0,0l0.578,0.176
	l0.048,0.603c0.283,3.561,0.417,7.163,0.417,10.753l0,0c0,5.239-0.285,10.452-0.807,15.475l0,0c2.927,1.269,5.726,2.803,8.508,4.368
	l0,0c2.606,1.709,5.353,3.33,7.849,5.396l0,0c7.526-4.695,15.565-8.542,24.173-11.619l0,0l0.519-0.186l0.397,0.385
	c3.69,3.585,6.964,7.569,10.019,11.642l0,0l0.366,0.487l-0.324,0.517c-4.786,7.626-9.833,14.491-15.759,20.966l0,0
	c1.593,2.718,3.054,5.52,4.251,8.466l0,0c1.472,2.954,2.251,6.078,3.274,9.007l0,0c8.599,0.669,17.674,2.212,26.396,4.795l0,0
	l0.538,0.158l0.086,0.555c0.776,4.991,1.241,10.022,1.241,15.096l0,0c0,0.086,0,0.174,0,0.262l0,0v0.588l-0.546,0.229
	c-8.065,3.38-16.723,5.925-25.063,7.685l0,0c-0.227,3.238-1.042,6.314-1.484,9.346l0,0l-0.011,0.067l-0.021,0.066
	c-0.915,2.937-1.509,6.073-2.712,9.102l0,0c6.672,5.64,13.05,12.174,18.53,19.358l0,0l0.329,0.429l-0.232,0.49
	c-2.228,4.692-5.115,8.953-7.92,13.198l0,0l-0.345,0.523l-0.608-0.151c-8.727-2.166-17.058-5.042-24.848-8.521l0,0
	c-2.184,2.194-4.23,4.667-6.777,6.646l0,0c-2.376,2.162-4.93,4.074-7.567,5.854l0,0c2.178,8.651,3.251,17.32,3.638,26.618l0,0
	l0.023,0.588l-0.534,0.251c-4.59,2.145-9.226,4.366-14.188,5.868l0,0l-0.554,0.165l-0.377-0.438
	c-5.732-6.695-10.782-13.895-15.091-21.433l0,0c-3.135,0.78-6.301,1.054-9.379,1.468l0,0l-0.031,0.003l-0.031,0.004
	c-2.417,0.15-4.864,0.291-7.322,0.291l0,0c-0.735,0-1.471-0.012-2.208-0.04l0,0c-3.31,8.011-7.601,16.196-12.723,23.587l0,0
	l-0.312,0.452L140.292,319.361L140.292,319.361z M139.999,317.524c5.021-7.324,9.236-15.449,12.465-23.372l0,0l0.236-0.584
	l0.63,0.034c0.91,0.046,1.826,0.063,2.747,0.063l0,0c2.372,0,4.762-0.134,7.152-0.283l0,0c3.354-0.445,6.671-0.731,9.812-1.591l0,0
	l0.667-0.185l0.339,0.603c4.234,7.488,9.204,14.645,14.854,21.302l0,0c4.402-1.387,8.62-3.369,12.862-5.354l0,0
	c-0.415-9.199-1.515-17.74-3.713-26.27l0,0l-0.157-0.612l0.525-0.348c2.774-1.843,5.433-3.812,7.931-6.081l0,0
	c2.552-1.978,4.663-4.582,7.102-6.981l0,0l0.433-0.425l0.555,0.251c7.669,3.465,15.887,6.339,24.497,8.514l0,0
	c2.598-3.924,5.188-7.812,7.216-11.972l0,0c-5.454-7.075-11.799-13.519-18.426-19.063l0,0l-0.506-0.425l0.262-0.604
	c1.269-2.946,1.88-6.217,2.879-9.466l0,0c0.501-3.364,1.368-6.583,1.497-9.791l0,0l0.029-0.692l0.678-0.141
	c8.26-1.703,16.859-4.191,24.861-7.495l0,0c-0.019-4.666-0.436-9.311-1.132-13.936l0,0c-8.614-2.503-17.586-3.991-26.062-4.614l0,0
	l-0.573-0.042l-0.195-0.54c-1.165-3.218-1.941-6.475-3.391-9.363l0,0l-0.015-0.029l-0.015-0.034
	c-1.238-3.063-2.787-5.987-4.491-8.849l0,0l-0.339-0.571l0.45-0.485c5.901-6.379,10.918-13.137,15.683-20.675l0,0
	c-2.805-3.711-5.781-7.31-9.075-10.559l0,0c-8.505,3.08-16.433,6.922-23.853,11.605l0,0l-0.557,0.351l-0.498-0.431
	c-2.462-2.134-5.329-3.824-8.111-5.646l0,0c-2.912-1.636-5.847-3.238-8.881-4.506l0,0l-0.613-0.255l0.073-0.659
	c0.561-5.161,0.866-10.538,0.866-15.937l0,0c0-3.343-0.117-6.695-0.364-10.01l0,0c-4.463-1.344-8.956-2.49-13.535-3.18l0,0
	c-5.021,7.327-9.236,15.452-12.465,23.374l0,0l-0.238,0.583l-0.627-0.033c-0.912-0.046-1.829-0.065-2.747-0.065l0,0
	c-2.393,0-4.803,0.134-7.15,0.284l0,0c-3.355,0.448-6.671,0.732-9.816,1.594l0,0l-0.667,0.18l-0.339-0.601
	c-4.232-7.488-9.203-14.645-14.853-21.301l0,0c-4.405,1.386-8.622,3.369-12.862,5.354l0,0c0.415,9.199,1.513,17.738,3.713,26.269
	l0,0l0.159,0.609l-0.525,0.35c-2.778,1.845-5.435,3.813-7.931,6.083l0,0c-2.554,1.979-4.665,4.582-7.106,6.981l0,0l-0.433,0.425
	l-0.552-0.249c-7.671-3.464-15.885-6.338-24.497-8.517l0,0c-2.598,3.924-5.188,7.812-7.218,11.973l0,0
	c5.454,7.075,11.801,13.518,18.426,19.063l0,0l0.506,0.422l-0.26,0.607c-1.269,2.946-1.88,6.217-2.879,9.466l0,0
	c-0.503,3.362-1.37,6.582-1.497,9.791l0,0l-0.029,0.692l-0.678,0.14c-8.26,1.704-16.861,4.192-24.863,7.495l0,0
	c0.02,4.667,0.432,9.308,1.133,13.937l0,0c8.613,2.505,17.586,3.989,26.062,4.612l0,0l0.571,0.042l0.197,0.542
	c1.163,3.215,1.941,6.475,3.389,9.361l0,0l0.015,0.029l0.015,0.035c1.24,3.061,2.786,5.985,4.494,8.85l0,0l0.339,0.567l-0.45,0.487
	c-5.901,6.382-10.921,13.14-15.684,20.679l0,0c2.803,3.71,5.782,7.309,9.074,10.558l0,0c8.506-3.077,16.434-6.923,23.852-11.605l0,0
	l0.557-0.349l0.498,0.429c2.462,2.134,5.331,3.824,8.111,5.646l0,0c2.914,1.634,5.849,3.236,8.883,4.506l0,0l0.609,0.255
	l-0.071,0.659c-0.561,5.159-0.868,10.533-0.868,15.929l0,0c0,3.344,0.117,6.696,0.367,10.019l0,0
	C130.926,315.69,135.42,316.836,139.999,317.524L139.999,317.524z M131.69,259.265c-8.502-5.217-15.74-13.035-19.571-22.449l0,0
	c-2.648-5.993-3.899-12.422-3.899-18.887l0,0c0-3.596,0.387-7.202,1.143-10.777l0,0c2.406-9.87,7.558-18.906,15.284-25.513l0,0
	c7.543-6.851,17.447-10.773,27.382-11.805l0,0c1.396-0.128,2.799-0.19,4.207-0.19l0,0c8.671,0.002,17.439,2.376,24.874,6.803l0,0
	c8.502,5.22,15.738,13.038,19.566,22.451l0,0c2.651,5.992,3.902,12.421,3.902,18.885l0,0c0,3.595-0.387,7.199-1.14,10.78l0,0
	c-2.408,9.87-7.559,18.903-15.287,25.51l0,0c-7.542,6.856-17.447,10.776-27.37,11.806l0,0l-0.092-0.883l0.08,0.883
	c-1.397,0.126-2.801,0.188-4.209,0.188l0,0C147.887,266.065,139.119,263.692,131.69,259.265L131.69,259.265z M152.2,171.6
	c-9.587,0.994-19.148,4.792-26.38,11.37l0,0c-7.433,6.355-12.408,15.052-14.728,24.574l0,0c-0.726,3.432-1.099,6.916-1.099,10.385
	l0,0c0,6.238,1.208,12.419,3.76,18.192l0,0c3.669,9.033,10.648,16.594,18.855,21.625l0,0c7.127,4.251,15.603,6.548,23.952,6.546l0,0
	c1.352,0,2.699-0.058,4.038-0.179l0,0v-0.001c9.587-0.991,19.148-4.791,26.38-11.368l0,0c7.437-6.357,12.408-15.052,14.729-24.575
	l0,0c0.724-3.437,1.096-6.92,1.096-10.387l0,0c0-6.236-1.207-12.416-3.759-18.194l0,0c-3.669-9.028-10.646-16.589-18.853-21.623l0,0
	c-7.134-4.252-15.608-6.547-23.956-6.547l0,0C154.88,171.418,153.531,171.479,152.2,171.6L152.2,171.6z"/>
<path fill="#F7F7F7" d="M381.08,322.423l-0.613-0.021l-0.195-0.579c-2.706-7.881-4.964-16.002-6.771-23.959l0,0
	c-3.095-0.338-6.225-0.641-9.311-1.218l0,0c-3.146-0.458-6.215-1.177-9.267-1.865l0,0c-4.711,6.87-9.965,13.689-15.635,20.068l0,0
	l-0.381,0.428l-0.545-0.169c-4.344-1.352-8.585-2.976-12.754-4.722l0,0l-0.57-0.24l0.027-0.617
	c0.367-8.38,1.152-16.607,2.403-24.785l0,0c-2.845-1.373-5.558-2.945-8.272-4.494l0,0c-2.686-1.621-5.348-3.293-7.928-5.106l0,0
	c-6.936,4.782-14.192,9.108-21.827,13.095l0,0l-0.516,0.27l-0.453-0.366c-3.523-2.848-6.892-5.861-10.173-8.969l0,0l-0.455-0.43
	l0.253-0.57c3.405-7.729,7.069-15.104,11.176-22.273l0,0c-2.124-2.315-4.152-4.71-6.096-7.182l0,0
	c-1.898-2.472-3.825-4.961-5.565-7.611l0,0c-8.192,1.965-16.524,3.394-25.085,4.337l0,0l-0.582,0.065l-0.286-0.51
	c-2.224-3.937-4.356-7.944-6.232-12.083l0,0l-0.252-0.555l0.427-0.434c5.844-5.932,12.112-11.554,18.462-16.722l0,0
	c-1.099-2.918-2.201-5.86-3.06-8.881l0,0c-0.965-3.017-1.719-6.082-2.442-9.127l0,0c-8.262-1.158-16.674-2.833-24.936-5.052l0,0
	l-0.556-0.149l-0.09-0.568c-0.702-4.474-1.135-8.962-1.475-13.454l0,0l-0.048-0.622l0.573-0.255
	c7.698-3.421,15.433-6.405,23.255-8.941l0,0c0.026-3.124,0.08-6.259,0.336-9.384l0,0c0.168-3.168,0.591-6.298,1.011-9.397l0,0
	c-7.322-4.06-14.544-8.643-21.443-13.708l0,0l-0.463-0.341l0.12-0.56c0.948-4.438,2.145-8.823,3.528-13.139l0,0l0.188-0.581
	l0.611-0.032c3.884-0.204,7.761-0.301,11.626-0.301l0,0c4.439,0,8.863,0.13,13.27,0.39l0,0c1.098-2.959,2.422-5.806,3.721-8.642l0,0
	c1.346-2.844,2.792-5.638,4.351-8.377l0,0c-5.367-6.442-10.4-13.302-15.035-20.528l0,0l-0.312-0.486l0.32-0.482
	c2.504-3.778,5.208-7.405,7.995-10.954l0,0l0.387-0.491l0.592,0.198c8.015,2.69,15.659,5.633,23.201,9.078l0,0
	c2.106-2.331,4.321-4.548,6.584-6.736l0,0c2.295-2.107,4.6-4.252,7.07-6.233l0,0c-2.728-7.989-4.89-16.119-6.651-24.578l0,0
	l-0.12-0.577l0.484-0.335c3.717-2.567,7.51-5.057,11.447-7.317l0,0l0.529-0.303l0.473,0.385c6.448,5.265,12.642,11.002,18.36,16.824
	l0,0c2.809-1.349,5.634-2.727,8.562-3.861l0,0c2.919-1.267,5.914-2.265,8.863-3.283l0,0c0.399-8.315,1.279-16.893,2.75-25.296l0,0
	l0.099-0.562l0.554-0.144c4.397-1.133,8.853-1.954,13.29-2.693l0,0l0.615-0.104l0.306,0.548c4.104,7.379,7.762,14.69,11.011,22.336
	l0,0c3.129-0.309,6.26-0.466,9.396-0.54l0,0c1.067-0.013,2.142-0.021,3.218-0.021l0,0c2.065,0,4.141,0.035,6.219,0.163l0,0
	c3.365-7.711,7.242-15.26,11.648-22.627l0,0l0.297-0.497l0.577,0.074c4.478,0.575,8.97,1.283,13.405,2.294l0,0l0.592,0.135
	l0.089,0.602c1.209,8.257,1.934,16.583,2.223,24.802l0,0c3.024,0.849,6.005,1.827,8.942,2.904l0,0
	c2.972,1.064,5.877,2.276,8.749,3.552l0,0c5.904-5.897,12.307-11.608,19.064-16.851l0,0l0.453-0.352l0.508,0.271
	c3.997,2.14,7.857,4.497,11.646,6.963l0,0l0.522,0.339l-0.143,0.606c-1.932,8.21-4.171,16.099-6.91,23.93l0,0
	c2.529,1.881,4.917,3.901,7.327,5.931l0,0c2.296,2.1,4.64,4.197,6.84,6.473l0,0c7.716-3.459,15.59-6.343,23.87-8.895l0,0
	l0.564-0.175l0.377,0.453c2.894,3.471,5.707,7.014,8.332,10.716l0,0l0.355,0.501l-0.343,0.51
	c-4.684,6.933-9.774,13.589-15.049,19.833l0,0c1.604,2.678,3.222,5.369,4.638,8.166l0,0c1.527,2.785,2.811,5.667,4.082,8.525l0,0
	c3.213-0.153,6.454-0.229,9.713-0.229l0,0c5.22,0,10.479,0.2,15.733,0.621l0,0l0.57,0.046l0.194,0.539
	c1.535,4.273,2.803,8.642,3.902,13.027l0,0l0.149,0.596l-0.505,0.35c-6.893,4.749-13.939,9.079-21.224,13.006l0,0
	c0.621,3.103,0.971,6.214,1.417,9.326l0,0c0.257,3.096,0.606,6.218,0.692,9.387l0,0c8.021,2.638,15.814,5.808,23.617,9.499l0,0
	l0.53,0.25l-0.025,0.588c-0.183,4.509-0.465,9.035-1.051,13.547l0,0l-0.078,0.604l-0.592,0.145
	c-8.087,1.971-16.367,3.459-24.486,4.519l0,0c-0.598,3.059-1.206,6.147-2.063,9.166l0,0c-0.767,3.082-1.746,6.078-2.715,9.052l0,0
	c6.383,5.32,12.715,11.189,18.53,17.427l0,0l0.392,0.419l-0.222,0.531c-1.754,4.183-3.757,8.254-5.874,12.24l0,0l-0.29,0.548
	l-0.615-0.084c-8.33-1.149-16.418-2.668-24.461-4.675l0,0c-1.632,2.695-3.443,5.256-5.231,7.832l0,0
	c-1.877,2.498-3.763,5.012-5.813,7.415l0,0c4.153,7.367,7.745,14.942,11.041,22.94l0,0l0.221,0.542l-0.408,0.417
	c-3.17,3.227-6.454,6.331-9.878,9.294l0,0l-0.47,0.407l-0.542-0.302c-7.357-4.063-14.41-8.446-21.146-13.161l0,0
	c-2.506,1.871-5.061,3.7-7.708,5.392l0,0c-2.636,1.712-5.336,3.34-8.104,4.846l0,0c1.19,8.328,1.858,16.8,1.981,25.376l0,0
	l0.008,0.581l-0.528,0.24c-4.117,1.864-8.311,3.62-12.611,5.088l0,0l-0.575,0.194l-0.39-0.464
	c-5.371-6.384-10.358-13.076-14.925-19.924l0,0c-3.021,0.89-6.091,1.571-9.143,2.236l0,0c-3.08,0.627-6.176,1.17-9.305,1.568l0,0
	c-1.892,8.238-4.338,16.254-7.283,24.398l0,0l-0.202,0.557l-0.59,0.029c-3.168,0.147-6.34,0.255-9.52,0.255l0,0
	C383.777,322.482,382.43,322.465,381.08,322.423L381.08,322.423z M385.124,320.708c2.943,0,5.892-0.095,8.845-0.228l0,0
	c2.906-8.1,5.309-16.056,7.159-24.237l0,0l0.138-0.609l0.619-0.075c3.281-0.396,6.537-0.961,9.774-1.62l0,0
	c3.246-0.707,6.482-1.432,9.623-2.389l0,0l0.632-0.191l0.366,0.552c4.52,6.817,9.458,13.484,14.776,19.845l0,0
	c3.844-1.339,7.619-2.912,11.348-4.589l0,0c-0.147-8.512-0.835-16.918-2.042-25.178l0,0l-0.091-0.617l0.55-0.293
	c2.909-1.563,5.748-3.265,8.528-5.069l0,0c2.778-1.775,5.463-3.713,8.117-5.705l0,0l0.516-0.388l0.526,0.372
	c6.678,4.701,13.668,9.072,20.972,13.128l0,0c3.071-2.679,6.028-5.474,8.896-8.372l0,0c-3.29-7.936-6.877-15.441-11.025-22.74l0,0
	l-0.312-0.547l0.413-0.473c2.154-2.482,4.141-5.13,6.123-7.768l0,0c1.903-2.737,3.815-5.441,5.484-8.264l0,0l0.337-0.571
	l0.642,0.162c7.988,2.019,16.02,3.551,24.296,4.712l0,0c1.902-3.609,3.699-7.275,5.292-11.02l0,0
	c-5.789-6.167-12.092-11.977-18.436-17.239l0,0l-0.465-0.386l0.188-0.572c1.031-3.168,2.072-6.311,2.874-9.53l0,0
	c0.896-3.153,1.519-6.407,2.159-9.676l0,0l0.122-0.628l0.637-0.082c8.063-1.03,16.296-2.489,24.333-4.423l0,0
	c0.499-4.042,0.762-8.117,0.937-12.201l0,0c-7.76-3.646-15.503-6.767-23.474-9.36l0,0l-0.604-0.198l-0.011-0.634
	c-0.046-3.269-0.417-6.563-0.69-9.847l0,0c-0.479-3.315-0.843-6.604-1.527-9.808l0,0l-0.139-0.653l0.588-0.314
	c7.254-3.885,14.269-8.167,21.132-12.87l0,0c-1.007-3.953-2.154-7.879-3.511-11.72l0,0c-5.017-0.386-10.037-0.572-15.021-0.572l0,0
	c-3.435,0-6.851,0.086-10.233,0.257l0,0l-0.608,0.029l-0.245-0.554c-1.356-3.046-2.688-6.077-4.277-8.975l0,0
	c-1.484-2.934-3.203-5.765-4.916-8.627l0,0l-0.326-0.545l0.411-0.484c5.254-6.185,10.325-12.786,14.996-19.656l0,0
	c-2.372-3.311-4.903-6.507-7.514-9.651l0,0c-8.219,2.556-16.021,5.441-23.669,8.9l0,0l-0.577,0.261l-0.434-0.459
	c-2.256-2.382-4.724-4.591-7.156-6.815l0,0c-2.553-2.15-5.076-4.284-7.734-6.224l0,0l-0.535-0.39l0.222-0.621
	c2.748-7.775,4.992-15.604,6.929-23.759l0,0c-3.43-2.218-6.907-4.336-10.483-6.273l0,0c-6.688,5.222-13.031,10.91-18.872,16.778l0,0
	l-0.432,0.434l-0.559-0.25c-3.028-1.354-6.078-2.637-9.188-3.751l0,0c-3.106-1.14-6.251-2.161-9.436-3.037l0,0l-0.632-0.175
	l-0.02-0.653c-0.265-8.166-0.964-16.442-2.141-24.65l0,0c-3.978-0.882-8.02-1.526-12.068-2.057l0,0
	c-4.353,7.327-8.179,14.831-11.497,22.497l0,0l-0.25,0.577l-0.626-0.046c-2.226-0.158-4.469-0.2-6.719-0.2l0,0
	c-1.067,0-2.133,0.008-3.187,0.021l0,0c-3.311,0.076-6.611,0.249-9.893,0.598l0,0l-0.657,0.07l-0.255-0.607
	c-3.206-7.608-6.816-14.879-10.88-22.222l0,0c-4.021,0.677-8.028,1.426-11.967,2.418l0,0c-1.434,8.337-2.281,16.857-2.656,25.105
	l0,0l-0.027,0.603l-0.566,0.196c-3.153,1.091-6.302,2.125-9.339,3.443l0,0c-3.061,1.184-6.03,2.652-9.039,4.095l0,0l-0.574,0.274
	l-0.443-0.455c-5.66-5.79-11.801-11.505-18.186-16.755l0,0c-3.521,2.045-6.939,4.28-10.309,6.598l0,0
	c1.769,8.398,3.939,16.461,6.674,24.38l0,0l0.207,0.598l-0.498,0.39c-2.582,2.026-5.006,4.282-7.445,6.521l0,0
	c-2.386,2.311-4.722,4.65-6.913,7.112l0,0l-0.438,0.493l-0.596-0.276c-7.481-3.448-15.064-6.39-23.026-9.08l0,0
	c-2.511,3.214-4.94,6.483-7.203,9.862l0,0c4.619,7.163,9.636,13.957,14.982,20.335l0,0l0.398,0.474l-0.31,0.537
	c-1.649,2.869-3.176,5.798-4.587,8.779l0,0c-1.388,3.031-2.784,6.034-3.888,9.118l0,0l-0.223,0.627l-0.666-0.042
	c-4.589-0.282-9.198-0.426-13.821-0.426l0,0c-3.632,0-7.273,0.087-10.92,0.266l0,0c-1.231,3.893-2.306,7.84-3.175,11.824l0,0
	c6.86,5.004,14.041,9.532,21.317,13.538l0,0l0.533,0.293l-0.082,0.604c-0.446,3.298-0.906,6.582-1.081,9.88l0,0
	c-0.27,3.281-0.312,6.588-0.337,9.918l0,0l-0.004,0.642l-0.611,0.196c-7.774,2.497-15.461,5.437-23.116,8.815l0,0
	c0.315,4.064,0.713,8.107,1.322,12.117l0,0c8.207,2.179,16.563,3.817,24.762,4.943l0,0l0.601,0.083l0.141,0.592
	c0.764,3.234,1.546,6.455,2.555,9.612l0,0c0.899,3.157,2.072,6.251,3.248,9.366l0,0l0.228,0.598l-0.499,0.404
	c-6.319,5.116-12.562,10.685-18.381,16.559l0,0c1.704,3.699,3.614,7.312,5.618,10.877l0,0c8.498-0.959,16.765-2.404,24.89-4.379l0,0
	l0.613-0.151l0.343,0.534c1.771,2.76,3.795,5.377,5.817,8.013l0,0c2.045,2.597,4.189,5.115,6.439,7.542l0,0l0.444,0.478
	l-0.327,0.569c-4.1,7.108-7.76,14.421-11.16,22.096l0,0c2.972,2.797,6.007,5.508,9.161,8.079l0,0
	c7.574-3.979,14.765-8.295,21.633-13.063l0,0l0.514-0.356l0.508,0.362c2.682,1.915,5.48,3.676,8.305,5.382l0,0
	c2.893,1.651,5.754,3.309,8.729,4.703l0,0l0.602,0.28l-0.103,0.659c-1.269,8.124-2.073,16.298-2.458,24.625l0,0
	c3.771,1.568,7.592,3.023,11.479,4.254l0,0c5.605-6.347,10.801-13.13,15.455-19.958l0,0l0.339-0.499l0.588,0.133
	c3.26,0.733,6.477,1.502,9.756,1.979l0,0c3.218,0.603,6.521,0.904,9.842,1.272l0,0l0.628,0.069l0.141,0.617
	c1.773,7.9,3.995,15.974,6.657,23.811l0,0C382.872,320.695,383.997,320.708,385.124,320.708L385.124,320.708z M368.757,268.977
	l0.143-0.876l-0.145,0.874c-8.836-1.46-17.467-4.126-25.63-7.848l0,0l-0.906-0.413l25-41.555l0.683,0.238
	c5.554,1.946,11.519,3.016,17.736,3.016l0,0c0.692,0,1.39-0.025,2.096-0.053l0,0l0.72-0.029l11.686,46.959l-0.981,0.133
	c-4.535,0.61-9.107,0.912-13.674,0.912l0,0C379.869,270.335,374.265,269.876,368.757,268.977L368.757,268.977z M385.483,268.562
	c4.157,0,8.321-0.255,12.454-0.771l0,0l-10.856-43.633c-0.475,0.017-0.955,0.028-1.443,0.028l0,0c-6.167,0-12.098-1.02-17.64-2.881
	l0,0L344.77,259.92c7.753,3.447,15.923,5.924,24.275,7.307l0,0l0,0C374.459,268.112,379.967,268.562,385.483,268.562
	L385.483,268.562z M408.254,217.433l0.65-0.314c6.108-2.942,11.565-7.016,16.121-11.938l0,0l0.49-0.531l41.599,25.026l-0.606,0.789
	c-7.083,9.211-15.732,17.205-25.455,23.503l0,0c-6.337,4.105-13.121,7.467-20.189,10.069l0,0l-0.931,0.34L408.254,217.433
	L408.254,217.433z M421.177,262.026c6.616-2.507,12.965-5.695,18.911-9.547l0,0c9.273-6.006,17.559-13.588,24.404-22.31l0,0
	l-38.661-23.257c-4.438,4.675-9.678,8.582-15.507,11.486l0,0L421.177,262.026L421.177,262.026z M323.916,249.671
	c-6.983-5.28-13.302-11.442-18.707-18.314l0,0c-6.491-8.233-11.653-17.458-15.326-27.248l0,0l-0.35-0.933l47.431-11.799l0.313,0.65
	c2.942,6.106,7.016,11.563,11.938,16.119l0,0l0.53,0.488l-24.534,40.786l-0.51,0.845L323.916,249.671L323.916,249.671z
	 M324.451,248.964l0.535-0.708L324.451,248.964L324.451,248.964z M306.604,230.259c5.105,6.492,11.045,12.342,17.6,17.397l0,0
	l23.281-38.704c-4.675-4.438-8.582-9.678-11.486-15.507l0,0l-44.099,10.972C295.484,213.692,300.433,222.435,306.604,230.259
	L306.604,230.259z M436.038,187.177l0.238-0.682c1.946-5.552,3.016-11.517,3.016-17.736l0,0c0-0.693-0.025-1.39-0.053-2.096l0,0
	l-0.029-0.72l47.523-11.824l0.131,0.983c0.065,0.501,0.158,1.026,0.221,1.586l0,0c0.419,3.814,0.628,7.639,0.628,11.458l0,0
	c0,8.776-1.11,17.519-3.338,25.994l0,0c-1.549,5.908-3.65,11.675-6.239,17.219l0,0l-0.419,0.893L436.038,187.177L436.038,187.177z
	 M476.941,209.713c2.355-5.174,4.279-10.539,5.719-16.023l0,0c2.188-8.326,3.279-16.917,3.279-25.543l0,0
	c0-3.753-0.206-7.515-0.617-11.257l0,0c-0.021-0.187-0.047-0.377-0.075-0.572l0,0l-44.21,10.998
	c0.017,0.475,0.028,0.956,0.028,1.444l0,0c0,6.168-1.02,12.098-2.879,17.641l0,0L476.941,209.713L476.941,209.713z M358.588,168.759
	c0.002-14.939,12.112-27.047,27.05-27.049l0,0c14.938,0.002,27.05,12.11,27.05,27.049l0,0c0,14.938-12.111,27.047-27.05,27.05l0,0
	v-0.887v-0.89c13.96-0.024,25.249-11.316,25.273-25.273l0,0c-0.024-13.959-11.313-25.249-25.273-25.274l0,0
	c-13.958,0.025-25.249,11.314-25.274,25.274l0,0c0.025,13.957,11.316,25.249,25.274,25.273l0,0v0.89v0.887
	C370.7,195.806,358.59,183.698,358.588,168.759L358.588,168.759z M284.358,182.434c-0.674-4.782-1.023-9.616-1.023-14.437l0,0
	c0-2.422,0.086-4.84,0.268-7.243l0,0c0.859-12.066,3.907-23.93,8.938-34.945l0,0l0.413-0.904l42.283,25.436L335,151.023
	c-1.947,5.554-3.017,11.517-3.017,17.736l0,0c0,0.693,0.024,1.39,0.053,2.098l0,0l0.027,0.72l-46.612,11.596l-0.956,0.236
	L284.358,182.434L284.358,182.434z M285.237,182.312l0.878-0.124L285.237,182.312L285.237,182.312z M285.372,160.882
	c-0.177,2.361-0.263,4.735-0.263,7.115l0,0c0,4.407,0.298,8.831,0.874,13.215l0,0l44.256-11.007
	c-0.016-0.475-0.028-0.957-0.028-1.446l0,0c0-6.167,1.021-12.097,2.88-17.64l0,0l-39.344-23.668
	C289.046,138.019,286.191,149.359,285.372,160.882L285.372,160.882z M433.997,145.493c-2.942-6.108-7.016-11.565-11.939-16.121l0,0
	l-0.529-0.491l24.958-41.489l0.513-0.851l0.789,0.606c1.721,1.321,3.421,2.684,5.062,4.122l0,0
	c9.486,8.309,17.418,18.37,23.233,29.509l0,0c2.131,4.067,3.97,8.275,5.526,12.589l0,0l0.333,0.924l-47.631,11.849L433.997,145.493
	L433.997,145.493z M435.277,144.073l44.324-11.025c-1.455-3.917-3.148-7.744-5.09-11.448l0,0
	c-5.712-10.941-13.509-20.832-22.831-28.996l0,0c-1.355-1.189-2.757-2.329-4.187-3.443l0,0l-23.705,39.403
	C428.465,133.002,432.37,138.243,435.277,144.073L435.277,144.073z M303.391,107.379l0.594-0.786
	c3.382-4.484,7.116-8.709,11.197-12.574l0,0c9.146-8.686,19.877-15.63,31.505-20.394l0,0c1.137-0.463,2.282-0.901,3.433-1.323l0,0
	l0.927-0.339l11.972,48.124l-0.648,0.312c-6.106,2.944-11.565,7.016-16.119,11.94l0,0l-0.492,0.528L303.391,107.379L303.391,107.379
	z M345.442,130.608c4.438-4.675,9.679-8.582,15.509-11.488l0,0l-11.148-44.807c-0.821,0.309-1.637,0.626-2.444,0.956l0,0
	c-11.424,4.678-21.97,11.504-30.954,20.038l0,0l-0.611-0.643l0.609,0.643c-3.768,3.567-7.238,7.452-10.406,11.571l0,0
	L345.442,130.608L345.442,130.608z M403.374,118.121c-5.555-1.946-11.52-3.016-17.736-3.016l0,0c-0.693,0-1.391,0.027-2.098,0.053
	l0,0l-0.721,0.027l-11.981-48.166l0.979-0.135c3.871-0.526,7.775-0.83,11.69-0.895l0,0v0.002c0.68-0.015,1.36-0.023,2.043-0.023l0,0
	c11.906,0,23.771,2.074,34.952,6.156l0,0c2.773,1.013,5.499,2.154,8.174,3.403l0,0l0.894,0.415l-25.515,42.416L403.374,118.121
	L403.374,118.121z M403.275,116.211l23.756-39.489c-2.344-1.067-4.722-2.05-7.137-2.93l0,0c-10.983-4.012-22.644-6.051-34.344-6.051
	l0,0c-0.669,0-1.339,0.009-2.011,0.021l0,0l-0.017-0.885l0.012,0.887c-3.513,0.056-7.018,0.311-10.497,0.75l0,0l11.155,44.845
	c0.476-0.016,0.956-0.028,1.444-0.028l0,0C391.804,113.332,397.733,114.352,403.275,116.211L403.275,116.211z"/>
</svg>
