<?xml version="1.0" encoding="UTF-8" standalone="no"?>
<!-- Created with Inkscape (http://www.inkscape.org/) -->

<svg
   xmlns:ns="&amp;ns_sfw;"
   xmlns:dc="http://purl.org/dc/elements/1.1/"
   xmlns:cc="http://creativecommons.org/ns#"
   xmlns:rdf="http://www.w3.org/1999/02/22-rdf-syntax-ns#"
   xmlns:svg="http://www.w3.org/2000/svg"
   xmlns="http://www.w3.org/2000/svg"
   version="1.2"
   width="598.19098"
   height="350.25699"
   viewBox="0 0 598.191 350.257"
   id="Layer_3"
   xml:space="preserve"><defs
   id="defs11" />
<metadata
   id="metadata3">
	<ns:sfw>
		<ns:slices />
		<ns:sliceSourceBounds
   bottomLeftOrigin="true"
   height="316.885"
   width="315.891"
   y="378.561"
   x="804.974" />
	</ns:sfw>
<rdf:RDF><cc:Work
     rdf:about=""><dc:format>image/svg+xml</dc:format><dc:type
       rdf:resource="http://purl.org/dc/dcmitype/StillImage" /><dc:title></dc:title></cc:Work></rdf:RDF></metadata>
<g
   id="g5">
	<path
   d="m 296.875,21.25 c -5.36402,0.156128 -10.71024,0.667378 -16.03125,1.34375 -1.31608,6.03046 -2.60547,12.066816 -3.9375,18.09375 -4.27334,0.921355 -8.45212,1.732996 -12.65625,2.9375 -3.74178,-4.941506 -7.61466,-9.783722 -11.40625,-14.6875 -13.09226,4.31791 -25.64219,10.340033 -37.21875,17.96875 1.44001,6.020228 2.86118,12.045 4.3125,18.0625 -3.85166,2.034825 -7.21951,7.109719 -11.04582,7.605695 -5.24113,-2.605687 -10.49096,-5.194118 -15.73543,-7.793195 -9.95484,9.587615 -18.59161,20.470731 -25.8125,32.3125 3.92583,4.80311 7.86116,9.59846 11.78125,14.40625 -2.61324,3.47557 -3.35892,9.54234 -6.65625,11.65625 -5.86462,-0.0557 -11.72916,-0.12615 -17.59375,-0.1875 -4.77218,12.95885 -7.94684,26.5924 -9.15625,40.3125 5.61346,2.62739 11.2354,5.23675 16.84375,7.875 -0.84367,4.2658 1.03932,10.02805 -0.90374,13.36559 -5.31188,2.48539 -10.62692,4.96408 -15.94001,7.44691 1.23595,13.75549 4.37478,27.31099 9.15625,40.3125 6.19795,-0.0572 12.39567,-0.15427 18.59375,-0.1875 1.14118,4.19982 5.34326,8.57962 5.02566,12.43236 -3.71536,4.54463 -7.43403,9.08655 -11.15066,13.63014 7.21856,11.84177 15.86343,22.72569 25.8125,32.3125 5.53842,-2.75643 11.10117,-5.46462 16.625,-8.25 2.85349,3.29546 8.5281,5.43945 9.91929,9.03402 -1.36177,5.69621 -2.71647,11.39412 -4.07554,17.09098 11.60479,7.66407 24.01247,13.60546 37.21875,18 3.79673,-4.88953 7.63367,-9.74815 11.40625,-14.65625 4.01605,1.72243 10.01958,1.16768 12.87066,3.82049 1.24246,5.71578 2.48182,11.43223 3.72309,17.14826 13.68976,1.88121 27.61913,1.85585 41.3125,0.0312 1.3138,-6.0518 2.61784,-12.10573 3.9375,-18.15625 4.38462,0.0736 9.9484,-3.71413 13.4375,-1.8125 3.99472,3.9978 7.05125,11.18416 11.60075,13.29648 12.7939,-4.30872 25.00271,-10.26219 36.27425,-17.64023 -1.44019,-6.0306 -2.8601,-12.06609 -4.3125,-18.09375 3.82717,-2.00389 7.20716,-7.11299 11.01457,-7.6057 5.25177,2.61567 10.51176,5.21503 15.76668,7.82445 9.93906,-9.68409 18.61896,-20.44388 25.75,-32.3125 -3.90602,-4.80227 -7.81376,-9.60314 -11.71875,-14.40625 2.58655,-3.55963 3.34472,-9.48398 6.625,-11.6875 5.86462,0.0557 11.72916,0.12615 17.59375,0.1875 4.80865,-12.91796 7.92126,-26.53269 9.1875,-40.3125 -5.61346,-2.62739 -11.2354,-5.23675 -16.84375,-7.875 0.18632,-4.31133 0.18485,-8.62616 0,-12.9375 5.60843,-2.63807 11.23024,-5.24772 16.84375,-7.875 -1.28008,-13.76945 -4.37918,-27.4079 -9.1875,-40.28125 -6.19795,0.0572 -12.39567,0.15427 -18.59375,0.1875 -1.20474,-4.22221 -5.29558,-8.55906 -4.99441,-12.46361 3.69578,-4.54361 7.39215,-9.08672 11.08816,-13.63014 -7.16727,-11.955537 -15.85337,-22.679453 -25.75,-32.3125 -5.54869,2.756733 -11.12292,5.462764 -16.65625,8.25 -2.85842,-3.27644 -8.55042,-5.400741 -9.88804,-9.03402 1.36203,-5.706562 2.71643,-11.414964 4.07554,-17.12223 -11.54147,-7.53418 -24.14926,-13.673494 -37.25,-17.9375 -3.79627,4.879471 -7.63606,9.725456 -11.40625,14.625 -4.00296,-1.709361 -10.08675,-1.103463 -12.87576,-3.85061 -1.2435,-5.705125 -2.47796,-11.412249 -3.71799,-17.11814 C 313.77893,21.49128 305.32481,20.96239 296.875,21.25 z m 2.90625,6.3125 c 5.71751,-0.054 11.44047,0.189665 17.125,0.8125 1.31504,5.976318 2.60202,11.958806 3.90625,17.9375 6.88813,1.014799 13.67397,2.57185 20.3125,4.65625 3.75544,-4.837154 7.55345,-9.641613 11.28125,-14.5 9.7213,3.485431 18.95556,7.979406 27.75,13.34375 -1.42719,5.968723 -2.85415,11.937504 -4.28125,17.90625 5.72257,3.936824 11.24151,8.220832 16.28125,12.96875 5.48878,-2.720366 10.98444,-5.426901 16.46875,-8.15625 7.15382,7.300419 13.56048,15.428425 19.21875,24.0625 -3.90057,4.72894 -7.7458,9.50346 -11.625,14.25 3.45778,6.03797 6.52436,12.28561 9.03125,18.78125 6.12503,-0.0576 12.24982,-0.1568 18.375,-0.1875 3.36273,9.7103 5.56763,19.77466 6.875,29.96875 -5.55646,2.5948 -11.10345,5.20986 -16.65625,7.8125 0.49809,6.93906 0.49452,13.90464 0,20.84375 5.55242,2.59302 11.10193,5.1923 16.65625,7.78125 -1.30404,10.20441 -3.5156,20.27937 -6.875,30 -6.12518,-0.03 -12.24997,-0.13032 -18.375,-0.1875 -2.53319,6.49647 -5.53748,12.69756 -9.03125,18.75 3.8788,4.74687 7.72498,9.52061 11.625,14.25 -5.64312,8.64065 -12.02583,16.7165 -19.21875,24.0625 -5.4842,-2.72957 -10.98005,-5.43572 -16.46875,-8.15625 -5.06052,4.75963 -10.59551,9.0631 -16.3125,13 1.42692,5.95837 2.85526,11.9164 4.28125,17.875 -8.77784,5.36823 -18.00156,9.87931 -27.71875,13.34375 -3.72706,-4.85896 -7.52634,-9.66243 -11.28125,-14.5 -6.62409,2.09541 -13.40851,3.63623 -20.3125,4.65625 -1.30402,5.97874 -2.5915,11.96112 -3.90625,17.9375 -10.2315,1.10625 -20.58079,1.0784 -30.8125,0 -1.31504,-5.97632 -2.60202,-11.95881 -3.90625,-17.9375 -6.91019,-1.01458 -13.65484,-2.57004 -20.3125,-4.65625 -3.75725,4.84619 -7.54164,9.67147 -11.28125,14.53125 -9.68168,-3.54176 -18.94071,-8.0116 -27.71875,-13.375 1.42719,-5.96872 2.85415,-11.9375 4.28125,-17.90625 -5.74946,-3.95362 -11.23658,-8.21793 -16.3125,-12.96875 -5.47852,2.72006 -10.96257,5.42899 -16.4375,8.15625 -7.19188,-7.34472 -13.65228,-15.41597 -19.1875,-24.0625 3.85276,-4.75958 7.73112,-9.49841 11.59375,-14.25 -3.48966,-6.02334 -6.52216,-12.29011 -9.03125,-18.78125 -6.13544,0.0577 -12.27066,0.15668 -18.40625,0.1875 -3.29467,-9.6751 -5.58936,-19.73695 -6.8125,-29.96875 5.53477,-2.61875 11.08447,-5.20593 16.625,-7.8125 -0.51803,-6.93712 -0.51111,-13.9065 0,-20.84375 -5.54032,-2.5966 -11.0921,-5.16891 -16.625,-7.78125 1.21374,-10.25768 3.54325,-20.32751 6.8125,-30.03125 6.13493,0.10278 12.27091,0.14093 18.40625,0.21875 2.53271,-6.47216 5.53933,-12.73881 9.03125,-18.75 -3.86282,-4.75143 -7.74072,-9.49064 -11.59375,-14.25 5.50101,-8.67091 12.05168,-16.647957 19.125,-24.09375 5.48198,2.76498 11.00291,5.45255 16.5,8.1875 5.07797,-4.753363 10.56472,-9.014228 16.3125,-12.96875 -1.4271,-5.968746 -2.85406,-11.937526 -4.28125,-17.90625 8.77553,-5.344364 18.00738,-9.805465 27.71875,-13.375 3.73923,4.860073 7.52428,9.684849 11.28125,14.53125 6.66158,-2.068611 13.41315,-3.605629 20.3125,-4.65625 1.30402,-5.978741 2.5915,-11.961118 3.90625,-17.9375 4.54531,-0.499731 9.11589,-0.747605 13.6875,-0.8125 z m -0.5625,105.75 c -23.7033,0.5982 -43.86759,22.9091 -42.03125,46.625 0.63075,23.73832 22.89346,43.85889 46.625,42.03125 23.79144,-0.67506 43.85961,-22.89601 42.03125,-46.625 -0.74447,-23.85101 -22.72356,-43.75407 -46.625,-42.03125 z m 1.3125,6.3125 c 21.73938,-1.16383 41.1887,19.24682 38.875,40.90625 -1.0131,21.31896 -22.56579,38.58216 -43.65625,34.65625 -21.55502,-2.67026 -37.12445,-26.08003 -31.03125,-47.0625 3.91478,-16.04851 19.17387,-28.27383 35.8125,-28.5 z"
   id="path7"
   style="fill:#f4f4f4" />
</g>
</svg>