<?xml version="1.0" encoding="UTF-8" standalone="no"?>
<svg
   xmlns:dc="http://purl.org/dc/elements/1.1/"
   xmlns:cc="http://creativecommons.org/ns#"
   xmlns:rdf="http://www.w3.org/1999/02/22-rdf-syntax-ns#"
   xmlns:svg="http://www.w3.org/2000/svg"
   xmlns="http://www.w3.org/2000/svg"
   xmlns:sodipodi="http://sodipodi.sourceforge.net/DTD/sodipodi-0.dtd"
   xmlns:inkscape="http://www.inkscape.org/namespaces/inkscape"
   height="79.22"
   width="566.93"
   version="1.1"
   id="svg5778"
   sodipodi:docname="system.svg"
   inkscape:version="0.92.2 (5c3e80d, 2017-08-06)">
  <metadata
     id="metadata5784">
    <rdf:RDF>
      <cc:Work
         rdf:about="">
        <dc:format>image/svg+xml</dc:format>
        <dc:type
           rdf:resource="http://purl.org/dc/dcmitype/StillImage" />
        <dc:title></dc:title>
      </cc:Work>
    </rdf:RDF>
  </metadata>
  <defs
     id="defs5782" />
  <sodipodi:namedview
     pagecolor="#ffffff"
     bordercolor="#666666"
     borderopacity="1"
     objecttolerance="10"
     gridtolerance="10"
     guidetolerance="10"
     inkscape:pageopacity="0"
     inkscape:pageshadow="2"
     inkscape:window-width="1920"
     inkscape:window-height="1017"
     id="namedview5780"
     showgrid="false"
     inkscape:pagecheckerboard="true"
     inkscape:zoom="2.5399962"
     inkscape:cx="283.465"
     inkscape:cy="39.610001"
     inkscape:window-x="1912"
     inkscape:window-y="-8"
     inkscape:window-maximized="1"
     inkscape:current-layer="svg5778" />
  <g
     fill="#fff"
     id="g5774"
     style="fill:#000000;fill-opacity:1">
    <path
       d="M123.44 3.44c3.07-3.94 9.43-4.6 13.2-1.31 1.55 1.3 2.63 3.09 3.18 5.02 6.98 24.02 14 48.03 20.97 72.06h-12.37c-1.94-6.62-3.84-13.26-5.76-19.89-7.96-.02-15.93 0-23.9 0-1.94 6.62-3.87 13.25-5.79 19.89h-12.29c6.63-22.92 13.27-45.84 19.94-68.75.79-2.39 1.09-5.07 2.82-7.02m7.27 14.71c-2.92 9.96-5.78 19.93-8.69 29.89 5.8.02 11.58 0 17.37 0l-8.68-29.89zM210.23 3.95A9.45 9.45 0 0 1 220.18.3c3.35.77 5.9 3.65 6.8 6.9l20.94 72c-4.13.03-8.25 0-12.38.02-1.91-6.63-3.81-13.27-5.74-19.9-7.96 0-15.91-.01-23.86.01-1.9 6.64-3.86 13.25-5.77 19.89H187.9c6.63-23.04 13.34-46.06 20.02-69.09.7-2.08.97-4.37 2.32-6.17m-1 44.1h17.3c-2.87-9.98-5.79-19.96-8.65-29.94-2.88 9.98-5.79 19.95-8.65 29.94zM151.56.17h44.71v12.06c-5.49 0-10.97-.01-16.46 0v66.98h-11.8l.01-66.98c-5.49-.01-10.97 0-16.46 0V.17zM261.02.66a10.1 10.1 0 0 1 3.54-.5c4.7.02 9.4 0 14.1 0a21.86 21.86 0 0 1 18.9 12.19c2.36 4.62 2.6 10 2.01 15.08-.41 5.3-2.64 10.62-6.72 14.14-2.16 1.93-4.85 3.1-7.16 4.8-1.27.97-1.33 2.84-.67 4.19 6.23 9.63 12.72 19.1 19.09 28.65h-13.97c-6.1-9.15-12.13-18.35-18.2-27.52a10.18 10.18 0 0 1-1.2-9.05c.83-2.28 2.82-3.95 5.05-4.82 4.24-1.61 8.43-4.16 10.78-8.17 1.79-3 1.7-6.72.9-10.02-.95-4.28-5.12-7.64-9.52-7.5-3.05.03-6.1-.01-9.13.02-1.38-.03-2.67 1.17-2.66 2.56v64.5h-11.88V9.77a9.9 9.9 0 0 1 6.74-9.11zM310.33.17h12.5V79.2h-12.5V.16z"
       id="path5772"
       style="fill:#000000;fill-opacity:1" />
  </g>
  <path
     d="M527.33 79.2a39.65 39.65 0 0 1-39.6-39.6A39.65 39.65 0 0 1 527.32 0a39.65 39.65 0 0 1 39.6 39.6 39.65 39.65 0 0 1-39.6 39.6zm0-76.3a36.74 36.74 0 0 0-36.7 36.7 36.74 36.74 0 0 0 36.7 36.7 36.74 36.74 0 0 0 36.7-36.7 36.74 36.74 0 0 0-36.7-36.7zm0 63.68a27 27 0 0 1-26.98-26.97c0-14.88 12.1-26.98 26.98-26.98s26.97 12.1 26.97 26.98a27 27 0 0 1-26.97 26.97zm0-51.04a24.1 24.1 0 0 0-24.07 24.07 24.1 24.1 0 0 0 24.07 24.06 24.1 24.1 0 0 0 24.06-24.06 24.1 24.1 0 0 0-24.06-24.07zM446.26 79.2a39.65 39.65 0 0 1-39.6-39.6A39.65 39.65 0 0 1 446.25 0a39.65 39.65 0 0 1 39.6 39.6 39.65 39.65 0 0 1-39.6 39.6zm0-76.3a36.74 36.74 0 0 0-36.7 36.7c0 20.24 16.47 36.7 36.7 36.7s36.69-16.46 36.69-36.7a36.73 36.73 0 0 0-36.7-36.7zm0 63.68a27 27 0 0 1-26.98-26.97 27 27 0 0 1 26.98-26.98 27 27 0 0 1 26.97 26.98 27 27 0 0 1-26.97 26.97zm0-51.04a24.1 24.1 0 0 0-24.07 24.07c0 13.27 10.8 24.06 24.07 24.06s24.06-10.8 24.06-24.06a24.1 24.1 0 0 0-24.06-24.07zM378.4 79.2a27.77 27.77 0 0 1-27.74-27.73c0-9.18 4.64-17.84 12.2-22.98A18.5 18.5 0 0 1 378.4 0a18.5 18.5 0 0 1 15.54 28.5 27.9 27.9 0 0 1 12.2 22.98A27.77 27.77 0 0 1 378.4 79.2zm0-76.3A15.6 15.6 0 0 0 366.08 28l1 1.3-1.4.84a24.97 24.97 0 0 0-12.1 21.33A24.86 24.86 0 0 0 378.4 76.3a24.86 24.86 0 0 0 24.83-24.83c0-8.7-4.64-16.86-12.1-21.33l-1.41-.84 1-1.3A15.6 15.6 0 0 0 378.4 2.9zm0 64.8a16.24 16.24 0 0 1-16.23-16.23c0-8.95 7.28-16.23 16.23-16.23s16.23 7.28 16.23 16.23-7.28 16.22-16.23 16.22zm0-29.55a13.33 13.33 0 0 0-13.32 13.32c0 7.34 5.98 13.32 13.32 13.32s13.32-5.98 13.32-13.32-5.98-13.32-13.32-13.32zm0-11.51a8.16 8.16 0 0 1 0-16.3 8.16 8.16 0 0 1 0 16.3zm0-13.4a5.25 5.25 0 1 0 .01 10.5 5.25 5.25 0 0 0-.01-10.5zM70.45 0H8.76A8.79 8.79 0 0 0 0 8.77v61.69a8.79 8.79 0 0 0 8.76 8.76h61.7a8.79 8.79 0 0 0 8.76-8.76V8.76A8.79 8.79 0 0 0 70.45 0zM34.27 31.85c-.18 3.69-.4 7.39-1.02 11.04a28.14 28.14 0 0 1-2.37 7.24c-1.76 3.71-4.53 6.86-7.64 9.5a28.6 28.6 0 0 1-9.6 5.43c-1.97.69-4 1.2-6.07 1.5v-7.71c2.49-.38 4.89-1.26 7.11-2.43a25.65 25.65 0 0 0 7.02-5.49 29.21 29.21 0 0 0 4.96-7.74 38.58 38.58 0 0 0 2.8-10.21c.67-4.45.95-8.94 1.05-13.43.02-1.52 0-3.04.01-4.56h3.91v9.19c.02 2.56-.05 5.11-.16 7.67zm8.93-16.87v51.58c-2.39 0-4.78-.01-7.18.01-.03-5.48 0-10.97-.01-16.44V14.98c2.4-.02 4.8 0 7.2 0zm28.45 51.58a32.37 32.37 0 0 1-12.7-4.7 31.37 31.37 0 0 1-4.22-3.35 28.8 28.8 0 0 1-5.6-6.9 30.25 30.25 0 0 1-2.65-6.4c-.6-2.24-.85-4.55-1.09-6.85a154 154 0 0 1-.58-14.92v-8.46h3.88c-.04 5.25.14 10.5.77 15.7.5 4.05 1.23 8.13 2.84 11.9a28.84 28.84 0 0 0 6.6 9.76 25.25 25.25 0 0 0 9.66 5.78c1.01.32 2.04.57 3.09.73v7.7z"
     fill="#fff"
     id="path5776"
     style="fill:#000000;fill-opacity:1" />
</svg>
