<?xml version="1.0" encoding="UTF-8" standalone="no"?>
<svg
   xmlns:dc="http://purl.org/dc/elements/1.1/"
   xmlns:cc="http://creativecommons.org/ns#"
   xmlns:rdf="http://www.w3.org/1999/02/22-rdf-syntax-ns#"
   xmlns:svg="http://www.w3.org/2000/svg"
   xmlns="http://www.w3.org/2000/svg"
   xmlns:sodipodi="http://sodipodi.sourceforge.net/DTD/sodipodi-0.dtd"
   xmlns:inkscape="http://www.inkscape.org/namespaces/inkscape"
   height="84.220001"
   width="579.92999"
   version="1.1"
   id="svg5778"
   sodipodi:docname="system.svg"
   inkscape:version="0.92.2 (5c3e80d, 2017-08-06)">
  <metadata
     id="metadata5784">
    <rdf:RDF>
      <cc:Work
         rdf:about="">
        <dc:format>image/svg+xml</dc:format>
        <dc:type
           rdf:resource="http://purl.org/dc/dcmitype/StillImage" />
        <dc:title></dc:title>
      </cc:Work>
    </rdf:RDF>
  </metadata>
  <defs
     id="defs5782" />
  <sodipodi:namedview
     pagecolor="#ffffff"
     bordercolor="#666666"
     borderopacity="1"
     objecttolerance="10"
     gridtolerance="10"
     guidetolerance="10"
     inkscape:pageopacity="0"
     inkscape:pageshadow="2"
     inkscape:window-width="1920"
     inkscape:window-height="1017"
     id="namedview5780"
     showgrid="false"
     inkscape:pagecheckerboard="true"
     inkscape:zoom="0.89802427"
     inkscape:cx="359.22938"
     inkscape:cy="98.320354"
     inkscape:window-x="1912"
     inkscape:window-y="-8"
     inkscape:window-maximized="1"
     inkscape:current-layer="svg5778" />
  <g
     id="g5774"
     style="fill:#000000;fill-opacity:1"
     transform="translate(6,2.9999843)">
    <path
       d="m 123.44,3.44 c 3.07,-3.94 9.43,-4.6 13.2,-1.31 1.55,1.3 2.63,3.09 3.18,5.02 6.98,24.02 14,48.03 20.97,72.06 h -12.37 c -1.94,-6.62 -3.84,-13.26 -5.76,-19.89 -7.96,-0.02 -15.93,0 -23.9,0 -1.94,6.62 -3.87,13.25 -5.79,19.89 h -12.29 c 6.63,-22.92 13.27,-45.84 19.94,-68.75 0.79,-2.39 1.09,-5.07 2.82,-7.02 m 7.27,14.71 c -2.92,9.96 -5.78,19.93 -8.69,29.89 5.8,0.02 11.58,0 17.37,0 z m 79.52,-14.2 a 9.45,9.45 0 0 1 9.95,-3.65 c 3.35,0.77 5.9,3.65 6.8,6.9 l 20.94,72 c -4.13,0.03 -8.25,0 -12.38,0.02 -1.91,-6.63 -3.81,-13.27 -5.74,-19.9 -7.96,0 -15.91,-0.01 -23.86,0.01 -1.9,6.64 -3.86,13.25 -5.77,19.89 H 187.9 c 6.63,-23.04 13.34,-46.06 20.02,-69.09 0.7,-2.08 0.97,-4.37 2.32,-6.17 m -1,44.1 h 17.3 c -2.87,-9.98 -5.79,-19.96 -8.65,-29.94 -2.88,9.98 -5.79,19.95 -8.65,29.94 z M 151.56,0.17 h 44.71 v 12.06 c -5.49,0 -10.97,-0.01 -16.46,0 v 66.98 h -11.8 l 0.01,-66.98 c -5.49,-0.01 -10.97,0 -16.46,0 V 0.17 Z m 109.46,0.49 a 10.1,10.1 0 0 1 3.54,-0.5 c 4.7,0.02 9.4,0 14.1,0 a 21.86,21.86 0 0 1 18.9,12.19 c 2.36,4.62 2.6,10 2.01,15.08 -0.41,5.3 -2.64,10.62 -6.72,14.14 -2.16,1.93 -4.85,3.1 -7.16,4.8 -1.27,0.97 -1.33,2.84 -0.67,4.19 6.23,9.63 12.72,19.1 19.09,28.65 h -13.97 c -6.1,-9.15 -12.13,-18.35 -18.2,-27.52 a 10.18,10.18 0 0 1 -1.2,-9.05 c 0.83,-2.28 2.82,-3.95 5.05,-4.82 4.24,-1.61 8.43,-4.16 10.78,-8.17 1.79,-3 1.7,-6.72 0.9,-10.02 -0.95,-4.28 -5.12,-7.64 -9.52,-7.5 -3.05,0.03 -6.1,-0.01 -9.13,0.02 -1.38,-0.03 -2.67,1.17 -2.66,2.56 v 64.5 H 254.28 V 9.77 a 9.9,9.9 0 0 1 6.74,-9.11 z m 49.31,-0.49 h 12.5 V 79.2 h -12.5 V 0.16 Z"
       id="path5772"
       style="fill:#000000;fill-opacity:1"
       inkscape:connector-curvature="0" />
  </g>
  <path
     d="m 533.33,82.199987 a 39.65,39.65 0 0 1 -39.6,-39.6 39.65,39.65 0 0 1 39.59,-39.6000027 39.65,39.65 0 0 1 39.6,39.6000027 39.65,39.65 0 0 1 -39.6,39.6 z m 0,-76.3000026 a 36.74,36.74 0 0 0 -36.7,36.7000026 36.74,36.74 0 0 0 36.7,36.7 36.74,36.74 0 0 0 36.7,-36.7 36.74,36.74 0 0 0 -36.7,-36.7000026 z m 0,63.6800026 a 27,27 0 0 1 -26.98,-26.97 c 0,-14.88 12.1,-26.98 26.98,-26.98 14.88,0 26.97,12.1 26.97,26.98 a 27,27 0 0 1 -26.97,26.97 z m 0,-51.04 a 24.1,24.1 0 0 0 -24.07,24.07 24.1,24.1 0 0 0 24.07,24.06 24.1,24.1 0 0 0 24.06,-24.06 24.1,24.1 0 0 0 -24.06,-24.07 z m -81.07,63.66 a 39.65,39.65 0 0 1 -39.6,-39.6 39.65,39.65 0 0 1 39.59,-39.6000027 39.65,39.65 0 0 1 39.6,39.6000027 39.65,39.65 0 0 1 -39.6,39.6 z m 0,-76.3000026 a 36.74,36.74 0 0 0 -36.7,36.7000026 c 0,20.24 16.47,36.7 36.7,36.7 20.23,0 36.69,-16.46 36.69,-36.7 A 36.73,36.73 0 0 0 452.25,5.8999844 Z m 0,63.6800026 a 27,27 0 0 1 -26.98,-26.97 27,27 0 0 1 26.98,-26.98 27,27 0 0 1 26.97,26.98 27,27 0 0 1 -26.97,26.97 z m 0,-51.04 a 24.1,24.1 0 0 0 -24.07,24.07 c 0,13.27 10.8,24.06 24.07,24.06 13.27,0 24.06,-10.8 24.06,-24.06 a 24.1,24.1 0 0 0 -24.06,-24.07 z m -67.86,63.66 a 27.77,27.77 0 0 1 -27.74,-27.73 c 0,-9.18 4.64,-17.84 12.2,-22.98 a 18.5,18.5 0 0 1 15.54,-28.4900027 18.5,18.5 0 0 1 15.54,28.5000027 27.9,27.9 0 0 1 12.2,22.98 27.77,27.77 0 0 1 -27.74,27.72 z m 0,-76.3000026 A 15.6,15.6 0 0 0 372.08,30.999987 l 1,1.3 -1.4,0.84 a 24.97,24.97 0 0 0 -12.1,21.33 24.86,24.86 0 0 0 24.82,24.83 24.86,24.86 0 0 0 24.83,-24.83 c 0,-8.7 -4.64,-16.86 -12.1,-21.33 l -1.41,-0.84 1,-1.3 A 15.6,15.6 0 0 0 384.4,5.8999844 Z m 0,64.8000026 a 16.24,16.24 0 0 1 -16.23,-16.23 c 0,-8.95 7.28,-16.23 16.23,-16.23 8.95,0 16.23,7.28 16.23,16.23 0,8.95 -7.28,16.22 -16.23,16.22 z m 0,-29.55 a 13.33,13.33 0 0 0 -13.32,13.32 c 0,7.34 5.98,13.32 13.32,13.32 7.34,0 13.32,-5.98 13.32,-13.32 0,-7.34 -5.98,-13.32 -13.32,-13.32 z m 0,-11.51 a 8.16,8.16 0 0 1 0,-16.3 8.16,8.16 0 0 1 0,16.3 z m 0,-13.4 a 5.2500024,5.2500024 0 1 0 0.01,10.5 5.2500024,5.2500024 0 0 0 -0.01,-10.5 z M 76.45,2.9999843 H 14.76 A 8.79,8.79 0 0 0 6,11.769986 v 61.690001 a 8.79,8.79 0 0 0 8.76,8.76 h 61.7 a 8.79,8.79 0 0 0 8.76,-8.76 V 11.759986 A 8.79,8.79 0 0 0 76.45,2.9999843 Z M 40.27,34.849987 c -0.18,3.69 -0.4,7.39 -1.02,11.04 a 28.14,28.14 0 0 1 -2.37,7.24 c -1.76,3.71 -4.53,6.86 -7.64,9.5 a 28.6,28.6 0 0 1 -9.6,5.43 c -1.97,0.69 -4,1.2 -6.07,1.5 v -7.71 c 2.49,-0.38 4.89,-1.26 7.11,-2.43 a 25.65,25.65 0 0 0 7.02,-5.49 29.21,29.21 0 0 0 4.96,-7.74 38.58,38.58 0 0 0 2.8,-10.21 c 0.67,-4.45 0.95,-8.94 1.05,-13.43 0.02,-1.52 0,-3.04 0.01,-4.56 h 3.91 v 9.19 c 0.02,2.56 -0.05,5.11 -0.16,7.67 z m 8.93,-16.87 v 51.58 c -2.39,0 -4.78,-0.01 -7.18,0.01 -0.03,-5.48 0,-10.97 -0.01,-16.44 v -35.15 c 2.4,-0.02 4.8,0 7.2,0 z m 28.45,51.58 a 32.37,32.37 0 0 1 -12.7,-4.7 31.37,31.37 0 0 1 -4.22,-3.35 28.8,28.8 0 0 1 -5.6,-6.9 30.25,30.25 0 0 1 -2.65,-6.4 c -0.6,-2.24 -0.85,-4.55 -1.09,-6.85 a 154,154 0 0 1 -0.58,-14.92 v -8.46 h 3.88 c -0.04,5.25 0.14,10.5 0.77,15.7 0.5,4.05 1.23,8.13 2.84,11.9 a 28.84,28.84 0 0 0 6.6,9.76 25.25,25.25 0 0 0 9.66,5.78 c 1.01,0.32 2.04,0.57 3.09,0.73 v 7.7 z"
     id="path5776"
     style="fill:#000000;fill-opacity:1"
     inkscape:connector-curvature="0" />
</svg>
