<?xml version="1.0" encoding="UTF-8" standalone="no"?>
<!-- Created with Inkscape (http://www.inkscape.org/) -->

<svg
   xmlns:dc="http://purl.org/dc/elements/1.1/"
   xmlns:cc="http://creativecommons.org/ns#"
   xmlns:rdf="http://www.w3.org/1999/02/22-rdf-syntax-ns#"
   xmlns:svg="http://www.w3.org/2000/svg"
   xmlns="http://www.w3.org/2000/svg"
   xmlns:sodipodi="http://sodipodi.sourceforge.net/DTD/sodipodi-0.dtd"
   xmlns:inkscape="http://www.inkscape.org/namespaces/inkscape"
   version="1.1"
   id="svg1699"
   width="500"
   height="304"
   viewBox="0 0 500 304"
   sodipodi:docname="openbor_logo.svg"
   inkscape:version="0.92.2 (5c3e80d, 2017-08-06)">
  <metadata
     id="metadata1705">
    <rdf:RDF>
      <cc:Work
         rdf:about="">
        <dc:format>image/svg+xml</dc:format>
        <dc:type
           rdf:resource="http://purl.org/dc/dcmitype/StillImage" />
        <dc:title></dc:title>
      </cc:Work>
    </rdf:RDF>
  </metadata>
  <defs
     id="defs1703">
    <inkscape:path-effect
       effect="bspline"
       id="path-effect2551"
       is_visible="true"
       weight="33.333333"
       steps="2"
       helper_size="0"
       apply_no_weight="true"
       apply_with_weight="true"
       only_selected="false" />
    <inkscape:path-effect
       effect="bspline"
       id="path-effect2481"
       is_visible="true"
       weight="33.333333"
       steps="2"
       helper_size="0"
       apply_no_weight="true"
       apply_with_weight="true"
       only_selected="false" />
    <inkscape:path-effect
       effect="bspline"
       id="path-effect2477"
       is_visible="true"
       weight="33.333333"
       steps="2"
       helper_size="0"
       apply_no_weight="true"
       apply_with_weight="true"
       only_selected="false" />
    <inkscape:path-effect
       effect="bspline"
       id="path-effect2472"
       is_visible="true"
       weight="33.333333"
       steps="2"
       helper_size="0"
       apply_no_weight="true"
       apply_with_weight="true"
       only_selected="false" />
    <inkscape:path-effect
       effect="bspline"
       id="path-effect2468"
       is_visible="true"
       weight="33.333333"
       steps="2"
       helper_size="0"
       apply_no_weight="true"
       apply_with_weight="true"
       only_selected="false" />
    <inkscape:path-effect
       effect="bspline"
       id="path-effect2463"
       is_visible="true"
       weight="33.333333"
       steps="2"
       helper_size="0"
       apply_no_weight="true"
       apply_with_weight="true"
       only_selected="false" />
    <inkscape:path-effect
       effect="bspline"
       id="path-effect2459"
       is_visible="true"
       weight="33.333333"
       steps="2"
       helper_size="0"
       apply_no_weight="true"
       apply_with_weight="true"
       only_selected="false" />
    <inkscape:path-effect
       effect="bspline"
       id="path-effect2455"
       is_visible="true"
       weight="33.333333"
       steps="2"
       helper_size="0"
       apply_no_weight="true"
       apply_with_weight="true"
       only_selected="false" />
  </defs>
  <sodipodi:namedview
     pagecolor="#ffffff"
     bordercolor="#666666"
     borderopacity="1"
     objecttolerance="10"
     gridtolerance="10"
     guidetolerance="10"
     inkscape:pageopacity="0"
     inkscape:pageshadow="2"
     inkscape:window-width="1366"
     inkscape:window-height="705"
     id="namedview1701"
     showgrid="false"
     inkscape:pagecheckerboard="true"
     inkscape:zoom="0.8032733"
     inkscape:cx="206.76911"
     inkscape:cy="136.51681"
     inkscape:window-x="-8"
     inkscape:window-y="-8"
     inkscape:window-maximized="1"
     inkscape:current-layer="layer1" />
  <g
     style="display:inline"
     inkscape:label="Beats White Shadow"
     id="g2499"
     inkscape:groupmode="layer"
     sodipodi:insensitive="true">
    <g
       id="g2497"
       transform="translate(2,3.3775468)"
       style="fill:#ffffff;fill-opacity:1;stroke:none">
      <path
         style="fill:#ffffff;fill-opacity:1;stroke:none;stroke-width:1px;stroke-linecap:butt;stroke-linejoin:miter;stroke-opacity:1"
         d="m 100.83008,48.548828 c -0.46757,0.02291 -0.971548,0.09556 -1.613283,0.242188 -1.28347,0.29325 -3.268326,0.882123 -4.550781,1.138672 -1.282456,0.256548 -1.869932,0.18289 -2.603516,-0.03711 -0.733584,-0.22 -1.612309,-0.588225 -4.65625,-0.625 -3.043941,-0.03677 -8.256583,0.257463 -12.033203,0.550781 -3.77662,0.293319 -6.123177,0.587696 -10.267578,1.394532 -4.144401,0.806836 -10.141763,2.138873 -16.496094,3.783203 -6.354331,1.644329 -13.178911,3.625605 -18.679687,5.3125 -5.500777,1.686895 -9.667465,3.075069 -12.058594,3.99414 -2.391129,0.919071 -2.97873,1.360973 -3.345703,2.13086 -0.366973,0.769887 -0.51361,1.871063 -0.806641,2.787109 -0.293031,0.916046 -0.753366,1.683394 -1.330078,2.400391 -0.576712,0.716997 -1.311078,1.451703 -2.154297,2.294922 -0.8432186,0.843218 -1.7963893,1.796333 -2.4570312,3.740234 -0.660642,1.943901 -1.0292139,4.882092 -1.1757813,6.640625 -0.1465674,1.758533 -0.072886,2.346793 0.2207031,2.824219 0.2935891,0.477425 0.8415906,0.868062 2.3652344,1.039062 1.523644,0.171 4.08996,0.171806 6.181641,-0.01172 2.091681,-0.183525 3.703713,-0.550805 7.591797,-1.72461 3.888083,-1.173804 10.04711,-3.153659 14.339843,-4.291016 4.292733,-1.137356 6.711599,-1.430933 8.363281,-1.541015 1.651683,-0.110082 2.533049,-0.03587 3.119141,0.220703 0.586092,0.256577 0.880297,0.697596 0.84375,1.320312 -0.03655,0.622717 -0.40512,1.428799 -1.615234,3.00586 -1.210114,1.577061 -3.263298,3.925011 -5.353516,6.308594 -2.090218,2.383582 -4.219443,4.806311 -5.722656,6.859375 -1.503214,2.053061 -2.413323,3.799361 -3.388672,6.998051 -0.975349,3.19868 -2.077526,7.96866 -2.517578,11.19531 -0.440052,3.22665 -0.218677,4.91504 0.111328,6.30859 0.330005,1.39355 0.77039,2.49515 0.84375,3.48438 0.07336,0.98922 -0.219647,1.87057 -1.136719,8.14258 -0.917072,6.27201 -2.454198,17.90816 -3.335937,23.90039 -0.881739,5.99223 -1.102897,6.28595 -3.19336,7.5332 -2.090462,1.24725 -6.054321,3.44939 -8.730468,5.20898 -2.676147,1.7596 -4.07079,3.08146 -5.060547,4.29102 -0.989758,1.20956 -1.6243687,2.39732 -1.8945315,3.49024 -0.2701628,1.09291 -0.2703166,2.26811 -0.013672,3.47851 0.2566447,1.2104 0.7699569,2.45684 1.6503905,3.63086 0.880434,1.17402 2.168257,2.31106 3.615235,3.13672 1.446978,0.82566 3.200074,1.43452 4.597656,2.19336 1.397581,0.75884 2.651883,1.77861 3.455078,3.02929 0.803195,1.25069 1.34466,2.95264 1.550781,5.07227 0.206122,2.11963 0.133377,4.83147 0.353516,6.37305 0.220138,1.54157 0.73272,1.90855 1.0625,2.71484 0.32978,0.80629 0.485637,2.12903 0.408203,3.08203 -0.07743,0.95301 -0.370752,1.6872 -0.847656,3.81446 -0.476905,2.12725 -1.13796,5.64899 -1.578125,10.16015 -0.440165,4.51117 -0.659377,10.01372 -0.677735,15.7168 -0.01836,5.70307 0.164502,11.61078 0.201172,15.38672 0.03667,3.77593 -0.07556,5.46641 -0.458984,6.67578 -0.383424,1.20937 -1.043958,2.01656 -4.271484,4.67578 -3.227527,2.65922 -9.0302049,7.17503 -12.2910162,9.84961 -3.2608113,2.67457 -3.9952069,3.5205 -4.34375,4.40039 -0.34854313,0.87989 -0.31220445,1.79661 -0.12890628,2.60352 0.18329818,0.8069 0.52885108,1.53347 1.64062498,2.61914 1.111774,1.08566 3.0171056,2.58817 4.6132813,3.56054 1.5961756,0.97237 2.8798112,1.41297 3.9628902,1.57813 1.08308,0.16516 1.961113,0.0558 2.933594,-0.10938 0.972482,-0.16516 2.036122,-0.38499 3.320313,-0.75195 1.28419,-0.36696 2.773073,-0.87631 3.623047,-1.08008 0.849973,-0.20377 1.034889,-0.094 1.144531,0.16211 0.109642,0.25609 0.147072,0.66061 0.275391,1.35742 0.128318,0.69682 0.349412,1.69501 0.751953,2.82813 0.40254,1.13312 0.996326,2.43101 1.763671,3.39648 0.767346,0.96548 1.718567,1.62356 2.59961,2.02735 0.881042,0.40378 1.686863,0.55161 2.439453,0.625 0.75259,0.0734 1.448626,0.0734 2.347656,0 0.89903,-0.0734 1.998113,-0.22143 2.916016,-0.47852 0.917903,-0.25709 1.635377,-0.61533 2.431641,-1.22461 0.796263,-0.60928 1.639878,-1.45156 2.263671,-2.36914 0.623793,-0.91758 1.038958,-1.93937 1.564453,-3.42773 0.525496,-1.48837 1.18178,-3.49262 1.550782,-4.59961 0.369001,-1.107 0.455431,-1.32191 1.054687,-1.5625 0.599256,-0.24059 1.735949,-0.56919 5.03711,-1.30274 3.301161,-0.73355 8.764415,-1.87081 15.183593,-3.52148 6.419179,-1.65068 13.791011,-3.8139 19.935547,-5.70313 6.144537,-1.88922 11.058218,-3.50278 15.900389,-5.17187 4.84217,-1.66909 9.60844,-3.39323 14.89063,-5.63086 5.28218,-2.23763 11.08846,-4.99467 15.0625,-7.06445 3.97403,-2.06979 6.13842,-3.46146 8.26562,-7.11133 2.1272,-3.64987 4.21797,-9.5556 4.80469,-15.55274 0.58672,-5.99713 -0.33012,-12.08421 -1.50391,-16.26562 -1.17378,-4.18141 -2.6063,-6.45556 -3.8164,-7.95899 -1.2101,-1.50343 -2.19906,-2.23766 -3.33594,-3.00781 -1.13688,-0.77015 -2.40407,-1.56798 -5.32813,-3.05859 -2.92405,-1.49062 -7.47246,-3.65453 -12.42382,-5.91016 -4.95137,-2.25562 -10.33766,-4.61661 -15.69532,-6.71875 -5.357655,-2.10214 -10.739073,-3.96814 -16.007809,-5.82226 -5.268736,-1.85413 -10.404858,-3.68874 -13.558593,-4.93555 -3.153736,-1.24682 -4.327684,-1.90662 -5.373047,-2.60352 -1.045364,-0.69689 -1.94423,-1.41561 -2.650391,-2.19336 -0.706161,-0.77774 -1.198613,-1.61189 -1.484375,-2.22265 -0.285762,-0.61077 -0.395417,-1.05029 -0.376953,-1.56446 0.01846,-0.51417 0.164092,-1.09801 0.384766,-1.53906 0.220673,-0.44105 0.514715,-0.73549 2.27539,-2.07422 1.760676,-1.33872 4.98679,-3.72139 9.626953,-6.61914 4.640164,-2.89774 10.692202,-6.30775 17.203125,-10.08594 6.510924,-3.77818 13.471134,-7.91885 17.472654,-10.43359 4.00153,-2.51474 5.02977,-3.39581 8.07422,-5.66992 3.04445,-2.27411 8.10439,-5.94048 13.29492,-9.71875 5.19053,-3.77827 10.50402,-7.66338 13.84375,-10.23242 3.33973,-2.56905 4.67768,-3.79911 6.1543,-5.33008 1.47662,-1.53097 3.05299,-3.3271 4.35547,-5.125 1.30248,-1.7979 2.35401,-3.63685 3.18555,-5.24805 0.83153,-1.61119 1.49123,-3.077817 2.07812,-4.912109 0.58689,-1.834292 1.1003,-4.03364 1.41211,-6.033203 0.31181,-1.999563 0.42114,-3.796356 0.43945,-5.777344 0.0183,-1.980988 -0.0542,-4.142197 -0.43945,-6.251953 -0.38524,-2.109755 -1.08883,-4.184277 -1.85547,-6.0625 -0.76664,-1.878223 -1.61154,-3.602148 -2.54687,-5.234375 -0.93534,-1.632227 -1.94509,-3.147034 -2.98047,-4.443359 -1.03538,-1.296325 -2.08148,-2.342369 -3.20899,-3.158203 -1.1275,-0.815834 -2.40368,-1.454082 -3.61718,-1.886719 -1.21351,-0.432637 -2.42517,-0.690729 -3.91016,-0.800781 -1.48499,-0.110052 -3.24491,-0.07375 -4.38281,-0.458985 -1.13791,-0.385237 -1.65168,-1.192421 -2.23828,-1.833984 -0.58661,-0.641563 -1.24693,-1.117433 -2.03516,-1.539063 -0.78823,-0.421629 -1.70488,-0.789139 -2.41992,-1.11914 -0.71504,-0.330001 -1.2295,-0.624182 -2.10938,-0.88086 -0.87988,-0.256677 -2.12722,-0.475578 -3.59375,-0.402343 -1.46652,0.07324 -3.16159,0.441441 -4.14844,0.697265 -0.98684,0.255824 -1.2802,0.401584 -1.86718,0.365235 -0.58698,-0.03635 -1.45064,-0.251779 -2.63282,-0.583985 -1.18217,-0.332206 -2.67118,-0.778067 -4.01757,-1.068359 -1.34639,-0.290292 -2.59307,-0.438209 -3.83985,-0.658203 -1.24677,-0.219994 -2.49402,-0.512855 -3.77734,-0.769532 -1.28332,-0.256676 -2.60648,-0.477954 -3.5957,-0.58789 -0.49462,-0.05497 -0.92501,-0.08151 -1.39258,-0.05859 z m -16.072268,29.5 c 1.867687,4.8e-5 3.838507,0.156287 9.388672,1.453125 5.550166,1.296839 14.679026,3.733896 20.281246,5.705078 5.60223,1.971183 7.67807,3.476333 9.07813,4.902344 1.40006,1.426011 2.13707,2.797503 2.49414,4.056641 0.35707,1.259138 0.35771,2.505954 0.15039,3.828125 -0.20732,1.32217 -0.63547,2.874549 -2.59961,5.884769 -1.96414,3.01021 -5.49831,7.58243 -7.49219,10.17187 -1.99387,2.58945 -2.45924,3.21163 -6.45312,5.96094 -3.99388,2.7493 -11.541245,7.64197 -19.54297,12.6914 -8.001725,5.04944 -16.542169,10.30967 -21.193359,12.97071 -4.65119,2.66103 -5.482562,2.76464 -6.13086,2.71289 -0.648297,-0.0517 -1.114495,-0.25822 -1.40039,-0.67383 -0.285896,-0.41561 -0.389417,-1.03863 0.103515,-4.48828 0.492932,-3.44965 1.579989,-9.71264 2.177735,-13.11719 0.597746,-3.40455 0.701018,-3.92206 0.623047,-4.75195 -0.07797,-0.8299 -0.335476,-1.96857 -0.439454,-2.72266 -0.103978,-0.75408 -0.05365,-1.11607 0.439454,-1.99804 0.4931,-0.88198 1.449859,-2.31567 2.035156,-3.31055 0.585296,-0.99488 0.861875,-1.66084 0.904297,-3.86914 0.04242,-2.20831 -0.11407,-6.09731 -0.03516,-9.13281 0.07891,-3.03551 0.388984,-5.315923 0.830078,-7.443364 0.441095,-2.127441 1.012261,-4.099094 1.816407,-6.615234 0.804145,-2.516141 1.840158,-5.57229 2.800781,-7.441406 0.960623,-1.869117 1.841372,-2.543188 2.957031,-3.087891 1.11566,-0.544703 2.465409,-0.958986 4.021485,-1.244141 1.556075,-0.285154 3.31786,-0.441454 5.185546,-0.441406 z M 56.759766,202.08398 c 0.214285,0.0224 0.450981,0.0782 0.716796,0.16993 1.063262,0.36707 2.602824,1.31998 3.923829,1.98047 1.321004,0.66048 2.419546,1.02681 5.720703,1.98046 3.301156,0.95366 8.802279,2.49434 13.9375,4.18164 5.13522,1.68731 9.904691,3.5208 15.259765,6.125 5.355071,2.60421 11.385751,6.02985 14.605471,8.20508 3.21972,2.17524 3.80659,3.20406 4.09961,4.00977 0.29302,0.80571 0.29408,1.46582 -0.40235,2.52929 -0.69643,1.06348 -2.09114,2.67859 -4.32812,4.40235 -2.23699,1.72376 -5.37432,3.59119 -8.24414,5.11523 -2.869827,1.52405 -5.583992,2.77051 -10.718752,5.00782 -5.13476,2.2373 -12.695855,5.46649 -17.351562,7.66601 -4.655708,2.19952 -6.417456,3.3744 -8.507813,3.99805 -2.090356,0.62365 -4.510285,0.69655 -7.333984,1.2832 -2.8237,0.58665 -6.057214,1.68965 -8.072266,2.3125 -2.015052,0.62286 -2.820823,0.76946 -3.298828,0.58594 -0.478005,-0.18353 -0.624543,-0.69699 -0.404297,-2.53125 0.220246,-1.83426 0.793947,-4.91727 1.277344,-9.42774 0.483397,-4.51046 0.849575,-10.30688 1.179687,-15.14843 0.330113,-4.84156 0.623373,-8.728 0.990235,-12.39649 0.366861,-3.66848 0.807428,-7.11423 1.394531,-9.93945 0.587103,-2.82522 1.320003,-5.0226 2.017578,-6.56445 0.697575,-1.54185 1.356075,-2.41996 1.980469,-2.97071 0.468295,-0.41306 0.915739,-0.64138 1.558594,-0.57422 z"
         id="path2489"
         inkscape:connector-curvature="0" />
      <path
         style="fill:#ffffff;fill-opacity:1;stroke:none;stroke-width:1px;stroke-linecap:butt;stroke-linejoin:miter;stroke-opacity:1"
         d="m 300.94336,46.097656 c -1.20825,0.08258 -2.54138,0.414682 -3.66992,1.03711 -1.50472,0.829902 -2.64512,2.176379 -3.63086,3.058593 -0.98574,0.882214 -1.81525,1.2966 -2.55469,1.689453 -0.73944,0.392854 -1.54256,0.852072 -2.5293,1.890626 -0.98673,1.038553 -2.2285,2.696471 -3.08984,4.003906 -0.86135,1.307434 -1.42123,2.427241 -2.25195,2.99414 -0.83071,0.5669 -2.17744,0.678438 -3.11133,0.833985 -0.93389,0.155548 -1.55602,0.36351 -2.54297,1.142578 -0.98696,0.779068 -2.33393,2.124798 -3.06055,3.058594 -0.72662,0.933796 -0.82961,1.453284 -0.25781,2.544921 0.57179,1.091638 1.81449,2.747782 1.9707,3.888672 0.1562,1.140891 -0.77818,1.76277 -2.33593,4.203125 -1.55775,2.440356 -3.73402,6.687769 -6.32813,13.951172 -2.59411,7.263404 -5.60052,17.531689 -7.41601,23.548829 -1.81548,6.01714 -2.43845,7.77978 -3.32032,9.12891 -0.88186,1.34912 -2.02178,2.28253 -2.54101,3.58007 -0.51924,1.29755 -0.41573,2.95543 -0.72656,4.04493 -0.31084,1.0895 -1.03694,1.60796 -2.02344,2.02343 -0.98651,0.41547 -2.22896,0.72659 -3.83789,1.45313 -1.60893,0.72654 -3.57965,1.86598 -4.87696,3.21484 -1.29732,1.34885 -1.91816,2.90562 -2.17773,4.92969 -0.25958,2.02406 -0.15646,4.51029 -0.0527,5.96289 0.10371,1.4526 0.20798,1.86891 0.15626,2.33594 -0.0517,0.46703 -0.25959,0.98425 -0.40821,1.55664 -0.14862,0.57239 -0.26602,1.39846 0.0977,2.17773 0.36365,0.77927 1.19158,1.608 2.17773,1.86719 0.98615,0.25919 2.12823,-0.0517 2.75,0.31055 0.62176,0.36227 0.72549,1.4009 0.48242,2.75586 -0.24308,1.35496 -0.89903,3.2095 -1.67773,3.10546 -0.7787,-0.10402 -1.71109,-2.07326 -2.38477,-3.05859 -0.67367,-0.98534 -1.08917,-0.98577 -3.21093,-0.082 -2.12176,0.90372 -5.76225,2.62339 -8.51172,3.71289 -2.74947,1.08951 -4.51291,1.5036 -6.01758,2.07422 -1.50467,0.57062 -2.74814,1.29591 -4.7207,1.60937 -1.97257,0.31346 -4.87374,0.20669 -7.15625,0.41407 -2.28252,0.20738 -4.04581,0.72508 -5.6543,1.34765 -1.60849,0.62258 -3.05996,1.34949 -4.7207,1.71289 -1.66075,0.3634 -3.52661,0.36352 -5.39453,0.25977 -1.86792,-0.10375 -3.73497,-0.31135 -5.55079,-0.36328 -1.81581,-0.0519 -3.57826,0.0502 -5.14257,0.20703 -1.5643,0.15682 -2.8961,0.36196 -3.36329,-1.61133 -0.46717,-1.9733 -0.053,-6.11783 0.0996,-9.17773 0.15268,-3.0599 0.0552,-4.82443 0.31446,-7.26172 0.25935,-2.43729 0.88251,-5.44826 1.29687,-7.98438 0.41435,-2.53611 0.62251,-4.62133 1.29688,-6.48828 0.67436,-1.86695 1.81504,-3.5281 3.22851,-4.85351 1.41347,-1.32542 3.25603,-2.40962 5.33008,-3.29102 2.07405,-0.8814 4.46085,-1.6067 7.10547,-2.02148 2.64462,-0.41478 5.55154,-0.52017 8.04102,-0.67578 2.48947,-0.15561 4.56498,-0.36289 7.1582,-0.61719 2.59322,-0.2543 5.91447,-0.57574 8.04101,-0.78321 2.12654,-0.20747 3.16386,-0.31096 4.14844,0 0.98459,0.31095 1.9201,1.03848 3.00977,1.34961 1.08967,0.31114 2.3347,0.20696 3.19531,-0.32226 0.86062,-0.52923 1.42121,-1.65098 1.93945,-3.36133 0.51823,-1.71034 1.03761,-4.09873 1.10157,-6.07227 0.064,-1.97355 -0.37653,-3.73071 -1.1543,-5.23437 -0.77777,-1.50366 -1.91902,-2.85468 -2.9043,-3.73633 -0.98529,-0.88165 -1.81648,-1.29498 -3.11328,-1.19141 -1.29681,0.10358 -3.05949,0.72587 -4.20117,0.9336 -1.14169,0.20773 -1.65901,3.3e-4 -2.17774,-0.10352 -0.51873,-0.10384 -1.03808,-0.1038 -3.37109,0.10352 -2.33301,0.20731 -6.48491,0.62087 -9.70117,1.1914 -3.21625,0.57054 -5.49717,1.29778 -7.10547,1.7129 -1.60829,0.41513 -2.54237,0.5188 -3.47656,0.83007 -0.93418,0.31126 -1.86646,0.82978 -3.06055,1.91993 -1.19409,1.09015 -2.64416,2.74654 -3.68164,3.73242 -1.03749,0.98588 -1.65962,1.2972 -2.38672,1.45312 -0.72709,0.15591 -1.55597,0.15576 -2.02344,-0.15625 -0.46747,-0.31201 -0.57084,-0.93391 0.93164,-6.52929 1.50248,-5.59537 4.61984,-16.19125 6.17579,-22.156254 1.55596,-5.965004 1.55455,-7.520192 2.69531,-9.957032 1.14077,-2.43684 3.42594,-5.862229 4.91992,-7.75 1.49399,-1.887771 2.03395,-2.157319 2.81055,-1.898437 0.7766,0.258881 1.71167,1.088988 2.49023,1.244141 0.77855,0.155152 1.40129,-0.362703 2.4375,-0.984376 1.03622,-0.621671 2.49146,-1.348797 4.04688,-1.867187 1.55542,-0.51839 3.21682,-0.830369 6.06836,-0.884766 2.85154,-0.0544 7.10607,0.157207 10.0371,0.916016 2.93102,0.758808 4.74624,2.146045 6.30274,2.820313 1.5565,0.674267 3.11119,0.675342 4.25195,0.05273 1.14077,-0.622602 1.97277,-1.86894 2.54297,-3.113281 0.5702,-1.244342 0.88165,-2.490561 1.03711,-4.617188 0.15547,-2.126627 0.15571,-5.135425 -0.0352,-7.164062 -0.19087,-2.028637 -0.64112,-3.260046 -1.57421,-4.296875 -0.9331,-1.03683 -2.38606,-1.971286 -3.63086,-2.59375 -1.2448,-0.622465 -2.28193,-0.934355 -3.63086,-0.986328 -1.34892,-0.05197 -3.00756,0.156548 -4.36719,0.08398 -1.35963,-0.07257 -2.7894,-0.549504 -3.98242,-0.601563 -1.19302,-0.05206 -2.33433,0.257512 -3.78907,0.560547 -1.45473,0.303036 -3.421,0.63055 -5.65234,0.734375 -2.23133,0.103824 -4.82346,0.0016 -7.26172,0.675781 -2.43826,0.674203 -4.71903,2.125125 -7.00195,3.681641 -2.28293,1.556516 -4.56443,3.216724 -6.22461,4.513672 -1.66017,1.296948 -2.69729,2.230138 -3.78711,3.060547 -1.08981,0.830409 -2.23035,1.554402 -3.27539,2.107422 -1.04504,0.553019 -2.1714,1.004017 -3.00195,1.730468 -0.83055,0.726454 -1.45128,1.761797 -1.80469,2.490235 -0.35341,0.728439 -0.47781,1.346406 -1.20508,2.177734 -0.72727,0.831328 -2.07233,1.970653 -3.16211,3.164063 -1.08978,1.193411 -1.91815,2.437805 -2.54101,3.787109 -0.62286,1.349304 -1.03844,2.799633 -2.59571,9.236328 -1.55727,6.436694 -4.25296,17.839627 -5.49804,24.531247 -1.24507,6.69162 -1.03759,8.66206 -0.83008,10.32227 0.20752,1.6602 0.41641,3.0085 0.20898,4.7207 -0.20744,1.7122 -0.82956,3.78635 -1.40039,6.74414 -0.57084,2.9578 -1.09057,6.7925 -1.60937,11.15039 -0.5188,4.35789 -1.03676,9.23354 -1.14063,12.13867 -0.10387,2.90513 0.20767,3.83923 0.25977,4.61719 0.0521,0.77797 -0.15547,1.39876 -0.4668,1.91797 -0.31133,0.51922 -0.72485,0.93367 -0.88086,4 -0.15601,3.06633 -0.0526,8.75954 0.20703,11.7168 0.2596,2.95726 0.67299,3.16545 1.29492,3.58007 0.62194,0.41463 1.45421,1.03845 2.12891,1.34961 0.67469,0.31117 1.19231,0.31094 1.45117,0.72461 0.25885,0.41367 0.2592,1.45227 0.4668,2.38672 0.20761,0.93445 0.6222,1.86652 1.66211,2.48047 1.0399,0.61395 2.90286,0.94406 5.13281,1.09961 2.22995,0.15554 4.72175,0.15438 6.53711,-0.20898 1.81536,-0.36336 2.85207,-1.08957 3.78516,-1.4004 0.93308,-0.31083 1.76429,-0.20643 2.69726,0.0527 0.93296,0.25919 1.97196,0.67373 3.2168,0.77734 1.24485,0.10361 2.69773,-0.10289 6.73047,-1.47851 4.03274,-1.37563 10.90669,-4.02068 14.79687,-5.36914 3.89018,-1.34846 4.92689,-1.45078 6.01563,-1.65821 1.08875,-0.20743 2.23225,-0.51934 3.58008,-1.19336 1.34783,-0.67401 2.90566,-1.71245 5.60156,-3.16406 2.6959,-1.4516 6.53559,-3.32071 8.19531,-3.83984 1.65973,-0.51914 1.1411,0.31097 0.1543,3.89453 -0.98681,3.58356 -2.43685,9.90214 -3.11133,13.89648 -0.67448,3.99435 -0.56984,5.65476 -0.0508,6.90039 0.51903,1.24564 1.45129,2.0753 2.54101,2.49024 1.08972,0.41494 2.33543,0.41392 3.6836,0.0508 1.34816,-0.3631 2.80157,-1.08837 4.20117,-3.16211 1.3996,-2.07373 2.74864,-5.50128 3.47461,-8.25 0.72597,-2.74873 0.83049,-4.82309 1.83203,-8.55078 1.00154,-3.7277 2.83738,-8.92898 4.44531,-12.97461 1.60793,-4.04563 2.95631,-6.84803 3.83789,-9.07812 0.88157,-2.23009 1.29762,-3.8909 1.71289,-4.82422 0.41528,-0.93332 0.83021,-1.1407 1.54493,-1.34571 0.71473,-0.205 1.77528,-0.4173 3.12304,-0.83203 1.34775,-0.41473 3.0099,-1.03655 5.1875,-1.91797 2.17761,-0.88143 4.87685,-2.02382 7.41797,-2.85351 2.54113,-0.8297 4.92647,-1.34832 6.48242,-1.86719 1.55594,-0.51886 2.2841,-1.03881 3.11329,-1.34961 0.82918,-0.3108 1.76444,-0.41483 3.37109,-0.57031 1.60665,-0.15548 3.89125,-0.36346 5.37305,-0.66211 1.48181,-0.29865 2.2529,-0.7388 2.97851,-1.10156 0.72561,-0.36276 1.45196,-0.67377 2.02149,-0.25977 0.56953,0.414 0.98577,1.55611 1.24218,2.95703 0.25641,1.40092 0.3673,3.26781 0.16016,4.46094 -0.20714,1.19313 -0.72731,1.81428 -1.03906,3.73633 -0.31175,1.92206 -0.41496,5.13288 -0.33008,7.06054 0.0849,1.92765 0.43474,2.74182 0.48437,5.49219 0.0496,2.75037 -0.15404,7.31173 -0.25781,10.6836 -0.10376,3.37187 -0.10351,5.44668 -0.10351,6.95117 0,1.50449 -6.4e-4,2.64527 -0.0527,3.89453 -0.0521,1.24926 -0.15563,2.69167 0,4.04101 0.15562,1.34934 0.571,2.59288 1.24609,3.26758 0.6751,0.67469 1.60828,0.77998 2.80079,0.46875 1.19252,-0.31123 2.64657,-1.03886 3.78711,-2.17968 1.14053,-1.14082 1.97028,-2.69781 2.85156,-5.3418 0.88128,-2.64399 1.81707,-6.38156 2.0918,-8.82422 0.27472,-2.44266 -0.17234,-3.7823 -0.43165,-4.66406 -0.2593,-0.88177 -0.36287,-1.40102 0,-2.4375 0.36288,-1.03648 1.19366,-2.59406 1.66016,-4.77149 0.4665,-2.17744 0.57074,-4.98134 0.67188,-7.36719 0.10114,-2.38584 0.2094,-4.5634 0.46875,-6.58593 0.25934,-2.02253 0.67519,-3.99574 0.98632,-5.70703 0.31112,-1.7113 0.5196,-3.16477 0.51954,-4.46094 -9e-5,-1.29617 -0.20948,-2.43674 -0.46876,-3.42188 -0.25927,-0.98514 -0.56988,-1.81678 0.0527,-2.64648 0.62263,-0.82971 2.17927,-1.65897 3.0918,-2.34375 0.91253,-0.68477 1.26563,-1.39089 1.36914,-2.375 0.10351,-0.98411 8.8e-4,-2.33547 -0.18164,-3.18359 -0.18253,-0.84811 -0.54389,-1.33044 -1.11914,-1.67774 -0.57525,-0.34731 -1.60342,-0.68902 -2.13477,-1.10156 -0.53134,-0.41253 -0.60948,-0.73072 -0.41016,-2.54492 0.19932,-1.8142 0.73424,-5.23983 0.83789,-7.88477 0.10364,-2.64494 -0.20789,-4.61657 -0.70898,-6.49023 -0.50108,-1.87366 -1.26251,-3.83142 -1.41797,-5.90625 -0.15547,-2.074822 0.25915,-4.357794 0.57031,-6.121095 0.31117,-1.763301 0.51908,-3.010458 0.15625,-6.742187 -0.36283,-3.731729 -1.29806,-9.96179 -2.17968,-13.384766 -0.88161,-3.422976 -1.71094,-4.044011 -3.83789,-5.289062 -2.12695,-1.245052 -5.55019,-3.113485 -7.52149,-4.306641 -1.9713,-1.193156 -2.48949,-1.710263 -2.80078,-2.28125 -0.3113,-0.570987 -0.41567,-1.193677 0.18555,-2.810547 0.60122,-1.616869 1.99249,-4.401516 2.82226,-6.216797 0.82977,-1.815281 1.14151,-2.749516 1.00196,-3.658203 -0.13955,-0.908687 -0.79351,-1.891272 -1.62305,-2.617188 -0.82953,-0.725915 -1.86793,-1.24378 -3.32031,-1.347656 -0.3631,-0.02597 -0.75155,-0.02753 -1.1543,0 z m -8.80469,39.082032 c 0.67045,-0.02215 1.28953,0.199156 1.94922,0.583984 0.87959,0.513104 1.8343,1.320455 3.33789,3.300781 1.5036,1.980326 3.55739,5.134028 4.6211,7.041016 1.0637,1.906988 1.13626,2.568324 1.0996,3.449219 -0.0367,0.880892 -0.18351,1.978982 -0.18359,2.896482 -8e-5,0.9175 0.14727,1.64979 0.2207,3.00781 0.0734,1.35803 0.0729,3.33747 0.29297,4.8418 0.22008,1.50434 0.66083,2.53017 0.73438,3.59375 0.0736,1.06358 -0.22032,2.16383 -0.36719,3.92578 -0.14687,1.76196 -0.14648,4.03428 -0.14648,5.46485 0,1.43056 4.5e-4,1.94396 -0.10938,2.34765 -0.10983,0.40369 -0.33044,0.695 -0.84375,1.02539 -0.51331,0.33039 -1.31887,0.6972 -2.27344,0.88086 -0.95456,0.18367 -2.05438,0.18547 -3.41211,0.51563 -1.35773,0.33016 -2.97034,0.9883 -4.03906,1.2207 -1.06872,0.23241 -1.71928,-0.0106 -2.3125,-0.25391 -0.59322,-0.24326 -1.3132,-0.56502 -2.56055,-0.45507 -1.24734,0.10994 -3.08063,0.62432 -4.76953,1.02148 -1.6889,0.39716 -3.37295,0.70236 -4.91406,0.8125 -1.54111,0.11014 -3.00669,0.038 -4.4375,0.11133 -1.43081,0.0733 -2.82318,0.29282 -3.63086,0.0723 -0.80768,-0.22055 -1.02847,-0.88115 0.14453,-3.26367 1.17301,-2.38251 3.74191,-6.49332 5.35547,-9.7207 1.61356,-3.22738 2.2749,-5.57531 2.56836,-7.22266 0.29346,-1.64734 0.21917,-2.60736 0.43945,-3.41406 0.22029,-0.8067 0.73513,-1.46785 1.6875,-3.04297 0.95237,-1.57512 2.34895,-4.073797 3.26563,-6.164061 0.91668,-2.090263 1.35657,-3.776747 2.00195,-5.470703 0.64539,-1.693956 1.5547,-3.515117 2.54492,-4.761718 0.99022,-1.246602 2.09195,-1.979942 3.04493,-2.236329 0.23824,-0.0641 0.46792,-0.100038 0.6914,-0.107421 z"
         id="path2491"
         inkscape:connector-curvature="0" />
      <path
         style="fill:#ffffff;fill-opacity:1;stroke:none;stroke-width:1px;stroke-linecap:butt;stroke-linejoin:miter;stroke-opacity:1"
         d="m 392.66477,66.377692 c 0.31062,-1.504404 0.20687,-4.097959 0.15502,-6.742907 -0.0519,-2.644948 -0.0519,-5.343242 -0.41485,-7.106241 -0.36299,-1.762999 -1.08945,-2.593242 -1.86686,-2.90459 -0.77741,-0.311349 -1.60742,-0.103846 -2.23026,0.207322 -0.62284,0.311169 -1.03722,0.725548 -1.63623,0.738022 -0.599,0.01247 -1.47643,-0.426241 -2.15102,-0.841362 -0.67459,-0.41512 -1.19305,-0.829889 -1.86694,-0.933803 -0.67389,-0.103913 -1.50364,0.103524 -2.12638,0.311002 -0.62273,0.207478 -1.03711,0.414668 -1.8691,0.362734 -0.83198,-0.05193 -2.07328,-0.362258 -3.37034,-0.569825 -1.29705,-0.207567 -2.64494,-0.311251 -4.56505,-0.518822 -1.9201,-0.207572 -4.40822,-0.518587 -7.0061,-0.570212 -2.59789,-0.05163 -5.28632,0.155178 -7.88032,0.518299 -2.594,0.36312 -5.08283,0.881626 -6.63919,1.141102 -1.55635,0.259476 -2.17852,0.259476 -3.6331,0.358854 -1.45457,0.09938 -3.93993,0.315497 -6.42076,0.765854 -2.48083,0.450357 -5.29974,1.209295 -7.24564,2.06977 -1.9459,0.860475 -3.24131,1.939983 -4.1753,2.770141 -0.93399,0.830159 -1.5559,1.45207 -1.91756,3.062215 -0.36167,1.610145 -0.46924,4.406863 -0.62476,6.17057 -0.15553,1.763707 -0.36293,2.593326 -0.83009,3.631629 -0.46716,1.038302 -1.19232,2.281441 -1.452,3.423304 -0.25968,1.141862 -0.0524,2.1783 0.41496,2.905126 0.46734,0.726826 1.193,1.141489 1.9719,1.302662 0.7789,0.161173 1.81543,0.046 4.25558,-0.613149 2.44016,-0.659153 6.58551,-1.934647 10.73457,-3.17936 4.14906,-1.244713 8.40375,-2.489988 11.04876,-2.956601 2.645,-0.466613 3.68271,-0.155299 4.2011,0.777303 0.51839,0.932602 0.51839,2.489698 0.25894,5.240076 -0.25945,2.750378 -0.77782,6.690049 -1.3834,9.601248 -0.60557,2.9112 -1.36523,4.973114 -1.41723,6.530025 -0.052,1.55691 0.57008,2.697376 0.46666,3.942078 -0.10341,1.244702 -0.93309,2.592935 -1.29656,3.682744 -0.36346,1.08981 -0.25981,1.91903 -0.15599,3.32053 0.10383,1.4015 0.20746,3.37056 0.0112,5.44836 -0.19623,2.0778 -0.73713,4.45773 -1.20416,8.14192 -0.46703,3.6842 -0.88179,8.76497 -1.29679,13.38192 -0.415,4.61696 -0.82988,8.76577 -1.19303,12.81224 -0.36315,4.04648 -0.6743,7.98765 -0.7791,12.55307 -0.10479,4.56543 9.6e-4,9.95857 0.2603,14.10861 0.25935,4.15003 0.67424,7.15799 1.08922,9.23314 0.41498,2.07515 0.82983,3.21599 0.9338,4.14954 0.10396,0.93354 -0.10342,1.65938 -0.20733,2.64605 -0.10391,0.98666 -0.10391,2.22953 0.20768,3.06021 0.31159,0.83068 0.93354,1.24531 1.81553,1.45272 0.88198,0.20741 2.02356,0.20741 3.21613,-0.20758 1.19257,-0.41499 2.43857,-1.24565 3.52738,-2.07529 1.08881,-0.82964 2.02336,-1.66035 2.72948,-2.60244 0.70613,-0.9421 1.26447,-2.17044 1.43768,-2.95509 0.17321,-0.78465 -0.0702,-1.39325 -0.38124,-2.1708 -0.31102,-0.77755 -0.7264,-1.816 -0.83006,-3.99403 -0.10366,-2.17803 0.10392,-5.49944 0.36327,-8.352 0.25934,-2.85255 0.57067,-5.23938 0.57057,-6.89878 -1e-4,-1.6594 -0.31147,-2.59352 -0.15561,-3.57902 0.15587,-0.98551 0.77872,-2.0236 1.0896,-3.16397 0.31087,-1.14037 0.31087,-2.38669 0.41464,-3.52751 0.10378,-1.14082 0.31143,-2.17908 0.51873,-3.88946 0.2073,-1.71038 0.41502,-4.09911 0.67439,-5.96621 0.25938,-1.8671 0.57074,-3.21636 0.77808,-4.82349 0.20733,-1.60714 0.31116,-3.47611 0.27143,-4.77556 -0.0397,-1.29945 -0.27173,-2.22744 0.0395,-3.52372 0.31124,-1.29627 1.14189,-3.0614 1.71224,-4.51339 0.57036,-1.45199 0.8818,-2.59394 1.03725,-4.14895 0.15545,-1.55502 0.15545,-3.52816 0.46687,-5.03225 0.31143,-1.50409 0.93419,-2.54204 1.29348,-3.78629 0.35928,-1.24425 0.47002,-2.90532 0.61479,-4.56574 0.14477,-1.66043 0.37398,-3.83794 0.94439,-6.793543 0.5704,-2.955599 1.5046,-6.899989 2.02318,-10.167416 0.51857,-3.267427 0.62235,-5.861753 0.62231,-7.78067 -4e-5,-1.918917 -0.10382,-3.164323 -0.72588,-4.563905 -0.62207,-1.399582 -1.76407,-2.956854 -2.72357,-4.123824 -0.95951,-1.16697 -1.84141,-2.048867 -2.30831,-2.775466 -0.46691,-0.7266 -0.57065,-1.349052 0.10326,-1.608037 0.6739,-0.258984 2.12818,-0.155106 3.41437,-0.290086 1.28618,-0.134979 2.65629,-0.591681 3.64114,-0.643399 0.98484,-0.05172 1.71173,0.259807 3.16352,0.674585 1.45178,0.414779 3.63182,0.933836 5.70642,1.29686 2.0746,0.363024 4.04635,0.570578 5.39499,0.466544 1.34863,-0.104034 2.07516,-0.519188 2.38577,-2.023591 z"
         id="path2493"
         inkscape:connector-curvature="0"
         inkscape:path-effect="#path-effect2477"
         inkscape:original-d="m 393.07917,67.467802 c -0.10275,-2.594555 -0.20649,-5.18811 -0.31123,-7.780665 10e-4,-2.6973 10e-4,-5.395594 0,-8.091891 -0.72493,-0.830629 -1.45139,-1.660875 -2.17859,-2.489812 -0.82886,0.206466 -1.65887,0.413969 -2.48981,0.622453 -0.41456,0.414557 -0.82894,0.828937 -1.24491,1.244906 -0.29897,-1.35716 -1.65887,-0.830937 -2.48981,-1.244906 -0.51796,-0.416169 -1.03642,-0.830938 -1.55613,-1.244906 -0.82913,0.206533 -1.65888,0.413968 -2.48981,0.622453 -0.41456,0.206778 -0.82894,0.413969 -1.24491,0.622453 -1.24751,-0.313127 -2.48881,-0.623453 -3.73472,-0.93368 -1.34841,-0.104801 -2.6963,-0.208484 -4.04594,-0.311226 -2.49051,-0.312439 -4.97863,-0.623454 -7.46944,-0.93368 -2.69723,0.310334 -5.3936,0.413969 -8.09189,0.622453 -2.4898,0.517917 -4.97863,1.036422 -7.46944,1.556133 -0.62174,-0.001 -1.24391,-0.001 -1.86736,0 -2.285,0.206818 -4.77114,0.413969 -7.15821,0.622453 -2.59373,0.621735 -5.3936,1.451391 -8.09189,2.178586 -1.24445,0.933089 -2.48882,2.073844 -3.73472,3.112266 -0.622,0.621994 -1.24391,1.243906 -1.86736,1.867359 -0.10291,2.596722 -0.20649,5.393594 -0.31123,8.091891 -0.20656,0.829257 -0.41397,1.658875 -0.62245,2.489813 -0.72623,1.245671 -1.45139,2.488813 -2.17859,3.734719 0.20868,1.037406 0.41597,2.073844 0.62246,3.112266 0.72773,0.414276 1.45339,0.828937 2.17858,1.244906 0.83057,-0.104696 1.86836,-0.208484 2.80104,-0.311227 3.93857,-1.244443 8.09289,-2.490812 12.13784,-3.734719 4.25317,-1.245538 8.50786,-2.490812 12.76029,-3.734719 1.03813,0.31014 2.07584,0.621454 3.11226,0.93368 0.10468,1.55417 10e-4,3.111266 0,4.668399 -0.51804,3.943736 -1.03642,7.883406 -1.55613,11.82661 -0.7254,1.866886 -1.45139,3.941203 -2.17859,5.913305 0.62384,1.140861 1.24591,2.281328 1.86736,3.423492 -0.82919,1.348063 -1.65887,2.696297 -2.48981,4.045946 0.10483,0.829657 0.20849,1.658877 0.31123,2.489817 0.10485,1.97214 0.20848,3.9412 0.31122,5.9133 -0.51795,2.17863 -1.03642,4.56366 -1.55613,6.84698 -0.41418,5.08497 -0.82894,10.16574 -1.2449,15.25011 -0.41406,4.14956 -0.82894,8.29837 -1.24491,12.44906 -0.31031,3.94224 -0.62145,7.88341 -0.93368,11.82661 0.10477,5.18752 0.20848,10.5807 0.31123,15.87256 0.41604,3.00808 0.83093,6.01604 1.2449,9.02557 0.41609,1.14048 0.83094,2.28132 1.24491,3.42349 -0.20659,0.72555 -0.41397,1.45139 -0.62245,2.17858 10e-4,1.24595 10e-4,2.48882 0,3.73472 0.62395,0.41431 1.2459,0.82894 1.86736,1.24491 1.14174,-10e-4 2.28332,-10e-4 3.42349,0 1.24481,-0.83021 2.49081,-1.66088 3.73472,-2.48981 0.93381,-0.83017 1.86836,-1.66088 2.80104,-2.48982 0.51912,-1.03724 1.03842,-2.28332 1.55613,-3.42349 -0.20627,-0.41553 -0.41397,-1.03842 -0.62245,-1.55613 -0.41356,-1.03739 -0.82894,-2.07584 -1.24491,-3.11227 0.20838,-3.31909 0.41597,-6.6405 0.62245,-9.95925 0.31213,-2.38631 0.62346,-4.77314 0.93368,-7.15821 -0.31008,-0.93424 -0.62145,-1.86836 -0.93368,-2.80104 0.62306,-1.03775 1.24591,-2.07584 1.86736,-3.11226 0.001,-1.2445 0.001,-2.49082 0,-3.73472 0.20832,-1.03759 0.41597,-2.07585 0.62245,-3.11227 0.20826,-2.38441 0.41597,-4.77314 0.62246,-7.15821 0.31208,-1.34904 0.62345,-2.6983 0.93368,-4.04594 0.10465,-1.86675 0.20848,-3.73572 0.31122,-5.60208 -0.20636,-0.72679 -0.41396,-1.66088 -0.62245,-2.48982 0.83023,-1.76311 1.66088,-3.52823 2.48981,-5.29085 0.31202,-1.14138 0.62346,-2.28333 0.93368,-3.42349 10e-4,-1.97006 10e-4,-3.9432 0,-5.9133 0.62314,-1.0379 1.24591,-2.07585 1.86736,-3.11227 0.10463,-1.45174 0.20849,-3.11327 0.31123,-4.6684 0.20834,-1.76341 0.41597,-3.9432 0.62245,-5.913304 0.93416,-3.941017 1.86836,-7.885407 2.80104,-11.82661 0.10471,-2.593784 0.20849,-5.18811 0.31123,-7.780664 -0.1027,-1.245408 -0.20649,-2.490813 -0.31123,-3.734719 -1.13933,-1.555995 -2.28133,-3.113266 -3.42349,-4.668399 -0.82885,-0.727114 -1.65888,-1.660875 -2.48981,-2.489813 -0.10275,-0.623453 -0.20649,-1.245906 -0.31123,-1.867359 1.4515,0.102607 2.90578,0.206484 4.35717,0.311227 1.14144,-0.312029 2.49081,-0.830938 3.73472,-1.244907 0.7265,0.309927 1.45339,0.621453 2.17859,0.93368 2.17813,0.517366 4.35817,1.036422 6.53576,1.556133 1.97144,0.206416 3.9432,0.413969 5.9133,0.622453 0.72687,-0.415782 1.45339,-0.830937 2.17859,-1.244906 z" />
      <path
         style="fill:#ffffff;fill-opacity:1;stroke:none;stroke-width:1px;stroke-linecap:butt;stroke-linejoin:miter;stroke-opacity:1"
         d="m 485.30702,45.474403 c -1.55609,0.103688 -3.63093,0.311171 -6.22524,1.141262 -2.59432,0.830091 -5.70495,2.281724 -9.07727,3.838182 -3.37232,1.556459 -7.0019,3.215695 -10.42593,4.564597 -3.42403,1.348902 -6.63897,2.385979 -8.86966,3.215925 -2.23069,0.829947 -3.47513,1.452167 -5.13605,2.54209 -1.66091,1.089922 -3.73375,2.644554 -5.34206,3.837824 -1.60831,1.19327 -2.74886,2.022761 -5.44824,3.735843 -2.69938,1.713082 -6.9486,4.30407 -11.51398,7.676165 -4.56538,3.372095 -9.43992,7.520639 -13.48628,11.411297 -4.04637,3.890658 -7.26167,7.520836 -9.80371,10.737204 -2.54203,3.216368 -4.40885,6.016598 -5.49843,7.987918 -1.08958,1.97132 -1.40068,3.11201 -1.86771,4.30569 -0.46702,1.19367 -1.08883,2.43728 -1.76359,4.09816 -0.67477,1.66087 -1.40026,3.73372 -2.12676,6.4839 -0.72649,2.75018 -1.45226,6.17168 -1.86736,10.01093 -0.41509,3.83926 -0.5188,8.09125 -0.16616,12.13999 0.35265,4.04874 1.2033,8.08936 2.29273,11.09834 1.08942,3.00897 2.43781,5.08342 4.22789,7.0845 1.79008,2.00109 4.12347,4.01628 6.14627,6.66143 2.02281,2.64515 3.78649,5.96501 5.60217,8.55886 1.81569,2.59384 3.68285,4.46099 6.8989,7.31394 3.21605,2.85295 7.78071,6.69142 12.03403,10.73726 4.25333,4.04584 8.19561,8.29935 11.83363,12.77017 3.63802,4.47081 6.94358,9.11926 9.40399,12.84102 2.4604,3.72176 3.97156,6.3411 4.90528,8.51956 0.93372,2.17845 1.24491,3.83813 1.14142,5.18681 -0.10349,1.34869 -0.62196,2.38562 -2.07555,4.20269 -1.45359,1.81707 -3.8369,4.40762 -5.18574,5.96379 -1.34884,1.55617 -1.65994,2.07467 -1.60804,3.01015 0.0519,0.93549 0.46592,2.28108 0.31063,3.4741 -0.15529,1.19302 -0.88115,2.22996 -2.75003,4.0989 -1.86889,1.86894 -4.87411,4.56328 -7.10474,6.27532 -2.23064,1.71204 -3.68252,2.43798 -4.77267,2.48993 -1.09016,0.0519 -1.81575,-0.56999 -1.76334,-1.24485 0.0524,-0.67487 0.88225,-1.40098 2.33337,-2.07462 1.45113,-0.67364 3.52863,-1.29689 5.2917,-2.43793 1.76307,-1.14104 3.2163,-2.80187 3.89016,-4.40931 0.67386,-1.60744 0.57005,-3.16457 0.20722,-4.20133 -0.36283,-1.03676 -0.98566,-1.55578 -1.82151,-2.00593 -0.83585,-0.45015 -2.06847,-0.89838 -3.46909,-0.58736 -1.40062,0.31101 -3.05968,1.34792 -5.81018,2.80104 -2.75051,1.45313 -6.58627,3.31917 -10.5291,5.13496 -3.94283,1.81579 -7.98751,3.57886 -12.79035,6.00497 -4.80283,2.4261 -10.44728,5.56191 -14.46785,8.18493 -4.02056,2.62303 -6.56127,4.84615 -8.27332,6.55806 -1.71206,1.71192 -2.64534,2.95629 -3.16448,4.35754 -0.51915,1.40125 -0.6228,2.95599 2e-5,4.66881 0.62281,1.71282 1.97054,3.57891 3.2676,4.8759 1.29706,1.297 2.54184,2.02312 4.3052,3.00852 1.76335,0.9854 4.04625,2.23062 6.17295,3.16425 2.12669,0.93363 4.0981,1.55618 5.65433,1.71159 1.55624,0.1554 2.69776,-0.15593 5.37793,-0.98046 2.68017,-0.82453 6.96787,-2.18404 11.01327,-3.74001 4.04541,-1.55598 7.88496,-3.32009 11.77465,-5.39464 3.8897,-2.07455 7.83314,-4.46137 11.41174,-6.84715 3.5786,-2.38577 6.79557,-4.77255 10.52953,-7.72862 3.73396,-2.95607 7.98888,-6.48454 10.94527,-9.07793 2.9564,-2.59339 4.6167,-4.25369 6.5353,-5.135 1.9186,-0.8813 4.09849,-0.9851 6.79505,-1.2444 2.69656,-0.2593 5.91411,-0.67447 9.12958,-1.19312 3.21547,-0.51864 6.43259,-1.14131 8.92211,-1.81564 2.48953,-0.67433 4.25378,-1.40078 5.03124,-1.91926 0.77745,-0.51847 0.56983,-0.82991 -0.72609,-3.68094 -1.29592,-2.85103 -3.68376,-8.24962 -5.08356,-10.84325 -1.3998,-2.59363 -1.8148,-2.38613 -2.54251,-1.97031 -0.7277,0.41582 -1.76212,1.03647 -2.57713,1.24948 -0.815,0.21301 -1.4679,-0.005 -1.98716,-0.36813 -0.51926,-0.36351 -0.93383,-0.88172 -1.0894,-3.42332 -0.15556,-2.54159 -0.0518,-7.10732 -0.41489,-11.61949 -0.36309,-4.51217 -1.19321,-8.97409 -2.6973,-13.01946 -1.50408,-4.04538 -3.68305,-7.677 -8.37714,-13.45772 -4.6941,-5.78072 -12.00827,-13.82631 -18.13324,-20.72156 -6.12498,-6.89526 -11.30374,-12.91954 -15.27368,-17.96757 -3.96993,-5.04803 -6.92307,-9.37227 -9.20538,-13.3145 -2.28232,-3.94223 -3.94228,-7.57339 -5.03992,-10.99546 -1.09763,-3.42207 -1.59958,-6.43379 -1.34008,-9.44214 0.2595,-3.00834 1.29719,-5.91387 2.93207,-8.888 1.63487,-2.97412 3.9676,-6.15511 6.35328,-9.05936 2.38569,-2.90425 4.8764,-5.602521 8.14356,-8.662195 3.26716,-3.059675 7.31466,-6.484485 9.80437,-8.559209 2.4897,-2.074724 3.42363,-2.801108 4.09751,-3.111877 0.67388,-0.310769 1.08934,-0.206905 1.3482,0.25871 0.25886,0.465615 0.36278,1.296964 -0.15595,2.231138 -0.51873,0.934174 -1.65871,1.970518 -3.68297,3.527672 -2.02426,1.557153 -4.92637,3.630096 -6.79405,5.238164 -1.86768,1.608067 -2.69729,2.748789 -3.16457,4.254012 -0.46727,1.505225 -0.57091,3.370735 -0.10148,4.878405 0.46943,1.50767 1.50157,2.64302 3.11015,3.21362 1.60857,0.57061 3.78706,0.57061 6.2867,-0.13481 2.49964,-0.70543 5.48871,-2.19996 13.05932,-7.48904 7.57061,-5.289088 19.81725,-14.422175 26.14528,-19.350067 6.32803,-4.927893 6.74304,-5.654156 7.32542,-7.464011 0.58239,-1.809854 1.28461,-4.518413 1.54383,-8.200186 0.25923,-3.681774 0.0516,-8.248352 -0.52638,-11.146816 -0.57804,-2.898463 -1.70436,-4.362682 -2.89717,-5.503653 -1.1928,-1.140971 -2.54159,-2.074748 -3.73431,-2.54166 -1.19272,-0.466912 -2.22998,-0.466912 -3.78607,-0.363224 z"
         id="path2495"
         inkscape:connector-curvature="0"
         inkscape:path-effect="#path-effect2481"
         inkscape:original-d="m 485.82469,45.370715 c -2.07385,0.206484 -4.14869,0.413969 -6.22454,0.622453 -3.11289,1.452153 -6.22353,2.903781 -9.33679,4.357172 -3.63138,1.659517 -7.26096,3.31875 -10.89293,4.979625 -3.21608,1.036767 -6.43102,2.073844 -9.64803,3.112266 -1.24437,0.621685 -2.48881,1.243906 -3.73472,1.867359 -2.07584,1.556633 -4.14868,3.111266 -6.22453,4.668399 -1.14078,0.829386 -2.28133,1.658875 -3.42349,2.489813 -4.25664,2.595122 -8.50586,5.186109 -12.76029,7.780664 -4.87623,4.149833 -9.75077,8.298376 -14.62765,12.449063 -3.21571,3.630776 -6.43101,7.260954 -9.64802,10.89293 -1.86691,2.800851 -3.73372,5.601081 -5.60208,8.403121 -0.31036,1.14063 -0.62145,2.28133 -0.93368,3.42349 -0.6221,1.2452 -1.24391,2.48881 -1.86736,3.73472 -0.7259,2.07584 -1.45139,4.14869 -2.17859,6.22453 -0.72561,3.42448 -1.45139,6.84598 -2.17858,10.27048 -0.10278,4.25387 -0.20649,8.50586 -0.31123,12.76029 0.83114,3.83838 1.66088,7.8834 2.48981,11.82661 1.34991,2.07424 2.6983,4.14868 4.04595,6.22453 2.2836,1.86658 4.56566,3.9412 6.84698,5.9133 1.76456,3.31864 3.52824,6.6385 5.29086,9.95925 1.86856,1.86657 3.73572,3.73372 5.60207,5.60208 4.56566,3.83746 9.13032,7.67592 13.69397,11.51539 3.94313,4.25234 7.88541,8.50585 11.82661,12.76028 3.21704,4.77119 6.6405,9.3358 9.95925,14.0052 1.5572,2.80015 3.11327,5.39359 4.6684,8.09189 0.31227,1.65907 0.62346,3.31875 0.93368,4.97963 -0.51795,1.03691 -1.03642,2.07384 -1.55613,3.11226 -2.38783,2.59556 -4.77114,5.18611 -7.15821,7.78067 -0.31035,0.51792 -0.62145,1.03642 -0.93368,1.55613 0.41691,1.35071 0.83094,2.6963 1.24491,4.04595 -0.72554,1.0369 -1.4514,2.07384 -2.17859,3.11226 -3.01083,2.69926 -6.01605,5.3936 -9.02557,8.09189 -1.4519,0.72545 -2.90378,1.45139 -4.35717,2.17859 -0.7258,-0.62397 -1.45139,-1.24591 -2.17859,-1.86736 0.83103,-0.72728 1.66088,-1.45339 2.48981,-2.17859 2.07319,-0.62265 4.15069,-1.2459 6.22453,-1.86736 1.45256,-1.65992 2.90579,-3.32075 4.35718,-4.97962 -0.10268,-1.55614 -0.20649,-3.11327 -0.31123,-4.6684 -0.62108,-0.5194 -1.24391,-1.03842 -1.86736,-1.55613 -1.03659,-0.41604 -2.28133,-0.83094 -3.42349,-1.24491 -1.65969,1.03693 -3.31875,2.07384 -4.97963,3.11227 -3.84016,1.86767 -7.67592,3.73371 -11.51538,5.60207 -4.04621,1.76317 -8.09089,3.52624 -12.13784,5.29086 -5.60275,3.00842 -11.20315,6.22353 -16.80623,9.33679 -2.48934,2.07429 -4.97863,4.35618 -7.46944,6.53576 -0.93308,1.24444 -1.86636,2.48881 -2.80104,3.73472 -0.10283,1.55653 -0.20648,3.11127 -0.31123,4.6684 1.35057,1.86763 2.6983,3.73372 4.04595,5.60208 1.24603,0.72526 2.49081,1.45139 3.73472,2.17858 2.28276,1.2436 4.56566,2.48882 6.84698,3.73472 1.9718,0.62136 3.94321,1.24391 5.91331,1.86736 1.1418,-0.31213 2.28333,-0.62345 3.42349,-0.93368 4.25002,-1.24461 8.50786,-2.69829 12.76029,-4.04594 3.83838,-1.76412 7.67792,-3.52824 11.51538,-5.29086 3.94197,-2.38632 7.88541,-4.77314 11.82661,-7.15821 3.21605,-2.38636 6.43302,-4.77314 9.64803,-7.15821 4.25294,-3.527 8.50786,-7.05547 12.76029,-10.5817 1.66045,-1.66045 3.32075,-3.32075 4.97962,-4.97963 2.17828,-0.10468 4.35817,-0.20848 6.53576,-0.31122 3.21547,-0.41577 6.43302,-0.83094 9.64802,-1.24491 3.2159,-0.62324 6.43302,-1.24591 9.64803,-1.86736 1.76398,-0.72693 3.52823,-1.45339 5.29085,-2.17858 -0.20634,-0.31202 -0.41397,-0.62346 -0.62245,-0.93368 -2.3833,-5.3916 -4.77114,-10.79019 -7.15821,-16.18379 -0.41394,0.20647 -0.82894,0.41397 -1.24491,0.62246 -1.03942,0.62325 -2.07384,1.2439 -3.11227,1.86736 -0.62216,-0.10486 -1.2439,-0.41597 -1.86736,-0.62246 -0.41436,-0.52021 -0.82893,-1.03842 -1.2449,-1.55613 0.10472,-4.56458 0.20848,-9.13031 0.31122,-13.69397 -0.82875,-4.46091 -1.65887,-8.92283 -2.48981,-13.38274 -2.1772,-3.63134 -4.35617,-7.26296 -6.53576,-10.89293 -7.26036,-7.88477 -14.5229,-15.9773 -21.78586,-23.96445 -4.97859,-5.81053 -10.16573,-11.82761 -15.2501,-17.73991 -2.90374,-4.15063 -5.80856,-8.50786 -8.71434,-12.76029 -1.65879,-3.6318 -3.31875,-7.26296 -4.97963,-10.89293 -0.51765,-3.21661 -1.03642,-6.22553 -1.55613,-9.3368 1.03815,-2.90503 2.07584,-5.81056 3.11226,-8.71434 2.28239,-3.00828 4.56566,-6.22554 6.84699,-9.3368 2.48991,-2.69732 4.98062,-5.395596 7.46944,-8.091893 4.04539,-3.423175 8.09289,-6.847985 12.13783,-10.270477 0.93444,-0.727002 1.86836,-1.453391 2.80104,-2.178586 0.41548,0.102619 0.83094,0.206484 1.24491,0.311226 0.10456,0.827526 0.20848,1.658875 0.31123,2.489813 -1.14135,1.037499 -2.28133,2.073844 -3.4235,3.112266 -2.90644,2.075744 -5.80856,4.148687 -8.71434,6.224531 -0.82926,1.14061 -1.65888,2.281328 -2.48981,3.423493 -0.10285,1.868207 -0.20649,3.733717 -0.31123,5.602077 0.93521,1.24461 2.07584,2.28133 3.11227,3.42349 2.17968,-10e-4 4.35817,-10e-4 6.53575,0 2.80076,-1.45272 5.81057,-2.90578 8.71435,-4.35717 12.23752,-9.12654 24.48416,-18.259625 36.72473,-27.387938 0.41593,-0.727128 0.83094,-1.45339 1.24491,-2.178586 0.72601,-2.901042 1.45339,-5.603078 2.17859,-8.403117 -0.2064,-4.563734 -0.41397,-9.130313 -0.62246,-13.693969 -0.93248,-1.245647 -2.07384,-2.698297 -3.11226,-4.045946 -1.34751,-0.934579 -2.6963,-1.868359 -4.04595,-2.801039 -1.03658,-10e-4 -2.07384,-10e-4 -3.11226,0 z" />
    </g>
  </g>
  <g
     inkscape:groupmode="layer"
     id="layer4"
     inkscape:label="Beats"
     style="display:inline"
     sodipodi:insensitive="true">
    <g
       id="g2487">
      <path
         inkscape:connector-curvature="0"
         id="path2453"
         d="m 100.83008,48.548828 c -0.46757,0.02291 -0.971548,0.09556 -1.613283,0.242188 -1.28347,0.29325 -3.268326,0.882123 -4.550781,1.138672 -1.282456,0.256548 -1.869932,0.18289 -2.603516,-0.03711 -0.733584,-0.22 -1.612309,-0.588225 -4.65625,-0.625 -3.043941,-0.03677 -8.256583,0.257463 -12.033203,0.550781 -3.77662,0.293319 -6.123177,0.587696 -10.267578,1.394532 -4.144401,0.806836 -10.141763,2.138873 -16.496094,3.783203 -6.354331,1.644329 -13.178911,3.625605 -18.679687,5.3125 -5.500777,1.686895 -9.667465,3.075069 -12.058594,3.99414 -2.391129,0.919071 -2.97873,1.360973 -3.345703,2.13086 -0.366973,0.769887 -0.51361,1.871063 -0.806641,2.787109 -0.293031,0.916046 -0.753366,1.683394 -1.330078,2.400391 -0.576712,0.716997 -1.311078,1.451703 -2.154297,2.294922 -0.8432186,0.843218 -1.7963893,1.796333 -2.4570312,3.740234 -0.660642,1.943901 -1.0292139,4.882092 -1.1757813,6.640625 -0.1465674,1.758533 -0.072886,2.346793 0.2207031,2.824219 0.2935891,0.477425 0.8415906,0.868062 2.3652344,1.039062 1.523644,0.171 4.08996,0.171806 6.181641,-0.01172 2.091681,-0.183525 3.703713,-0.550805 7.591797,-1.72461 3.888083,-1.173804 10.04711,-3.153659 14.339843,-4.291016 4.292733,-1.137356 6.711599,-1.430933 8.363281,-1.541015 1.651683,-0.110082 2.533049,-0.03587 3.119141,0.220703 0.586092,0.256577 0.880297,0.697596 0.84375,1.320312 -0.03655,0.622717 -0.40512,1.428799 -1.615234,3.00586 -1.210114,1.577061 -3.263298,3.925011 -5.353516,6.308594 -2.090218,2.383582 -4.219443,4.806311 -5.722656,6.859375 -1.503214,2.053061 -2.413323,3.799361 -3.388672,6.998051 -0.975349,3.19868 -2.077526,7.96866 -2.517578,11.19531 -0.440052,3.22665 -0.218677,4.91504 0.111328,6.30859 0.330005,1.39355 0.77039,2.49515 0.84375,3.48438 0.07336,0.98922 -0.219647,1.87057 -1.136719,8.14258 -0.917072,6.27201 -2.454198,17.90816 -3.335937,23.90039 -0.881739,5.99223 -1.102897,6.28595 -3.19336,7.5332 -2.090462,1.24725 -6.054321,3.44939 -8.730468,5.20898 -2.676147,1.7596 -4.07079,3.08146 -5.060547,4.29102 -0.989758,1.20956 -1.6243687,2.39732 -1.8945315,3.49024 -0.2701628,1.09291 -0.2703166,2.26811 -0.013672,3.47851 0.2566447,1.2104 0.7699569,2.45684 1.6503905,3.63086 0.880434,1.17402 2.168257,2.31106 3.615235,3.13672 1.446978,0.82566 3.200074,1.43452 4.597656,2.19336 1.397581,0.75884 2.651883,1.77861 3.455078,3.02929 0.803195,1.25069 1.34466,2.95264 1.550781,5.07227 0.206122,2.11963 0.133377,4.83147 0.353516,6.37305 0.220138,1.54157 0.73272,1.90855 1.0625,2.71484 0.32978,0.80629 0.485637,2.12903 0.408203,3.08203 -0.07743,0.95301 -0.370752,1.6872 -0.847656,3.81446 -0.476905,2.12725 -1.13796,5.64899 -1.578125,10.16015 -0.440165,4.51117 -0.659377,10.01372 -0.677735,15.7168 -0.01836,5.70307 0.164502,11.61078 0.201172,15.38672 0.03667,3.77593 -0.07556,5.46641 -0.458984,6.67578 -0.383424,1.20937 -1.043958,2.01656 -4.271484,4.67578 -3.227527,2.65922 -9.0302049,7.17503 -12.2910162,9.84961 -3.2608113,2.67457 -3.9952069,3.5205 -4.34375,4.40039 -0.34854313,0.87989 -0.31220445,1.79661 -0.12890628,2.60352 0.18329818,0.8069 0.52885108,1.53347 1.64062498,2.61914 1.111774,1.08566 3.0171056,2.58817 4.6132813,3.56054 1.5961756,0.97237 2.8798112,1.41297 3.9628902,1.57813 1.08308,0.16516 1.961113,0.0558 2.933594,-0.10938 0.972482,-0.16516 2.036122,-0.38499 3.320313,-0.75195 1.28419,-0.36696 2.773073,-0.87631 3.623047,-1.08008 0.849973,-0.20377 1.034889,-0.094 1.144531,0.16211 0.109642,0.25609 0.147072,0.66061 0.275391,1.35742 0.128318,0.69682 0.349412,1.69501 0.751953,2.82813 0.40254,1.13312 0.996326,2.43101 1.763671,3.39648 0.767346,0.96548 1.718567,1.62356 2.59961,2.02735 0.881042,0.40378 1.686863,0.55161 2.439453,0.625 0.75259,0.0734 1.448626,0.0734 2.347656,0 0.89903,-0.0734 1.998113,-0.22143 2.916016,-0.47852 0.917903,-0.25709 1.635377,-0.61533 2.431641,-1.22461 0.796263,-0.60928 1.639878,-1.45156 2.263671,-2.36914 0.623793,-0.91758 1.038958,-1.93937 1.564453,-3.42773 0.525496,-1.48837 1.18178,-3.49262 1.550782,-4.59961 0.369001,-1.107 0.455431,-1.32191 1.054687,-1.5625 0.599256,-0.24059 1.735949,-0.56919 5.03711,-1.30274 3.301161,-0.73355 8.764415,-1.87081 15.183593,-3.52148 6.419179,-1.65068 13.791011,-3.8139 19.935547,-5.70313 6.144537,-1.88922 11.058218,-3.50278 15.900389,-5.17187 4.84217,-1.66909 9.60844,-3.39323 14.89063,-5.63086 5.28218,-2.23763 11.08846,-4.99467 15.0625,-7.06445 3.97403,-2.06979 6.13842,-3.46146 8.26562,-7.11133 2.1272,-3.64987 4.21797,-9.5556 4.80469,-15.55274 0.58672,-5.99713 -0.33012,-12.08421 -1.50391,-16.26562 -1.17378,-4.18141 -2.6063,-6.45556 -3.8164,-7.95899 -1.2101,-1.50343 -2.19906,-2.23766 -3.33594,-3.00781 -1.13688,-0.77015 -2.40407,-1.56798 -5.32813,-3.05859 -2.92405,-1.49062 -7.47246,-3.65453 -12.42382,-5.91016 -4.95137,-2.25562 -10.33766,-4.61661 -15.69532,-6.71875 -5.357655,-2.10214 -10.739073,-3.96814 -16.007809,-5.82226 -5.268736,-1.85413 -10.404858,-3.68874 -13.558593,-4.93555 -3.153736,-1.24682 -4.327684,-1.90662 -5.373047,-2.60352 -1.045364,-0.69689 -1.94423,-1.41561 -2.650391,-2.19336 -0.706161,-0.77774 -1.198613,-1.61189 -1.484375,-2.22265 -0.285762,-0.61077 -0.395417,-1.05029 -0.376953,-1.56446 0.01846,-0.51417 0.164092,-1.09801 0.384766,-1.53906 0.220673,-0.44105 0.514715,-0.73549 2.27539,-2.07422 1.760676,-1.33872 4.98679,-3.72139 9.626953,-6.61914 4.640164,-2.89774 10.692202,-6.30775 17.203125,-10.08594 6.510924,-3.77818 13.471134,-7.91885 17.472654,-10.43359 4.00153,-2.51474 5.02977,-3.39581 8.07422,-5.66992 3.04445,-2.27411 8.10439,-5.94048 13.29492,-9.71875 5.19053,-3.77827 10.50402,-7.66338 13.84375,-10.23242 3.33973,-2.56905 4.67768,-3.79911 6.1543,-5.33008 1.47662,-1.53097 3.05299,-3.3271 4.35547,-5.125 1.30248,-1.7979 2.35401,-3.63685 3.18555,-5.24805 0.83153,-1.61119 1.49123,-3.077817 2.07812,-4.912109 0.58689,-1.834292 1.1003,-4.03364 1.41211,-6.033203 0.31181,-1.999563 0.42114,-3.796356 0.43945,-5.777344 0.0183,-1.980988 -0.0542,-4.142197 -0.43945,-6.251953 -0.38524,-2.109755 -1.08883,-4.184277 -1.85547,-6.0625 -0.76664,-1.878223 -1.61154,-3.602148 -2.54687,-5.234375 -0.93534,-1.632227 -1.94509,-3.147034 -2.98047,-4.443359 -1.03538,-1.296325 -2.08148,-2.342369 -3.20899,-3.158203 -1.1275,-0.815834 -2.40368,-1.454082 -3.61718,-1.886719 -1.21351,-0.432637 -2.42517,-0.690729 -3.91016,-0.800781 -1.48499,-0.110052 -3.24491,-0.07375 -4.38281,-0.458985 -1.13791,-0.385237 -1.65168,-1.192421 -2.23828,-1.833984 -0.58661,-0.641563 -1.24693,-1.117433 -2.03516,-1.539063 -0.78823,-0.421629 -1.70488,-0.789139 -2.41992,-1.11914 -0.71504,-0.330001 -1.2295,-0.624182 -2.10938,-0.88086 -0.87988,-0.256677 -2.12722,-0.475578 -3.59375,-0.402343 -1.46652,0.07324 -3.16159,0.441441 -4.14844,0.697265 -0.98684,0.255824 -1.2802,0.401584 -1.86718,0.365235 -0.58698,-0.03635 -1.45064,-0.251779 -2.63282,-0.583985 -1.18217,-0.332206 -2.67118,-0.778067 -4.01757,-1.068359 -1.34639,-0.290292 -2.59307,-0.438209 -3.83985,-0.658203 -1.24677,-0.219994 -2.49402,-0.512855 -3.77734,-0.769532 -1.28332,-0.256676 -2.60648,-0.477954 -3.5957,-0.58789 -0.49462,-0.05497 -0.92501,-0.08151 -1.39258,-0.05859 z m -16.072268,29.5 c 1.867687,4.8e-5 3.838507,0.156287 9.388672,1.453125 5.550166,1.296839 14.679026,3.733896 20.281246,5.705078 5.60223,1.971183 7.67807,3.476333 9.07813,4.902344 1.40006,1.426011 2.13707,2.797503 2.49414,4.056641 0.35707,1.259138 0.35771,2.505954 0.15039,3.828125 -0.20732,1.32217 -0.63547,2.874549 -2.59961,5.884769 -1.96414,3.01021 -5.49831,7.58243 -7.49219,10.17187 -1.99387,2.58945 -2.45924,3.21163 -6.45312,5.96094 -3.99388,2.7493 -11.541245,7.64197 -19.54297,12.6914 -8.001725,5.04944 -16.542169,10.30967 -21.193359,12.97071 -4.65119,2.66103 -5.482562,2.76464 -6.13086,2.71289 -0.648297,-0.0517 -1.114495,-0.25822 -1.40039,-0.67383 -0.285896,-0.41561 -0.389417,-1.03863 0.103515,-4.48828 0.492932,-3.44965 1.579989,-9.71264 2.177735,-13.11719 0.597746,-3.40455 0.701018,-3.92206 0.623047,-4.75195 -0.07797,-0.8299 -0.335476,-1.96857 -0.439454,-2.72266 -0.103978,-0.75408 -0.05365,-1.11607 0.439454,-1.99804 0.4931,-0.88198 1.449859,-2.31567 2.035156,-3.31055 0.585296,-0.99488 0.861875,-1.66084 0.904297,-3.86914 0.04242,-2.20831 -0.11407,-6.09731 -0.03516,-9.13281 0.07891,-3.03551 0.388984,-5.315923 0.830078,-7.443364 0.441095,-2.127441 1.012261,-4.099094 1.816407,-6.615234 0.804145,-2.516141 1.840158,-5.57229 2.800781,-7.441406 0.960623,-1.869117 1.841372,-2.543188 2.957031,-3.087891 1.11566,-0.544703 2.465409,-0.958986 4.021485,-1.244141 1.556075,-0.285154 3.31786,-0.441454 5.185546,-0.441406 z M 56.759766,202.08398 c 0.214285,0.0224 0.450981,0.0782 0.716796,0.16993 1.063262,0.36707 2.602824,1.31998 3.923829,1.98047 1.321004,0.66048 2.419546,1.02681 5.720703,1.98046 3.301156,0.95366 8.802279,2.49434 13.9375,4.18164 5.13522,1.68731 9.904691,3.5208 15.259765,6.125 5.355071,2.60421 11.385751,6.02985 14.605471,8.20508 3.21972,2.17524 3.80659,3.20406 4.09961,4.00977 0.29302,0.80571 0.29408,1.46582 -0.40235,2.52929 -0.69643,1.06348 -2.09114,2.67859 -4.32812,4.40235 -2.23699,1.72376 -5.37432,3.59119 -8.24414,5.11523 -2.869827,1.52405 -5.583992,2.77051 -10.718752,5.00782 -5.13476,2.2373 -12.695855,5.46649 -17.351562,7.66601 -4.655708,2.19952 -6.417456,3.3744 -8.507813,3.99805 -2.090356,0.62365 -4.510285,0.69655 -7.333984,1.2832 -2.8237,0.58665 -6.057214,1.68965 -8.072266,2.3125 -2.015052,0.62286 -2.820823,0.76946 -3.298828,0.58594 -0.478005,-0.18353 -0.624543,-0.69699 -0.404297,-2.53125 0.220246,-1.83426 0.793947,-4.91727 1.277344,-9.42774 0.483397,-4.51046 0.849575,-10.30688 1.179687,-15.14843 0.330113,-4.84156 0.623373,-8.728 0.990235,-12.39649 0.366861,-3.66848 0.807428,-7.11423 1.394531,-9.93945 0.587103,-2.82522 1.320003,-5.0226 2.017578,-6.56445 0.697575,-1.54185 1.356075,-2.41996 1.980469,-2.97071 0.468295,-0.41306 0.915739,-0.64138 1.558594,-0.57422 z"
         style="fill:#fe0000;fill-opacity:1;stroke:#000000;stroke-width:1px;stroke-linecap:butt;stroke-linejoin:miter;stroke-opacity:1" />
      <path
         inkscape:connector-curvature="0"
         id="path2466"
         d="m 300.94336,46.097656 c -1.20825,0.08258 -2.54138,0.414682 -3.66992,1.03711 -1.50472,0.829902 -2.64512,2.176379 -3.63086,3.058593 -0.98574,0.882214 -1.81525,1.2966 -2.55469,1.689453 -0.73944,0.392854 -1.54256,0.852072 -2.5293,1.890626 -0.98673,1.038553 -2.2285,2.696471 -3.08984,4.003906 -0.86135,1.307434 -1.42123,2.427241 -2.25195,2.99414 -0.83071,0.5669 -2.17744,0.678438 -3.11133,0.833985 -0.93389,0.155548 -1.55602,0.36351 -2.54297,1.142578 -0.98696,0.779068 -2.33393,2.124798 -3.06055,3.058594 -0.72662,0.933796 -0.82961,1.453284 -0.25781,2.544921 0.57179,1.091638 1.81449,2.747782 1.9707,3.888672 0.1562,1.140891 -0.77818,1.76277 -2.33593,4.203125 -1.55775,2.440356 -3.73402,6.687769 -6.32813,13.951172 -2.59411,7.263404 -5.60052,17.531689 -7.41601,23.548829 -1.81548,6.01714 -2.43845,7.77978 -3.32032,9.12891 -0.88186,1.34912 -2.02178,2.28253 -2.54101,3.58007 -0.51924,1.29755 -0.41573,2.95543 -0.72656,4.04493 -0.31084,1.0895 -1.03694,1.60796 -2.02344,2.02343 -0.98651,0.41547 -2.22896,0.72659 -3.83789,1.45313 -1.60893,0.72654 -3.57965,1.86598 -4.87696,3.21484 -1.29732,1.34885 -1.91816,2.90562 -2.17773,4.92969 -0.25958,2.02406 -0.15646,4.51029 -0.0527,5.96289 0.10371,1.4526 0.20798,1.86891 0.15626,2.33594 -0.0517,0.46703 -0.25959,0.98425 -0.40821,1.55664 -0.14862,0.57239 -0.26602,1.39846 0.0977,2.17773 0.36365,0.77927 1.19158,1.608 2.17773,1.86719 0.98615,0.25919 2.12823,-0.0517 2.75,0.31055 0.62176,0.36227 0.72549,1.4009 0.48242,2.75586 -0.24308,1.35496 -0.89903,3.2095 -1.67773,3.10546 -0.7787,-0.10402 -1.71109,-2.07326 -2.38477,-3.05859 -0.67367,-0.98534 -1.08917,-0.98577 -3.21093,-0.082 -2.12176,0.90372 -5.76225,2.62339 -8.51172,3.71289 -2.74947,1.08951 -4.51291,1.5036 -6.01758,2.07422 -1.50467,0.57062 -2.74814,1.29591 -4.7207,1.60937 -1.97257,0.31346 -4.87374,0.20669 -7.15625,0.41407 -2.28252,0.20738 -4.04581,0.72508 -5.6543,1.34765 -1.60849,0.62258 -3.05996,1.34949 -4.7207,1.71289 -1.66075,0.3634 -3.52661,0.36352 -5.39453,0.25977 -1.86792,-0.10375 -3.73497,-0.31135 -5.55079,-0.36328 -1.81581,-0.0519 -3.57826,0.0502 -5.14257,0.20703 -1.5643,0.15682 -2.8961,0.36196 -3.36329,-1.61133 -0.46717,-1.9733 -0.053,-6.11783 0.0996,-9.17773 0.15268,-3.0599 0.0552,-4.82443 0.31446,-7.26172 0.25935,-2.43729 0.88251,-5.44826 1.29687,-7.98438 0.41435,-2.53611 0.62251,-4.62133 1.29688,-6.48828 0.67436,-1.86695 1.81504,-3.5281 3.22851,-4.85351 1.41347,-1.32542 3.25603,-2.40962 5.33008,-3.29102 2.07405,-0.8814 4.46085,-1.6067 7.10547,-2.02148 2.64462,-0.41478 5.55154,-0.52017 8.04102,-0.67578 2.48947,-0.15561 4.56498,-0.36289 7.1582,-0.61719 2.59322,-0.2543 5.91447,-0.57574 8.04101,-0.78321 2.12654,-0.20747 3.16386,-0.31096 4.14844,0 0.98459,0.31095 1.9201,1.03848 3.00977,1.34961 1.08967,0.31114 2.3347,0.20696 3.19531,-0.32226 0.86062,-0.52923 1.42121,-1.65098 1.93945,-3.36133 0.51823,-1.71034 1.03761,-4.09873 1.10157,-6.07227 0.064,-1.97355 -0.37653,-3.73071 -1.1543,-5.23437 -0.77777,-1.50366 -1.91902,-2.85468 -2.9043,-3.73633 -0.98529,-0.88165 -1.81648,-1.29498 -3.11328,-1.19141 -1.29681,0.10358 -3.05949,0.72587 -4.20117,0.9336 -1.14169,0.20773 -1.65901,3.3e-4 -2.17774,-0.10352 -0.51873,-0.10384 -1.03808,-0.1038 -3.37109,0.10352 -2.33301,0.20731 -6.48491,0.62087 -9.70117,1.1914 -3.21625,0.57054 -5.49717,1.29778 -7.10547,1.7129 -1.60829,0.41513 -2.54237,0.5188 -3.47656,0.83007 -0.93418,0.31126 -1.86646,0.82978 -3.06055,1.91993 -1.19409,1.09015 -2.64416,2.74654 -3.68164,3.73242 -1.03749,0.98588 -1.65962,1.2972 -2.38672,1.45312 -0.72709,0.15591 -1.55597,0.15576 -2.02344,-0.15625 -0.46747,-0.31201 -0.57084,-0.93391 0.93164,-6.52929 1.50248,-5.59537 4.61984,-16.19125 6.17579,-22.156254 1.55596,-5.965004 1.55455,-7.520192 2.69531,-9.957032 1.14077,-2.43684 3.42594,-5.862229 4.91992,-7.75 1.49399,-1.887771 2.03395,-2.157319 2.81055,-1.898437 0.7766,0.258881 1.71167,1.088988 2.49023,1.244141 0.77855,0.155152 1.40129,-0.362703 2.4375,-0.984376 1.03622,-0.621671 2.49146,-1.348797 4.04688,-1.867187 1.55542,-0.51839 3.21682,-0.830369 6.06836,-0.884766 2.85154,-0.0544 7.10607,0.157207 10.0371,0.916016 2.93102,0.758808 4.74624,2.146045 6.30274,2.820313 1.5565,0.674267 3.11119,0.675342 4.25195,0.05273 1.14077,-0.622602 1.97277,-1.86894 2.54297,-3.113281 0.5702,-1.244342 0.88165,-2.490561 1.03711,-4.617188 0.15547,-2.126627 0.15571,-5.135425 -0.0352,-7.164062 -0.19087,-2.028637 -0.64112,-3.260046 -1.57421,-4.296875 -0.9331,-1.03683 -2.38606,-1.971286 -3.63086,-2.59375 -1.2448,-0.622465 -2.28193,-0.934355 -3.63086,-0.986328 -1.34892,-0.05197 -3.00756,0.156548 -4.36719,0.08398 -1.35963,-0.07257 -2.7894,-0.549504 -3.98242,-0.601563 -1.19302,-0.05206 -2.33433,0.257512 -3.78907,0.560547 -1.45473,0.303036 -3.421,0.63055 -5.65234,0.734375 -2.23133,0.103824 -4.82346,0.0016 -7.26172,0.675781 -2.43826,0.674203 -4.71903,2.125125 -7.00195,3.681641 -2.28293,1.556516 -4.56443,3.216724 -6.22461,4.513672 -1.66017,1.296948 -2.69729,2.230138 -3.78711,3.060547 -1.08981,0.830409 -2.23035,1.554402 -3.27539,2.107422 -1.04504,0.553019 -2.1714,1.004017 -3.00195,1.730468 -0.83055,0.726454 -1.45128,1.761797 -1.80469,2.490235 -0.35341,0.728439 -0.47781,1.346406 -1.20508,2.177734 -0.72727,0.831328 -2.07233,1.970653 -3.16211,3.164063 -1.08978,1.193411 -1.91815,2.437805 -2.54101,3.787109 -0.62286,1.349304 -1.03844,2.799633 -2.59571,9.236328 -1.55727,6.436694 -4.25296,17.839627 -5.49804,24.531247 -1.24507,6.69162 -1.03759,8.66206 -0.83008,10.32227 0.20752,1.6602 0.41641,3.0085 0.20898,4.7207 -0.20744,1.7122 -0.82956,3.78635 -1.40039,6.74414 -0.57084,2.9578 -1.09057,6.7925 -1.60937,11.15039 -0.5188,4.35789 -1.03676,9.23354 -1.14063,12.13867 -0.10387,2.90513 0.20767,3.83923 0.25977,4.61719 0.0521,0.77797 -0.15547,1.39876 -0.4668,1.91797 -0.31133,0.51922 -0.72485,0.93367 -0.88086,4 -0.15601,3.06633 -0.0526,8.75954 0.20703,11.7168 0.2596,2.95726 0.67299,3.16545 1.29492,3.58007 0.62194,0.41463 1.45421,1.03845 2.12891,1.34961 0.67469,0.31117 1.19231,0.31094 1.45117,0.72461 0.25885,0.41367 0.2592,1.45227 0.4668,2.38672 0.20761,0.93445 0.6222,1.86652 1.66211,2.48047 1.0399,0.61395 2.90286,0.94406 5.13281,1.09961 2.22995,0.15554 4.72175,0.15438 6.53711,-0.20898 1.81536,-0.36336 2.85207,-1.08957 3.78516,-1.4004 0.93308,-0.31083 1.76429,-0.20643 2.69726,0.0527 0.93296,0.25919 1.97196,0.67373 3.2168,0.77734 1.24485,0.10361 2.69773,-0.10289 6.73047,-1.47851 4.03274,-1.37563 10.90669,-4.02068 14.79687,-5.36914 3.89018,-1.34846 4.92689,-1.45078 6.01563,-1.65821 1.08875,-0.20743 2.23225,-0.51934 3.58008,-1.19336 1.34783,-0.67401 2.90566,-1.71245 5.60156,-3.16406 2.6959,-1.4516 6.53559,-3.32071 8.19531,-3.83984 1.65973,-0.51914 1.1411,0.31097 0.1543,3.89453 -0.98681,3.58356 -2.43685,9.90214 -3.11133,13.89648 -0.67448,3.99435 -0.56984,5.65476 -0.0508,6.90039 0.51903,1.24564 1.45129,2.0753 2.54101,2.49024 1.08972,0.41494 2.33543,0.41392 3.6836,0.0508 1.34816,-0.3631 2.80157,-1.08837 4.20117,-3.16211 1.3996,-2.07373 2.74864,-5.50128 3.47461,-8.25 0.72597,-2.74873 0.83049,-4.82309 1.83203,-8.55078 1.00154,-3.7277 2.83738,-8.92898 4.44531,-12.97461 1.60793,-4.04563 2.95631,-6.84803 3.83789,-9.07812 0.88157,-2.23009 1.29762,-3.8909 1.71289,-4.82422 0.41528,-0.93332 0.83021,-1.1407 1.54493,-1.34571 0.71473,-0.205 1.77528,-0.4173 3.12304,-0.83203 1.34775,-0.41473 3.0099,-1.03655 5.1875,-1.91797 2.17761,-0.88143 4.87685,-2.02382 7.41797,-2.85351 2.54113,-0.8297 4.92647,-1.34832 6.48242,-1.86719 1.55594,-0.51886 2.2841,-1.03881 3.11329,-1.34961 0.82918,-0.3108 1.76444,-0.41483 3.37109,-0.57031 1.60665,-0.15548 3.89125,-0.36346 5.37305,-0.66211 1.48181,-0.29865 2.2529,-0.7388 2.97851,-1.10156 0.72561,-0.36276 1.45196,-0.67377 2.02149,-0.25977 0.56953,0.414 0.98577,1.55611 1.24218,2.95703 0.25641,1.40092 0.3673,3.26781 0.16016,4.46094 -0.20714,1.19313 -0.72731,1.81428 -1.03906,3.73633 -0.31175,1.92206 -0.41496,5.13288 -0.33008,7.06054 0.0849,1.92765 0.43474,2.74182 0.48437,5.49219 0.0496,2.75037 -0.15404,7.31173 -0.25781,10.6836 -0.10376,3.37187 -0.10351,5.44668 -0.10351,6.95117 0,1.50449 -6.4e-4,2.64527 -0.0527,3.89453 -0.0521,1.24926 -0.15563,2.69167 0,4.04101 0.15562,1.34934 0.571,2.59288 1.24609,3.26758 0.6751,0.67469 1.60828,0.77998 2.80079,0.46875 1.19252,-0.31123 2.64657,-1.03886 3.78711,-2.17968 1.14053,-1.14082 1.97028,-2.69781 2.85156,-5.3418 0.88128,-2.64399 1.81707,-6.38156 2.0918,-8.82422 0.27472,-2.44266 -0.17234,-3.7823 -0.43165,-4.66406 -0.2593,-0.88177 -0.36287,-1.40102 0,-2.4375 0.36288,-1.03648 1.19366,-2.59406 1.66016,-4.77149 0.4665,-2.17744 0.57074,-4.98134 0.67188,-7.36719 0.10114,-2.38584 0.2094,-4.5634 0.46875,-6.58593 0.25934,-2.02253 0.67519,-3.99574 0.98632,-5.70703 0.31112,-1.7113 0.5196,-3.16477 0.51954,-4.46094 -9e-5,-1.29617 -0.20948,-2.43674 -0.46876,-3.42188 -0.25927,-0.98514 -0.56988,-1.81678 0.0527,-2.64648 0.62263,-0.82971 2.17927,-1.65897 3.0918,-2.34375 0.91253,-0.68477 1.26563,-1.39089 1.36914,-2.375 0.10351,-0.98411 8.8e-4,-2.33547 -0.18164,-3.18359 -0.18253,-0.84811 -0.54389,-1.33044 -1.11914,-1.67774 -0.57525,-0.34731 -1.60342,-0.68902 -2.13477,-1.10156 -0.53134,-0.41253 -0.60948,-0.73072 -0.41016,-2.54492 0.19932,-1.8142 0.73424,-5.23983 0.83789,-7.88477 0.10364,-2.64494 -0.20789,-4.61657 -0.70898,-6.49023 -0.50108,-1.87366 -1.26251,-3.83142 -1.41797,-5.90625 -0.15547,-2.074822 0.25915,-4.357794 0.57031,-6.121095 0.31117,-1.763301 0.51908,-3.010458 0.15625,-6.742187 -0.36283,-3.731729 -1.29806,-9.96179 -2.17968,-13.384766 -0.88161,-3.422976 -1.71094,-4.044011 -3.83789,-5.289062 -2.12695,-1.245052 -5.55019,-3.113485 -7.52149,-4.306641 -1.9713,-1.193156 -2.48949,-1.710263 -2.80078,-2.28125 -0.3113,-0.570987 -0.41567,-1.193677 0.18555,-2.810547 0.60122,-1.616869 1.99249,-4.401516 2.82226,-6.216797 0.82977,-1.815281 1.14151,-2.749516 1.00196,-3.658203 -0.13955,-0.908687 -0.79351,-1.891272 -1.62305,-2.617188 -0.82953,-0.725915 -1.86793,-1.24378 -3.32031,-1.347656 -0.3631,-0.02597 -0.75155,-0.02753 -1.1543,0 z m -8.80469,39.082032 c 0.67045,-0.02215 1.28953,0.199156 1.94922,0.583984 0.87959,0.513104 1.8343,1.320455 3.33789,3.300781 1.5036,1.980326 3.55739,5.134028 4.6211,7.041016 1.0637,1.906988 1.13626,2.568324 1.0996,3.449219 -0.0367,0.880892 -0.18351,1.978982 -0.18359,2.896482 -8e-5,0.9175 0.14727,1.64979 0.2207,3.00781 0.0734,1.35803 0.0729,3.33747 0.29297,4.8418 0.22008,1.50434 0.66083,2.53017 0.73438,3.59375 0.0736,1.06358 -0.22032,2.16383 -0.36719,3.92578 -0.14687,1.76196 -0.14648,4.03428 -0.14648,5.46485 0,1.43056 4.5e-4,1.94396 -0.10938,2.34765 -0.10983,0.40369 -0.33044,0.695 -0.84375,1.02539 -0.51331,0.33039 -1.31887,0.6972 -2.27344,0.88086 -0.95456,0.18367 -2.05438,0.18547 -3.41211,0.51563 -1.35773,0.33016 -2.97034,0.9883 -4.03906,1.2207 -1.06872,0.23241 -1.71928,-0.0106 -2.3125,-0.25391 -0.59322,-0.24326 -1.3132,-0.56502 -2.56055,-0.45507 -1.24734,0.10994 -3.08063,0.62432 -4.76953,1.02148 -1.6889,0.39716 -3.37295,0.70236 -4.91406,0.8125 -1.54111,0.11014 -3.00669,0.038 -4.4375,0.11133 -1.43081,0.0733 -2.82318,0.29282 -3.63086,0.0723 -0.80768,-0.22055 -1.02847,-0.88115 0.14453,-3.26367 1.17301,-2.38251 3.74191,-6.49332 5.35547,-9.7207 1.61356,-3.22738 2.2749,-5.57531 2.56836,-7.22266 0.29346,-1.64734 0.21917,-2.60736 0.43945,-3.41406 0.22029,-0.8067 0.73513,-1.46785 1.6875,-3.04297 0.95237,-1.57512 2.34895,-4.073797 3.26563,-6.164061 0.91668,-2.090263 1.35657,-3.776747 2.00195,-5.470703 0.64539,-1.693956 1.5547,-3.515117 2.54492,-4.761718 0.99022,-1.246602 2.09195,-1.979942 3.04493,-2.236329 0.23824,-0.0641 0.46792,-0.100038 0.6914,-0.107421 z"
         style="fill:#fe0000;fill-opacity:1;stroke:#000000;stroke-width:1px;stroke-linecap:butt;stroke-linejoin:miter;stroke-opacity:1" />
      <path
         inkscape:original-d="m 393.07917,67.467802 c -0.10275,-2.594555 -0.20649,-5.18811 -0.31123,-7.780665 10e-4,-2.6973 10e-4,-5.395594 0,-8.091891 -0.72493,-0.830629 -1.45139,-1.660875 -2.17859,-2.489812 -0.82886,0.206466 -1.65887,0.413969 -2.48981,0.622453 -0.41456,0.414557 -0.82894,0.828937 -1.24491,1.244906 -0.29897,-1.35716 -1.65887,-0.830937 -2.48981,-1.244906 -0.51796,-0.416169 -1.03642,-0.830938 -1.55613,-1.244906 -0.82913,0.206533 -1.65888,0.413968 -2.48981,0.622453 -0.41456,0.206778 -0.82894,0.413969 -1.24491,0.622453 -1.24751,-0.313127 -2.48881,-0.623453 -3.73472,-0.93368 -1.34841,-0.104801 -2.6963,-0.208484 -4.04594,-0.311226 -2.49051,-0.312439 -4.97863,-0.623454 -7.46944,-0.93368 -2.69723,0.310334 -5.3936,0.413969 -8.09189,0.622453 -2.4898,0.517917 -4.97863,1.036422 -7.46944,1.556133 -0.62174,-0.001 -1.24391,-0.001 -1.86736,0 -2.285,0.206818 -4.77114,0.413969 -7.15821,0.622453 -2.59373,0.621735 -5.3936,1.451391 -8.09189,2.178586 -1.24445,0.933089 -2.48882,2.073844 -3.73472,3.112266 -0.622,0.621994 -1.24391,1.243906 -1.86736,1.867359 -0.10291,2.596722 -0.20649,5.393594 -0.31123,8.091891 -0.20656,0.829257 -0.41397,1.658875 -0.62245,2.489813 -0.72623,1.245671 -1.45139,2.488813 -2.17859,3.734719 0.20868,1.037406 0.41597,2.073844 0.62246,3.112266 0.72773,0.414276 1.45339,0.828937 2.17858,1.244906 0.83057,-0.104696 1.86836,-0.208484 2.80104,-0.311227 3.93857,-1.244443 8.09289,-2.490812 12.13784,-3.734719 4.25317,-1.245538 8.50786,-2.490812 12.76029,-3.734719 1.03813,0.31014 2.07584,0.621454 3.11226,0.93368 0.10468,1.55417 10e-4,3.111266 0,4.668399 -0.51804,3.943736 -1.03642,7.883406 -1.55613,11.82661 -0.7254,1.866886 -1.45139,3.941203 -2.17859,5.913305 0.62384,1.140861 1.24591,2.281328 1.86736,3.423492 -0.82919,1.348063 -1.65887,2.696297 -2.48981,4.045946 0.10483,0.829657 0.20849,1.658877 0.31123,2.489817 0.10485,1.97214 0.20848,3.9412 0.31122,5.9133 -0.51795,2.17863 -1.03642,4.56366 -1.55613,6.84698 -0.41418,5.08497 -0.82894,10.16574 -1.2449,15.25011 -0.41406,4.14956 -0.82894,8.29837 -1.24491,12.44906 -0.31031,3.94224 -0.62145,7.88341 -0.93368,11.82661 0.10477,5.18752 0.20848,10.5807 0.31123,15.87256 0.41604,3.00808 0.83093,6.01604 1.2449,9.02557 0.41609,1.14048 0.83094,2.28132 1.24491,3.42349 -0.20659,0.72555 -0.41397,1.45139 -0.62245,2.17858 10e-4,1.24595 10e-4,2.48882 0,3.73472 0.62395,0.41431 1.2459,0.82894 1.86736,1.24491 1.14174,-10e-4 2.28332,-10e-4 3.42349,0 1.24481,-0.83021 2.49081,-1.66088 3.73472,-2.48981 0.93381,-0.83017 1.86836,-1.66088 2.80104,-2.48982 0.51912,-1.03724 1.03842,-2.28332 1.55613,-3.42349 -0.20627,-0.41553 -0.41397,-1.03842 -0.62245,-1.55613 -0.41356,-1.03739 -0.82894,-2.07584 -1.24491,-3.11227 0.20838,-3.31909 0.41597,-6.6405 0.62245,-9.95925 0.31213,-2.38631 0.62346,-4.77314 0.93368,-7.15821 -0.31008,-0.93424 -0.62145,-1.86836 -0.93368,-2.80104 0.62306,-1.03775 1.24591,-2.07584 1.86736,-3.11226 0.001,-1.2445 0.001,-2.49082 0,-3.73472 0.20832,-1.03759 0.41597,-2.07585 0.62245,-3.11227 0.20826,-2.38441 0.41597,-4.77314 0.62246,-7.15821 0.31208,-1.34904 0.62345,-2.6983 0.93368,-4.04594 0.10465,-1.86675 0.20848,-3.73572 0.31122,-5.60208 -0.20636,-0.72679 -0.41396,-1.66088 -0.62245,-2.48982 0.83023,-1.76311 1.66088,-3.52823 2.48981,-5.29085 0.31202,-1.14138 0.62346,-2.28333 0.93368,-3.42349 10e-4,-1.97006 10e-4,-3.9432 0,-5.9133 0.62314,-1.0379 1.24591,-2.07585 1.86736,-3.11227 0.10463,-1.45174 0.20849,-3.11327 0.31123,-4.6684 0.20834,-1.76341 0.41597,-3.9432 0.62245,-5.913304 0.93416,-3.941017 1.86836,-7.885407 2.80104,-11.82661 0.10471,-2.593784 0.20849,-5.18811 0.31123,-7.780664 -0.1027,-1.245408 -0.20649,-2.490813 -0.31123,-3.734719 -1.13933,-1.555995 -2.28133,-3.113266 -3.42349,-4.668399 -0.82885,-0.727114 -1.65888,-1.660875 -2.48981,-2.489813 -0.10275,-0.623453 -0.20649,-1.245906 -0.31123,-1.867359 1.4515,0.102607 2.90578,0.206484 4.35717,0.311227 1.14144,-0.312029 2.49081,-0.830938 3.73472,-1.244907 0.7265,0.309927 1.45339,0.621453 2.17859,0.93368 2.17813,0.517366 4.35817,1.036422 6.53576,1.556133 1.97144,0.206416 3.9432,0.413969 5.9133,0.622453 0.72687,-0.415782 1.45339,-0.830937 2.17859,-1.244906 z"
         inkscape:path-effect="#path-effect2477"
         inkscape:connector-curvature="0"
         id="path2475"
         d="m 392.66477,66.377692 c 0.31062,-1.504404 0.20687,-4.097959 0.15502,-6.742907 -0.0519,-2.644948 -0.0519,-5.343242 -0.41485,-7.106241 -0.36299,-1.762999 -1.08945,-2.593242 -1.86686,-2.90459 -0.77741,-0.311349 -1.60742,-0.103846 -2.23026,0.207322 -0.62284,0.311169 -1.03722,0.725548 -1.63623,0.738022 -0.599,0.01247 -1.47643,-0.426241 -2.15102,-0.841362 -0.67459,-0.41512 -1.19305,-0.829889 -1.86694,-0.933803 -0.67389,-0.103913 -1.50364,0.103524 -2.12638,0.311002 -0.62273,0.207478 -1.03711,0.414668 -1.8691,0.362734 -0.83198,-0.05193 -2.07328,-0.362258 -3.37034,-0.569825 -1.29705,-0.207567 -2.64494,-0.311251 -4.56505,-0.518822 -1.9201,-0.207572 -4.40822,-0.518587 -7.0061,-0.570212 -2.59789,-0.05163 -5.28632,0.155178 -7.88032,0.518299 -2.594,0.36312 -5.08283,0.881626 -6.63919,1.141102 -1.55635,0.259476 -2.17852,0.259476 -3.6331,0.358854 -1.45457,0.09938 -3.93993,0.315497 -6.42076,0.765854 -2.48083,0.450357 -5.29974,1.209295 -7.24564,2.06977 -1.9459,0.860475 -3.24131,1.939983 -4.1753,2.770141 -0.93399,0.830159 -1.5559,1.45207 -1.91756,3.062215 -0.36167,1.610145 -0.46924,4.406863 -0.62476,6.17057 -0.15553,1.763707 -0.36293,2.593326 -0.83009,3.631629 -0.46716,1.038302 -1.19232,2.281441 -1.452,3.423304 -0.25968,1.141862 -0.0524,2.1783 0.41496,2.905126 0.46734,0.726826 1.193,1.141489 1.9719,1.302662 0.7789,0.161173 1.81543,0.046 4.25558,-0.613149 2.44016,-0.659153 6.58551,-1.934647 10.73457,-3.17936 4.14906,-1.244713 8.40375,-2.489988 11.04876,-2.956601 2.645,-0.466613 3.68271,-0.155299 4.2011,0.777303 0.51839,0.932602 0.51839,2.489698 0.25894,5.240076 -0.25945,2.750378 -0.77782,6.690049 -1.3834,9.601248 -0.60557,2.9112 -1.36523,4.973114 -1.41723,6.530025 -0.052,1.55691 0.57008,2.697376 0.46666,3.942078 -0.10341,1.244702 -0.93309,2.592935 -1.29656,3.682744 -0.36346,1.08981 -0.25981,1.91903 -0.15599,3.32053 0.10383,1.4015 0.20746,3.37056 0.0112,5.44836 -0.19623,2.0778 -0.73713,4.45773 -1.20416,8.14192 -0.46703,3.6842 -0.88179,8.76497 -1.29679,13.38192 -0.415,4.61696 -0.82988,8.76577 -1.19303,12.81224 -0.36315,4.04648 -0.6743,7.98765 -0.7791,12.55307 -0.10479,4.56543 9.6e-4,9.95857 0.2603,14.10861 0.25935,4.15003 0.67424,7.15799 1.08922,9.23314 0.41498,2.07515 0.82983,3.21599 0.9338,4.14954 0.10396,0.93354 -0.10342,1.65938 -0.20733,2.64605 -0.10391,0.98666 -0.10391,2.22953 0.20768,3.06021 0.31159,0.83068 0.93354,1.24531 1.81553,1.45272 0.88198,0.20741 2.02356,0.20741 3.21613,-0.20758 1.19257,-0.41499 2.43857,-1.24565 3.52738,-2.07529 1.08881,-0.82964 2.02336,-1.66035 2.72948,-2.60244 0.70613,-0.9421 1.26447,-2.17044 1.43768,-2.95509 0.17321,-0.78465 -0.0702,-1.39325 -0.38124,-2.1708 -0.31102,-0.77755 -0.7264,-1.816 -0.83006,-3.99403 -0.10366,-2.17803 0.10392,-5.49944 0.36327,-8.352 0.25934,-2.85255 0.57067,-5.23938 0.57057,-6.89878 -1e-4,-1.6594 -0.31147,-2.59352 -0.15561,-3.57902 0.15587,-0.98551 0.77872,-2.0236 1.0896,-3.16397 0.31087,-1.14037 0.31087,-2.38669 0.41464,-3.52751 0.10378,-1.14082 0.31143,-2.17908 0.51873,-3.88946 0.2073,-1.71038 0.41502,-4.09911 0.67439,-5.96621 0.25938,-1.8671 0.57074,-3.21636 0.77808,-4.82349 0.20733,-1.60714 0.31116,-3.47611 0.27143,-4.77556 -0.0397,-1.29945 -0.27173,-2.22744 0.0395,-3.52372 0.31124,-1.29627 1.14189,-3.0614 1.71224,-4.51339 0.57036,-1.45199 0.8818,-2.59394 1.03725,-4.14895 0.15545,-1.55502 0.15545,-3.52816 0.46687,-5.03225 0.31143,-1.50409 0.93419,-2.54204 1.29348,-3.78629 0.35928,-1.24425 0.47002,-2.90532 0.61479,-4.56574 0.14477,-1.66043 0.37398,-3.83794 0.94439,-6.793543 0.5704,-2.955599 1.5046,-6.899989 2.02318,-10.167416 0.51857,-3.267427 0.62235,-5.861753 0.62231,-7.78067 -4e-5,-1.918917 -0.10382,-3.164323 -0.72588,-4.563905 -0.62207,-1.399582 -1.76407,-2.956854 -2.72357,-4.123824 -0.95951,-1.16697 -1.84141,-2.048867 -2.30831,-2.775466 -0.46691,-0.7266 -0.57065,-1.349052 0.10326,-1.608037 0.6739,-0.258984 2.12818,-0.155106 3.41437,-0.290086 1.28618,-0.134979 2.65629,-0.591681 3.64114,-0.643399 0.98484,-0.05172 1.71173,0.259807 3.16352,0.674585 1.45178,0.414779 3.63182,0.933836 5.70642,1.29686 2.0746,0.363024 4.04635,0.570578 5.39499,0.466544 1.34863,-0.104034 2.07516,-0.519188 2.38577,-2.023591 z"
         style="fill:#fe0000;fill-opacity:1;stroke:#000000;stroke-width:1px;stroke-linecap:butt;stroke-linejoin:miter;stroke-opacity:1" />
      <path
         inkscape:original-d="m 485.82469,45.370715 c -2.07385,0.206484 -4.14869,0.413969 -6.22454,0.622453 -3.11289,1.452153 -6.22353,2.903781 -9.33679,4.357172 -3.63138,1.659517 -7.26096,3.31875 -10.89293,4.979625 -3.21608,1.036767 -6.43102,2.073844 -9.64803,3.112266 -1.24437,0.621685 -2.48881,1.243906 -3.73472,1.867359 -2.07584,1.556633 -4.14868,3.111266 -6.22453,4.668399 -1.14078,0.829386 -2.28133,1.658875 -3.42349,2.489813 -4.25664,2.595122 -8.50586,5.186109 -12.76029,7.780664 -4.87623,4.149833 -9.75077,8.298376 -14.62765,12.449063 -3.21571,3.630776 -6.43101,7.260954 -9.64802,10.89293 -1.86691,2.800851 -3.73372,5.601081 -5.60208,8.403121 -0.31036,1.14063 -0.62145,2.28133 -0.93368,3.42349 -0.6221,1.2452 -1.24391,2.48881 -1.86736,3.73472 -0.7259,2.07584 -1.45139,4.14869 -2.17859,6.22453 -0.72561,3.42448 -1.45139,6.84598 -2.17858,10.27048 -0.10278,4.25387 -0.20649,8.50586 -0.31123,12.76029 0.83114,3.83838 1.66088,7.8834 2.48981,11.82661 1.34991,2.07424 2.6983,4.14868 4.04595,6.22453 2.2836,1.86658 4.56566,3.9412 6.84698,5.9133 1.76456,3.31864 3.52824,6.6385 5.29086,9.95925 1.86856,1.86657 3.73572,3.73372 5.60207,5.60208 4.56566,3.83746 9.13032,7.67592 13.69397,11.51539 3.94313,4.25234 7.88541,8.50585 11.82661,12.76028 3.21704,4.77119 6.6405,9.3358 9.95925,14.0052 1.5572,2.80015 3.11327,5.39359 4.6684,8.09189 0.31227,1.65907 0.62346,3.31875 0.93368,4.97963 -0.51795,1.03691 -1.03642,2.07384 -1.55613,3.11226 -2.38783,2.59556 -4.77114,5.18611 -7.15821,7.78067 -0.31035,0.51792 -0.62145,1.03642 -0.93368,1.55613 0.41691,1.35071 0.83094,2.6963 1.24491,4.04595 -0.72554,1.0369 -1.4514,2.07384 -2.17859,3.11226 -3.01083,2.69926 -6.01605,5.3936 -9.02557,8.09189 -1.4519,0.72545 -2.90378,1.45139 -4.35717,2.17859 -0.7258,-0.62397 -1.45139,-1.24591 -2.17859,-1.86736 0.83103,-0.72728 1.66088,-1.45339 2.48981,-2.17859 2.07319,-0.62265 4.15069,-1.2459 6.22453,-1.86736 1.45256,-1.65992 2.90579,-3.32075 4.35718,-4.97962 -0.10268,-1.55614 -0.20649,-3.11327 -0.31123,-4.6684 -0.62108,-0.5194 -1.24391,-1.03842 -1.86736,-1.55613 -1.03659,-0.41604 -2.28133,-0.83094 -3.42349,-1.24491 -1.65969,1.03693 -3.31875,2.07384 -4.97963,3.11227 -3.84016,1.86767 -7.67592,3.73371 -11.51538,5.60207 -4.04621,1.76317 -8.09089,3.52624 -12.13784,5.29086 -5.60275,3.00842 -11.20315,6.22353 -16.80623,9.33679 -2.48934,2.07429 -4.97863,4.35618 -7.46944,6.53576 -0.93308,1.24444 -1.86636,2.48881 -2.80104,3.73472 -0.10283,1.55653 -0.20648,3.11127 -0.31123,4.6684 1.35057,1.86763 2.6983,3.73372 4.04595,5.60208 1.24603,0.72526 2.49081,1.45139 3.73472,2.17858 2.28276,1.2436 4.56566,2.48882 6.84698,3.73472 1.9718,0.62136 3.94321,1.24391 5.91331,1.86736 1.1418,-0.31213 2.28333,-0.62345 3.42349,-0.93368 4.25002,-1.24461 8.50786,-2.69829 12.76029,-4.04594 3.83838,-1.76412 7.67792,-3.52824 11.51538,-5.29086 3.94197,-2.38632 7.88541,-4.77314 11.82661,-7.15821 3.21605,-2.38636 6.43302,-4.77314 9.64803,-7.15821 4.25294,-3.527 8.50786,-7.05547 12.76029,-10.5817 1.66045,-1.66045 3.32075,-3.32075 4.97962,-4.97963 2.17828,-0.10468 4.35817,-0.20848 6.53576,-0.31122 3.21547,-0.41577 6.43302,-0.83094 9.64802,-1.24491 3.2159,-0.62324 6.43302,-1.24591 9.64803,-1.86736 1.76398,-0.72693 3.52823,-1.45339 5.29085,-2.17858 -0.20634,-0.31202 -0.41397,-0.62346 -0.62245,-0.93368 -2.3833,-5.3916 -4.77114,-10.79019 -7.15821,-16.18379 -0.41394,0.20647 -0.82894,0.41397 -1.24491,0.62246 -1.03942,0.62325 -2.07384,1.2439 -3.11227,1.86736 -0.62216,-0.10486 -1.2439,-0.41597 -1.86736,-0.62246 -0.41436,-0.52021 -0.82893,-1.03842 -1.2449,-1.55613 0.10472,-4.56458 0.20848,-9.13031 0.31122,-13.69397 -0.82875,-4.46091 -1.65887,-8.92283 -2.48981,-13.38274 -2.1772,-3.63134 -4.35617,-7.26296 -6.53576,-10.89293 -7.26036,-7.88477 -14.5229,-15.9773 -21.78586,-23.96445 -4.97859,-5.81053 -10.16573,-11.82761 -15.2501,-17.73991 -2.90374,-4.15063 -5.80856,-8.50786 -8.71434,-12.76029 -1.65879,-3.6318 -3.31875,-7.26296 -4.97963,-10.89293 -0.51765,-3.21661 -1.03642,-6.22553 -1.55613,-9.3368 1.03815,-2.90503 2.07584,-5.81056 3.11226,-8.71434 2.28239,-3.00828 4.56566,-6.22554 6.84699,-9.3368 2.48991,-2.69732 4.98062,-5.395596 7.46944,-8.091893 4.04539,-3.423175 8.09289,-6.847985 12.13783,-10.270477 0.93444,-0.727002 1.86836,-1.453391 2.80104,-2.178586 0.41548,0.102619 0.83094,0.206484 1.24491,0.311226 0.10456,0.827526 0.20848,1.658875 0.31123,2.489813 -1.14135,1.037499 -2.28133,2.073844 -3.4235,3.112266 -2.90644,2.075744 -5.80856,4.148687 -8.71434,6.224531 -0.82926,1.14061 -1.65888,2.281328 -2.48981,3.423493 -0.10285,1.868207 -0.20649,3.733717 -0.31123,5.602077 0.93521,1.24461 2.07584,2.28133 3.11227,3.42349 2.17968,-10e-4 4.35817,-10e-4 6.53575,0 2.80076,-1.45272 5.81057,-2.90578 8.71435,-4.35717 12.23752,-9.12654 24.48416,-18.259625 36.72473,-27.387938 0.41593,-0.727128 0.83094,-1.45339 1.24491,-2.178586 0.72601,-2.901042 1.45339,-5.603078 2.17859,-8.403117 -0.2064,-4.563734 -0.41397,-9.130313 -0.62246,-13.693969 -0.93248,-1.245647 -2.07384,-2.698297 -3.11226,-4.045946 -1.34751,-0.934579 -2.6963,-1.868359 -4.04595,-2.801039 -1.03658,-10e-4 -2.07384,-10e-4 -3.11226,0 z"
         inkscape:path-effect="#path-effect2481"
         inkscape:connector-curvature="0"
         id="path2479"
         d="m 485.30702,45.474403 c -1.55609,0.103688 -3.63093,0.311171 -6.22524,1.141262 -2.59432,0.830091 -5.70495,2.281724 -9.07727,3.838182 -3.37232,1.556459 -7.0019,3.215695 -10.42593,4.564597 -3.42403,1.348902 -6.63897,2.385979 -8.86966,3.215925 -2.23069,0.829947 -3.47513,1.452167 -5.13605,2.54209 -1.66091,1.089922 -3.73375,2.644554 -5.34206,3.837824 -1.60831,1.19327 -2.74886,2.022761 -5.44824,3.735843 -2.69938,1.713082 -6.9486,4.30407 -11.51398,7.676165 -4.56538,3.372095 -9.43992,7.520639 -13.48628,11.411297 -4.04637,3.890658 -7.26167,7.520836 -9.80371,10.737204 -2.54203,3.216368 -4.40885,6.016598 -5.49843,7.987918 -1.08958,1.97132 -1.40068,3.11201 -1.86771,4.30569 -0.46702,1.19367 -1.08883,2.43728 -1.76359,4.09816 -0.67477,1.66087 -1.40026,3.73372 -2.12676,6.4839 -0.72649,2.75018 -1.45226,6.17168 -1.86736,10.01093 -0.41509,3.83926 -0.5188,8.09125 -0.16616,12.13999 0.35265,4.04874 1.2033,8.08936 2.29273,11.09834 1.08942,3.00897 2.43781,5.08342 4.22789,7.0845 1.79008,2.00109 4.12347,4.01628 6.14627,6.66143 2.02281,2.64515 3.78649,5.96501 5.60217,8.55886 1.81569,2.59384 3.68285,4.46099 6.8989,7.31394 3.21605,2.85295 7.78071,6.69142 12.03403,10.73726 4.25333,4.04584 8.19561,8.29935 11.83363,12.77017 3.63802,4.47081 6.94358,9.11926 9.40399,12.84102 2.4604,3.72176 3.97156,6.3411 4.90528,8.51956 0.93372,2.17845 1.24491,3.83813 1.14142,5.18681 -0.10349,1.34869 -0.62196,2.38562 -2.07555,4.20269 -1.45359,1.81707 -3.8369,4.40762 -5.18574,5.96379 -1.34884,1.55617 -1.65994,2.07467 -1.60804,3.01015 0.0519,0.93549 0.46592,2.28108 0.31063,3.4741 -0.15529,1.19302 -0.88115,2.22996 -2.75003,4.0989 -1.86889,1.86894 -4.87411,4.56328 -7.10474,6.27532 -2.23064,1.71204 -3.68252,2.43798 -4.77267,2.48993 -1.09016,0.0519 -1.81575,-0.56999 -1.76334,-1.24485 0.0524,-0.67487 0.88225,-1.40098 2.33337,-2.07462 1.45113,-0.67364 3.52863,-1.29689 5.2917,-2.43793 1.76307,-1.14104 3.2163,-2.80187 3.89016,-4.40931 0.67386,-1.60744 0.57005,-3.16457 0.20722,-4.20133 -0.36283,-1.03676 -0.98566,-1.55578 -1.82151,-2.00593 -0.83585,-0.45015 -2.06847,-0.89838 -3.46909,-0.58736 -1.40062,0.31101 -3.05968,1.34792 -5.81018,2.80104 -2.75051,1.45313 -6.58627,3.31917 -10.5291,5.13496 -3.94283,1.81579 -7.98751,3.57886 -12.79035,6.00497 -4.80283,2.4261 -10.44728,5.56191 -14.46785,8.18493 -4.02056,2.62303 -6.56127,4.84615 -8.27332,6.55806 -1.71206,1.71192 -2.64534,2.95629 -3.16448,4.35754 -0.51915,1.40125 -0.6228,2.95599 2e-5,4.66881 0.62281,1.71282 1.97054,3.57891 3.2676,4.8759 1.29706,1.297 2.54184,2.02312 4.3052,3.00852 1.76335,0.9854 4.04625,2.23062 6.17295,3.16425 2.12669,0.93363 4.0981,1.55618 5.65433,1.71159 1.55624,0.1554 2.69776,-0.15593 5.37793,-0.98046 2.68017,-0.82453 6.96787,-2.18404 11.01327,-3.74001 4.04541,-1.55598 7.88496,-3.32009 11.77465,-5.39464 3.8897,-2.07455 7.83314,-4.46137 11.41174,-6.84715 3.5786,-2.38577 6.79557,-4.77255 10.52953,-7.72862 3.73396,-2.95607 7.98888,-6.48454 10.94527,-9.07793 2.9564,-2.59339 4.6167,-4.25369 6.5353,-5.135 1.9186,-0.8813 4.09849,-0.9851 6.79505,-1.2444 2.69656,-0.2593 5.91411,-0.67447 9.12958,-1.19312 3.21547,-0.51864 6.43259,-1.14131 8.92211,-1.81564 2.48953,-0.67433 4.25378,-1.40078 5.03124,-1.91926 0.77745,-0.51847 0.56983,-0.82991 -0.72609,-3.68094 -1.29592,-2.85103 -3.68376,-8.24962 -5.08356,-10.84325 -1.3998,-2.59363 -1.8148,-2.38613 -2.54251,-1.97031 -0.7277,0.41582 -1.76212,1.03647 -2.57713,1.24948 -0.815,0.21301 -1.4679,-0.005 -1.98716,-0.36813 -0.51926,-0.36351 -0.93383,-0.88172 -1.0894,-3.42332 -0.15556,-2.54159 -0.0518,-7.10732 -0.41489,-11.61949 -0.36309,-4.51217 -1.19321,-8.97409 -2.6973,-13.01946 -1.50408,-4.04538 -3.68305,-7.677 -8.37714,-13.45772 -4.6941,-5.78072 -12.00827,-13.82631 -18.13324,-20.72156 -6.12498,-6.89526 -11.30374,-12.91954 -15.27368,-17.96757 -3.96993,-5.04803 -6.92307,-9.37227 -9.20538,-13.3145 -2.28232,-3.94223 -3.94228,-7.57339 -5.03992,-10.99546 -1.09763,-3.42207 -1.59958,-6.43379 -1.34008,-9.44214 0.2595,-3.00834 1.29719,-5.91387 2.93207,-8.888 1.63487,-2.97412 3.9676,-6.15511 6.35328,-9.05936 2.38569,-2.90425 4.8764,-5.602521 8.14356,-8.662195 3.26716,-3.059675 7.31466,-6.484485 9.80437,-8.559209 2.4897,-2.074724 3.42363,-2.801108 4.09751,-3.111877 0.67388,-0.310769 1.08934,-0.206905 1.3482,0.25871 0.25886,0.465615 0.36278,1.296964 -0.15595,2.231138 -0.51873,0.934174 -1.65871,1.970518 -3.68297,3.527672 -2.02426,1.557153 -4.92637,3.630096 -6.79405,5.238164 -1.86768,1.608067 -2.69729,2.748789 -3.16457,4.254012 -0.46727,1.505225 -0.57091,3.370735 -0.10148,4.878405 0.46943,1.50767 1.50157,2.64302 3.11015,3.21362 1.60857,0.57061 3.78706,0.57061 6.2867,-0.13481 2.49964,-0.70543 5.48871,-2.19996 13.05932,-7.48904 7.57061,-5.289088 19.81725,-14.422175 26.14528,-19.350067 6.32803,-4.927893 6.74304,-5.654156 7.32542,-7.464011 0.58239,-1.809854 1.28461,-4.518413 1.54383,-8.200186 0.25923,-3.681774 0.0516,-8.248352 -0.52638,-11.146816 -0.57804,-2.898463 -1.70436,-4.362682 -2.89717,-5.503653 -1.1928,-1.140971 -2.54159,-2.074748 -3.73431,-2.54166 -1.19272,-0.466912 -2.22998,-0.466912 -3.78607,-0.363224 z"
         style="fill:#fe0000;fill-opacity:1;stroke:#000000;stroke-width:1px;stroke-linecap:butt;stroke-linejoin:miter;stroke-opacity:1" />
    </g>
  </g>
  <g
     style="display:inline"
     inkscape:label="White Rectangle"
     id="g2560"
     inkscape:groupmode="layer">
    <rect
       y="213.77112"
       x="129.4014"
       height="64.700706"
       width="276.8486"
       id="rect2558"
       style="opacity:1;vector-effect:none;fill:#ffffff;fill-opacity:1;fill-rule:nonzero;stroke:none;stroke-width:1;stroke-linecap:butt;stroke-linejoin:round;stroke-miterlimit:4;stroke-dasharray:none;stroke-dashoffset:0;stroke-opacity:1" />
  </g>
  <g
     inkscape:groupmode="layer"
     id="layer6"
     inkscape:label="Blue Rectangle"
     style="display:inline">
    <rect
       style="opacity:1;vector-effect:none;fill:#0363ab;fill-opacity:1;fill-rule:nonzero;stroke:#000000;stroke-width:1;stroke-linecap:butt;stroke-linejoin:round;stroke-miterlimit:4;stroke-dasharray:none;stroke-dashoffset:0;stroke-opacity:1"
       id="rect2556"
       width="276.8486"
       height="64.700706"
       x="123.23943"
       y="209.80986" />
  </g>
  <g
     inkscape:groupmode="layer"
     id="layer5"
     inkscape:label="OF RAGE"
     sodipodi:insensitive="true">
    <g
       aria-label="OF RAGE"
       style="font-style:normal;font-variant:normal;font-weight:bold;font-stretch:normal;font-size:60px;line-height:2.25;font-family:sans-serif;-inkscape-font-specification:'sans-serif Bold';letter-spacing:-5.69999981px;word-spacing:3.70000005px;fill:#ffffff;fill-opacity:1;stroke:#000000;stroke-opacity:1"
       id="text2534">
      <path
         d="m 179.01466,241.74365 q 0,10.42969 -5.97656,16.58203 -5.97656,6.12305 -16.52344,6.12305 -10.51757,0 -16.49414,-6.12305 -5.97656,-6.15234 -5.97656,-16.58203 0,-10.51758 5.97656,-16.61133 5.97657,-6.12304 16.49414,-6.12304 10.48828,0 16.49414,6.12304 6.00586,6.09375 6.00586,16.61133 z m -14.91211,11.04492 q 1.64063,-1.99218 2.43164,-4.6875 0.79102,-2.72461 0.79102,-6.38671 0,-3.92579 -0.9082,-6.67969 -0.90821,-2.75391 -2.37305,-4.45313 -1.49414,-1.75781 -3.45703,-2.54883 -1.93359,-0.79101 -4.04297,-0.79101 -2.13867,0 -4.04297,0.76172 -1.875,0.76172 -3.45703,2.51953 -1.46484,1.64062 -2.40234,4.54101 -0.90821,2.8711 -0.90821,6.67969 0,3.89649 0.87891,6.65039 0.9082,2.72461 2.37305,4.45313 1.46484,1.72851 3.42773,2.54883 1.96289,0.82031 4.13086,0.82031 2.16797,0 4.13086,-0.82031 1.96289,-0.84961 3.42773,-2.60743 z"
         style="font-size:60px;line-height:2.25;letter-spacing:-5.69999981px;word-spacing:3.70000005px;fill:#ffffff;fill-opacity:1;stroke:#000000;stroke-opacity:1"
         id="path2536"
         inkscape:connector-curvature="0" />
      <path
         d="m 213.12912,228.35498 h -20.06836 v 8.11523 h 18.60351 v 8.4375 h -18.60351 v 18.63282 h -11.19141 v -43.62305 h 31.25977 z"
         style="font-size:60px;line-height:2.25;letter-spacing:-5.69999981px;word-spacing:3.70000005px;fill:#ffffff;fill-opacity:1;stroke:#000000;stroke-opacity:1"
         id="path2538"
         inkscape:connector-curvature="0" />
      <path
         d="m 258.16349,233.27686 q 0,-1.64063 -0.67383,-2.8125 -0.67383,-1.17188 -2.31445,-1.84571 -1.14258,-0.46875 -2.66602,-0.55664 -1.52343,-0.11719 -3.54492,-0.11719 h -4.07226 v 11.74805 h 3.45703 q 2.69531,0 4.51172,-0.26367 1.8164,-0.26367 3.04687,-1.20117 1.17188,-0.90821 1.69922,-1.99219 0.55664,-1.11328 0.55664,-2.95898 z m 17.54883,30.26367 h -13.74024 l -11.89453,-15.9961 h -5.18554 v 15.9961 H 233.7006 v -43.62305 h 18.86719 q 3.86718,0 6.65039,0.43945 2.7832,0.43946 5.21484,1.9043 2.46094,1.46484 3.89649,3.80859 1.46484,2.31446 1.46484,5.83008 0,4.83399 -2.25586,7.88086 -2.22656,3.04688 -6.38672,5.06836 z"
         style="font-size:60px;line-height:2.25;letter-spacing:-5.69999981px;word-spacing:3.70000005px;fill:#ffffff;fill-opacity:1;stroke:#000000;stroke-opacity:1"
         id="path2540"
         inkscape:connector-curvature="0" />
      <path
         d="m 315.30528,263.54053 h -11.63086 l -3.01757,-8.81836 h -16.17188 l -3.01758,8.81836 H 270.1295 l 16.11328,-43.62305 H 299.192 Z m -17.37304,-16.81641 -5.36133,-15.64453 -5.36133,15.64453 z"
         style="font-size:60px;line-height:2.25;letter-spacing:-5.69999981px;word-spacing:3.70000005px;fill:#ffffff;fill-opacity:1;stroke:#000000;stroke-opacity:1"
         id="path2542"
         inkscape:connector-curvature="0" />
      <path
         d="m 354.5174,261.05029 q -2.92969,1.14258 -7.76368,2.28516 -4.83398,1.11328 -9.63867,1.11328 -11.13281,0 -17.43164,-6.03516 -6.29883,-6.06445 -6.29883,-16.72851 0,-10.16602 6.35742,-16.37695 6.35743,-6.24024 17.72461,-6.24024 4.30664,0 8.20313,0.79102 3.89648,0.76172 8.67187,3.07617 v 10.22461 h -1.25976 q -0.82031,-0.61524 -2.40235,-1.72852 -1.58203,-1.14258 -3.04687,-1.93359 -1.69922,-0.9375 -3.98438,-1.61133 -2.25585,-0.67383 -4.80468,-0.67383 -2.98828,0 -5.41992,0.87891 -2.43165,0.8789 -4.36524,2.69531 -1.8457,1.75781 -2.92969,4.48242 -1.05468,2.69532 -1.05468,6.24024 0,7.23633 3.83789,11.07422 3.83789,3.83789 11.33789,3.83789 0.64453,0 1.40625,-0.0293 0.79101,-0.0293 1.43554,-0.0879 v -8.55469 h -8.70117 v -8.23242 h 20.12696 z"
         style="font-size:60px;line-height:2.25;letter-spacing:-5.69999981px;word-spacing:3.70000005px;fill:#ffffff;fill-opacity:1;stroke:#000000;stroke-opacity:1"
         id="path2544"
         inkscape:connector-curvature="0" />
      <path
         d="m 390.41896,263.54053 h -31.55273 v -43.62305 h 31.55273 v 8.4375 h -20.36133 v 7.5293 h 18.89649 v 8.4375 h -18.89649 v 10.78125 h 20.36133 z"
         style="font-size:60px;line-height:2.25;letter-spacing:-5.69999981px;word-spacing:3.70000005px;fill:#ffffff;fill-opacity:1;stroke:#000000;stroke-opacity:1"
         id="path2546"
         inkscape:connector-curvature="0" />
    </g>
    <rect
       style="opacity:1;vector-effect:none;fill:#ffffff;fill-opacity:1;fill-rule:nonzero;stroke:none;stroke-width:1.00921679;stroke-linecap:butt;stroke-linejoin:round;stroke-miterlimit:4;stroke-dasharray:none;stroke-dashoffset:0;stroke-opacity:1"
       id="rect2553"
       width="6.9636946"
       height="4.2793651"
       x="267.65485"
       y="258.75543" />
  </g>
  <g
     style="display:inline"
     inkscape:label="Open Shadow"
     id="g2440"
     inkscape:groupmode="layer"
     sodipodi:insensitive="true">
    <path
       inkscape:connector-curvature="0"
       id="path2432"
       d="M 135.58772,0.7754198 V 6.066436 h -5.91211 v 5.601562 h -5.75781 v 23.1875 h 5.75781 v 5.91211 h 29.41016 v -5.91211 h 4.98047 v -23.1875 -5.601562 h -4.98047 -0.77735 V 0.7754198 Z m 5.83594,5.7968752 h 10.5039 v 27.621094 h -10.5039 z"
       style="opacity:1;vector-effect:none;fill:#000000;fill-opacity:1;fill-rule:nonzero;stroke:none;stroke-width:1.56318724;stroke-linecap:butt;stroke-linejoin:round;stroke-miterlimit:4;stroke-dasharray:none;stroke-dashoffset:0;stroke-opacity:1" />
    <path
       inkscape:connector-curvature="0"
       id="path2434"
       d="M 216.81819,0.6191698 V 6.066436 h -5.67969 v 6.457031 h -5.29101 V 40.457061 H 222.8885 V 28.785186 h 5.13477 5.99023 v -5.523438 h 5.52539 v -5.757812 h 5.29102 V 6.689482 h -5.29102 V 0.6191698 H 222.8885 Z m 6.07031,6.0703122 h 11.125 v 10.814454 h -5.99023 v 5.134765 H 222.8885 V 12.523467 Z"
       style="opacity:1;vector-effect:none;fill:#000000;fill-opacity:1;fill-rule:nonzero;stroke:none;stroke-width:1;stroke-linecap:butt;stroke-linejoin:round;stroke-miterlimit:4;stroke-dasharray:none;stroke-dashoffset:0;stroke-opacity:1" />
    <path
       inkscape:connector-curvature="0"
       id="path2436"
       d="m 297.73811,0.308623 v 6.224609 h -5.13477 v 5.523438 h -5.91406 v 28.710938 h 17.89453 22.25391 V 34.464873 H 304.58381 V 23.728545 h 16.72852 V 17.503936 H 304.58381 V 12.05667 6.533232 h 22.25391 V 0.308623 Z"
       style="opacity:1;vector-effect:none;fill:#000000;fill-opacity:1;fill-rule:nonzero;stroke:none;stroke-width:0.9919433;stroke-linecap:butt;stroke-linejoin:round;stroke-miterlimit:4;stroke-dasharray:none;stroke-dashoffset:0;stroke-opacity:1" />
    <path
       inkscape:connector-curvature="0"
       id="path2438"
       d="M 379.49397,0.6972948 V 5.978545 h -6.02148 v 6.052735 h -6.05079 v 28.658203 h 12.29297 6.24219 V 23.648467 h 5.36133 v 5.25 h 5.3125 v 11.791016 h 12.29297 V 0.6972948 H 396.63069 V 17.267608 h -5.15625 v -5.25 h -5.51758 V 0.6972948 Z"
       style="opacity:0.98000004;vector-effect:none;fill:#000000;fill-opacity:1;fill-rule:nonzero;stroke:none;stroke-width:1.02118754;stroke-linecap:butt;stroke-linejoin:round;stroke-miterlimit:4;stroke-dasharray:none;stroke-dashoffset:0;stroke-opacity:1" />
  </g>
  <g
     inkscape:groupmode="layer"
     id="g2450"
     inkscape:label="Open Shadow 2"
     style="display:inline"
     sodipodi:insensitive="true">
    <path
       style="opacity:1;vector-effect:none;fill:#000000;fill-opacity:1;fill-rule:nonzero;stroke:none;stroke-width:1.56318724;stroke-linecap:butt;stroke-linejoin:round;stroke-miterlimit:4;stroke-dasharray:none;stroke-dashoffset:0;stroke-opacity:1"
       d="m 135.58772,7.0000288 v 5.2910162 h -5.91211 v 5.601562 h -5.75781 v 23.1875 h 5.75781 v 5.91211 h 29.41016 v -5.91211 h 4.98047 v -23.1875 -5.601562 h -4.98047 -0.77735 V 7.0000288 Z m 5.83594,5.7968752 h 10.5039 v 27.621094 h -10.5039 z"
       id="path2442"
       inkscape:connector-curvature="0" />
    <path
       style="opacity:1;vector-effect:none;fill:#000000;fill-opacity:1;fill-rule:nonzero;stroke:none;stroke-width:1;stroke-linecap:butt;stroke-linejoin:round;stroke-miterlimit:4;stroke-dasharray:none;stroke-dashoffset:0;stroke-opacity:1"
       d="m 216.81819,6.8437788 v 5.4472662 h -5.67969 v 6.457031 h -5.29101 V 46.68167 H 222.8885 V 35.009795 h 5.13477 5.99023 v -5.523438 h 5.52539 v -5.757812 h 5.29102 V 12.914091 h -5.29102 V 6.8437788 H 222.8885 Z m 6.07031,6.0703122 h 11.125 v 10.814454 h -5.99023 V 28.86331 H 222.8885 V 18.748076 Z"
       id="path2444"
       inkscape:connector-curvature="0" />
    <path
       style="opacity:1;vector-effect:none;fill:#000000;fill-opacity:1;fill-rule:nonzero;stroke:none;stroke-width:0.9919433;stroke-linecap:butt;stroke-linejoin:round;stroke-miterlimit:4;stroke-dasharray:none;stroke-dashoffset:0;stroke-opacity:1"
       d="m 297.73811,6.533232 v 6.224609 h -5.13477 v 5.523438 h -5.91406 v 28.710938 h 17.89453 22.25391 V 40.689482 H 304.58381 V 29.953154 h 16.72852 v -6.224609 h -16.72852 v -5.447266 -5.523438 h 22.25391 V 6.533232 Z"
       id="path2446"
       inkscape:connector-curvature="0" />
    <path
       style="opacity:0.98000004;vector-effect:none;fill:#000000;fill-opacity:1;fill-rule:nonzero;stroke:none;stroke-width:1.02118754;stroke-linecap:butt;stroke-linejoin:round;stroke-miterlimit:4;stroke-dasharray:none;stroke-dashoffset:0;stroke-opacity:1"
       d="m 379.49397,6.9219038 v 5.2812502 h -6.02148 v 6.052735 h -6.05079 v 28.658203 h 12.29297 6.24219 V 29.873076 h 5.36133 v 5.25 h 5.3125 v 11.791016 h 12.29297 V 6.9219038 H 396.63069 V 23.492217 h -5.15625 v -5.25 h -5.51758 V 6.9219038 Z"
       id="path2448"
       inkscape:connector-curvature="0" />
  </g>
  <g
     inkscape:groupmode="layer"
     id="layer1"
     inkscape:label="Open Blue"
     style="display:inline;opacity:1"
     sodipodi:insensitive="true">
    <path
       style="opacity:1;vector-effect:none;fill:#0363ab;fill-opacity:1;fill-rule:nonzero;stroke:#00000f;stroke-width:1.56318724;stroke-linecap:butt;stroke-linejoin:round;stroke-miterlimit:4;stroke-dasharray:none;stroke-dashoffset:0;stroke-opacity:0.94117647"
       d="M 129.8299,0.7754195 V 6.066436 h -5.91211 v 5.601562 h -5.75781 v 23.1875 h 5.75781 v 5.91211 h 29.41016 v -5.91211 h 4.98047 v -23.1875 -5.601562 h -4.98047 -0.77735 V 0.7754195 Z m 5.83594,5.7968755 h 10.5039 v 27.621094 h -10.5039 z"
       id="rect2253"
       inkscape:connector-curvature="0" />
    <path
       style="opacity:1;vector-effect:none;fill:#0363ab;fill-opacity:1;fill-rule:nonzero;stroke:#00000f;stroke-width:1;stroke-linecap:butt;stroke-linejoin:round;stroke-miterlimit:4;stroke-dasharray:none;stroke-dashoffset:0;stroke-opacity:0.94117647"
       d="M 211.06037,0.6191695 V 6.066436 h -5.67969 v 6.457031 h -5.29101 v 27.933594 h 17.04101 V 28.785186 h 5.13477 5.99023 v -5.523438 h 5.52539 v -5.757812 h 5.29102 V 6.689482 h -5.29102 V 0.6191695 h -16.65039 z m 6.07031,6.0703125 h 11.125 v 10.814454 h -5.99023 v 5.134765 h -5.13477 V 12.523467 Z"
       id="rect2296"
       inkscape:connector-curvature="0" />
    <path
       style="opacity:1;vector-effect:none;fill:#0363ab;fill-opacity:1;fill-rule:nonzero;stroke:#00000f;stroke-width:0.9919433;stroke-linecap:butt;stroke-linejoin:round;stroke-miterlimit:4;stroke-dasharray:none;stroke-dashoffset:0;stroke-opacity:0.94117647"
       d="M 291.98029,0.3086227 V 6.533232 h -5.13477 v 5.523438 h -5.91406 v 28.710938 h 17.89453 22.25391 V 34.464873 H 298.82599 V 23.728545 h 16.72852 V 17.503936 H 298.82599 V 12.05667 6.533232 H 321.0799 V 0.3086227 Z"
       id="rect2313"
       inkscape:connector-curvature="0" />
    <path
       style="opacity:1;vector-effect:none;fill:#0363ab;fill-opacity:1;fill-rule:nonzero;stroke:#00000f;stroke-width:1.02118754;stroke-linecap:butt;stroke-linejoin:round;stroke-miterlimit:4;stroke-dasharray:none;stroke-dashoffset:0;stroke-opacity:0.94117647"
       d="M 373.73615,0.6972945 V 5.978545 h -6.02148 v 6.052735 h -6.05079 v 28.658203 h 12.29297 6.24219 V 23.648467 h 5.36133 v 5.25 h 5.3125 v 11.791016 h 12.29297 V 0.6972945 H 390.87287 V 17.267608 h -5.15625 v -5.25 h -5.51758 V 0.6972945 Z"
       id="rect2350"
       inkscape:connector-curvature="0" />
  </g>
</svg>
