<?xml version="1.0" encoding="UTF-8" standalone="no"?>
<svg
   xmlns:dc="http://purl.org/dc/elements/1.1/"
   xmlns:cc="http://creativecommons.org/ns#"
   xmlns:rdf="http://www.w3.org/1999/02/22-rdf-syntax-ns#"
   xmlns:svg="http://www.w3.org/2000/svg"
   xmlns="http://www.w3.org/2000/svg"
   xmlns:sodipodi="http://sodipodi.sourceforge.net/DTD/sodipodi-0.dtd"
   xmlns:inkscape="http://www.inkscape.org/namespaces/inkscape"
   version="1.2"
   width="571.92902"
   height="87.963997"
   id="svg7614"
   sodipodi:docname="system.svg"
   inkscape:version="0.92.2 (5c3e80d, 2017-08-06)">
  <metadata
     id="metadata7620">
    <rdf:RDF>
      <cc:Work
         rdf:about="">
        <dc:format>image/svg+xml</dc:format>
        <dc:type
           rdf:resource="http://purl.org/dc/dcmitype/StillImage" />
        <dc:title></dc:title>
      </cc:Work>
    </rdf:RDF>
  </metadata>
  <defs
     id="defs7618" />
  <sodipodi:namedview
     pagecolor="#ffffff"
     bordercolor="#666666"
     borderopacity="1"
     objecttolerance="10"
     gridtolerance="10"
     guidetolerance="10"
     inkscape:pageopacity="0"
     inkscape:pageshadow="2"
     inkscape:window-width="1920"
     inkscape:window-height="1017"
     id="namedview7616"
     showgrid="false"
     inkscape:pagecheckerboard="true"
     inkscape:zoom="1.7760955"
     inkscape:cx="193.38574"
     inkscape:cy="43.665902"
     inkscape:window-x="1912"
     inkscape:window-y="-8"
     inkscape:window-maximized="1"
     inkscape:current-layer="svg7614" />
  <path
     d="M 2.566,52.343 V 44.608 H 63.131 V 35.781 H 2.566 L 2.185,11.961 h 68.81 v 7.714 H 10.429 l 0.381,8.394 H 71.374 V 52.345 H 2.566 Z m 73.791,0 v -40.23 h 8.244 v 40.23 z m 12.669,0 v -40.23 h 68.81 v 40.23 h -8.244 V 19.826 H 97.269 v 32.52 z m 73.211,0 v -40.23 h 68.86 v 7.714 h -60.564 v 24.782 h 60.564 v 7.739 h -68.86 z m 74.346,0 V 0 h 8.246 v 52.345 h -8.246 z m 86.411,0 v -40.23 h 8.295 v 40.23 z m 13.277,0 v -40.23 h 68.807 v 7.714 h -60.563 v 32.521 h -8.244 z m -87.043,-40.23 v 7.714 h 60.564 v 8.824 h -60.564 v 23.694 h 68.861 V 12.113 Z m 60.564,32.496 h -52.271 v -8.827 h 52.271 z M 76.357,7.739 V 0 h 8.244 v 7.739 z m 246.637,0 V 0 h 8.295 V 7.739 Z M 2,80.22 11.688,68.634 H 2.76 v -3.336 h 14.215 v 3.136 L 7.287,80.02 h 9.941 v 3.338 H 2 Z m 21.985,-6.323 -5.819,-8.601 h 4.604 l 3.542,5.768 3.668,-5.768 h 4.351 l -5.792,8.625 6.298,9.436 h -4.73 L 26.16,77.11 22.138,83.357 h -4.479 z m 22.187,3.468 c 0,2.402 1.871,3.338 3.996,3.338 1.393,0 3.519,-0.404 3.519,-2.252 0,-1.947 -2.707,-2.275 -5.363,-2.984 -2.681,-0.709 -5.388,-1.744 -5.388,-5.137 0,-3.692 3.491,-5.463 6.754,-5.463 3.769,0 7.235,1.643 7.235,5.818 H 53.08 c -0.126,-2.176 -1.67,-2.73 -3.566,-2.73 -1.266,0 -2.732,0.531 -2.732,2.049 0,1.394 0.861,1.567 5.389,2.731 1.315,0.329 5.362,1.163 5.362,5.261 0,3.313 -2.605,5.793 -7.513,5.793 -3.997,0 -7.741,-1.974 -7.69,-6.424 z m 13.331,-7.084 h 3.416 v 1.67 h 0.052 c 0.858,-1.391 2.275,-2.023 3.895,-2.023 4.099,0 5.944,3.314 5.944,7.031 0,3.492 -1.922,6.754 -5.742,6.754 -1.569,0 -3.061,-0.684 -3.921,-1.973 h -0.051 v 6.225 h -3.593 z m 9.715,6.576 c 0,-2.074 -0.835,-4.225 -3.138,-4.225 -2.353,0 -3.11,2.101 -3.11,4.225 0,2.125 0.809,4.148 3.137,4.148 2.351,0 3.111,-2.022 3.111,-4.148 z m 8.704,0.834 c 0.101,2.277 1.214,3.314 3.212,3.314 1.441,0 2.605,-0.885 2.833,-1.694 h 3.161 c -1.012,3.085 -3.161,4.399 -6.121,4.399 -4.124,0 -6.678,-2.832 -6.678,-6.881 0,-3.922 2.708,-6.906 6.678,-6.906 4.451,0 6.603,3.746 6.35,7.767 z m 5.842,-2.275 c -0.328,-1.822 -1.113,-2.781 -2.858,-2.781 -2.277,0 -2.935,1.77 -2.985,2.781 z m 14.623,-0.532 c -0.229,-1.467 -1.164,-2.25 -2.657,-2.25 -2.302,0 -3.062,2.326 -3.062,4.248 0,1.873 0.733,4.123 2.985,4.123 1.669,0 2.63,-1.063 2.858,-2.653 h 3.464 c -0.455,3.464 -2.858,5.36 -6.298,5.36 -3.946,0 -6.604,-2.781 -6.604,-6.703 0,-4.072 2.428,-7.084 6.678,-7.084 3.088,0 5.92,1.619 6.147,4.961 z m 10.171,-4.603 h 2.63 v 2.403 h -2.63 v 6.476 c 0,1.215 0.303,1.521 1.517,1.521 0.38,0 0.734,-0.025 1.113,-0.104 v 2.807 c -0.606,0.104 -1.391,0.13 -2.099,0.13 -2.201,0 -4.123,-0.509 -4.123,-3.112 v -7.714 h -2.177 v -2.403 h 2.177 V 66.36 h 3.592 z m 4.351,0 h 3.415 v 2.43 h 0.051 c 0.657,-1.646 2.429,-2.782 4.175,-2.782 0.253,0 0.556,0.05 0.784,0.129 v 3.337 a 6.627,6.627 0 0 0 -1.29,-0.126 c -2.63,0 -3.542,1.896 -3.542,4.196 v 5.896 h -3.592 z m 22.109,13.077 h -3.416 v -1.821 h -0.076 c -0.911,1.467 -2.479,2.176 -3.997,2.176 -3.82,0 -4.782,-2.147 -4.782,-5.387 v -8.045 h 3.594 v 7.387 c 0,2.149 0.632,3.213 2.301,3.213 1.949,0 2.783,-1.088 2.783,-3.743 v -6.854 h 3.592 z m 2.834,-13.077 h 3.391 v 1.771 h 0.05 c 0.937,-1.344 2.302,-2.127 3.997,-2.127 1.645,0 3.111,0.607 3.82,2.178 0.759,-1.141 2.125,-2.178 3.946,-2.178 2.783,0 4.782,1.289 4.782,4.681 v 8.752 h -3.593 v -7.412 c 0,-1.743 -0.15,-3.187 -2.2,-3.187 -2.024,0 -2.404,1.67 -2.404,3.313 v 7.286 h -3.592 v -7.335 c 0,-1.52 0.101,-3.264 -2.177,-3.264 -0.708,0 -2.428,0.455 -2.428,3.011 v 7.588 h -3.592 z"
     id="path7604"
     style="fill:#000000;fill-opacity:1"
     inkscape:connector-curvature="0" />
  <path
     d="m 431.958,2.173 -60.103,60.112 h 34.207 L 466.167,2.173 Z"
     id="path7606"
     inkscape:connector-curvature="0"
     style="fill:#ca2825" />
  <path
     d="m 466.244,2.173 -60.106,60.112 h 34.209 L 500.451,2.173 Z"
     id="path7608"
     inkscape:connector-curvature="0"
     style="fill:#fdc601" />
  <path
     d="m 500.501,2.173 -60.103,60.112 h 34.207 L 534.71,2.173 Z"
     id="path7610"
     inkscape:connector-curvature="0"
     style="fill:#009c37" />
  <path
     d="m 534.722,2.173 -60.105,60.112 h 34.209 L 568.929,2.173 Z"
     id="path7612"
     inkscape:connector-curvature="0"
     style="fill:#02559c" />
</svg>
