<?xml version="1.0" encoding="UTF-8" standalone="no"?>
<svg
   xmlns:dc="http://purl.org/dc/elements/1.1/"
   xmlns:cc="http://creativecommons.org/ns#"
   xmlns:rdf="http://www.w3.org/1999/02/22-rdf-syntax-ns#"
   xmlns:svg="http://www.w3.org/2000/svg"
   xmlns="http://www.w3.org/2000/svg"
   xmlns:xlink="http://www.w3.org/1999/xlink"
   xmlns:sodipodi="http://sodipodi.sourceforge.net/DTD/sodipodi-0.dtd"
   xmlns:inkscape="http://www.inkscape.org/namespaces/inkscape"
   width="568"
   height="93.17"
   viewBox="-0.57 -0.5 568 93.17"
   version="1.1"
   id="svg5219"
   sodipodi:docname="system.svg"
   inkscape:version="0.92.2 (5c3e80d, 2017-08-06)">
  <metadata
     id="metadata5225">
    <rdf:RDF>
      <cc:Work
         rdf:about="">
        <dc:format>image/svg+xml</dc:format>
        <dc:type
           rdf:resource="http://purl.org/dc/dcmitype/StillImage" />
      </cc:Work>
    </rdf:RDF>
  </metadata>
  <defs
     id="defs5223">
    <linearGradient
       inkscape:collect="always"
       id="linearGradient5774">
      <stop
         style="stop-color:#000000;stop-opacity:1;"
         offset="0"
         id="stop5770" />
      <stop
         style="stop-color:#000000;stop-opacity:0;"
         offset="1"
         id="stop5772" />
    </linearGradient>
    <linearGradient
       inkscape:collect="always"
       xlink:href="#linearGradient5774"
       id="linearGradient5788"
       x1="386.92001"
       y1="46.294998"
       x2="567.42999"
       y2="46.294998"
       gradientUnits="userSpaceOnUse" />
  </defs>
  <sodipodi:namedview
     pagecolor="#ffffff"
     bordercolor="#666666"
     borderopacity="1"
     objecttolerance="10"
     gridtolerance="10"
     guidetolerance="10"
     inkscape:pageopacity="0"
     inkscape:pageshadow="2"
     inkscape:window-width="1366"
     inkscape:window-height="705"
     id="namedview5221"
     showgrid="false"
     inkscape:zoom="0.5"
     inkscape:cx="284"
     inkscape:cy="46.584999"
     inkscape:window-x="-8"
     inkscape:window-y="-8"
     inkscape:window-maximized="1"
     inkscape:current-layer="svg5219" />
  <linearGradient
     id="a"
     gradientUnits="userSpaceOnUse"
     x1="176.73"
     x2="176.73"
     y2="92.5">
    <stop
       offset="0"
       stop-color="#fff"
       id="stop5177" />
    <stop
       offset="1"
       stop-color="#ccc"
       id="stop5179" />
  </linearGradient>
  <path
     fill="url(#a)"
     d="M18.42 92.14L19.8 74h7.5l1.52 18.13h18.52L35.72.45H11.79L0 92.14h18.42m7.8-33.26h-5.34l2.7-35.63 2.63 35.63M77.56.45H51.75v91.69H69.4V39.92l7.3 52.22h11.47l7-51.94v51.94h17.66V.45H86.99l-4.8 40.5L77.56.45m38.48 11.16c0 6.32-.08 12.63-.03 18.95.03 1.04.1 2.07.16 2.81.13 1.57.25 2.04.51 3.06.27 1 .72 2.26 1.44 3.37.33.53.7 1.03 1.27 1.64.55.61 1.3 1.33 2.08 2a26.87 26.87 0 0 0 5.13 3.4c3.85 2.12 7.68 4.23 11.55 6.39.52.33 1.07.6 1.62 1.13 1.33 1.28 1.33 2.77 1.31 4.2l.07 1.97.03 12.42c.01.9-.07 1.8-.51 2.76a2.62 2.62 0 0 1-4.15.66c-.98-.95-.87-2.29-1.01-3.44l-.01-18.69h-19.51l.02 20.92c.01 2.57.03 5 .58 7.52.3 1.3.78 2.65 1.5 3.86.73 1.2 1.7 2.27 2.83 3.1a13.5 13.5 0 0 0 3.46 1.79c1.03.35 1.79.46 2.54.55.76.1 1.51.2 2.27.2h19.83c.9 0 1.8.03 2.9-.27 1.11-.3 2.42-.85 3.56-1.57a9.52 9.52 0 0 0 2.75-2.59c.66-.97 1.03-2 1.34-2.93s.58-1.77.77-2.88a34 34 0 0 0 .38-3.88c.06-1.38.03-2.77.03-4.16V59.2v-1.17a90.87 90.87 0 0 0-.25-5.84 11.58 11.58 0 0 0-.97-3.9c-.28-.6-.73-1.47-1.27-2.28-.55-.8-1.18-1.54-1.9-2.2-.7-.66-1.49-1.24-2.36-1.84a77.05 77.05 0 0 0-5.77-3.56l-8.28-4.52a20.76 20.76 0 0 1-2.68-1.73c-.5-.38-.5-.43-.7-.65A5.46 5.46 0 0 1 135.5 29c-.05-.4-.01-.8-.01-1.2 0-2.89-.02-5.86.01-8.66-.01-.65 0-1.39.24-2.08.11-.34.26-.67.44-.95.94-1.26 2.07-1.44 3.3-.92.29.14.55.36.77.6a3.04 3.04 0 0 1 .78 1.9c.1.93.12 2.2.11 3.3V31.9h19.6c-.02-5.63.07-11.26-.06-16.9-.06-1.3-.15-2.6-.23-3.46a14.75 14.75 0 0 0-.53-2.9 14.2 14.2 0 0 0-1.98-4.01 9.8 9.8 0 0 0-2.3-2.24 11.95 11.95 0 0 0-2.7-1.4c-1.66-.56-2.93-.66-4.37-.84-.7-.07-1.41-.14-2.12-.14L129.5.14c-1.95.06-3.88.3-5.9.87a9.94 9.94 0 0 0-6.16 5.34 12.3 12.3 0 0 0-1.4 5.26M163.98.45v14.79h9.77v76.9h19.6v-76.9h9.7V.45h-39.07m65.2 0h-20.87v91.69h19.57V55.59c1.29.05 2.57-.1 3.87.3.27.1.53.24.75.43.9.78.83 1.77.97 2.7.17 1.88.04 3.77.09 5.66v27.46h19.56l-.01-28.67a41.4 41.4 0 0 0-.84-8.45 12.53 12.53 0 0 0-2.42-4.67 10.8 10.8 0 0 0-5.5-3.41 12.9 12.9 0 0 0 1.53-.48 10.06 10.06 0 0 0 4.91-4.03c.57-.91 1-1.92 1.25-2.97.2-.75.38-1.5.52-2.26.46-3.09.63-6.18.56-9.29v-9.6a35.92 35.92 0 0 0-.7-8.36 12.28 12.28 0 0 0-2.55-5.31 11.78 11.78 0 0 0-7.6-3.69c-4.36-.51-8.73-.37-13.09-.5m-1.3 14.9c.93.02 1.84.03 2.77.03.44.04.9.15 1.33.35 1.28.84 1.34 1.9 1.46 2.93.08 1.15.08 2.31.12 3.47-.02 4.02.05 8.04-.05 12.05-.01.72-.07 1.43-.18 2.15a2.61 2.61 0 0 1-.92 1.74c-.59.53-1.38.56-2.09.64-.8.08-1.62.09-2.44.03V15.36m47.7 76.78L276.94 74h7.5l1.51 18.13h18.52L292.88.45h-23.94l-11.79 91.69h18.43m7.79-33.26h-5.34l2.7-35.63 2.64 35.63m67.72-52.77a10.54 10.54 0 0 0-2.55-2.8 13.47 13.47 0 0 0-3.01-1.7 8.88 8.88 0 0 0-1.98-.54 28.68 28.68 0 0 0-4.15-.42c-1.34-.06-3.45-.19-5.57-.2h-25.37v91.69l31.1-.05c.78 0 1.53-.23 2.3-.36 1.6-.29 3.01-.6 4.52-1.27.8-.36 1.64-.84 2.42-1.42a8.2 8.2 0 0 0 2.13-2.36 15.88 15.88 0 0 0 1.73-4.3c.45-1.77.8-3.87.8-5.97l-.14-62.58c0-1.43-.36-2.84-.73-4.15-.36-1.3-.83-2.5-1.5-3.57m-21.83 9.33c.42 0 .84-.03 1.24.02s.8.14 1.11.24c.32.1.57.2.8.36s.42.34.57.56c.68 1.02.6 2.46.66 3.75v52.8c0 .39 0 .78-.06 1.16-.06.38-.15.74-.27 1.06a2.62 2.62 0 0 1-1.19 1.4c-.27.16-.55.34-.86.34h-3.2v-61.7h1.2"
     id="path5182"
     style="fill:#000000;fill-opacity:1" />
  <path
     d="M149.02 92.67h-19.83c-.8 0-1.58-.1-2.33-.2-.76-.08-1.57-.2-2.64-.57-1.07-.37-2.4-.99-3.6-1.86a11.19 11.19 0 0 1-2.95-3.25 13.87 13.87 0 0 1-1.56-4c-.57-2.58-.59-5.06-.6-7.63l-.03-21.42H136v19.12c.14 1.25.08 2.41.86 3.15.2.18.42.32.65.42a2.16 2.16 0 0 0 2.23-.35c.2-.16.37-.38.47-.57.38-.83.47-1.6.47-2.41v-.15l-.03-12.4-.07-2v-.46c0-1.26-.11-2.35-1.16-3.37-.49-.47-.99-.72-1.51-1.06l-11.55-6.38a27.37 27.37 0 0 1-5.22-3.46c-.8-.68-1.55-1.41-2.13-2.04-.57-.63-.97-1.16-1.32-1.71a14.98 14.98 0 0 1-2.03-6.66c-.05-.75-.12-1.79-.15-2.84-.02-1.62-.02-3.24-.02-4.86 0-4.7.04-9.4.05-14.1h.5l-.5-.01c.04-1.88.57-3.76 1.45-5.48.44-.84.96-1.63 1.47-2.26 1-1.23 2-1.95 3.15-2.57.58-.31 1.19-.56 1.85-.76 2.07-.58 4.04-.83 6.03-.9l16.94-.13h.11c.72 0 1.41.07 2.1.14 1.43.19 2.75.29 4.47.88.88.32 1.9.8 2.82 1.45.93.64 1.75 1.44 2.42 2.35.67.91 1.16 1.91 1.48 2.61.32.7.46 1.14.58 1.56a15.16 15.16 0 0 1 .55 3c.07.87.17 2.17.22 3.5.06 2.53.08 5.06.08 7.6l-.02 7.35v2.45h-20.6v-11.4-.55c0-.96-.01-1.96-.1-2.7a3.21 3.21 0 0 0-.22-.93c-.1-.25-.25-.49-.44-.7a2.3 2.3 0 0 0-.58-.47 2.62 2.62 0 0 0-1.03-.24c-.6.01-1.12.25-1.66.97-.15.23-.28.52-.39.84-.17.5-.22 1.04-.22 1.58l.01.35-.02 3.83v4.82l-.01.76a5.03 5.03 0 0 0 .71 2.29l.23.33c.25.26.16.22.65.6a19.1 19.1 0 0 0 2.62 1.68l8.28 4.52a78.69 78.69 0 0 1 5.8 3.58c.89.6 1.7 1.2 2.43 1.9.74.68 1.4 1.45 1.97 2.28.56.84 1.02 1.72 1.32 2.35.29.63.41 1.02.52 1.38a11.94 11.94 0 0 1 .48 2.69 93.45 93.45 0 0 1 .25 5.87V73.9l.01 2.08c0 .7 0 1.4-.04 2.1-.07 1.4-.19 2.8-.39 3.95-.2 1.14-.47 2-.78 2.94-.32.94-.69 2.02-1.4 3.06a10.02 10.02 0 0 1-2.9 2.73c-1.18.76-2.53 1.31-3.7 1.63-.93.25-1.74.28-2.48.28h-.54zM116.5 75.16c.02 2.57.04 4.96.58 7.41.3 1.26.75 2.56 1.44 3.7a10.19 10.19 0 0 0 2.7 2.97c1.07.79 2.34 1.37 3.32 1.71 1 .34 1.7.44 2.44.54.76.09 1.5.18 2.21.18h20.38c.7 0 1.4-.02 2.22-.24 1.06-.3 2.34-.82 3.42-1.5 1.09-.7 2-1.56 2.61-2.46.62-.9.97-1.89 1.28-2.81.3-.93.56-1.73.74-2.8.19-1.08.31-2.45.38-3.82.03-.68.04-1.37.04-2.06V59.2l-.02-1.17a72.14 72.14 0 0 0-.25-5.8c-.06-.79-.11-1.11-.19-1.46-.07-.34-.15-.69-.25-1.03-.1-.34-.2-.65-.47-1.24-.27-.59-.71-1.44-1.24-2.2a12.38 12.38 0 0 0-1.81-2.13c-.68-.63-1.45-1.2-2.31-1.79a76.52 76.52 0 0 0-5.73-3.54l-8.28-4.52a22.93 22.93 0 0 1-2.74-1.77c-.5-.37-.6-.52-.78-.71a5.91 5.91 0 0 1-1.18-2.8 4.11 4.11 0 0 1-.03-.5l.02-.75v-1.04-3.78c0-1.3 0-2.6.02-3.82l-.01-.36c0-.59.04-1.25.27-1.9.12-.37.28-.74.51-1.1.68-.92 1.56-1.4 2.49-1.39.47 0 .95.12 1.45.33a3.62 3.62 0 0 1 1.52 1.68c.15.36.24.74.3 1.22.08.8.1 1.84.1 2.81V31.38h18.6v-1.44l.01-7.36c0-2.52-.01-5.05-.07-7.56-.06-1.3-.15-2.6-.23-3.44a15.25 15.25 0 0 0-.51-2.81 13.69 13.69 0 0 0-1.9-3.86 9.3 9.3 0 0 0-2.18-2.12 11.49 11.49 0 0 0-2.59-1.33c-1.6-.55-2.8-.64-4.25-.82-.67-.08-1.33-.14-1.98-.14h-.08L129.5.64c-1.91.06-3.8.3-5.77.85-.59.18-1.14.4-1.66.68a8.8 8.8 0 0 0-2.84 2.32c-.46.57-.96 1.31-1.36 2.09-.81 1.6-1.3 3.34-1.34 5.04 0 4.7-.05 9.4-.05 14.1 0 1.6 0 3.22.02 4.82.03 1.03.1 2.05.16 2.78.13 1.56.24 1.96.5 2.98.26.97.7 2.18 1.37 3.23.32.5.67.98 1.22 1.57.54.6 1.27 1.3 2.04 1.96a26.43 26.43 0 0 0 5.04 3.33l11.58 6.41c.49.31 1.1.61 1.7 1.2 1.33 1.27 1.47 2.78 1.46 4.08v.45l.08 2 .02 12.4v.16c0 .9-.1 1.83-.57 2.85a3.15 3.15 0 0 1-2.75 1.65 3.1 3.1 0 0 1-2.2-.88l.01.01c-1.17-1.16-1.01-2.68-1.16-3.8L135 54.74h-18.52l.02 20.42zM307.97-.05h25.87c2.14.01 4.26.14 5.6.2a28.98 28.98 0 0 1 4.21.42c.56.1 1.19.22 2.07.58.9.36 2.07.95 3.13 1.76 1.06.8 1.97 1.8 2.67 2.93.7 1.13 1.2 2.37 1.56 3.7.37 1.32.74 2.78.75 4.29l.14 62.61v.02c0 2.14-.36 4.25-.82 6.04a16.34 16.34 0 0 1-1.79 4.44 8.67 8.67 0 0 1-2.25 2.5c-.81.6-1.7 1.1-2.52 1.47-1.56.7-3.02 1.02-4.64 1.31-.73.13-1.51.36-2.38.36l-31.6.06V-.05zm1 91.69l30.6-.06c.68 0 1.41-.2 2.2-.34 1.6-.3 2.96-.59 4.41-1.24.77-.35 1.59-.8 2.33-1.36a7.72 7.72 0 0 0 2-2.22 15.44 15.44 0 0 0 1.68-4.17c.44-1.73.78-3.78.78-5.8v-.06l-.14-62.56c0-1.35-.34-2.71-.7-4.01a13.14 13.14 0 0 0-1.46-3.45l.43-.26-.43.26a10.04 10.04 0 0 0-2.42-2.67c-.96-.73-2.08-1.3-2.9-1.62a8.44 8.44 0 0 0-1.87-.52 28 28 0 0 0-1.65-.25c-.55-.06-1.1-.1-2.44-.16-1.35-.06-3.45-.2-5.55-.2h-24.87v90.69zm-23.46 1L284 74.5h-6.6l-1.33 17.66-.5-.03v.5h-18.99L268.5-.05h24.81l11.74 92.69H285.5zm-27.78-1h17.39l1.37-18.13h8.43l1.51 18.12h17.5L292.42.95h-23.05l-11.66 90.69zm-24.67 1V64.69v-.98l.01-2.3c0-.79-.02-1.57-.08-2.32-.15-1.03-.1-1.8-.8-2.4a1.93 1.93 0 0 0-.58-.33 7.63 7.63 0 0 0-2.32-.26H228.38v36.54h-20.56V-.05h21.36v.5l.02-.5c4.34.13 8.72-.01 13.1.5a12.3 12.3 0 0 1 7.93 3.86 11.83 11.83 0 0 1 2.06 3.45h.01c.25.63.43 1.28.6 2.08a36.58 36.58 0 0 1 .74 7.32c0 .39 0 .78-.02 1.15v9.6l.02 1.25c0 2.7-.18 5.41-.58 8.13a28 28 0 0 1-.53 2.3 10.54 10.54 0 0 1-3.54 5.65 10.6 10.6 0 0 1-2.93 1.68 1.2 1.2 0 0 1-.08.03 11.34 11.34 0 0 1 4.25 3.07c.74.87 1.36 1.85 1.8 2.9.3.65.54 1.3.73 2 .62 2.87.82 5.7.85 8.56l.01 29.16h-20.57zm-1.14-37.23c.34.12.64.3.91.53 1.1.95 1.01 2.17 1.15 3.04.07.81.09 1.63.09 2.43l-.02 2.3c0 .32 0 .63.02.96v26.97h18.56l-.01-28.16c-.04-2.8-.23-5.57-.83-8.32a12 12 0 0 0-.66-1.84 10.32 10.32 0 0 0-4.02-4.67 10.3 10.3 0 0 0-2.87-1.23v-.97c.5-.12.98-.28 1.47-.46a9.52 9.52 0 0 0 4.67-3.82c.54-.87.94-1.83 1.19-2.84.2-.74.37-1.48.5-2.2.4-2.65.58-5.3.58-7.97 0-.41 0-.83-.02-1.25V18.3c.02-.38.02-.76.02-1.14 0-1.5-.1-3-.28-4.49-.12-.93-.27-1.86-.44-2.62a10.76 10.76 0 0 0-1.37-3.59 10.6 10.6 0 0 0-1.06-1.48 11.3 11.3 0 0 0-7.29-3.54c-4.3-.5-8.65-.36-13.03-.49H208.8v90.69h18.57V55.07l.52.02.66.01h.72c.83 0 1.7.02 2.63.31zm-58.66 37.23v-76.9h-9.77V.45h.5v-.5h39.57v15.79h-9.7v76.9h-20.6zm-8.78-77.9h9.78v76.9h18.6v-76.9h9.7V.95h-38.08v13.79zm-69.79 77.9v-45l-6.08 45H76.27L69.9 47.1v45.53H51.25V-.05h26.3v.5l.5-.06 4.15 36.23L86.54-.05h26.8v92.69H94.67zm1-52.44v51.43h16.65V.95h-24.9l-4.75 40.06h-.99L77.11.95H52.25v90.69H68.9V39.92l1-.07 7.24 51.79h10.59l6.95-51.5 1 .06zM28.35 92.64L26.84 74.5h-6.58l-1.34 17.66-.5-.03v.5H-.57L11.35-.05h24.8L47.9 92.64H28.35zm-27.78-1h17.39l1.37-18.13h8.43l1.5 18.12h17.5L35.28.95H12.23L.57 91.64zm326.98-14v-62.7h1.71v1h-.7v60.7h2.7c.1 0 .33-.1.62-.28.23-.13.43-.29.58-.47.15-.18.28-.4.38-.67.1-.28.2-.62.25-.96.05-.34.05-.7.05-1.09V20.39c-.05-1.32-.01-2.69-.56-3.48a1.71 1.71 0 0 0-.45-.44 2.5 2.5 0 0 0-.67-.3 6 6 0 0 0-1.02-.22c-.15-.02-.3-.02-.47-.02h-.7v-1h.7a6.78 6.78 0 0 1 1.8.3h-.01a2.76 2.76 0 0 1 1.64 1.12c.8 1.22.67 2.75.74 4.02v52.8c0 .4 0 .8-.06 1.23-.06.42-.17.81-.3 1.17a3.1 3.1 0 0 1-1.4 1.66h-.01c-.25.13-.6.4-1.11.4h-3.7zM277.5 59.37l2.75-36.17h1l2.63 35.63-.5.04v.5h-5.88zm1.08-1h4.26l-2.1-28.44-2.16 28.44zm-258.24 1l2.75-36.17h1l2.63 35.63-.5.04v.5h-5.88zm1.09-1h4.25l-2.1-28.43-2.16 28.43zm206.43-19.14l-.47-.03V15.36h.5v-.5l2.82.02c.49.05 1 .17 1.49.4l.03.01.04.02c1.46.95 1.58 2.3 1.68 3.31.08 1.18.08 2.35.12 3.51v6.65c0 1.8-.01 3.6-.05 5.4a16.1 16.1 0 0 1-.18 2.2 3.09 3.09 0 0 1-1.08 2.06c-.77.68-1.7.68-2.38.77a16.13 16.13 0 0 1-2.52.03zm1.08-.96c.45 0 .9-.02 1.33-.07.75-.08 1.4-.13 1.83-.53a2.13 2.13 0 0 0 .74-1.43c.11-.69.17-1.38.18-2.08.04-1.8.05-3.6.05-5.4v-5.22-1.4c-.04-1.17-.04-2.33-.12-3.44-.13-1.05-.15-1.82-1.2-2.54a3.68 3.68 0 0 0-1.1-.3h-2.26v22.4h.55z"
     id="path5184"
     style="fill:#000000;fill-opacity:1" />
  <g
     id="g5217"
     style="fill:#000000;fill-opacity:1">
    <linearGradient
       id="b"
       gradientUnits="userSpaceOnUse"
       x1="413.63"
       y1=".09"
       x2="413.63"
       y2="92.59"
       style="fill-opacity:1;fill:url(#linearGradient5788)">
      <stop
         offset="0"
         stop-color="#fff"
         id="stop5186"
         style="fill-opacity:1;fill:url(#linearGradient5788)" />
      <stop
         offset="1"
         stop-color="#ccc"
         id="stop5188"
         style="fill-opacity:1;fill:url(#linearGradient5788)" />
    </linearGradient>
    <path
       fill="url(#b)"
       d="M429.75 82.68h-21.4a104.4 104.4 0 0 1-5.89-.31 3.72 3.72 0 0 1-2.57-1.18c-.58-.6-.93-1.54-1.04-2.82-.13-1.5-.23-3.8-.31-6.79V20.11c0-2.5.08-4.49.24-5.92.14-1.25.58-2.2 1.37-2.92a3.87 3.87 0 0 1 2.39-1.18c1.1-.12 3.08-.18 5.9-.18h21.3v14.87h9.97V.45h-33.76c-2.48 0-4.98.15-7.43.45-2.61.32-4.96 1.41-7 3.27a12.37 12.37 0 0 0-3.64 7.57c-.3 2.73-.45 6.05-.45 9.9V73.1c0 3.43.15 6.33.45 8.64.32 2.5 1.42 4.7 3.26 6.54a11.56 11.56 0 0 0 6.73 3.33c2.44.34 5.59.52 9.35.52h32.62V67.81h-10.1v14.87z"
       id="path5191"
       style="fill:#000000;fill-opacity:1" />
    <path
       d="M407.22 92.64c-3.78 0-6.95-.18-9.43-.53a12.06 12.06 0 0 1-7-3.47 11.58 11.58 0 0 1-3.4-6.83c-.31-2.33-.47-5.26-.47-8.7V21.64c0-3.86.15-7.2.46-9.95.33-3.03 1.61-5.7 3.8-7.89a12.97 12.97 0 0 1 7.27-3.4 62.6 62.6 0 0 1 7.5-.45h34.26v25.33h-10.96V10.4h-20.8c-2.82 0-4.8.06-5.86.18-.8.1-1.47.42-2.1 1.05a3.91 3.91 0 0 0-1.21 2.6c-.16 1.4-.25 3.39-.24 5.87v51.46c.08 2.98.18 5.27.3 6.76.1 1.21.44 2.04.92 2.52.55.6 1.22.92 2.25 1.02 1.32.12 3.3.23 5.84.31h20.9V67.31h11.1v25.33h-33.13zM398.58 1.4a11.93 11.93 0 0 0-6.7 3.12 11.86 11.86 0 0 0-3.5 7.28c-.3 2.7-.45 6-.45 9.84V73.1c0 3.41.15 6.3.44 8.58.31 2.39 1.35 4.48 3.12 6.25a11.05 11.05 0 0 0 6.44 3.18 69 69 0 0 0 9.29.52h32.12V68.31h-9.1v14.87h-21.9c-2.57-.08-4.56-.19-5.93-.32a4.2 4.2 0 0 1-2.87-1.32c-.71-.72-1.08-1.79-1.2-3.13-.12-1.53-.22-3.82-.3-6.83V20.11c0-2.5.08-4.51.24-5.98a4.9 4.9 0 0 1 1.51-3.21 4.38 4.38 0 0 1 2.7-1.32c1.13-.13 3.12-.2 5.95-.2h21.8v14.88h8.97V.95h-33.26c-2.47 0-4.94.15-7.37.45zm31.17 81.28v-.5.5z"
       id="path5193"
       style="fill:#000000;fill-opacity:1" />
    <g
       id="g5204"
       style="fill:#000000;fill-opacity:1">
      <linearGradient
         id="c"
         gradientUnits="userSpaceOnUse"
         x1="477.21"
         y1=".09"
         x2="477.21"
         y2="92.59"
         style="fill-opacity:1;fill:url(#linearGradient5788)">
        <stop
           offset="0"
           stop-color="#fff"
           id="stop5195"
           style="fill-opacity:1;fill:url(#linearGradient5788)" />
        <stop
           offset="1"
           stop-color="#ccc"
           id="stop5197"
           style="fill-opacity:1;fill:url(#linearGradient5788)" />
      </linearGradient>
      <path
         fill="url(#c)"
         d="M506.18 16.3c0-1.8-.06-3.53-.2-5.16a12.92 12.92 0 0 0-1.17-4.6A9.66 9.66 0 0 0 501.85 3c-1.3-.97-3.1-1.7-5.4-2.16a32.83 32.83 0 0 0-3.72-.32c-.83-.05-1.92-.07-3.23-.07h-41.33v9.46h8.64v72.77h-8.64v9.46h28.52v-9.46h-8.77V50.45h20.68c1.8 0 3.57-.04 5.24-.13 1.77-.08 3.4-.35 4.86-.8a10 10 0 0 0 4.07-2.4 11.21 11.21 0 0 0 2.73-4.6c.36-1.18.59-2.5.68-3.92.08-1.38.08-3.2 0-5.4V16.3zm-10.73 3.6v11.48a61 61 0 0 1-.19 5.34 5.23 5.23 0 0 1-.93 2.8c-.48.61-1.32 1.05-2.47 1.3-1.32.28-3.27.43-5.8.43h-18.14V9.9h17.63c2.48 0 4.44.08 5.83.25 1.21.14 2.1.48 2.66 1.01.55.52.92 1.42 1.1 2.68.2 1.44.31 3.47.31 6.05z"
         id="path5200"
         style="fill:#000000;fill-opacity:1" />
      <path
         d="M447.67 92.64V82.18h8.64V10.4h-8.64V-.05h41.83c1.32 0 2.4.02 3.26.06l2.01.13c.54.05 1.12.12 1.77.21 2.35.47 4.23 1.21 5.6 2.25a10.16 10.16 0 0 1 3.12 3.71c.68 1.4 1.08 3.02 1.23 4.8.12 1.64.19 3.39.19 5.19v16.89c.04 1.09.06 2.1.06 3 0 .92-.02 1.73-.07 2.44-.09 1.46-.32 2.81-.7 4.04-.66 2-1.61 3.62-2.85 4.81a10.55 10.55 0 0 1-4.27 2.52c-1.51.46-3.18.73-4.98.82-1.69.09-3.46.13-5.27.13h-20.18v31.23h8.78v10.46h-29.53zm1-1h27.52v-8.46h-8.77V49.95h21.18a103 103 0 0 0 5.22-.13c1.73-.08 3.32-.35 4.74-.78a9.51 9.51 0 0 0 3.86-2.27 10.7 10.7 0 0 0 2.6-4.4c.35-1.13.57-2.4.66-3.8.04-.68.06-1.48.06-2.38 0-.9-.02-1.89-.06-2.99V16.3c0-1.78-.07-3.5-.2-5.12a12.45 12.45 0 0 0-1.12-4.43 9.18 9.18 0 0 0-2.81-3.35 12.83 12.83 0 0 0-5.18-2.06c-.6-.09-1.17-.15-1.68-.2l-1.98-.13c-.83-.04-1.9-.06-3.2-.06h-40.84v8.46h8.64v73.77h-8.64v8.46zm18.75-49.9V9.41h18.13c2.49 0 4.46.08 5.89.25 1.27.15 2.27.5 2.95 1.15.67.65 1.06 1.65 1.24 2.97.21 1.48.32 3.53.32 6.12v11.48c0 2.19-.07 4-.2 5.38a5.7 5.7 0 0 1-1.03 3.06 4.6 4.6 0 0 1-2.76 1.49c-1.38.3-3.35.43-5.9.43h-18.63zm1-1h17.63c2.52 0 4.45-.14 5.7-.4 1.1-.24 1.8-.65 2.19-1.13.42-.54.72-1.4.82-2.54.13-1.34.2-3.12.19-5.29V19.9c0-2.56-.1-4.58-.3-5.98-.17-1.2-.53-2-.95-2.39-.43-.41-1.23-.74-2.38-.88-1.36-.16-3.3-.24-5.77-.24h-17.13v30.34z"
         id="path5202"
         style="fill:#000000;fill-opacity:1" />
    </g>
    <g
       id="g5215"
       style="fill:#000000;fill-opacity:1">
      <linearGradient
         id="d"
         gradientUnits="userSpaceOnUse"
         x1="540.72"
         y1=".09"
         x2="540.72"
         y2="92.59"
         style="fill-opacity:1;fill:url(#linearGradient5788)">
        <stop
           offset="0"
           stop-color="#fff"
           id="stop5206"
           style="fill-opacity:1;fill:url(#linearGradient5788)" />
        <stop
           offset="1"
           stop-color="#ccc"
           id="stop5208"
           style="fill-opacity:1;fill:url(#linearGradient5788)" />
      </linearGradient>
      <path
         fill="url(#d)"
         d="M556.83 67.8v14.88h-21.4c-2.55-.08-4.54-.19-5.88-.31a3.7 3.7 0 0 1-2.57-1.18c-.59-.6-.94-1.54-1.04-2.82-.13-1.5-.23-3.8-.32-6.78V20.1c0-2.5.08-4.49.25-5.92.14-1.26.58-2.2 1.37-2.92a3.87 3.87 0 0 1 2.38-1.18c1.1-.12 3.09-.18 5.91-.18h21.3v14.87h9.97V.45h-33.77c-2.48 0-4.97.15-7.42.45a12.46 12.46 0 0 0-7 3.27 12.37 12.37 0 0 0-3.65 7.57 92.8 92.8 0 0 0-.45 9.9V73.1c0 3.43.15 6.34.46 8.64.32 2.5 1.42 4.7 3.26 6.54a11.57 11.57 0 0 0 6.72 3.33c2.45.34 5.6.52 9.36.52h32.62V67.81h-10.1z"
         id="path5211"
         style="fill:#000000;fill-opacity:1" />
      <path
         d="M534.3 92.64c-3.77 0-6.94-.18-9.42-.52a12.08 12.08 0 0 1-7-3.48 11.59 11.59 0 0 1-3.41-6.83c-.3-2.33-.46-5.26-.46-8.7V21.64c0-3.86.15-7.2.46-9.95a12.9 12.9 0 0 1 3.8-7.9 12.96 12.96 0 0 1 7.28-3.38c2.47-.3 4.98-.46 7.48-.46h34.27v25.33h-10.96V10.4h-20.8c-2.82 0-4.8.06-5.86.18-.81.1-1.47.41-2.1 1.05a3.93 3.93 0 0 0-1.22 2.6c-.15 1.4-.24 3.39-.24 5.87v51.46c.09 2.99.19 5.27.31 6.76.1 1.21.44 2.04.93 2.53.54.6 1.21.9 2.23 1 1.33.13 3.3.24 5.85.32h20.9V67.31h11.09v25.33h-33.12zM525.68 1.4a11.96 11.96 0 0 0-6.7 3.12 11.88 11.88 0 0 0-3.51 7.28c-.3 2.7-.45 6-.45 9.84V73.1c0 3.42.15 6.3.45 8.58.31 2.4 1.35 4.48 3.12 6.25a11.05 11.05 0 0 0 6.44 3.18c2.41.34 5.54.52 9.29.52h32.12V68.31h-9.1v14.87h-21.91c-2.57-.08-4.56-.19-5.92-.32a4.19 4.19 0 0 1-2.87-1.32c-.71-.71-1.08-1.78-1.2-3.13-.12-1.52-.22-3.81-.3-6.82V20.1c0-2.5.07-4.51.24-5.98a4.9 4.9 0 0 1 1.51-3.21 4.37 4.37 0 0 1 2.69-1.33c1.14-.12 3.13-.18 5.96-.18h21.8v14.87h8.97V.95h-33.27c-2.46 0-4.93.15-7.36.45zm31.16 66.9v-.5.5z"
         id="path5213"
         style="fill:#000000;fill-opacity:1" />
    </g>
  </g>
</svg>
