<?xml version="1.0" encoding="UTF-8" standalone="no"?>
<!-- Generator: Adobe Illustrator 16.0.3, SVG Export Plug-In . SVG Version: 6.00 Build 0)  -->

<svg
   xmlns:dc="http://purl.org/dc/elements/1.1/"
   xmlns:cc="http://creativecommons.org/ns#"
   xmlns:rdf="http://www.w3.org/1999/02/22-rdf-syntax-ns#"
   xmlns:svg="http://www.w3.org/2000/svg"
   xmlns="http://www.w3.org/2000/svg"
   xmlns:sodipodi="http://sodipodi.sourceforge.net/DTD/sodipodi-0.dtd"
   xmlns:inkscape="http://www.inkscape.org/namespaces/inkscape"
   version="1.1"
   id="Ebene_2"
   x="0px"
   y="0px"
   width="571.92902"
   height="92.933998"
   viewBox="0 0 571.929 92.934"
   enable-background="new 0 0 566.929 92.934"
   xml:space="preserve"
   sodipodi:docname="system.svg"
   inkscape:version="0.92.2 (5c3e80d, 2017-08-06)"><metadata
     id="metadata3207"><rdf:RDF><cc:Work
         rdf:about=""><dc:format>image/svg+xml</dc:format><dc:type
           rdf:resource="http://purl.org/dc/dcmitype/StillImage" /><dc:title></dc:title></cc:Work></rdf:RDF></metadata><defs
     id="defs3205" /><sodipodi:namedview
     pagecolor="#ffffff"
     bordercolor="#666666"
     borderopacity="1"
     objecttolerance="10"
     gridtolerance="10"
     guidetolerance="10"
     inkscape:pageopacity="0"
     inkscape:pageshadow="2"
     inkscape:window-width="1920"
     inkscape:window-height="1017"
     id="namedview3203"
     showgrid="false"
     inkscape:zoom="0.50094455"
     inkscape:cx="283.46451"
     inkscape:cy="46.466999"
     inkscape:window-x="1912"
     inkscape:window-y="-8"
     inkscape:window-maximized="1"
     inkscape:current-layer="Ebene_2" /><g
     id="g3200"
     transform="translate(2)"><g
       id="g3180"><path
         d="m 162.729,4.833 c 3.574,-4.573 10.968,-5.352 15.352,-1.52 1.792,1.51 3.048,3.595 3.689,5.837 8.115,27.924 16.267,55.834 24.372,83.76 -4.791,0.003 -9.582,-0.006 -14.371,0.003 -2.258,-7.694 -4.463,-15.41 -6.693,-23.114 -9.26,-0.027 -18.519,-0.008 -27.777,-0.011 -2.269,7.701 -4.505,15.411 -6.733,23.13 -4.763,-0.019 -9.525,-0.008 -14.29,-0.011 7.71,-26.636 15.428,-53.272 23.175,-79.901 0.921,-2.785 1.265,-5.899 3.276,-8.173 m 8.454,17.11 c -3.396,11.568 -6.723,23.16 -10.098,34.734 6.73,0.03 13.458,0.011 20.186,0.011 -3.368,-11.581 -6.72,-23.163 -10.088,-34.745 z"
         id="path3170"
         inkscape:connector-curvature="0" /><path
         d="m 263.614,5.434 c 2.495,-3.62 7.32,-5.379 11.567,-4.261 3.89,0.897 6.865,4.248 7.893,8.021 8.106,27.905 16.241,55.796 24.346,83.694 -4.794,0.043 -9.589,0 -14.384,0.021 -2.228,-7.704 -4.435,-15.421 -6.681,-23.122 -9.245,0.003 -18.489,-0.02 -27.733,0.006 -2.21,7.713 -4.487,15.405 -6.698,23.113 -4.759,0.003 -9.517,0 -14.274,0.003 7.704,-26.78 15.501,-53.539 23.268,-80.303 0.815,-2.419 1.128,-5.083 2.696,-7.172 m -1.166,51.254 c 6.702,0.009 13.401,0.003 20.102,0.003 -3.332,-11.604 -6.719,-23.193 -10.045,-34.8 -3.347,11.6 -6.728,23.192 -10.057,34.797 z"
         id="path3172"
         inkscape:connector-curvature="0" /><path
         d="m 195.418,1.034 c 17.325,0 34.65,0 51.97,0 0,4.675 0,9.344 0,14.018 -6.378,0.005 -12.755,-0.007 -19.131,0.005 0,25.952 0.004,51.902 -0.003,77.854 -4.566,0 -9.139,0 -13.706,0 0,-25.951 -0.004,-51.901 0.004,-77.854 -6.379,-0.012 -12.755,0 -19.133,-0.005 -0.001,-4.673 -0.004,-9.344 -0.001,-14.018 z"
         id="path3174"
         inkscape:connector-curvature="0" /><path
         d="m 322.652,1.604 c 1.316,-0.455 2.721,-0.61 4.111,-0.577 5.462,0.021 10.923,0.003 16.388,0.007 9.198,0.168 17.979,5.88 21.961,14.159 2.756,5.377 3.041,11.631 2.345,17.53 -0.476,6.176 -3.069,12.349 -7.814,16.44 -2.508,2.238 -5.632,3.592 -8.314,5.578 -1.474,1.126 -1.544,3.302 -0.785,4.861 7.25,11.194 14.789,22.207 22.188,33.307 -5.412,0.011 -10.825,-0.014 -16.238,0.011 -7.088,-10.645 -14.101,-21.344 -21.16,-32 -2.075,-3.031 -2.637,-7.051 -1.396,-10.516 0.969,-2.654 3.292,-4.599 5.876,-5.599 4.935,-1.882 9.798,-4.842 12.533,-9.498 2.077,-3.503 1.973,-7.818 1.039,-11.649 -1.098,-4.972 -5.943,-8.888 -11.061,-8.714 -3.542,0.024 -7.079,-0.021 -10.614,0.016 -1.6,-0.037 -3.106,1.353 -3.086,2.979 -0.018,24.99 0.009,49.985 -0.006,74.979 -4.603,-0.008 -9.203,0 -13.807,-0.008 -0.01,-26.902 0.007,-53.814 -0.01,-80.717 0.023,-4.718 3.378,-9.156 7.85,-10.589 z"
         id="path3176"
         inkscape:connector-curvature="0" /><path
         d="m 379.969,1.034 c 4.842,0 9.682,0 14.528,0 -0.005,30.63 0.004,61.251 -0.009,91.876 -4.838,-0.011 -9.678,0 -14.52,-0.003 10e-4,-30.625 10e-4,-61.246 10e-4,-91.873 z"
         id="path3178"
         inkscape:connector-curvature="0" /></g><g
       id="g3192"><path
         d="m 40.963,0.865 c 2.326,-0.007 4.651,0 6.981,-0.004 0.008,5.47 0,10.942 0.003,16.41 0.022,4.567 -0.106,9.131 -0.295,13.694 -0.312,6.586 -0.725,13.188 -1.814,19.696 -0.75,4.488 -2.305,8.821 -4.229,12.932 -3.142,6.622 -8.081,12.226 -13.632,16.938 -4.964,4.372 -10.892,7.555 -17.126,9.703 C 7.324,91.455 3.694,92.386 0,92.91 0.003,88.322 0.003,83.731 0,79.145 c 4.449,-0.67 8.726,-2.249 12.696,-4.337 4.712,-2.492 8.954,-5.841 12.526,-9.794 3.688,-4.077 6.626,-8.801 8.856,-13.814 2.627,-5.763 4.033,-11.994 4.989,-18.229 1.198,-7.927 1.697,-15.951 1.882,-23.958 0.03,-2.714 0.007,-5.43 0.014,-8.148 z"
         id="path3182"
         inkscape:connector-curvature="0" /><path
         d="m 50.75,0.875 c 4.283,-0.028 8.565,-0.003 12.85,-0.01 10e-4,30.68 10e-4,61.364 0,92.042 -4.274,0.011 -8.547,-0.019 -12.82,0.021 C 50.728,83.147 50.773,73.357 50.758,63.577 50.752,42.678 50.766,21.778 50.75,0.875 Z"
         id="path3184"
         inkscape:connector-curvature="0" /><path
         d="m 66.458,0.865 c 2.315,-0.004 4.627,-0.007 6.939,0 -0.076,9.355 0.244,18.73 1.358,28.021 0.913,7.22 2.201,14.494 5.076,21.218 2.725,6.505 6.654,12.553 11.774,17.431 4.892,4.663 10.814,8.248 17.252,10.309 1.796,0.571 3.632,1.021 5.501,1.299 -0.001,4.586 -0.004,9.171 0,13.757 -3.669,-0.499 -7.267,-1.446 -10.769,-2.636 C 99.42,88.815 95.387,86.935 91.682,84.522 88.978,82.789 86.519,80.706 84.158,78.535 80.264,74.942 76.781,70.865 74.162,66.241 72.116,62.643 70.622,58.755 69.451,54.793 68.378,50.81 67.923,46.686 67.506,42.592 66.701,33.736 66.4,24.839 66.456,15.952 c 0.002,-5.029 0,-10.057 0.002,-15.087 z"
         id="path3186"
         inkscape:connector-curvature="0" /><path
         d="m 50.75,0.875 c 0.015,20.902 0.003,41.803 0.008,62.7 0.014,9.78 -0.032,19.567 0.022,29.352 4.273,-0.039 8.547,-0.01 12.82,-0.021 10e-4,-30.678 10e-4,-61.361 0,-92.045 -4.283,0.011 -8.566,-0.013 -12.85,0.014"
         id="path3188"
         inkscape:connector-curvature="0" /><path
         d="m 66.458,0.865 c -0.002,5.028 0,10.058 0,15.085 -0.057,8.884 0.245,17.783 1.05,26.64 0.417,4.094 0.872,8.218 1.945,12.201 1.169,3.962 2.665,7.851 4.711,11.448 2.618,4.624 6.102,8.701 9.996,12.294 2.363,2.174 4.82,4.254 7.524,5.987 3.705,2.413 7.738,4.29 11.907,5.742 3.501,1.189 7.1,2.134 10.769,2.636 -0.004,-4.586 -0.001,-9.171 0,-13.757 -1.867,-0.274 -3.706,-0.728 -5.501,-1.299 C 102.421,75.781 96.498,72.196 91.607,67.533 86.487,62.661 82.558,56.609 79.833,50.102 76.958,43.378 75.67,36.104 74.757,28.884 73.642,19.593 73.323,10.218 73.399,0.863 71.084,0.858 68.771,0.861 66.458,0.865"
         id="path3190"
         inkscape:connector-curvature="0" /></g><g
       id="g3198"><path
         d="m 432.911,59.248 1.673,1.314 c 5.853,4.538 12.9,8.242 20.426,8.242 3.225,0 8.361,-1.313 8.361,-5.377 0,-4.061 -4.301,-4.418 -7.286,-5.016 l -6.571,-1.193 C 436.734,54.948 425.983,47.421 425.983,33.325 425.982,11.945 445.454,0 465.044,0 c 10.272,0 19.708,2.508 28.548,7.884 l -8.84,23.054 c -5.613,-3.821 -11.943,-6.808 -18.991,-6.808 -2.867,0 -7.049,1.073 -7.049,4.776 0,3.346 4.063,3.823 6.569,4.419 L 472.688,35 c 13.855,3.104 23.89,10.511 23.89,25.801 0,21.5 -19.59,32.133 -39.06,32.133 -11.35,0 -24.488,-3.107 -34.642,-8.243 z"
         id="path3194"
         inkscape:connector-curvature="0" /><path
         d="m 498.126,1.433 h 68.803 V 26.7 l -18.036,0.051 V 91.5 H 516.164 V 26.75 L 498.126,26.7 Z"
         id="path3196"
         inkscape:connector-curvature="0" /></g></g></svg>