<svg version="1.2" baseProfile="tiny" xmlns="http://www.w3.org/2000/svg" width="564.7" height="165.92">
  <path fill="green" d="M92.6 29.58c6.19-6.78 9.41-16.3 9.86-29.11l.01-.47-.45.1C80.3 4.52 69.1 18.13 68.69 40.52v.44l.43-.07c10.34-1.62 18.02-5.32 23.49-11.32z"/>
  <path fill="#00F" d="M17.9 144.76l.4.57c3.59 5.18 7.7 10.21 12.23 14.97 3.45 3.62 8.94 5.62 15.46 5.62 4.78 0 9.74-1.13 12.94-2.94 6.61-3.74 10.12-3.74 12.68-3.75.51 0 1 0 1.46-.03l.41-.02c.56-.04 1.13-.08 1.78-.08 2.27 0 5.66.45 11.82 3.93 4.3 1.8 8.47 2.72 12.4 2.72 10.68 0 20.05-6.69 28.64-20.43l.35-.56H17.9z"/>
  <path fill="green" d="M129.74 59a70.81 70.81 0 0 1 4.62-4.2l.28-.24-.23-.28c-8.05-9.93-19.08-15.3-31.9-15.5h-.58c-6.5 0-12.24 1.22-16.6 3.52-5.67 2.99-9.88 3.65-9.93 3.66-.07 0-.53.02-1.8.02-1.55 0-2.88-.02-3.04-.04l-.1-.02c-1.82-.23-6.45-1-10.2-3a35.1 35.1 0 0 0-16.44-4.16h-.38C28.5 38.94 16.01 46.23 8.25 59h121.5z"/>
  <path fill="#FF0" d="M117.21 80.25c1.47-7.11 5.44-14.02 11.92-20.62l.6-.63H8.26l-.1.18A57.27 57.27 0 0 0 .77 80.24h116.43z"/>
  <path fill="#F60" d="M120.06 101.23c-2.94-6.04-4.38-13-2.92-20.54l.09-.44H.79l-.04.31a75.4 75.4 0 0 0-.08 20.67h119.39z"/>
  <path fill="red" d="M6.4 123.24h133.05l.78-1.68-.32-.16a45.82 45.82 0 0 1-19.77-19.97l-.1-.2H.67l.06.41a93.09 93.09 0 0 0 5.66 21.6z"/>
  <path fill="purple" d="M17.9 144.76h110.56c4.22-6.84 7.7-14.38 10.76-21l.24-.52H6.4l.2.5c2.91 7.27 6.69 14.29 11.3 21.02z"/>
  <path fill="gray" d="M373.91 38.53v78.1h18.56v-78.1H373.9zm122.7 0v10.49h10.9a2.48 2.48 0 0 1 2.44 2.52v52.1c0 1.4-1.1 2.52-2.45 2.52h-10.9v10.52h29.37V38.53H496.6zm38.5 0v78.15h29.37v-10.52h-10.9a2.48 2.48 0 0 1-2.45-2.51V51.54c0-1.4 1.1-2.52 2.45-2.52h10.9v-10.5h-29.36zM157.16 57.3c-8.84 0-16.03 2.9-22.04 8.88-6.05 6.01-8.91 12.67-8.91 20.42 0 7.65 3.01 14.4 9.42 20.7 6.4 6.3 13.5 9.34 21.75 9.34h11.97V102.9h-4.94c-4.73 0-8.97-1.55-12.29-4.57a15.33 15.33 0 0 1-5.1-11.52c0-4.51 1.75-8.57 5.03-11.47 3.26-2.88 7.44-4.3 12.15-4.3h12.94a2.48 2.48 0 0 1 2.45 2.51v43.09h18.56V57.3h-40.98zm53.17 0v78.11h18.57V73.56c0-1.4 1.1-2.52 2.45-2.52h12.05c5.07 0 9.6 1.76 13.17 5.16 3.29 3.16 5.13 7.13 5.13 11.44 0 4.45-1.98 8.45-5.54 11.2-3.5 2.73-7.87 4.06-12.76 4.06h-4.25v13.74h12.5c8.71 0 15.87-2.8 21.92-8.52 6.04-5.72 8.93-12.37 8.93-20.58 0-8.5-2.9-15.45-8.91-21.4-6.03-5.95-13.03-8.84-21.48-8.84h-41.78zm81.8 0v78.11h18.55V73.56c0-1.4 1.1-2.52 2.45-2.52h12.07c5.06 0 9.6 1.76 13.17 5.16 3.29 3.16 5.13 7.13 5.13 11.44 0 4.45-2 8.45-5.56 11.2-3.5 2.72-7.85 4.06-12.74 4.06h-4.26v13.74h12.51c8.71 0 15.85-2.8 21.9-8.52 6.05-5.72 8.94-12.37 8.94-20.58 0-8.5-2.9-15.45-8.91-21.4-6.03-5.96-13.02-8.84-21.46-8.84h-41.8zm146.64 0c-9.93 0-18.37 3.02-25.7 9.14-7.34 6.14-10.71 12.7-10.71 20.26 0 9.11 3.48 16.15 10.86 21.89 6.92 5.35 15.3 8.05 25.44 8.05h37.18V102.9h-35.28c-4.68 0-8.9-1.58-12.23-4.62a15.66 15.66 0 0 1-5.19-11.78c0-4.4 1.77-8.34 4.99-11.2 3.25-2.87 7.53-4.25 12.43-4.25h12.06c.94 0 1.79.55 2.2 1.42.4.86.3 1.9-.28 2.65l-13.4 17.32h20.32l14.39-19.7V57.3h-37.08z"/>
  <linearGradient id="a" gradientUnits="userSpaceOnUse" x1="345.34" y1="32.96" x2="345.34" y2="137.96">
    <stop offset="0" stop-color="#bcbcbc"/>
    <stop offset="1" stop-color="#5b5b5b"/>
  </linearGradient>
  <path fill="url(#a)" d="M373.7 38.42v78.57h18.99V38.42h-19zm122.68 0v10.95h11.12c.6 0 1.16.23 1.58.66.42.43.65 1.02.65 1.63v52.1c0 .61-.23 1.2-.65 1.63-.42.43-.99.67-1.58.67h-11.12v10.96h29.8v-78.6h-29.8zm38.52 0v78.6h29.8v-10.96h-11.12c-.59 0-1.16-.24-1.58-.67a2.3 2.3 0 0 1-.64-1.62V51.66c-.01-.61.23-1.2.64-1.63.42-.43.99-.67 1.58-.66h11.12V38.42h-29.8zM157.15 57.19c-8.89 0-16.13 2.93-22.18 8.94-6.1 6.05-8.99 12.78-8.99 20.6 0 7.7 3.04 14.52 9.48 20.87 6.43 6.33 13.6 9.39 21.91 9.39h12.19v-14.2h-5.15c-4.7 0-8.88-1.51-12.15-4.5a15.09 15.09 0 0 1-5.04-11.35c0-4.46 1.74-8.43 4.97-11.29 3.21-2.84 7.34-4.26 12-4.26h12.94c.6 0 1.16.24 1.58.67.42.43.65 1.01.65 1.62v43.31h19V57.2h-41.2zm52.95 0v78.57h19.01V73.67c0-.6.23-1.19.65-1.62a2.2 2.2 0 0 1 1.58-.66h12.05c5.02 0 9.5 1.74 13.02 5.1 3.26 3.12 5.06 7.02 5.06 11.27 0 4.38-1.95 8.3-5.46 11.02-3.47 2.68-7.77 4.02-12.62 4.02h-4.47v14.19h12.73c8.75 0 15.99-2.83 22.08-8.59 6.08-5.74 8.98-12.48 8.98-20.74 0-8.55-2.91-15.58-8.97-21.56-6.06-6-13.14-8.9-21.64-8.9h-42zm81.8 0v78.57h18.99V73.67c0-.6.23-1.19.65-1.62a2.2 2.2 0 0 1 1.58-.66h12.06c5.02 0 9.5 1.74 13.02 5.1 3.26 3.12 5.06 7.02 5.06 11.27 0 4.4-1.97 8.3-5.47 11.02-3.47 2.68-7.76 4.02-12.6 4.02h-4.49v14.19h12.73c8.76 0 15.98-2.83 22.06-8.59 6.09-5.74 8.99-12.48 8.99-20.74 0-8.55-2.9-15.58-8.97-21.56-6.06-6-13.12-8.9-21.62-8.9h-42zm146.86 0c-9.97 0-18.47 3.03-25.84 9.18-7.38 6.17-10.8 12.83-10.8 20.45 0 9.17 3.51 16.3 10.95 22.07 6.96 5.4 15.4 8.1 25.58 8.1h37.4v-14.2h-35.5c-4.63 0-8.8-1.56-12.09-4.56a15.43 15.43 0 0 1-5.11-11.62 14.4 14.4 0 0 1 4.9-11c3.21-2.84 7.44-4.23 12.3-4.23h12.06c.85 0 1.64.5 2 1.3.38.8.27 1.74-.27 2.42L440.68 92.8h20.88l14.5-19.86V57.19h-37.3z"/>
</svg>
