<?xml version="1.0" encoding="UTF-8" standalone="no"?>
<!-- Generator: Adobe Illustrator 16.0.3, SVG Export Plug-In . SVG Version: 6.00 Build 0)  -->

<svg
   xmlns:dc="http://purl.org/dc/elements/1.1/"
   xmlns:cc="http://creativecommons.org/ns#"
   xmlns:rdf="http://www.w3.org/1999/02/22-rdf-syntax-ns#"
   xmlns:svg="http://www.w3.org/2000/svg"
   xmlns="http://www.w3.org/2000/svg"
   xmlns:sodipodi="http://sodipodi.sourceforge.net/DTD/sodipodi-0.dtd"
   xmlns:inkscape="http://www.inkscape.org/namespaces/inkscape"
   version="1.1"
   x="0px"
   y="0px"
   width="576.92999"
   height="69.167999"
   viewBox="-110.047 5.731 576.93 69.168"
   enable-background="new -110.047 5.731 566.93 64.168"
   xml:space="preserve"
   id="svg1322"
   sodipodi:docname="system.svg"
   inkscape:version="0.92.2 (5c3e80d, 2017-08-06)"><metadata
     id="metadata1328"><rdf:RDF><cc:Work
         rdf:about=""><dc:format>image/svg+xml</dc:format><dc:type
           rdf:resource="http://purl.org/dc/dcmitype/StillImage" /><dc:title></dc:title></cc:Work></rdf:RDF></metadata><defs
     id="defs1326"><radialGradient
       id="SVGID_1_"
       cx="-90.551804"
       cy="191.2813"
       r="110.8008"
       gradientTransform="matrix(1,0,0,-1,3.9551,202.75981)"
       gradientUnits="userSpaceOnUse"><stop
         offset="0"
         style="stop-color:#FFFFFF"
         id="stop1161" /><stop
         offset="1"
         style="stop-color:#000000"
         id="stop1163" /></radialGradient></defs><sodipodi:namedview
     pagecolor="#ffffff"
     bordercolor="#666666"
     borderopacity="1"
     objecttolerance="10"
     gridtolerance="10"
     guidetolerance="10"
     inkscape:pageopacity="0"
     inkscape:pageshadow="2"
     inkscape:window-width="1920"
     inkscape:window-height="1017"
     id="namedview1324"
     showgrid="false"
     inkscape:pagecheckerboard="true"
     inkscape:zoom="1.4168827"
     inkscape:cx="303.96062"
     inkscape:cy="114.01107"
     inkscape:window-x="1912"
     inkscape:window-y="-8"
     inkscape:window-maximized="1"
     inkscape:current-layer="svg1322" /><g
     id="Ebene_2_1_"
     transform="translate(0,5.0000092)" /><path
     d="m -92.884,40.078009 c 2.093,-1.583 5.084,-3.551 8.511,-5.267 3.43,-1.837 7.289,-3.489 11.575,-5.143 v 0.062 c 4.225,-1.592 8.694,-3.062 13.348,-4.348 4.716,-1.348 9.368,-2.45 14.022,-3.245 4.714,-0.918 9.245,-1.471 13.533,-1.716 4.409,-0.367 9.435,-0.025 10.701,0.062 1.267,0.087 3.075,-0.183 3.871,-0.795 0.797,-0.673 1.225,-1.471 1.347,-2.449 0.123,-1.042 -0.183,-1.96 -0.794,-2.696 -0.674,-0.795 -2.143,-1.284 -3.123,-1.346 -3.92,-0.43 -7.654,-0.43 -12.491,-0.124 -4.533,0.306 -9.309,0.918 -14.39,1.837 -4.838,0.857 -9.738,2.021 -14.636,3.368 -4.899,1.348 -9.55,2.879 -13.96,4.53 -4.592,1.778 -9.555,4.026 -12.37,5.452 -2.815,1.425 -6.441,3.472 -9.506,6 -3.064,2.527 -4.362,3.736 -6.415,6.918 -2.053,3.182 -2.524,6.79 -1.26,8.951 3.253,5.562 14.854,3.739 19.264,2.882 3.551,-0.733 7.898,-1.731 13.104,-3.199 3.795,-1.163 8.634,-2.694 14.511,-4.654 l 14.574,-4.775 c 5.327,-1.775 9.673,-3.124 13.043,-4.042 4.103,-1.225 11.39,-2.961 15.14,-2.281 -0.188,2.35 -3.106,8.643 -16.123,14.466 -4.838,2.205 -10.225,4.226 -16.166,6.185 h -0.061 c -4.59,1.469 -9.305,2.756 -14.144,3.919 -4.715,1.104 -9.125,1.899 -13.35,2.573 l 0.062,-0.062 c -6.645,0.927 -16.2,0.102 -18.088,0.349 -3.737,0.238 -4.646,2.591 -4.686,3.612 -0.04,1.018 -0.09,3.406 4.887,3.715 4.978,0.309 9.625,0.721 18.929,-0.39 5.774,-0.851 9.062,-1.53 13.899,-2.632 h 0.062 c 5.022,-1.225 9.92,-2.573 14.696,-4.104 6.246,-1.958 11.941,-4.163 17.021,-6.489 11.423,-5.124 15.536,-9.808 18.213,-13.834 2.678,-4.026 3.654,-9.559 0.876,-12.157 -3.182,-2.977 -9.235,-2.445 -11.314,-2.248 -2.971,0.283 -7.407,0.991 -11.876,2.276 -3.428,0.98 -7.839,2.328 -13.35,4.166 l -14.572,4.775 c -5.817,1.899 -10.533,3.43 -14.267,4.531 -4.96,1.472 -9.063,2.573 -12.494,3.247 -7.83,1.803 -10.348,0.794 -10.348,0.794 -0.105,-2.243 2.502,-5.092 4.595,-6.674 z"
     id="path1166"
     inkscape:connector-curvature="0"
     style="fill:url(#SVGID_1_)" /><path
     d="m -85.039,69.582009 c -2.612,0 -4.834,-0.14 -6.982,-0.277 l -0.958,-0.06 c -5.437,-0.338 -5.325,-3.213 -5.288,-4.158 0.05,-1.282 1.178,-3.774 5.086,-4.023 0.244,-0.033 0.653,-0.049 1.261,-0.049 0.772,0 1.793,0.027 2.976,0.058 1.584,0.042 3.554,0.094 5.569,0.094 3.388,0 6.086,-0.147 8.25,-0.449 0.07,-0.009 0.137,-0.001 0.2,0.02 4.92,-0.79 9.074,-1.593 13.05,-2.524 5.12,-1.231 9.737,-2.51 14.11,-3.91 0.04,-0.013 0.082,-0.02 0.123,-0.021 6.267,-2.067 11.52,-4.079 16.057,-6.146 11.518,-5.152 15.31,-10.859 15.822,-13.718 -0.443,-0.056 -0.946,-0.084 -1.499,-0.084 -3.648,0 -9.128,1.248 -13.042,2.416 -3.333,0.908 -7.713,2.266 -13.029,4.037 l -14.577,4.777 c -5.071,1.692 -9.957,3.259 -14.519,4.657 -4.407,1.243 -8.703,2.291 -13.142,3.208 -3.388,0.658 -6.46,0.992 -9.137,0.992 -5.439,0 -9,-1.372 -10.583,-4.077 -1.363,-2.331 -0.854,-6.107 1.27,-9.398 2.082,-3.228 3.438,-4.488 6.502,-7.016 2.497,-2.059 5.721,-4.095 9.584,-6.052 2.685,-1.359 7.712,-3.65 12.409,-5.468 4.615,-1.729 9.324,-3.256 14.001,-4.544 5.355,-1.472 10.155,-2.576 14.674,-3.377 5.152,-0.931 9.875,-1.534 14.437,-1.842 2.309,-0.146 4.304,-0.217 6.101,-0.217 2.25,0 4.365,0.112 6.466,0.342 1.083,0.068 2.658,0.615 3.402,1.494 0.717,0.863 1.025,1.907 0.893,3.022 -0.138,1.102 -0.627,1.993 -1.496,2.726 -0.941,0.726 -2.879,0.985 -4.175,0.896 -0.822,-0.057 -3.321,-0.228 -6.196,-0.228 -1.632,0 -3.126,0.056 -4.441,0.165 -4.425,0.253 -8.958,0.828 -13.487,1.709 -4.464,0.763 -9.036,1.821 -13.986,3.236 -4.498,1.243 -8.976,2.701 -13.315,4.337 -0.07,0.026 -0.145,0.035 -0.217,0.022 -4.686,1.814 -8.283,3.417 -11.306,5.036 -3.961,1.983 -6.997,4.128 -8.455,5.231 -2.085,1.577 -4.284,4.076 -4.419,6.008 0.336,0.074 1.003,0.178 2.087,0.178 2.064,0 4.666,-0.359 7.733,-1.064 3.173,-0.624 7.014,-1.622 12.468,-3.24 3.711,-1.095 8.448,-2.632 14.255,-4.527 l 14.573,-4.774 c 4.874,-1.625 9.371,-3.028 13.366,-4.17 5.406,-1.554 10.16,-2.119 11.953,-2.291 0.577,-0.055 1.774,-0.168 3.149,-0.168 3.845,0 6.704,0.851 8.499,2.529 3.058,2.862 1.864,8.683 -0.813,12.707 -2.825,4.246 -7.008,8.88 -18.395,13.987 -5.313,2.432 -11.056,4.622 -17.068,6.507 -4.572,1.465 -9.389,2.81 -14.724,4.11 -0.033,0.009 -0.067,0.013 -0.101,0.013 h -0.015 c -5.003,1.14 -8.206,1.791 -13.885,2.627 -4.183,0.499 -7.699,0.731 -11.076,0.731 z m -6.881,-7.713 c -0.562,0 -0.948,0.015 -1.179,0.045 -3.328,0.213 -4.274,2.189 -4.314,3.206 -0.037,0.969 -0.116,2.985 4.486,3.27 l 0.959,0.062 c 2.135,0.136 4.342,0.276 6.928,0.276 3.342,0 6.827,-0.231 10.964,-0.725 5.657,-0.833 8.847,-1.484 13.854,-2.625 0.031,-0.007 0.063,-0.01 0.095,-0.01 h 0.011 c 5.295,-1.292 10.076,-2.627 14.618,-4.083 5.981,-1.875 11.691,-4.052 16.974,-6.471 11.192,-5.02 15.282,-9.542 18.035,-13.682 2.517,-3.784 3.557,-9.16 0.941,-11.608 -1.631,-1.525 -4.293,-2.299 -7.914,-2.299 -1.335,0 -2.506,0.112 -3.068,0.165 -1.769,0.169 -6.461,0.727 -11.798,2.261 -3.984,1.139 -8.47,2.538 -13.333,4.16 l -14.575,4.776 c -5.814,1.898 -10.557,3.438 -14.279,4.535 -5.48,1.626 -9.345,2.63 -12.532,3.256 -3.117,0.717 -5.784,1.083 -7.912,1.083 -1.845,0 -2.597,-0.279 -2.677,-0.312 -0.155,-0.063 -0.26,-0.21 -0.268,-0.376 -0.125,-2.616 2.934,-5.653 4.762,-7.036 1.481,-1.12 4.565,-3.299 8.578,-5.308 3.092,-1.656 6.785,-3.297 11.612,-5.16 0.073,-0.028 0.151,-0.035 0.225,-0.023 4.293,-1.61 8.721,-3.049 13.164,-4.276 4.978,-1.423 9.578,-2.487 14.064,-3.254 4.557,-0.887 9.128,-1.467 13.581,-1.721 1.327,-0.111 2.844,-0.167 4.501,-0.167 2.904,0 5.425,0.173 6.253,0.229 0.146,0.01 0.298,0.015 0.456,0.015 1.267,0 2.581,-0.304 3.124,-0.722 0.691,-0.584 1.073,-1.276 1.185,-2.164 0.103,-0.874 -0.138,-1.695 -0.7,-2.37 -0.56,-0.661 -1.901,-1.134 -2.82,-1.192 -3.794,-0.416 -7.257,-0.452 -12.438,-0.124 -4.528,0.306 -9.219,0.904 -14.341,1.831 -4.495,0.796 -9.269,1.895 -14.598,3.359 -4.652,1.281 -9.337,2.8 -13.924,4.519 -4.665,1.806 -9.66,4.082 -12.326,5.432 -3.807,1.928 -6.979,3.93 -9.427,5.949 -3.053,2.519 -4.302,3.68 -6.328,6.82 -1.922,2.98 -2.436,6.476 -1.25,8.503 1.418,2.425 4.73,3.654 9.844,3.654 2.622,0 5.639,-0.328 8.969,-0.975 4.414,-0.912 8.69,-1.955 13.069,-3.191 4.546,-1.393 9.425,-2.958 14.492,-4.648 l 14.576,-4.776 c 5.329,-1.776 9.726,-3.139 13.063,-4.048 1.917,-0.572 8.57,-2.449 13.276,-2.449 0.778,0 1.469,0.053 2.053,0.16 0.216,0.04 0.368,0.236 0.35,0.455 -0.063,0.796 -1.062,7.972 -16.374,14.822 -4.579,2.086 -9.88,4.116 -16.206,6.2 -0.042,0.014 -0.084,0.021 -0.129,0.021 -4.375,1.398 -8.991,2.677 -14.109,3.907 -4.071,0.953 -8.324,1.772 -13.383,2.58 -0.075,0.013 -0.152,0.004 -0.222,-0.023 -2.155,0.282 -4.807,0.42 -8.093,0.42 -2.026,0 -4.003,-0.052 -5.593,-0.095 -1.173,-0.031 -2.185,-0.058 -2.952,-0.058 z"
     id="path1168"
     inkscape:connector-curvature="0"
     style="fill:#333333" /><g
     id="Ebene_2"
     transform="translate(4,3.0000092)"><g
       id="g1183"><radialGradient
         id="SVGID_2_"
         cx="-54.784698"
         cy="815.39752"
         r="28.278601"
         gradientTransform="translate(-0.1797,-790.9609)"
         gradientUnits="userSpaceOnUse"><stop
           offset="0.04"
           style="stop-color:#FFFFFF"
           id="stop1170" /><stop
           offset="0.04"
           style="stop-color:#FFFFFF"
           id="stop1172" /><stop
           offset="0.23"
           style="stop-color:#6E93E1"
           id="stop1174" /><stop
           offset="1"
           style="stop-color:#363499"
           id="stop1176" /></radialGradient><circle
         cx="-60.064999"
         cy="37.814999"
         r="31.229"
         id="circle1179"
         style="fill:url(#SVGID_2_)" /><path
         d="m -60.065,69.899 c -17.691,0 -32.083,-14.393 -32.083,-32.084 0,-17.692 14.393,-32.084 32.083,-32.084 17.69,0 32.085,14.393 32.085,32.084 0,17.691 -14.394,32.084 -32.085,32.084 z m 0,-62.457 c -16.748,0 -30.373,13.625 -30.373,30.374 0,16.748 13.625,30.373 30.373,30.373 16.748,0 30.373,-13.625 30.373,-30.373 0,-16.75 -13.625,-30.374 -30.373,-30.374 z"
         id="path1181"
         inkscape:connector-curvature="0"
         style="fill:#33317a" /></g></g><g
     id="Ebene_4"
     transform="translate(4,3.0000092)"><radialGradient
       id="SVGID_3_"
       cx="-140.0278"
       cy="512.74902"
       r="244.9883"
       gradientTransform="translate(-0.0898,-395.4805)"
       gradientUnits="userSpaceOnUse"><stop
         offset="0"
         style="stop-color:#FFFFFF"
         id="stop1186" /><stop
         offset="1"
         style="stop-color:#000000"
         id="stop1188" /></radialGradient><path
       d="m -89.657,50.012 c 3.551,-0.733 7.898,-1.731 13.104,-3.199 3.795,-1.163 14.511,-4.654 14.511,-4.654 l 14.574,-4.775 c 5.327,-1.775 9.673,-3.124 13.043,-4.042 0,0 5.039,-1.327 5.895,-1.48 -0.306,-3.179 -2.131,-7.001 -2.131,-7.001 -1.84,0.356 -3.809,0.811 -5.785,1.379 -3.428,0.98 -7.839,2.328 -13.35,4.165 l -14.572,4.775 c -5.817,1.899 -10.533,3.43 -14.267,4.531 -7.69,2.397 -12.921,3.343 -13.128,3.389 -10e-4,0 0.693,4.555 2.106,6.912 z"
       id="path1191"
       inkscape:connector-curvature="0"
       style="fill:url(#SVGID_3_)" /></g><g
     id="Ebene_3"
     transform="translate(4,3.0000092)"><g
       id="g1196"><path
         d="m -98.956,44.459 c -1.863,0 -2.623,-0.288 -2.68,-0.311 -0.219,-0.088 -0.326,-0.337 -0.238,-0.556 0.087,-0.22 0.337,-0.326 0.556,-0.238 0.021,0.007 2.563,0.919 10.093,-0.813 3.173,-0.623 7.014,-1.622 12.468,-3.24 3.712,-1.095 8.448,-2.632 14.255,-4.528 l 14.571,-4.774 c 4.874,-1.625 9.372,-3.029 13.367,-4.17 5.406,-1.554 10.16,-2.119 11.953,-2.29 0.232,-0.019 0.444,0.15 0.466,0.385 0.022,0.235 -0.15,0.444 -0.385,0.466 -1.769,0.168 -6.461,0.727 -11.798,2.261 -3.984,1.138 -8.47,2.538 -13.333,4.16 l -14.575,4.776 c -5.814,1.898 -10.557,3.437 -14.279,4.535 -5.48,1.626 -9.345,2.63 -12.532,3.256 -3.704,0.852 -6.245,1.081 -7.909,1.081 z"
         id="path1194"
         inkscape:connector-curvature="0"
         style="fill:#333333" /></g><g
       id="g1200"><path
         d="m -98.664,51.409 c -4.477,0 -8.793,-0.929 -10.627,-4.063 -0.119,-0.204 -0.05,-0.466 0.153,-0.585 0.203,-0.119 0.466,-0.05 0.585,0.153 2.895,4.95 13.029,3.802 18.813,2.679 4.415,-0.912 8.691,-1.956 13.069,-3.191 3.739,-1.146 14.388,-4.615 14.495,-4.649 l 14.573,-4.775 c 5.329,-1.776 9.725,-3.139 13.063,-4.048 0.017,-0.005 2.057,-0.577 5.91,-1.483 3.625,-0.854 6.6,-1.168 8.604,-0.911 0.235,0.03 0.4,0.245 0.37,0.479 -0.03,0.234 -0.244,0.4 -0.479,0.37 -1.327,-0.172 -3.844,-0.154 -8.299,0.895 -3.833,0.902 -5.858,1.47 -5.878,1.475 -3.327,0.906 -7.708,2.264 -13.024,4.036 l -14.574,4.777 c -0.108,0.035 -10.763,3.506 -14.519,4.657 -4.407,1.243 -8.703,2.291 -13.142,3.208 -2.524,0.488 -5.851,0.976 -9.093,0.976 z"
         id="path1198"
         inkscape:connector-curvature="0"
         style="fill:#333333" /></g></g><g
     id="g1249"
     transform="translate(4,3.0000092)"
     style="fill:#000000;fill-opacity:1"><g
       id="g1231"
       style="fill:#000000;fill-opacity:1"><linearGradient
         id="SVGID_4_"
         gradientUnits="userSpaceOnUse"
         x1="5.5630002"
         y1="-255.8076"
         x2="46.187599"
         y2="-215.1834"
         gradientTransform="matrix(1,0,0,-1,-0.1348,-195.7207)"><stop
           offset="0"
           style="stop-color:#999999"
           id="stop1203" /><stop
           offset="0.98"
           style="stop-color:#F3F3F3"
           id="stop1205" /></linearGradient><path
         d="M 44.927,22.673 C 44.354,21.717 43.579,21.142 42.619,20.824 25.102,15.908 13.806,16.614 8.803,23.06 7.005,25.167 5.914,27.21 5.593,29.315 5.206,31.42 5.463,33.4 6.425,35.317 H 6.359 c 0.708,1.465 1.798,2.805 3.211,4.02 h 0.064 c 1.155,0.956 2.373,1.724 3.785,2.364 0.96,0.509 3.209,0.828 6.801,0.891 0.708,0.065 2.056,0.065 4.107,0.065 1.797,0.065 3.211,0.065 4.235,0.127 h 0.065 c 3.209,0.066 6.467,0.377 7.51,0.7 1.039,0.326 2.868,2.22 3.011,3.07 0.148,0.842 0,0 0,0 0.194,0.508 0.387,0.645 0.204,1.937 -0.188,1.292 -0.584,1.062 -1.099,1.701 v -0.068 c -0.58,0.511 -1.541,0.893 -2.888,1.279 -1.922,0.451 -4.236,0.767 -6.93,0.831 -2.696,0.064 -5.39,0 -8.149,-0.319 -2.631,-0.321 -4.94,-0.771 -6.867,-1.342 -0.961,-0.316 -1.987,-0.254 -2.889,0.258 -0.96,0.447 -1.604,1.212 -1.923,2.233 -0.321,0.956 -0.192,1.977 0.253,2.934 0.516,0.892 1.288,1.529 2.249,1.853 2.309,0.762 5.068,1.271 8.277,1.659 3.147,0.318 6.223,0.447 9.305,0.381 3.339,-0.129 6.227,-0.508 8.6,-1.083 3.335,-0.833 5.648,-2.109 6.866,-3.768 h 0.064 c 1.025,-1.28 1.794,-2.431 2.244,-3.453 v -0.065 c 0.516,-1.272 0.772,-2.552 0.772,-3.889 v -0.131 c -0.064,-0.956 0.017,-2.356 -0.497,-3.698 -0.193,-0.7 -0.381,-1.087 -1.413,-3.317 -1.035,-2.223 -3.42,-3.646 -7.592,-4.537 h -0.063 c -2.054,-0.386 -5.005,-0.705 -8.79,-0.831 -1.09,-0.066 -2.567,-0.066 -4.492,-0.131 -1.923,0 -3.27,0 -3.979,-0.064 -2.052,-0.06 -3.399,-0.127 -3.913,-0.252 -0.708,-0.321 -1.348,-0.703 -1.863,-1.15 -0.574,-0.511 -1.025,-1.021 -1.283,-1.529 v -0.066 c -0.259,-0.382 -0.323,-0.831 -0.194,-1.28 0.194,-0.829 0.644,-1.719 1.477,-2.551 3.849,-3.701 12.449,-3.701 25.86,0.129 1.031,0.253 1.992,0.192 2.888,-0.382 0.966,-0.508 1.605,-1.277 1.863,-2.298 0.325,-0.952 0.198,-1.913 -0.319,-2.872 z"
         id="path1208"
         inkscape:connector-curvature="0"
         style="fill:#000000;fill-opacity:1" /><linearGradient
         id="SVGID_5_"
         gradientUnits="userSpaceOnUse"
         x1="48.721199"
         y1="-252.3672"
         x2="88.273201"
         y2="-212.815"
         gradientTransform="matrix(1,0,0,-1,-0.1348,-195.7207)"><stop
           offset="0"
           style="stop-color:#999999"
           id="stop1210" /><stop
           offset="0.98"
           style="stop-color:#F3F3F3"
           id="stop1212" /></linearGradient><path
         d="m 82.685,19.437 c -0.772,-0.703 -1.669,-1.086 -2.759,-1.086 h -25.67 c -1.026,0 -1.988,0.384 -2.696,1.086 -0.769,0.763 -1.153,1.662 -1.153,2.745 v 31.921 c 0,1.021 0.386,1.982 1.153,2.682 0.708,0.772 1.668,1.151 2.696,1.151 h 25.67 c 1.09,0 1.987,-0.381 2.759,-1.151 0.705,-0.7 1.091,-1.661 1.091,-2.682 0,-1.088 -0.386,-1.978 -1.091,-2.749 -0.772,-0.7 -1.669,-1.086 -2.759,-1.086 H 58.109 v -8.295 h 16.04 c 1.09,0 1.987,-0.381 2.759,-1.149 C 77.612,40.118 78,39.162 78,38.141 c 0,-1.084 -0.387,-1.978 -1.092,-2.745 -0.772,-0.709 -1.669,-1.09 -2.759,-1.09 H 58.109 V 26.01 h 21.816 c 1.09,0 1.987,-0.387 2.759,-1.151 0.705,-0.705 1.091,-1.593 1.091,-2.682 0,-1.079 -0.386,-1.977 -1.09,-2.74 z"
         id="path1215"
         inkscape:connector-curvature="0"
         style="fill:#000000;fill-opacity:1" /><linearGradient
         id="SVGID_6_"
         gradientUnits="userSpaceOnUse"
         x1="86.330101"
         y1="-256.55759"
         x2="129.8642"
         y2="-213.02341"
         gradientTransform="matrix(1,0,0,-1,-0.1348,-195.7207)"><stop
           offset="0"
           style="stop-color:#999999"
           id="stop1217" /><stop
           offset="0.98"
           style="stop-color:#F3F3F3"
           id="stop1219" /></linearGradient><path
         d="m 127,23.954 c -0.189,-1.109 -0.768,-2.009 -1.598,-2.63 -7.044,-5.06 -14.765,-6.021 -22.228,-4.71 -2.943,0.69 -3.896,0.621 -7.111,2.215 -3.209,1.588 -5.445,4.54 -5.445,4.54 -1.536,1.666 -2.369,3.699 -3.395,6.394 -1.026,2.695 -1.021,4.032 -1.149,7.357 -0.128,3.329 0.317,6.38 1.277,9.286 0.96,2.915 2.433,5.481 4.421,7.629 V 53.96 c 1.921,2.222 4.291,3.947 7.044,5.058 2.754,1.18 5.765,1.805 9.029,1.805 7.684,0 13.262,-1.739 16.72,-5.2 4.035,-3.533 5.698,-8.865 5.059,-16.001 -0.064,-1.109 -0.509,-1.946 -1.218,-2.704 -0.767,-0.695 -1.599,-1.042 -2.627,-1.042 h -16.651 c -1.021,0 -1.981,0.412 -2.695,1.177 -0.767,0.831 -1.151,1.797 -1.151,2.979 0,1.109 0.384,2.147 1.151,2.908 0.714,0.831 1.675,1.245 2.695,1.245 h 12.813 c -0.258,2.08 -1.092,3.818 -2.374,5.129 -2.496,2.148 -6.401,3.187 -11.718,3.187 -2.244,0 -4.358,-0.414 -6.213,-1.177 l -0.065,-0.068 c -1.668,-0.695 -3.074,-1.666 -4.294,-3.051 -1.214,-1.315 -2.115,-2.911 -2.689,-4.64 -0.64,-1.871 -0.897,-3.949 -0.831,-6.167 0.063,-2.354 0.321,-3.633 0.766,-5.224 0.324,-1.182 0.833,-2.148 1.538,-2.911 0,0 1.146,-1.779 3.077,-2.74 1.932,-0.966 3.33,-1.247 5.7,-1.872 h 0.065 c 5.64,-1.385 11.018,-0.208 16.208,3.601 0.893,0.625 1.854,0.831 2.875,0.625 1.028,-0.276 1.858,-0.833 2.437,-1.802 0.577,-0.901 0.77,-1.94 0.577,-3.121 z"
         id="path1222"
         inkscape:connector-curvature="0"
         style="fill:#000000;fill-opacity:1" /><linearGradient
         id="SVGID_7_"
         gradientUnits="userSpaceOnUse"
         x1="136.45509"
         y1="-258.24411"
         x2="179.0757"
         y2="-215.6239"
         gradientTransform="matrix(1,0,0,-1,-0.1348,-195.7207)"><stop
           offset="0"
           style="stop-color:#999999"
           id="stop1224" /><stop
           offset="0.98"
           style="stop-color:#F3F3F3"
           id="stop1226" /></linearGradient><path
         d="m 175.494,57.627 c 0.642,-0.893 0.895,-1.784 0.769,-2.871 -4.042,-26.623 -11.292,-39.648 -21.816,-39.008 -10.519,-0.64 -17.839,11.939 -21.755,37.729 -0.131,1.021 0.066,1.979 0.71,2.813 0.64,0.891 1.473,1.4 2.499,1.531 1.029,0.187 1.99,-0.069 2.888,-0.709 0.832,-0.637 1.351,-1.465 1.542,-2.491 0.481,-3.203 1.011,-6.163 1.58,-8.874 h 0.021 24.894 c 0.647,3.069 1.25,6.45 1.803,10.146 0.192,1.021 0.643,1.854 1.539,2.494 0.832,0.64 1.797,0.891 2.824,0.698 1.025,-0.115 1.858,-0.625 2.502,-1.458 z M 143.818,38.095 c 2.808,-9.447 6.36,-14.34 10.625,-14.684 4.137,0.339 7.647,5.237 10.461,14.684 z"
         id="path1229"
         inkscape:connector-curvature="0"
         style="fill:#000000;fill-opacity:1" /></g><g
       id="g1235"
       style="fill:#000000;fill-opacity:1"><path
         d="m 27.128,60.833 c -2.597,0 -5.159,-0.132 -7.835,-0.402 C 15.71,59.999 13.022,59.457 10.819,58.729 9.639,58.333 8.688,57.549 8.06,56.461 7.45,55.16 7.348,53.909 7.73,52.77 c 0.393,-1.261 1.229,-2.228 2.411,-2.778 0.986,-0.566 2.328,-0.708 3.567,-0.297 1.839,0.544 4.099,0.986 6.69,1.303 2.465,0.285 5.179,0.377 8.014,0.313 2.437,-0.058 4.705,-0.329 6.742,-0.807 1.293,-0.372 2.073,-0.705 2.487,-1.073 0.052,-0.046 0.11,-0.085 0.168,-0.118 0.126,-0.119 0.24,-0.206 0.333,-0.277 0.173,-0.132 0.221,-0.167 0.293,-0.676 0.063,-0.432 0.076,-0.677 0.059,-0.848 -0.021,-0.026 -0.041,-0.054 -0.059,-0.083 v 0 c -0.002,0 -0.002,-0.003 -0.002,-0.003 v -0.001 c 0,0 0,0 -0.002,-10e-4 0.002,0 -10e-4,-10e-4 -10e-4,-10e-4 0,-0.001 0,-0.001 0,-0.001 V 47.42 c 0,0 0,0 -10e-4,-0.001 0,0 0,0 0,-10e-4 v 0 C 38.369,47.32 38.325,47.21 38.303,47.091 l -0.062,-0.354 c -0.002,-0.01 -0.003,-0.02 -0.006,-0.029 -0.115,-0.484 -1.614,-2.1 -2.375,-2.34 -0.845,-0.262 -3.861,-0.588 -7.253,-0.657 -0.662,-0.035 -1.342,-0.05 -2.14,-0.069 -0.648,-0.014 -1.373,-0.03 -2.172,-0.059 -2.031,0.005 -3.408,0.001 -4.159,-0.069 -3.644,-0.062 -6.005,-0.388 -7.15,-0.995 C 11.638,41.911 10.381,41.135 9.197,40.175 9.111,40.14 9.031,40.095 8.968,40.04 7.431,38.72 6.274,37.266 5.527,35.722 5.478,35.62 5.449,35.513 5.439,35.405 4.522,33.42 4.275,31.372 4.684,29.151 c 0.333,-2.192 1.454,-4.389 3.417,-6.689 2.964,-3.82 8.083,-5.774 15.188,-5.774 5.311,0 11.9,1.093 19.581,3.248 1.267,0.419 2.186,1.156 2.851,2.264 0.678,1.254 0.805,2.469 0.401,3.647 -0.294,1.182 -1.1,2.182 -2.306,2.818 -0.627,0.404 -1.401,0.63 -2.229,0.63 v 0 c -0.415,0 -0.855,-0.058 -1.312,-0.169 -12.916,-3.688 -21.432,-3.79 -24.998,-0.361 -0.626,0.626 -1.041,1.335 -1.217,2.094 -0.067,0.236 -0.043,0.401 0.058,0.55 0.062,0.093 0.106,0.195 0.133,0.302 0.2,0.333 0.535,0.711 0.998,1.123 0.395,0.343 0.915,0.667 1.543,0.96 0.649,0.122 2.734,0.183 3.645,0.209 0.724,0.064 2.079,0.064 3.953,0.064 0.848,0.028 1.583,0.044 2.241,0.058 0.907,0.02 1.672,0.037 2.309,0.075 3.462,0.114 6.527,0.403 8.837,0.833 0.057,0.002 0.116,0.009 0.153,0.016 4.46,0.953 7.079,2.559 8.237,5.052 l 0.197,0.428 c 0.884,1.909 1.069,2.307 1.269,3.034 0.433,1.118 0.47,2.302 0.501,3.251 0.006,0.226 0.014,0.438 0.027,0.63 l 0.002,0.193 c 0,1.414 -0.26,2.764 -0.793,4.12 -0.014,0.077 -0.032,0.151 -0.057,0.208 -0.465,1.05 -1.239,2.246 -2.369,3.657 -0.063,0.077 -0.133,0.143 -0.214,0.194 -1.39,1.735 -3.814,3.043 -7.215,3.893 -2.509,0.609 -5.464,0.982 -8.789,1.111 -0.543,0.008 -1.071,0.013 -1.598,0.013 z M 12.241,51.305 c -0.444,0 -0.867,0.112 -1.253,0.332 -0.782,0.367 -1.25,0.913 -1.497,1.705 -0.294,0.877 -0.049,1.715 0.209,2.266 0.368,0.631 0.955,1.116 1.706,1.368 2.079,0.688 4.652,1.202 8.092,1.618 3.121,0.315 6.127,0.442 9.174,0.375 3.185,-0.123 6.017,-0.479 8.4,-1.058 3.112,-0.778 5.246,-1.928 6.34,-3.417 0.069,-0.094 0.152,-0.172 0.247,-0.232 0.896,-1.14 1.523,-2.101 1.906,-2.927 0.012,-0.059 0.026,-0.114 0.044,-0.159 0.474,-1.171 0.704,-2.33 0.704,-3.542 V 47.503 C 46.302,47.353 46.294,47.12 46.285,46.871 46.259,46.017 46.226,45.048 45.877,44.136 45.694,43.488 45.546,43.163 44.685,41.302 L 44.49,40.876 c -0.888,-1.909 -3.071,-3.182 -6.871,-4.003 -0.045,-0.003 -0.091,-0.007 -0.12,-0.012 -1.552,-0.293 -4.314,-0.672 -8.648,-0.815 -0.641,-0.039 -1.382,-0.055 -2.26,-0.074 -0.666,-0.013 -1.409,-0.03 -2.233,-0.058 -1.955,0.008 -3.279,10e-4 -4.03,-0.068 -2.434,-0.069 -3.508,-0.142 -4.05,-0.274 -0.056,-0.014 -0.111,-0.033 -0.163,-0.057 -0.831,-0.376 -1.533,-0.812 -2.087,-1.294 -0.718,-0.638 -1.207,-1.227 -1.501,-1.808 -0.029,-0.057 -0.051,-0.114 -0.068,-0.173 -0.305,-0.562 -0.374,-1.209 -0.19,-1.848 0.244,-1.055 0.826,-2.063 1.712,-2.949 4.162,-4.001 13.081,-4.014 26.768,-0.105 0.777,0.189 1.516,0.124 2.136,-0.271 0.817,-0.434 1.274,-0.992 1.463,-1.745 0.256,-0.754 0.17,-1.452 -0.235,-2.206 C 43.7,22.429 43.127,21.97 42.328,21.705 34.85,19.608 28.431,18.538 23.287,18.538 c -6.504,0 -11.131,1.714 -13.753,5.092 -1.76,2.064 -2.742,3.959 -3.026,5.828 -0.36,1.962 -0.116,3.735 0.743,5.449 0.05,0.098 0.081,0.203 0.093,0.31 0.613,1.158 1.514,2.263 2.682,3.293 0.074,0.031 0.144,0.071 0.2,0.118 1.116,0.925 2.253,1.634 3.577,2.233 0.542,0.285 2.021,0.731 6.436,0.809 0.734,0.065 2.069,0.065 4.091,0.065 0.824,0.029 1.54,0.045 2.18,0.059 0.827,0.019 1.53,0.035 2.113,0.07 3.304,0.066 6.642,0.384 7.791,0.74 1.219,0.383 3.3,2.373 3.624,3.679 l 0.053,0.125 c 0.226,0.524 0.358,0.962 0.181,2.217 -0.168,1.165 -0.555,1.542 -1.002,1.883 -0.115,0.088 -0.198,0.152 -0.29,0.268 -0.115,0.142 -0.263,0.242 -0.429,0.297 -0.633,0.452 -1.523,0.821 -2.926,1.224 -2.206,0.517 -4.602,0.806 -7.164,0.865 -0.614,0.015 -1.228,0.023 -1.842,0.023 -2.309,0 -4.413,-0.113 -6.435,-0.348 -2.701,-0.329 -5.062,-0.792 -7.025,-1.374 -0.326,-0.108 -0.624,-0.158 -0.918,-0.158 z"
         id="path1233"
         inkscape:connector-curvature="0"
         style="fill:#000000;fill-opacity:1" /></g><g
       id="g1239"
       style="fill:#000000;fill-opacity:1"><path
         d="m 79.925,58.861 h -25.67 c -1.32,0 -2.519,-0.515 -3.377,-1.45 -0.88,-0.799 -1.397,-1.995 -1.397,-3.308 V 22.182 c 0,-1.317 0.48,-2.461 1.428,-3.401 0.882,-0.875 2.069,-1.354 3.347,-1.354 h 25.67 c 1.275,0 2.413,0.446 3.382,1.326 0.944,1.019 1.395,2.151 1.395,3.425 0,1.309 -0.459,2.432 -1.363,3.336 -0.956,0.945 -2.103,1.421 -3.414,1.421 H 59.034 v 6.446 h 15.115 c 1.281,0 2.419,0.448 3.384,1.333 0.943,1.022 1.393,2.157 1.393,3.428 0,1.271 -0.484,2.455 -1.363,3.336 -0.952,0.943 -2.099,1.42 -3.415,1.42 H 59.034 v 6.446 h 20.892 c 1.271,0 2.408,0.445 3.382,1.325 0.946,1.033 1.395,2.167 1.395,3.436 0,1.278 -0.484,2.464 -1.365,3.339 -0.947,0.94 -2.096,1.417 -3.413,1.417 z M 54.255,19.275 c -0.786,0 -1.511,0.291 -2.045,0.819 -0.6,0.595 -0.879,1.259 -0.879,2.088 v 31.921 c 0,0.788 0.302,1.498 0.852,1.999 0.569,0.615 1.265,0.91 2.073,0.91 h 25.67 c 0.833,0 1.502,-0.281 2.107,-0.882 0.528,-0.524 0.818,-1.245 0.818,-2.026 0,-0.816 -0.269,-1.491 -0.848,-2.125 -0.577,-0.516 -1.256,-0.785 -2.077,-0.785 H 58.109 c -0.512,0 -0.926,-0.414 -0.926,-0.925 v -8.295 c 0,-0.511 0.414,-0.925 0.926,-0.925 h 16.04 c 0.833,0 1.502,-0.279 2.108,-0.881 0.525,-0.528 0.816,-1.249 0.816,-2.026 0,-0.816 -0.268,-1.489 -0.846,-2.121 -0.573,-0.521 -1.252,-0.79 -2.078,-0.79 h -16.04 c -0.512,0 -0.926,-0.414 -0.926,-0.925 V 26.01 c 0,-0.511 0.414,-0.925 0.926,-0.925 h 21.816 c 0.83,0 1.5,-0.281 2.109,-0.885 0.549,-0.548 0.816,-1.211 0.816,-2.023 0,-0.806 -0.276,-1.496 -0.846,-2.113 -0.577,-0.519 -1.256,-0.789 -2.079,-0.789 z"
         id="path1237"
         inkscape:connector-curvature="0"
         style="fill:#000000;fill-opacity:1" /></g><g
       id="g1243"
       style="fill:#000000;fill-opacity:1"><path
         d="m 107.847,61.746 c -3.322,0 -6.482,-0.633 -9.393,-1.878 -2.737,-1.104 -5.148,-2.802 -7.152,-5.043 -0.075,-0.042 -0.146,-0.095 -0.207,-0.162 -2.054,-2.221 -3.61,-4.902 -4.621,-7.968 -1.021,-3.09 -1.453,-6.233 -1.322,-9.61 l 0.02,-0.542 c 0.11,-2.946 0.166,-4.424 1.189,-7.11 1.067,-2.801 1.947,-4.922 3.579,-6.691 0.039,-0.059 2.348,-3.075 5.714,-4.741 2.6,-1.29 3.795,-1.538 5.606,-1.915 0.5,-0.104 1.053,-0.219 1.705,-0.373 2.104,-0.372 4.136,-0.555 6.092,-0.555 6.203,0 11.885,1.822 16.884,5.414 1.071,0.799 1.747,1.913 1.972,3.226 0.23,1.414 -0.009,2.681 -0.711,3.775 -0.652,1.094 -1.659,1.842 -2.976,2.194 -0.369,0.077 -0.685,0.109 -0.992,0.109 v 0 c -0.936,0 -1.829,-0.292 -2.653,-0.87 -4.944,-3.631 -10.092,-4.776 -15.456,-3.46 -0.053,0.012 -0.106,0.021 -0.161,0.025 l -0.871,0.226 c -1.792,0.463 -2.978,0.768 -4.541,1.55 -1.686,0.839 -2.704,2.398 -2.714,2.414 -0.028,0.045 -0.063,0.088 -0.099,0.127 -0.605,0.655 -1.039,1.482 -1.325,2.528 -0.44,1.576 -0.674,2.78 -0.733,5.005 -0.065,2.172 0.199,4.137 0.781,5.844 0.557,1.671 1.395,3.12 2.496,4.311 1.1,1.25 2.393,2.168 3.969,2.824 0.079,0.034 0.153,0.078 0.221,0.13 1.723,0.684 3.689,1.044 5.701,1.044 5.09,0 8.83,-0.998 11.114,-2.963 0.903,-0.926 1.54,-2.11 1.874,-3.503 h -11.709 c -1.323,0 -2.529,-0.556 -3.397,-1.567 -0.868,-0.855 -1.374,-2.122 -1.374,-3.51 0,-1.409 0.457,-2.59 1.398,-3.606 0.885,-0.953 2.082,-1.474 3.373,-1.474 h 16.651 c 1.233,0 2.295,0.419 3.248,1.281 0.983,1.046 1.448,2.089 1.521,3.337 0.663,7.401 -1.144,13.046 -5.373,16.75 -3.58,3.587 -9.425,5.427 -17.328,5.427 z M 92.232,53.163 c 0.089,0.048 0.17,0.111 0.241,0.192 1.854,2.146 4.106,3.763 6.69,4.804 2.698,1.156 5.613,1.738 8.683,1.738 7.394,0 12.799,-1.659 16.064,-4.928 3.859,-3.381 5.411,-8.361 4.793,-15.265 -0.049,-0.832 -0.348,-1.488 -0.972,-2.154 -0.56,-0.502 -1.178,-0.75 -1.952,-0.75 h -16.651 c -0.771,0 -1.488,0.314 -2.018,0.882 -0.615,0.667 -0.904,1.414 -0.904,2.349 0,0.891 0.313,1.689 0.878,2.25 0.569,0.658 1.258,0.978 2.044,0.978 h 12.813 c 0.265,0 0.517,0.113 0.692,0.312 0.176,0.198 0.259,0.463 0.226,0.726 -0.275,2.227 -1.186,4.184 -2.631,5.663 -2.725,2.349 -6.756,3.464 -12.379,3.464 -2.346,0 -4.554,-0.419 -6.564,-1.246 -0.085,-0.035 -0.164,-0.082 -0.233,-0.139 -1.768,-0.763 -3.231,-1.818 -4.468,-3.224 -1.266,-1.369 -2.236,-3.042 -2.874,-4.958 -0.652,-1.911 -0.948,-4.097 -0.877,-6.488 0.064,-2.4 0.33,-3.767 0.799,-5.445 0.353,-1.288 0.925,-2.377 1.698,-3.234 0.254,-0.37 1.466,-2.036 3.395,-2.996 1.739,-0.87 3.068,-1.212 4.906,-1.686 l 0.972,-0.252 c 0.06,-0.016 0.121,-0.025 0.184,-0.029 5.858,-1.409 11.536,-0.139 16.872,3.779 0.498,0.348 1.019,0.522 1.575,0.522 v 0 c 0.188,0 0.378,-0.02 0.57,-0.059 0.801,-0.217 1.399,-0.656 1.825,-1.369 0.47,-0.733 0.614,-1.541 0.458,-2.496 -0.143,-0.832 -0.571,-1.538 -1.239,-2.039 -6.149,-4.416 -13.442,-5.957 -21.512,-4.54 -0.619,0.147 -1.186,0.265 -1.7,0.372 -1.729,0.36 -2.774,0.578 -5.161,1.762 -2.967,1.469 -5.099,4.243 -5.122,4.271 -1.463,1.596 -2.241,3.474 -3.264,6.163 -0.916,2.401 -0.961,3.607 -1.07,6.521 l -0.021,0.543 c -0.121,3.153 0.282,6.084 1.231,8.96 0.893,2.7 2.238,5.07 4.003,7.046 z"
         id="path1241"
         inkscape:connector-curvature="0"
         style="fill:#000000;fill-opacity:1" /></g><g
       id="g1247"
       style="fill:#000000;fill-opacity:1"><path
         d="m 172.32,60.074 v 0 c -0.969,0 -1.908,-0.33 -2.718,-0.953 -1.008,-0.718 -1.634,-1.724 -1.885,-3.056 -0.505,-3.376 -1.056,-6.522 -1.646,-9.393 h -23.409 c -0.513,2.517 -0.989,5.232 -1.419,8.087 -0.236,1.276 -0.871,2.305 -1.894,3.086 -1.151,0.823 -2.348,1.116 -3.615,0.884 -1.238,-0.155 -2.292,-0.797 -3.086,-1.9 -0.745,-0.963 -1.047,-2.139 -0.876,-3.469 3.983,-26.239 11.606,-39.203 22.73,-38.536 0.152,-0.016 0.415,-0.024 0.677,-0.024 10.735,0 17.929,13.024 21.996,39.816 0.155,1.333 -0.142,2.452 -0.931,3.55 -0.841,1.086 -1.895,1.696 -3.153,1.838 -0.214,0.043 -0.494,0.07 -0.771,0.07 z M 141.91,44.822 h 24.914 c 0.438,0 0.814,0.307 0.904,0.734 0.656,3.101 1.265,6.533 1.813,10.2 0.158,0.828 0.519,1.417 1.162,1.878 0.67,0.515 1.369,0.687 2.116,0.541 0.819,-0.095 1.433,-0.456 1.943,-1.114 0.498,-0.695 0.679,-1.36 0.581,-2.198 -3.939,-25.943 -10.973,-38.811 -20.84,-38.192 -0.349,-0.014 -0.583,-0.021 -0.814,-0.021 -9.602,0 -16.359,12.437 -20.084,36.966 -0.104,0.815 0.067,1.513 0.527,2.108 0.507,0.704 1.116,1.082 1.885,1.18 0.213,0.036 0.375,0.051 0.534,0.051 0.581,0 1.137,-0.194 1.7,-0.597 0.631,-0.482 1.021,-1.113 1.169,-1.906 0.471,-3.138 1.006,-6.141 1.584,-8.895 0.091,-0.428 0.469,-0.735 0.906,-0.735 z m 22.994,-5.802 h -21.086 c -0.294,0 -0.568,-0.138 -0.742,-0.372 -0.176,-0.234 -0.229,-0.537 -0.146,-0.816 2.955,-9.942 6.696,-14.96 11.438,-15.343 0.047,-0.003 0.099,-0.003 0.149,0 4.623,0.379 8.311,5.397 11.273,15.343 0.083,0.28 0.028,0.582 -0.146,0.816 -0.171,0.234 -0.446,0.372 -0.74,0.372 z m -19.836,-1.85 h 18.584 c -2.563,-8.062 -5.737,-12.487 -9.212,-12.831 -3.63,0.349 -6.781,4.663 -9.372,12.831 z"
         id="path1245"
         inkscape:connector-curvature="0"
         style="fill:#000000;fill-opacity:1" /></g></g><g
     id="g1317"
     transform="translate(4,3.0000092)"
     style="fill:#000000;fill-opacity:1"><linearGradient
       id="SVGID_8_"
       gradientUnits="userSpaceOnUse"
       x1="196.2188"
       y1="-256.54001"
       x2="237.9565"
       y2="-214.8022"
       gradientTransform="matrix(1,0,0,-1,-0.1348,-195.7207)"><stop
         offset="0"
         style="stop-color:#999999"
         id="stop1251" /><stop
         offset="0.98"
         style="stop-color:#F3F3F3"
         id="stop1253" /></linearGradient><path
       d="m 236.675,22.332 c -0.578,-0.964 -1.358,-1.543 -2.328,-1.865 -17.665,-4.957 -29.056,-4.249 -34.102,2.255 -1.813,2.123 -2.913,4.183 -3.238,6.308 -0.39,2.123 -0.13,4.117 0.84,6.05 h -0.065 c 0.714,1.48 1.814,2.829 3.238,4.054 h 0.064 c 1.163,0.964 2.394,1.738 3.818,2.383 0.969,0.517 3.236,0.838 6.857,0.901 0.716,0.063 2.075,0.063 4.141,0.063 1.815,0.066 3.239,0.066 4.272,0.132 h 0.065 c 3.236,0.067 6.521,0.379 7.574,0.703 1.047,0.333 2.895,2.241 3.038,3.099 0.149,0.853 0,0 0,0 0.193,0.513 0.391,0.648 0.202,1.951 -0.188,1.309 -0.589,1.073 -1.107,1.718 v -0.065 c -0.585,0.512 -1.555,0.895 -2.913,1.287 -1.938,0.452 -4.271,0.773 -6.99,0.836 -2.719,0.069 -5.435,0 -8.218,-0.319 -2.65,-0.323 -4.979,-0.774 -6.922,-1.354 -0.972,-0.321 -2.005,-0.252 -2.913,0.258 -0.972,0.455 -1.619,1.221 -1.94,2.251 -0.323,0.964 -0.193,1.994 0.255,2.958 0.521,0.901 1.299,1.546 2.269,1.87 2.326,0.77 5.11,1.286 8.349,1.675 3.171,0.319 6.273,0.45 9.381,0.385 3.368,-0.129 6.28,-0.517 8.674,-1.096 3.36,-0.84 5.695,-2.123 6.924,-3.798 h 0.065 c 1.035,-1.288 1.81,-2.451 2.265,-3.48 v -0.066 c 0.52,-1.286 0.778,-2.572 0.778,-3.924 v -0.129 c -0.064,-0.964 0.02,-2.374 -0.5,-3.731 -0.195,-0.707 -0.386,-1.096 -1.424,-3.341 -1.046,-2.245 -3.452,-3.681 -7.657,-4.578 h -0.066 c -2.068,-0.39 -5.046,-0.708 -8.861,-0.836 -1.101,-0.063 -2.588,-0.063 -4.531,-0.133 -1.939,0 -3.298,0 -4.013,-0.065 -2.068,-0.058 -3.428,-0.128 -3.946,-0.253 -0.714,-0.327 -1.358,-0.711 -1.879,-1.16 -0.58,-0.514 -1.034,-1.03 -1.294,-1.542 v -0.066 c -0.261,-0.386 -0.323,-0.836 -0.194,-1.288 0.194,-0.836 0.649,-1.736 1.488,-2.572 3.883,-3.736 12.555,-3.736 26.077,0.131 1.041,0.253 2.01,0.192 2.913,-0.387 0.975,-0.513 1.619,-1.291 1.88,-2.32 0.323,-0.967 0.194,-1.936 -0.326,-2.9 z"
       id="path1256"
       inkscape:connector-curvature="0"
       style="fill:#000000;fill-opacity:1" /><linearGradient
       id="SVGID_9_"
       gradientUnits="userSpaceOnUse"
       x1="244.28999"
       y1="-261.6377"
       x2="289.43051"
       y2="-216.49741"
       gradientTransform="matrix(1,0,0,-1,-0.1348,-195.7207)"><stop
         offset="0"
         style="stop-color:#999999"
         id="stop1258" /><stop
         offset="0.98"
         style="stop-color:#F3F3F3"
         id="stop1260" /></linearGradient><path
       d="m 247.19,59.911 c 0.842,-0.646 1.362,-1.483 1.554,-2.513 0.49,-3.229 1.023,-6.215 1.594,-8.944 h 25.132 c 0.654,3.095 1.257,6.504 1.813,10.232 0.194,1.03 0.645,1.87 1.553,2.511 0.841,0.643 1.81,0.902 2.848,0.708 1.035,-0.13 1.875,-0.646 2.522,-1.479 0.645,-0.905 0.906,-1.807 0.776,-2.898 -4.075,-26.844 -11.391,-39.977 -22.002,-39.332 -10.612,-0.645 -17.925,12.04 -21.938,38.046 -0.193,1.03 0.065,1.994 0.71,2.833 0.65,0.904 1.488,1.42 2.528,1.543 1.101,0.194 2.004,-0.061 2.91,-0.707 z m 5.074,-19.186 c 2.835,-9.525 6.42,-14.456 10.72,-14.803 4.21,0.336 7.739,5.277 10.559,14.803 z"
       id="path1263"
       inkscape:connector-curvature="0"
       style="fill:#000000;fill-opacity:1" /><linearGradient
       id="SVGID_10_"
       gradientUnits="userSpaceOnUse"
       x1="275.25589"
       y1="-251.48441"
       x2="317.45999"
       y2="-209.2802"
       gradientTransform="matrix(1,0,0,-1,-0.1348,-195.7207)"><stop
         offset="0"
         style="stop-color:#999999"
         id="stop1265" /><stop
         offset="0.98"
         style="stop-color:#F3F3F3"
         id="stop1267" /></linearGradient><path
       d="m 318.18,21.218 c -0.775,-0.706 -1.684,-1.093 -2.782,-1.093 H 281.75 c -1.038,0 -2.008,0.387 -2.722,1.093 -0.774,0.774 -1.163,1.675 -1.163,2.769 0,1.03 0.39,1.994 1.163,2.705 0.714,0.778 1.684,1.161 2.722,1.161 h 12.939 v 29.609 c 0,1.033 0.39,1.999 1.164,2.708 0.714,0.774 1.684,1.16 2.719,1.16 1.104,0 2.009,-0.387 2.781,-1.16 0.715,-0.709 1.104,-1.675 1.104,-2.708 V 27.851 h 12.94 c 1.099,0 2.007,-0.385 2.781,-1.159 0.714,-0.711 1.1,-1.675 1.1,-2.705 0.002,-1.093 -0.384,-1.994 -1.098,-2.769 z"
       id="path1270"
       inkscape:connector-curvature="0"
       style="fill:#000000;fill-opacity:1" /><linearGradient
       id="SVGID_11_"
       gradientUnits="userSpaceOnUse"
       x1="319.35941"
       y1="-255.396"
       x2="362.02859"
       y2="-212.72659"
       gradientTransform="matrix(1,0,0,-1,-0.1348,-195.7207)"><stop
         offset="0"
         style="stop-color:#999999"
         id="stop1272" /><stop
         offset="0.98"
         style="stop-color:#F3F3F3"
         id="stop1274" /></linearGradient><path
       d="m 363.52,20.449 c -0.775,-0.774 -1.682,-1.158 -2.783,-1.158 -1.035,0 -2.004,0.384 -2.717,1.158 -0.776,0.704 -1.166,1.673 -1.166,2.703 v 19.117 c 0,1.485 -0.258,2.9 -0.836,4.188 -0.52,1.349 -1.361,2.445 -2.334,3.475 -1.035,0.964 -2.134,1.804 -3.491,2.318 -1.293,0.58 -2.719,0.834 -4.207,0.834 h -5.76 c -1.487,0 -2.847,-0.251 -4.205,-0.834 -1.359,-0.514 -2.456,-1.354 -3.492,-2.318 -0.974,-1.03 -1.749,-2.125 -2.333,-3.414 v -0.061 c -0.512,-1.288 -0.836,-2.703 -0.836,-4.188 V 23.151 c 0,-1.03 -0.391,-1.999 -1.102,-2.703 -0.781,-0.774 -1.68,-1.158 -2.782,-1.158 -1.032,0 -2.008,0.384 -2.717,1.158 -0.78,0.704 -1.165,1.673 -1.165,2.703 v 19.117 c 0,2.516 0.515,4.895 1.425,7.212 h 0.063 c 0.906,2.255 2.265,4.183 3.948,5.924 1.744,1.673 3.688,3.024 5.949,3.993 2.27,0.964 4.663,1.415 7.252,1.415 h 5.759 c 2.588,0 4.983,-0.451 7.313,-1.415 h -0.066 c 2.263,-0.969 4.205,-2.32 5.957,-3.993 1.678,-1.741 3.038,-3.669 4.012,-5.924 v 0.066 c 0.97,-2.32 1.427,-4.699 1.427,-7.278 V 23.151 c -0.011,-1.029 -0.4,-1.999 -1.113,-2.702 z"
       id="path1277"
       inkscape:connector-curvature="0"
       style="fill:#000000;fill-opacity:1" /><linearGradient
       id="SVGID_12_"
       gradientUnits="userSpaceOnUse"
       x1="367.93649"
       y1="-257.2793"
       x2="410.9108"
       y2="-214.30479"
       gradientTransform="matrix(1,0,0,-1,-0.1348,-195.7207)"><stop
         offset="0"
         style="stop-color:#999999"
         id="stop1279" /><stop
         offset="0.98"
         style="stop-color:#F3F3F3"
         id="stop1281" /></linearGradient><path
       d="m 368.735,20.487 c -0.686,0.704 -1.099,1.534 -1.099,2.554 v 33.25 c 0,1.02 0.413,1.979 1.168,2.685 0.828,0.764 1.861,1.149 2.961,1.149 1.168,0 2.131,-0.385 2.89,-1.149 0.829,-0.706 1.238,-1.665 1.238,-2.685 v -29.67 c 8.881,-0.508 15.687,-0.061 20.435,1.281 3.579,1.085 5.506,2.875 5.709,5.37 0.07,1.981 -0.754,3.39 -2.476,4.225 -2.755,1.151 -6.814,1.47 -12.176,0.892 -0.964,-0.066 -1.792,0.065 -2.619,0.574 -0.826,0.445 -1.377,1.085 -1.721,1.92 -0.345,0.767 -0.345,1.593 -0.136,2.427 0.273,0.835 0.828,1.47 1.586,1.98 l 20.647,14.067 c 0.894,0.631 1.923,0.892 3.027,0.701 1.169,-0.13 2.064,-0.64 2.751,-1.54 0.621,-0.83 0.896,-1.789 0.761,-2.811 -0.209,-1.088 -0.761,-1.916 -1.655,-2.558 l -10.941,-7.417 c 1.586,-0.379 2.958,-0.834 4.131,-1.404 4.681,-2.18 7.022,-5.881 7.095,-11.063 0.272,-6.134 -3.583,-10.354 -11.422,-12.66 -6.127,-1.916 -15.282,-2.366 -27.462,-1.404 -1.034,0.069 -1.929,0.514 -2.692,1.286 z"
       id="path1284"
       inkscape:connector-curvature="0"
       style="fill:#000000;fill-opacity:1" /><linearGradient
       id="SVGID_13_"
       gradientUnits="userSpaceOnUse"
       x1="414.89841"
       y1="-256.93411"
       x2="456.6366"
       y2="-215.19591"
       gradientTransform="matrix(1,0,0,-1,-0.1348,-195.7207)"><stop
         offset="0"
         style="stop-color:#999999"
         id="stop1286" /><stop
         offset="0.98"
         style="stop-color:#F3F3F3"
         id="stop1288" /></linearGradient><path
       d="m 416.539,21.152 c -0.456,0.646 -0.71,1.356 -0.71,2.189 v 33.478 c 0,1.032 0.385,1.999 1.162,2.703 0.711,0.774 1.681,1.159 2.718,1.159 1.101,0 2.005,-0.384 2.779,-1.159 0.713,-0.704 1.103,-1.67 1.103,-2.703 v -23.88 l 25.688,26.521 c 0.585,0.577 1.227,0.966 2.01,1.156 0.774,0.129 1.485,0.063 2.262,-0.19 0.716,-0.327 1.293,-0.774 1.75,-1.48 0.454,-0.645 0.648,-1.354 0.648,-2.128 V 23.341 c 0,-1.093 -0.39,-1.994 -1.105,-2.768 -0.775,-0.704 -1.677,-1.097 -2.78,-1.097 -1.034,0 -2.003,0.394 -2.718,1.097 -0.775,0.774 -1.164,1.675 -1.164,2.768 V 47.226 L 422.559,20.639 c -0.585,-0.512 -1.23,-0.897 -2.01,-1.095 -0.773,-0.125 -1.553,-0.063 -2.262,0.26 -0.715,0.256 -1.358,0.708 -1.748,1.348 z"
       id="path1291"
       inkscape:connector-curvature="0"
       style="fill:#000000;fill-opacity:1" /><g
       id="g1295"
       style="fill:#000000;fill-opacity:1"><path
         d="m 218.742,60.814 c -2.61,0 -5.198,-0.133 -7.915,-0.405 -3.6,-0.434 -6.31,-0.979 -8.548,-1.718 -1.186,-0.396 -2.146,-1.188 -2.782,-2.29 -0.615,-1.311 -0.718,-2.572 -0.331,-3.721 0.391,-1.265 1.234,-2.239 2.427,-2.798 1.014,-0.571 2.363,-0.71 3.602,-0.299 1.838,0.548 4.116,0.993 6.744,1.313 2.522,0.29 5.25,0.382 8.08,0.313 2.445,-0.057 4.733,-0.33 6.802,-0.812 0.864,-0.251 1.978,-0.613 2.51,-1.08 0.052,-0.044 0.104,-0.081 0.159,-0.112 0.131,-0.125 0.248,-0.215 0.347,-0.289 0.173,-0.131 0.221,-0.167 0.294,-0.683 0.063,-0.434 0.076,-0.681 0.062,-0.853 -0.097,-0.119 -0.165,-0.263 -0.193,-0.425 l -0.063,-0.359 c -0.002,-0.01 -0.003,-0.019 -0.004,-0.028 -0.12,-0.487 -1.633,-2.118 -2.4,-2.362 -0.85,-0.261 -3.891,-0.59 -7.312,-0.661 -0.682,-0.038 -1.38,-0.053 -2.202,-0.072 -0.643,-0.015 -1.358,-0.032 -2.148,-0.06 -2.052,0.005 -3.434,0.001 -4.19,-0.067 -3.68,-0.062 -6.063,-0.392 -7.215,-1.005 -1.361,-0.615 -2.628,-1.397 -3.822,-2.364 -0.086,-0.037 -0.165,-0.083 -0.229,-0.137 -1.553,-1.334 -2.719,-2.8 -3.47,-4.356 -0.049,-0.101 -0.079,-0.208 -0.089,-0.317 -0.924,-2.002 -1.174,-4.069 -0.763,-6.306 0.337,-2.211 1.466,-4.427 3.445,-6.746 2.988,-3.853 8.15,-5.824 15.314,-5.824 5.356,0 12.001,1.104 19.749,3.277 1.278,0.423 2.204,1.166 2.877,2.282 0.679,1.261 0.811,2.485 0.408,3.677 -0.3,1.197 -1.111,2.206 -2.328,2.847 -0.633,0.409 -1.412,0.636 -2.25,0.636 v 0 c -0.422,0 -0.853,-0.054 -1.318,-0.168 -13.027,-3.722 -21.615,-3.825 -25.21,-0.365 -0.633,0.63 -1.048,1.344 -1.228,2.112 -0.066,0.236 -0.043,0.403 0.061,0.555 0.06,0.091 0.106,0.192 0.131,0.298 0.204,0.34 0.543,0.72 1.008,1.132 0.397,0.345 0.924,0.672 1.558,0.968 0.677,0.126 2.84,0.187 3.676,0.211 0.73,0.066 2.095,0.066 3.985,0.066 0.911,0.031 1.694,0.049 2.392,0.064 0.854,0.018 1.583,0.035 2.193,0.07 3.508,0.118 6.597,0.407 8.915,0.839 0.056,0.002 0.115,0.009 0.154,0.017 4.495,0.959 7.135,2.578 8.307,5.096 l 0.205,0.444 c 0.888,1.914 1.071,2.312 1.272,3.043 0.438,1.132 0.476,2.326 0.506,3.284 0.009,0.227 0.013,0.439 0.025,0.633 0.003,0.021 0.003,0.171 0.003,0.191 0,1.424 -0.263,2.786 -0.8,4.157 -0.014,0.077 -0.032,0.151 -0.058,0.21 -0.471,1.063 -1.253,2.27 -2.391,3.687 -0.062,0.078 -0.135,0.143 -0.215,0.196 -1.399,1.748 -3.846,3.067 -7.275,3.923 -2.552,0.619 -5.532,0.996 -8.864,1.124 -0.544,0.012 -1.07,0.017 -1.598,0.017 z m -15.025,-9.607 c -0.45,0 -0.877,0.112 -1.272,0.333 -0.786,0.371 -1.257,0.921 -1.506,1.715 -0.296,0.885 -0.048,1.73 0.211,2.286 0.373,0.639 0.964,1.127 1.719,1.38 2.112,0.698 4.708,1.217 8.164,1.634 3.167,0.318 6.193,0.438 9.251,0.378 3.191,-0.123 6.049,-0.482 8.473,-1.07 3.139,-0.785 5.291,-1.944 6.393,-3.443 0.069,-0.095 0.154,-0.174 0.251,-0.235 0.903,-1.144 1.534,-2.112 1.92,-2.949 0.012,-0.06 0.027,-0.116 0.046,-0.16 0.478,-1.186 0.711,-2.354 0.711,-3.575 -0.013,-0.28 -0.021,-0.516 -0.028,-0.765 -0.027,-0.862 -0.059,-1.838 -0.413,-2.763 -0.183,-0.651 -0.331,-0.977 -1.194,-2.839 l -0.204,-0.442 c -0.896,-1.928 -3.1,-3.214 -6.928,-4.041 -0.045,-0.003 -0.091,-0.007 -0.119,-0.012 -1.559,-0.293 -4.336,-0.674 -8.722,-0.821 -0.613,-0.036 -1.32,-0.051 -2.149,-0.068 -0.705,-0.015 -1.499,-0.033 -2.385,-0.064 -1.97,10e-4 -3.307,10e-4 -4.063,-0.07 -2.404,-0.066 -3.528,-0.142 -4.082,-0.274 -0.058,-0.014 -0.114,-0.034 -0.168,-0.059 -0.834,-0.382 -1.54,-0.82 -2.101,-1.303 -0.723,-0.639 -1.216,-1.233 -1.516,-1.826 -0.029,-0.056 -0.052,-0.114 -0.067,-0.175 -0.309,-0.566 -0.377,-1.217 -0.191,-1.858 0.242,-1.052 0.843,-2.097 1.725,-2.976 4.196,-4.039 13.193,-4.054 26.994,-0.105 0.783,0.19 1.525,0.125 2.152,-0.276 0.824,-0.438 1.285,-1.002 1.478,-1.763 0.254,-0.761 0.169,-1.467 -0.24,-2.227 -0.418,-0.692 -0.995,-1.155 -1.802,-1.422 -7.542,-2.116 -14.017,-3.195 -19.203,-3.195 -6.558,0 -11.224,1.727 -13.867,5.136 -1.775,2.08 -2.764,3.992 -3.053,5.876 -0.363,1.977 -0.115,3.763 0.749,5.493 0.051,0.099 0.081,0.204 0.094,0.311 0.616,1.166 1.525,2.281 2.706,3.322 0.075,0.033 0.145,0.072 0.201,0.119 1.123,0.932 2.27,1.647 3.606,2.252 0.546,0.29 2.037,0.74 6.491,0.819 0.738,0.063 2.084,0.063 4.123,0.063 0.816,0.029 1.523,0.044 2.158,0.059 0.852,0.019 1.577,0.036 2.175,0.074 1.092,0.021 7.316,0.577 7.853,0.742 1.234,0.393 3.33,2.4 3.658,3.714 l 0.054,0.127 c 0.226,0.528 0.36,0.968 0.179,2.233 -0.168,1.177 -0.56,1.558 -1.012,1.903 -0.116,0.087 -0.199,0.151 -0.291,0.267 -0.113,0.14 -0.264,0.243 -0.427,0.298 -0.636,0.452 -1.534,0.824 -2.956,1.234 -2.24,0.523 -4.656,0.813 -7.227,0.873 -0.629,0.017 -1.26,0.025 -1.892,0.025 -2.292,0 -4.402,-0.115 -6.454,-0.351 -2.737,-0.334 -5.119,-0.8 -7.084,-1.385 -0.323,-0.104 -0.623,-0.154 -0.919,-0.154 z"
         id="path1293"
         inkscape:connector-curvature="0"
         style="fill:#000000;fill-opacity:1" /></g><g
       id="g1299"
       style="fill:#000000;fill-opacity:1"><path
         d="m 281.018,62.902 c -0.99,0 -1.913,-0.324 -2.748,-0.964 -1.018,-0.716 -1.648,-1.731 -1.904,-3.079 -0.516,-3.455 -1.069,-6.628 -1.654,-9.472 H 251.1 c -0.513,2.525 -0.993,5.263 -1.434,8.152 -0.238,1.287 -0.878,2.324 -1.907,3.113 -0.916,0.653 -1.819,0.962 -2.782,0.962 v 0 c -0.274,0 -0.56,-0.026 -0.856,-0.077 -1.249,-0.146 -2.317,-0.793 -3.124,-1.917 -0.802,-1.042 -1.109,-2.277 -0.869,-3.55 4.128,-26.772 11.639,-39.488 22.909,-38.804 0.154,-0.016 0.422,-0.023 0.684,-0.023 10.825,0 18.083,13.131 22.185,40.146 0.159,1.335 -0.141,2.463 -0.939,3.58 -0.845,1.088 -1.901,1.705 -3.164,1.863 -0.232,0.044 -0.512,0.07 -0.785,0.07 z m -30.68,-15.38 h 25.132 c 0.44,0 0.82,0.309 0.913,0.739 0.648,3.067 1.261,6.529 1.822,10.288 0.159,0.837 0.522,1.43 1.17,1.888 0.682,0.521 1.379,0.693 2.138,0.553 0.82,-0.105 1.442,-0.474 1.956,-1.135 0.504,-0.707 0.687,-1.378 0.586,-2.216 -3.973,-26.159 -11.016,-39.134 -21.02,-38.51 -0.35,-0.014 -0.587,-0.021 -0.82,-0.021 -9.621,0 -16.434,12.542 -20.25,37.278 -0.146,0.777 0.033,1.48 0.526,2.122 0.514,0.715 1.129,1.094 1.897,1.186 0.238,0.04 0.416,0.057 0.587,0.057 v 0 c 0.577,0 1.093,-0.185 1.673,-0.598 0.636,-0.486 1.03,-1.122 1.177,-1.922 0.483,-3.178 1.022,-6.204 1.6,-8.965 0.091,-0.434 0.471,-0.744 0.913,-0.744 z m 23.204,-5.864 h -21.278 c -0.295,0 -0.571,-0.139 -0.747,-0.374 -0.177,-0.237 -0.231,-0.542 -0.146,-0.824 2.981,-10.021 6.756,-15.081 11.536,-15.467 0.052,-10e-4 0.099,-0.006 0.15,0 4.688,0.374 8.411,5.434 11.38,15.468 0.083,0.282 0.028,0.587 -0.147,0.823 -0.177,0.236 -0.455,0.374 -0.748,0.374 z m -20.016,-1.865 h 18.756 c -2.599,-8.243 -5.726,-12.593 -9.299,-12.934 -3.665,0.35 -6.842,4.7 -9.457,12.934 z"
         id="path1297"
         inkscape:connector-curvature="0"
         style="fill:#000000;fill-opacity:1" /></g><g
       id="g1303"
       style="fill:#000000;fill-opacity:1"><path
         d="m 298.571,62.263 c -1.326,0 -2.536,-0.519 -3.404,-1.459 -0.89,-0.811 -1.411,-2.017 -1.411,-3.341 V 28.786 h -12.007 c -1.331,0 -2.543,-0.52 -3.409,-1.462 -0.889,-0.813 -1.409,-2.018 -1.409,-3.336 0,-1.322 0.484,-2.476 1.437,-3.429 0.894,-0.881 2.093,-1.365 3.382,-1.365 h 33.648 c 1.291,0 2.437,0.449 3.411,1.336 0.951,1.027 1.404,2.172 1.401,3.459 0,1.287 -0.488,2.482 -1.373,3.364 -0.948,0.949 -2.105,1.431 -3.439,1.431 h -12.007 v 28.679 c 0,1.291 -0.49,2.487 -1.382,3.37 -0.948,0.948 -2.106,1.43 -3.438,1.43 z M 281.749,21.058 c -0.796,0 -1.528,0.293 -2.065,0.824 -0.604,0.604 -0.886,1.274 -0.886,2.105 0,0.802 0.297,1.499 0.861,2.018 0.57,0.618 1.274,0.916 2.09,0.916 h 12.939 c 0.517,0 0.934,0.418 0.934,0.933 v 29.609 c 0,0.806 0.298,1.504 0.86,2.021 0.574,0.618 1.277,0.916 2.089,0.916 0.842,0 1.519,-0.282 2.122,-0.887 0.536,-0.534 0.831,-1.26 0.831,-2.049 V 27.851 c 0,-0.515 0.419,-0.933 0.933,-0.933 h 12.94 c 0.843,0 1.519,-0.282 2.12,-0.885 0.535,-0.532 0.828,-1.258 0.828,-2.046 0,-0.826 -0.271,-1.504 -0.852,-2.136 -0.578,-0.522 -1.264,-0.793 -2.097,-0.793 z"
         id="path1301"
         inkscape:connector-curvature="0"
         style="fill:#000000;fill-opacity:1" /></g><g
       id="g1307"
       style="fill:#000000;fill-opacity:1"><path
         d="m 345.99,61.744 h -5.759 c -2.767,0 -5.259,-0.487 -7.616,-1.488 -2.279,-0.977 -4.316,-2.343 -6.23,-4.179 -1.841,-1.903 -3.163,-3.857 -4.059,-5.987 -0.076,-0.079 -0.137,-0.168 -0.177,-0.269 -1,-2.552 -1.488,-5.022 -1.488,-7.553 V 23.151 c 0,-1.333 0.523,-2.539 1.473,-3.395 0.803,-0.88 2.012,-1.399 3.342,-1.399 1.345,0 2.47,0.467 3.438,1.43 0.889,0.878 1.378,2.073 1.378,3.364 v 19.117 c 0,1.266 0.259,2.559 0.771,3.843 0.021,0.053 0.036,0.107 0.048,0.162 0.51,1.084 1.179,2.047 2.097,3.016 1.13,1.05 2.082,1.687 3.143,2.086 1.246,0.534 2.467,0.775 3.876,0.775 h 5.76 c 1.422,0 2.711,-0.254 3.824,-0.754 1.101,-0.417 2.085,-1.074 3.236,-2.148 1.034,-1.096 1.695,-2.073 2.102,-3.127 0.52,-1.161 0.773,-2.442 0.773,-3.853 V 23.151 c 0,-1.327 0.523,-2.532 1.472,-3.393 0.808,-0.883 2.017,-1.401 3.344,-1.401 1.334,0 2.491,0.482 3.441,1.433 0.88,0.865 1.374,2.057 1.387,3.353 v 19.126 c 0,2.726 -0.49,5.225 -1.498,7.637 -0.032,0.076 -0.071,0.146 -0.12,0.209 -0.963,2.144 -2.3,4.089 -4.08,5.937 -1.877,1.793 -3.835,3.125 -6.005,4.091 -0.06,0.047 -0.127,0.086 -0.201,0.116 -2.419,0.999 -4.928,1.485 -7.672,1.485 z M 323.788,48.882 c 0.069,0.074 0.124,0.159 0.161,0.251 0.804,2.005 2.031,3.844 3.751,5.624 1.725,1.652 3.58,2.897 5.647,3.783 2.119,0.901 4.372,1.34 6.884,1.34 h 5.759 c 2.403,0 4.602,-0.407 6.714,-1.245 0.05,-0.037 0.105,-0.068 0.167,-0.095 2.062,-0.883 3.92,-2.129 5.68,-3.81 1.667,-1.732 2.919,-3.578 3.799,-5.619 0.027,-0.062 0.06,-0.12 0.098,-0.174 0.842,-2.104 1.253,-4.289 1.253,-6.669 V 23.151 c -0.009,-0.788 -0.306,-1.516 -0.835,-2.037 -0.61,-0.609 -1.284,-0.892 -2.129,-0.892 -0.813,0 -1.514,0.298 -2.031,0.859 -0.613,0.561 -0.919,1.276 -0.919,2.07 v 19.117 c 0,1.675 -0.309,3.213 -0.918,4.57 -0.478,1.245 -1.257,2.412 -2.507,3.733 -0.943,0.881 -2.191,1.926 -3.838,2.55 -1.307,0.587 -2.851,0.895 -4.538,0.895 h -5.76 c -1.648,0 -3.145,-0.297 -4.573,-0.91 -1.606,-0.605 -2.855,-1.651 -3.758,-2.492 -1.133,-1.193 -1.951,-2.394 -2.549,-3.712 -0.034,-0.077 -0.059,-0.158 -0.071,-0.241 -0.563,-1.46 -0.848,-2.937 -0.848,-4.393 V 23.151 c 0,-0.788 -0.294,-1.513 -0.826,-2.04 -0.611,-0.607 -1.287,-0.889 -2.125,-0.889 -0.802,0 -1.523,0.305 -2.03,0.856 -0.77,0.7 -0.917,1.507 -0.917,2.072 v 19.117 c -10e-4,2.21 0.412,4.376 1.259,6.615 z"
         id="path1305"
         inkscape:connector-curvature="0"
         style="fill:#000000;fill-opacity:1" /></g><g
       id="g1311"
       style="fill:#000000;fill-opacity:1"><path
         d="m 371.766,61.056 c -1.361,0 -2.604,-0.482 -3.594,-1.396 -0.949,-0.888 -1.467,-2.084 -1.467,-3.371 v -33.25 c 0,-1.198 0.459,-2.276 1.363,-3.205 0.943,-0.957 2.053,-1.481 3.297,-1.567 12.286,-0.968 21.616,-0.487 27.803,1.444 8.301,2.442 12.367,7.016 12.076,13.592 -0.078,5.542 -2.646,9.544 -7.633,11.867 -0.691,0.337 -1.464,0.642 -2.331,0.92 l 9.271,6.284 c 1.117,0.802 1.799,1.858 2.048,3.154 0.171,1.301 -0.152,2.507 -0.931,3.546 -0.85,1.111 -1.989,1.751 -3.394,1.909 -0.236,0.041 -0.525,0.066 -0.807,0.066 -1.022,0 -1.986,-0.313 -2.863,-0.934 L 383.971,46.06 c -0.984,-0.663 -1.622,-1.469 -1.948,-2.461 -0.296,-1.177 -0.231,-2.198 0.172,-3.099 0.423,-1.025 1.143,-1.827 2.129,-2.359 0.888,-0.546 1.908,-0.764 3.125,-0.685 5.223,0.563 9.133,0.273 11.755,-0.821 1.34,-0.651 1.959,-1.717 1.901,-3.331 -0.167,-2.042 -1.819,-3.53 -5.048,-4.509 -4.49,-1.271 -10.979,-1.713 -19.23,-1.289 V 56.29 c 0,1.33 -0.557,2.536 -1.566,3.396 -0.882,0.89 -2.076,1.37 -3.495,1.37 z m 10.987,-41.413 c -3.38,0 -7.166,0.163 -11.251,0.486 -0.799,0.054 -1.482,0.386 -2.102,1.014 -0.564,0.58 -0.832,1.184 -0.832,1.898 v 33.25 c 0,0.765 0.312,1.477 0.874,2.004 0.635,0.585 1.438,0.897 2.323,0.897 0.915,0 1.644,-0.286 2.228,-0.873 0.653,-0.561 0.968,-1.244 0.968,-2.028 v -29.67 c 0,-0.495 0.386,-0.903 0.88,-0.931 8.863,-0.507 15.862,-0.063 20.74,1.313 4.008,1.216 6.15,3.297 6.385,6.192 0.086,2.386 -0.951,4.149 -2.996,5.139 -2.999,1.256 -7.235,1.57 -12.684,0.98 -0.093,-0.005 -0.218,-0.01 -0.341,-0.01 -0.66,0 -1.182,0.139 -1.69,0.451 -0.66,0.358 -1.074,0.82 -1.346,1.482 -0.245,0.543 -0.271,1.138 -0.094,1.845 0.174,0.526 0.563,1.002 1.201,1.434 l 20.651,14.069 c 0.729,0.515 1.515,0.699 2.345,0.553 0.96,-0.108 1.631,-0.484 2.168,-1.187 0.481,-0.644 0.677,-1.36 0.577,-2.124 -0.151,-0.781 -0.559,-1.408 -1.274,-1.922 l -10.921,-7.403 c -0.305,-0.208 -0.46,-0.576 -0.393,-0.938 0.064,-0.365 0.34,-0.655 0.699,-0.741 1.582,-0.378 2.871,-0.815 3.939,-1.335 4.358,-2.03 6.502,-5.376 6.57,-10.237 0.254,-5.715 -3.264,-9.55 -10.751,-11.752 -3.942,-1.233 -9.28,-1.856 -15.873,-1.856 z"
         id="path1309"
         inkscape:connector-curvature="0"
         style="fill:#000000;fill-opacity:1" /></g><g
       id="g1315"
       style="fill:#000000;fill-opacity:1"><path
         d="m 452.047,61.614 c -0.299,0 -0.601,-0.026 -0.911,-0.077 -0.982,-0.236 -1.783,-0.693 -2.512,-1.412 L 424.523,35.243 v 21.576 c 0,1.292 -0.49,2.487 -1.38,3.367 -0.947,0.946 -2.104,1.427 -3.435,1.427 -1.331,0 -2.539,-0.519 -3.404,-1.46 -0.888,-0.796 -1.408,-2.002 -1.408,-3.334 V 23.341 c 0,-0.996 0.287,-1.888 0.881,-2.727 0.438,-0.726 1.231,-1.345 2.196,-1.689 0.73,-0.34 1.736,-0.462 2.724,-0.304 0.949,0.238 1.73,0.663 2.476,1.316 L 447.25,44.914 V 23.341 c 0,-1.321 0.482,-2.475 1.437,-3.427 0.899,-0.886 2.097,-1.37 3.377,-1.37 1.281,0 2.427,0.45 3.406,1.338 0.957,1.029 1.413,2.173 1.413,3.459 v 33.478 c 0,0.996 -0.276,1.893 -0.819,2.665 -0.507,0.786 -1.189,1.365 -2.125,1.793 -0.72,0.24 -1.306,0.337 -1.892,0.337 z M 423.591,32.007 c 0.248,0 0.49,0.099 0.671,0.284 l 25.688,26.521 c 0.472,0.467 0.974,0.756 1.559,0.898 0.414,0.064 1.098,0.044 1.754,-0.17 0.507,-0.238 0.925,-0.589 1.256,-1.099 0.346,-0.495 0.499,-1 0.499,-1.622 V 23.341 c 0,-0.823 -0.274,-1.501 -0.857,-2.134 -0.586,-0.526 -1.271,-0.798 -2.097,-0.798 -0.787,0 -1.52,0.294 -2.063,0.83 -0.604,0.602 -0.887,1.271 -0.887,2.103 v 23.885 c 0,0.381 -0.229,0.723 -0.582,0.865 -0.354,0.141 -0.758,0.056 -1.021,-0.217 L 421.888,21.288 c -0.469,-0.407 -0.986,-0.69 -1.567,-0.84 -0.111,-0.014 -0.307,-0.031 -0.5,-0.031 -0.417,0 -0.802,0.08 -1.144,0.237 -0.64,0.232 -1.089,0.57 -1.34,0.984 -0.403,0.574 -0.574,1.099 -0.574,1.704 V 56.82 c 0,0.81 0.295,1.504 0.854,2.01 0.578,0.622 1.279,0.918 2.093,0.918 0.841,0 1.514,-0.282 2.121,-0.887 0.535,-0.529 0.829,-1.252 0.829,-2.042 v -23.88 c 0,-0.38 0.229,-0.723 0.581,-0.864 0.113,-0.047 0.233,-0.068 0.35,-0.068 z"
         id="path1313"
         inkscape:connector-curvature="0"
         style="fill:#000000;fill-opacity:1" /></g></g></svg>