<?xml version="1.0" encoding="UTF-8" standalone="no"?>
<!-- Generator: Adobe Illustrator 16.0.3, SVG Export Plug-In . SVG Version: 6.00 Build 0)  -->

<svg
   xmlns:dc="http://purl.org/dc/elements/1.1/"
   xmlns:cc="http://creativecommons.org/ns#"
   xmlns:rdf="http://www.w3.org/1999/02/22-rdf-syntax-ns#"
   xmlns:svg="http://www.w3.org/2000/svg"
   xmlns="http://www.w3.org/2000/svg"
   xmlns:sodipodi="http://sodipodi.sourceforge.net/DTD/sodipodi-0.dtd"
   xmlns:inkscape="http://www.inkscape.org/namespaces/inkscape"
   version="1.1"
   id="Ebene_1"
   x="0px"
   y="0px"
   width="578.92902"
   height="101.834"
   viewBox="0 0 578.929 101.834"
   enable-background="new 0 0 566.929 96.834"
   xml:space="preserve"
   sodipodi:docname="system.svg"
   inkscape:version="0.92.2 (5c3e80d, 2017-08-06)"><metadata
     id="metadata16839"><rdf:RDF><cc:Work
         rdf:about=""><dc:format>image/svg+xml</dc:format><dc:type
           rdf:resource="http://purl.org/dc/dcmitype/StillImage" /><dc:title></dc:title></cc:Work></rdf:RDF></metadata><defs
     id="defs16837" /><sodipodi:namedview
     pagecolor="#ffffff"
     bordercolor="#666666"
     borderopacity="1"
     objecttolerance="10"
     gridtolerance="10"
     guidetolerance="10"
     inkscape:pageopacity="0"
     inkscape:pageshadow="2"
     inkscape:window-width="1920"
     inkscape:window-height="1017"
     id="namedview16835"
     showgrid="false"
     inkscape:pagecheckerboard="true"
     inkscape:zoom="0.50094455"
     inkscape:cx="283.46451"
     inkscape:cy="48.417"
     inkscape:window-x="1912"
     inkscape:window-y="-8"
     inkscape:window-maximized="1"
     inkscape:current-layer="Ebene_1" /><g
     transform="translate(-677.17328,-353.17754)"
     id="g16832"><g
       transform="matrix(0.93403196,0,0,0.93403196,69.311262,27.640521)"
       id="g16830"><g
         transform="translate(1.5605469e-5)"
         id="g16820"><path
           d="m 1036.018,414.062 h 2.403 c 2.244,0 6.081,0.462 7.662,1.388 1.581,0.92 2.624,1.953 3.126,3.095 0.504,1.142 0.759,3.661 0.759,7.551 v 15.273 c 0,4.609 -4.87,6.957 -7.216,7.467 -2.357,0.508 -4.646,0.763 -6.877,0.763 -6.43,0 -11.98,-1.673 -16.66,-5.021 -4.674,-3.35 -8.061,-8.586 -10.163,-15.727 -2.097,-7.131 -3.143,-15.422 -3.143,-24.892 0,-7.811 0.958,-15.43 2.875,-22.852 1.922,-7.424 5.188,-13.208 9.801,-17.36 4.613,-4.148 10.395,-6.223 17.337,-6.223 7.266,0 11.518,1.839 16.865,7.398 5.47,5.681 10.717,12.137 13.78,21.614 h 4.473 V 351.74 h -2.545 c -0.918,2.787 -1.92,4.68 -3.015,5.679 -1.1,1.003 -2.29,1.502 -3.565,1.502 -0.824,0 -3.49,-0.906 -7.988,-2.718 -4.498,-1.814 -7.756,-2.915 -9.765,-3.303 -3.699,-0.772 -6.574,-1.162 -11.185,-1.162 -14.895,0 -27.259,5.119 -37.085,15.355 -9.826,10.245 -14.736,22.785 -14.736,37.63 0,8.295 1.595,15.792 4.795,22.487 2.513,5.192 5.997,9.857 10.451,14.01 4.456,4.147 9.602,7.496 15.422,10.048 5.828,2.543 13.151,3.818 21.969,3.818 6.903,0 13.556,-0.713 19.98,-2.139 6.422,-1.43 12.597,-3.546 18.55,-6.351 v -20.524 c 0,-3.597 0.203,-5.859 0.613,-6.779 0.73,-1.752 1.767,-3.003 3.114,-3.76 1.344,-0.757 5.016,-1.248 8.438,-1.495 v -3.36 h -48.486 v 3.36 z"
           id="path16814"
           inkscape:connector-curvature="0" /><path
           d="m 1147.468,440.646 c -5.525,4.23 -12.879,6.344 -22.05,6.344 h -5.228 c -2.802,0 -4.826,-0.381 -6.085,-1.152 -1.248,-0.77 -2.112,-1.757 -2.568,-2.959 -0.458,-1.202 -0.688,-4.498 -0.688,-9.88 v -27.567 c 4.711,0 10.227,0.613 12.703,1.844 2.474,1.225 4.646,3.624 6.512,7.191 1.874,3.565 3.099,7.503 3.682,13.092 h 3.975 v -50.731 h -3.975 c -0.78,7.622 -2.574,12.739 -5.391,16.644 -2.815,3.905 -7.356,5.858 -13.615,5.858 h -3.896 v -34.029 c -0.031,-5.915 5.242,-5.23 5.242,-5.23 h 6.16 c 7.448,0 12.521,0.436 15.229,1.305 4.642,1.443 8.235,3.706 10.773,6.787 2.541,3.084 4.508,8.161 5.911,15.241 h 3.335 v -28.978 h -82.888 v 3.969 h 2.614 c 3.185,0 5.696,0.673 7.528,2.019 1.305,0.914 2.2,2.218 2.679,3.9 0.245,1.006 0.366,3.726 0.366,8.153 v 61.307 c 0,4.906 -0.266,7.938 -0.799,9.096 -0.675,1.633 -1.644,2.789 -2.896,3.463 -1.74,1.012 -4.032,1.516 -6.875,1.516 h -2.616 v 4.611 h 84.291 l 5.065,-31.174 h -4.625 c -2.415,8.678 -6.386,15.133 -11.913,19.361"
           id="path16816"
           inkscape:connector-curvature="0" /><path
           d="m 1212.688,352.888 c -14.125,-0.583 -26.03,4.02 -35.697,13.819 -9.686,9.791 -14.514,22.035 -14.514,36.713 0,13.078 3.718,24.378 11.16,33.907 9.414,12.053 22.738,18.088 39.975,18.088 17.18,0 30.49,-6.319 39.908,-18.964 7.11,-9.516 10.667,-20.557 10.667,-33.104 0,-14.679 -4.77,-26.906 -14.297,-36.68 -9.537,-9.775 -21.927,-14.366 -37.185,-13.778 m 22.531,78.46 c -2.308,6.827 -5.531,11.798 -9.675,14.901 -3.25,2.434 -7.3,3.647 -12.153,3.647 -7.206,0 -12.803,-2.821 -16.814,-8.454 -5.744,-8.065 -8.621,-20.524 -8.621,-37.391 0,-14.192 1.859,-25.073 5.581,-32.651 4.567,-9.229 11.227,-13.844 19.984,-13.844 4.757,0 8.96,1.338 12.609,4.011 3.649,2.671 6.65,7.253 9.004,13.737 2.357,6.491 3.534,16.263 3.534,29.341 0,10.98 -1.152,19.886 -3.463,26.715"
           id="path16818"
           inkscape:connector-curvature="0" /></g><path
         d="m 899.717,454.844 c 17.18,0 30.488,-6.321 39.908,-18.964 7.108,-9.527 10.666,-20.555 10.666,-33.104 0,-14.679 -4.77,-26.905 -14.299,-36.68 -9.535,-9.774 -21.926,-14.364 -37.183,-13.778 -14.125,-0.582 -26.03,4.021 -35.697,13.82 -9.684,9.79 -14.514,22.035 -14.514,36.713 0,13.077 3.717,24.379 11.162,33.906 9.411,12.053 22.736,18.088 39.974,18.088 m -20.227,-83.96 c 4.566,-9.229 11.227,-13.844 19.987,-13.844 4.756,0 8.957,1.335 12.606,4.009 3.649,2.673 6.651,7.253 9.007,13.737 2.354,6.49 3.532,16.262 3.532,29.332 0,10.98 -1.152,19.888 -3.462,26.715 -2.305,6.827 -5.531,11.798 -9.675,14.909 -3.248,2.43 -7.299,3.645 -12.153,3.645 -7.206,0 -12.805,-2.819 -16.817,-8.454 -5.743,-8.065 -8.618,-20.524 -8.618,-37.39 0,-14.192 1.858,-25.073 5.579,-32.651"
         id="path16822"
         inkscape:connector-curvature="0" /><path
         d="m 849.935,420.502 h -4.627 c -2.414,8.676 -6.387,15.133 -11.913,19.359 -5.526,4.23 -12.879,6.344 -22.042,6.344 h -5.229 c -2.801,0 -4.823,-0.385 -6.082,-1.15 -1.253,-0.772 -2.112,-1.759 -2.57,-2.961 -0.457,-1.204 -0.688,-4.498 -0.688,-9.882 v -27.567 c 4.71,0 10.228,0.615 12.705,1.846 2.474,1.225 4.647,3.626 6.513,7.191 1.872,3.567 3.098,7.503 3.681,13.094 h 3.976 v -50.733 h -3.976 c -0.779,7.619 -2.575,12.739 -5.392,16.644 -2.811,3.906 -7.354,5.857 -13.613,5.857 h -3.897 v -34.029 c -0.032,-5.916 5.244,-5.23 5.244,-5.23 h 6.155 c 7.453,0 12.532,0.435 15.24,1.302 4.645,1.443 8.235,3.709 10.774,6.789 2.541,3.082 4.51,8.164 5.914,15.239 h 3.332 v -29.001 h -82.887 v 3.994 h 2.612 c 3.185,0 5.696,0.674 7.529,2.017 1.303,0.914 2.196,2.218 2.676,3.901 0.244,1.007 0.366,3.725 0.366,8.151 v 61.309 c 0,4.906 -0.265,7.938 -0.797,9.088 -0.674,1.633 -1.644,2.794 -2.893,3.465 -1.74,1.012 -4.032,1.516 -6.882,1.516 h -2.612 v 4.611 h 84.29 l 5.067,-31.174 z"
         id="path16824"
         inkscape:connector-curvature="0" /><path
         d="m 690.849,447.002 h -2.237 c -3.21,0 -6.061,-0.985 -8.554,-2.957 -2.488,-1.972 -3.734,-5.765 -3.734,-11.392 v -59.211 l 64.138,79.957 4.159,0.006 v -81.55 c 0,-4.637 0.385,-5.983 1.15,-7.891 0.765,-1.908 1.835,-3.285 3.201,-4.131 1.368,-0.844 4.05,-1.532 8.04,-2.064 v -4.149 h -31.818 v 4.149 c 5.245,-0.096 8.991,1.255 11.211,4.057 1.626,2.077 2.439,4.135 2.439,10.031 v 42.706 L 688.913,353.62 h -30.381 v 3.291 c 2.888,0.096 2.991,1.063 4.529,1.88 l 8.138,8.191 -0.011,65.664 c 0,5.194 -1.026,8.868 -3.074,11.03 -2.05,2.164 -5.684,3.268 -10.897,3.316 v 3.969 h 33.617 v -3.969 z"
         id="path16826"
         inkscape:connector-curvature="0" /><path
         d="m 977.661,403.577 c 0,6.516 -5.282,11.796 -11.794,11.796 -6.517,0 -11.797,-5.284 -11.797,-11.796 0,-6.517 5.284,-11.796 11.797,-11.796 6.516,0 11.794,5.283 11.794,11.796 z"
         id="path16828"
         inkscape:connector-curvature="0"
         style="stroke:#000000;stroke-width:0.133" /></g></g></svg>