<svg xmlns="http://www.w3.org/2000/svg" version="1.2" width="336.575" height="294.868" viewBox="122.277 6.458 336.575 294.868">
  <path d="M147.91 140.946h13.679V119.45h-5.862V96h15.633v15.634h21.496V92.092l-15.633-15.634h-31.267l-13.679 15.634v33.221z" fill="#008fa9"/>
  <path d="M179.177 119.45h-13.679v21.496h5.862v23.45h-15.633v-15.634h-23.45v21.497l15.633 15.633h33.221l13.679-15.633v-35.175zm42.991 46.901V76.458h-23.45v93.801l16.611 15.633h12.702v-19.541zm15.633 0V76.458h23.45v93.801l-16.609 15.633h-12.703v-19.541zm56.672-37.13v21.496h15.632l15.634-15.633V93.069l-16.61-16.611h-14.656V96h7.816v33.221zm-27.359-52.763h23.45v109.433h-23.45zm66.442 109.434h46.9v-19.541h-25.405V97.955h25.405V76.458h-46.9z" fill="#008fa9"/>
  <path d="M358.96 119.45h15.634v19.542H358.96zm79.144 12.702l10.748 10.748v42.992h-21.497V142.9h-11.724v-21.496h9.77V96h-9.77V76.458h17.588l15.633 15.634v29.312zm-49.831-55.694h23.448v109.433h-23.448zM216.306 231.326v-20.03h-19.541v5.863h13.678v7.817h-27.358v-21.497h33.221v-5.863h-37.129l-4.886 4.886v22.474l6.351 6.35zm46.9-19.053v-8.794l-5.862-5.863h-33.221v33.221h7.816v-13.678h13.679l9.771 13.678h7.817l-9.771-13.678h3.909zm-7.817-.977h-23.45v-7.816h23.45zm50.808 19.541l-13.678-25.403h-3.909l-11.725 25.403h-9.771l15.634-33.221h15.633l17.588 33.221zm44.946-13.678v-5.863h-25.404v-7.817h29.312v-5.863h-37.129v33.221h7.817v-13.678zm29.313 1.953l11.725 11.725h11.724l-17.587-17.587 17.587-15.634h-11.724l-11.725 11.726-11.726-11.726h-9.77l15.634 15.634-17.588 17.587h11.724z" fill="#008fa9"/>
</svg>
