<?xml version="1.0" encoding="UTF-8" standalone="no"?>
<svg
   xmlns:dc="http://purl.org/dc/elements/1.1/"
   xmlns:cc="http://creativecommons.org/ns#"
   xmlns:rdf="http://www.w3.org/1999/02/22-rdf-syntax-ns#"
   xmlns:svg="http://www.w3.org/2000/svg"
   xmlns="http://www.w3.org/2000/svg"
   xmlns:sodipodi="http://sodipodi.sourceforge.net/DTD/sodipodi-0.dtd"
   xmlns:inkscape="http://www.inkscape.org/namespaces/inkscape"
   version="1.2"
   width="336.57501"
   height="165.86801"
   viewBox="122.277 6.458 336.575 165.868"
   id="svg1637"
   sodipodi:docname="system.svg"
   inkscape:version="0.92.2 (5c3e80d, 2017-08-06)">
  <metadata
     id="metadata1643">
    <rdf:RDF>
      <cc:Work
         rdf:about="">
        <dc:format>image/svg+xml</dc:format>
        <dc:type
           rdf:resource="http://purl.org/dc/dcmitype/StillImage" />
        <dc:title></dc:title>
      </cc:Work>
    </rdf:RDF>
  </metadata>
  <defs
     id="defs1641" />
  <sodipodi:namedview
     pagecolor="#ffffff"
     bordercolor="#666666"
     borderopacity="1"
     objecttolerance="10"
     gridtolerance="10"
     guidetolerance="10"
     inkscape:pageopacity="0"
     inkscape:pageshadow="2"
     inkscape:window-width="1920"
     inkscape:window-height="1017"
     id="namedview1639"
     showgrid="false"
     inkscape:pagecheckerboard="true"
     inkscape:zoom="0.8003581"
     inkscape:cx="168.28751"
     inkscape:cy="147.43401"
     inkscape:window-x="1912"
     inkscape:window-y="-8"
     inkscape:window-maximized="1"
     inkscape:current-layer="svg1637" />
  <path
     d="m 147.91,76.916829 h 13.679 V 55.420808 h -5.862 v -23.45003 h 15.633 v 15.634019 h 21.496 V 28.062778 l -15.633,-15.634 h -31.267 l -13.679,15.634 v 33.221036 z"
     id="path1631"
     inkscape:connector-curvature="0"
     style="fill:#008fa9" />
  <path
     d="m 179.177,55.420808 h -13.679 v 21.496021 h 5.862 V 100.36687 H 155.727 V 84.732844 h -23.45 v 21.497036 l 15.633,15.63302 h 33.221 L 194.81,106.22988 V 71.054824 Z m 42.991,46.901072 V 12.428778 h -23.45 v 93.801102 l 16.611,15.63302 h 12.702 v -19.54102 z m 15.633,0 V 12.428778 h 23.45 v 93.801102 l -16.609,15.63302 h -12.703 v -19.54102 z m 56.672,-37.130062 v 21.496028 h 15.632 L 325.739,71.054824 V 29.039778 l -16.61,-16.611 h -14.656 v 19.542 h 7.816 v 33.22104 z m -27.359,-52.76304 h 23.45 V 121.8619 h -23.45 z M 333.556,121.8629 h 46.9 V 102.32188 H 355.051 V 33.925778 h 25.405 v -21.497 h -46.9 z"
     id="path1633"
     inkscape:connector-curvature="0"
     style="fill:#008fa9" />
  <path
     d="m 358.96,55.420808 h 15.634 V 74.962827 H 358.96 Z m 79.144,12.702013 10.748,10.748007 V 121.8629 H 427.355 V 78.870828 H 415.631 V 57.37481 h 9.77 V 31.970778 h -9.77 v -19.542 h 17.588 l 15.633,15.634 V 57.37481 Z M 388.273,12.428778 h 23.448 V 121.8619 H 388.273 Z M 216.306,167.29692 v -20.03 h -19.541 v 5.863 h 13.678 v 7.817 h -27.358 v -21.49701 h 33.221 v -5.863 h -37.129 l -4.886,4.886 v 22.47401 l 6.351,6.35 z m 46.9,-19.053 v -8.79401 l -5.862,-5.863 h -33.221 v 33.22101 h 7.816 v -13.678 h 13.679 l 9.771,13.678 h 7.817 l -9.771,-13.678 h 3.909 z m -7.817,-0.977 h -23.45 v -7.81601 h 23.45 z m 50.808,19.541 -13.678,-25.403 h -3.909 l -11.725,25.403 h -9.771 l 15.634,-33.22101 h 15.633 l 17.588,33.22101 z m 44.946,-13.678 v -5.863 h -25.404 v -7.81701 h 29.312 v -5.863 h -37.129 v 33.22101 h 7.817 v -13.678 z m 29.313,1.953 11.725,11.725 h 11.724 l -17.587,-17.587 17.587,-15.63401 h -11.724 l -11.725,11.72601 -11.726,-11.72601 h -9.77 l 15.634,15.63401 -17.588,17.587 h 11.724 z"
     id="path1635"
     inkscape:connector-curvature="0"
     style="fill:#008fa9" />
</svg>
