<?xml version="1.0" encoding="UTF-8" standalone="no"?>
<svg
   xmlns:dc="http://purl.org/dc/elements/1.1/"
   xmlns:cc="http://creativecommons.org/ns#"
   xmlns:rdf="http://www.w3.org/1999/02/22-rdf-syntax-ns#"
   xmlns:svg="http://www.w3.org/2000/svg"
   xmlns="http://www.w3.org/2000/svg"
   xmlns:sodipodi="http://sodipodi.sourceforge.net/DTD/sodipodi-0.dtd"
   xmlns:inkscape="http://www.inkscape.org/namespaces/inkscape"
   width="566.93"
   height="300"
   viewBox="0 -26.707 566.93 300"
   version="1.1"
   id="svg10427"
   sodipodi:docname="system.svg"
   inkscape:version="0.92.2 (5c3e80d, 2017-08-06)">
  <metadata
     id="metadata10433">
    <rdf:RDF>
      <cc:Work
         rdf:about="">
        <dc:format>image/svg+xml</dc:format>
        <dc:type
           rdf:resource="http://purl.org/dc/dcmitype/StillImage" />
      </cc:Work>
    </rdf:RDF>
  </metadata>
  <defs
     id="defs10431" />
  <sodipodi:namedview
     pagecolor="#ffffff"
     bordercolor="#666666"
     borderopacity="1"
     objecttolerance="10"
     gridtolerance="10"
     guidetolerance="10"
     inkscape:pageopacity="0"
     inkscape:pageshadow="2"
     inkscape:window-width="1920"
     inkscape:window-height="1017"
     id="namedview10429"
     showgrid="false"
     inkscape:zoom="0.50094369"
     inkscape:cx="283.465"
     inkscape:cy="150"
     inkscape:window-x="1912"
     inkscape:window-y="-8"
     inkscape:window-maximized="1"
     inkscape:current-layer="svg10427" />
  <g
     fill="#fff"
     id="g10425"
     style="fill:#000000;fill-opacity:1">
    <path
       d="M355.764 28.076c0 15.479 13.033 28.043 29.076 28.043 16.676 0 29.77-12.304 29.77-28.043C414.609 12.333 401.516 0 384.84 0c-16.043 0-29.076 12.582-29.076 28.076M360.59 84.227h49.639v160.606H360.59zM456.672 28.076c0 15.479 13.059 28.043 29.092 28.043 16.686 0 29.754-12.304 29.754-28.043C515.518 12.333 502.449 0 485.764 0c-16.034 0-29.092 12.582-29.092 28.076M461.482 84.227h49.652v160.606h-49.652zM281.654 13.507l-43.528 170.654S204.845 56.064 199.431 37.895c-5.414-18.199-16.558-26.172-32.36-26.172-15.809 0-26.971 7.973-32.384 26.172-5.394 18.169-38.683 146.266-38.683 146.266L52.447 13.507H0s50.371 182.08 57.219 203.164c5.327 16.459 17.944 29.916 36.648 29.916 21.384 0 31.385-15.592 36.016-29.916 4.582-14.24 37.188-134.498 37.188-134.498s32.604 120.258 37.175 134.498c4.629 14.324 14.63 29.916 36.009 29.916 18.719 0 31.313-13.457 36.673-29.916 6.831-21.084 57.17-203.164 57.17-203.164h-52.444zM526.229 223.076h17.033v3.211h-6.69v18.546h-3.634v-18.546h-6.709zM545.867 223.076h5.225l5.242 17.408 5.328-17.408h5.268v21.757h-3.457v-17.978l-5.409 17.978h-3.552l-5.313-17.978v17.978h-3.332z"
       id="path10423"
       style="fill:#000000;fill-opacity:1" />
  </g>
</svg>
