<svg xmlns="http://www.w3.org/2000/svg" width="270" height="82.35" viewBox="3 136.91 270 82.35">
  <path d="M3 136.91h270v82.35H3z"/>
  <path fill="#FFF" d="M6.5 140.83h73.67v73.67H6.5z"/>
  <path fill="#888" d="M32.29 209.23c0-1 4.64-1.82 10.38-1.82 5.73 0 10.38.81 10.38 1.82s-4.65 1.82-10.38 1.82c-5.74 0-10.38-.82-10.38-1.82z"/>
  <path fill="#FFF" d="M106.4 174.15v.14c6.02.1 10.46 1.3 13.33 3.58 2.86 2.28 4.3 5.04 4.3 8.27 0 3.6-1.63 6.59-4.9 8.93-3.26 2.35-7.6 3.53-13.01 3.53-4.68 0-8.3-.94-10.86-2.81s-3.84-4-3.84-6.39a4.8 4.8 0 0 1 1.73-3.84 6.16 6.16 0 0 1 4.12-1.46c1.5 0 2.8.43 3.87 1.27a4.09 4.09 0 0 1 1.6 3.38c0 1.86-1.24 3.41-3.74 4.67-.48.25-.74.53-.74.84 0 .57.7 1.07 2.1 1.5 1.4.44 2.83.65 4.3.65 4.8 0 7.21-3.53 7.21-10.6 0-6.99-2.89-10.48-8.66-10.48l-4.79.2c-.96 0-1.45-.36-1.45-1.08 0-.81.5-1.23 1.52-1.23l3.5.14c3.55 0 5.94-.8 7.15-2.38 1.21-1.58 1.81-3.83 1.81-6.76 0-3-.45-5.22-1.37-6.63-.91-1.42-2.49-2.13-4.71-2.13-1.21 0-2.35.2-3.41.62-1.07.4-1.6.8-1.6 1.2 0 .37.35.75 1.04 1.15 1.84 1.17 2.76 2.44 2.76 3.8 0 1.34-.51 2.4-1.54 3.2a5.55 5.55 0 0 1-3.47 1.2 6.3 6.3 0 0 1-3.96-1.36 4.14 4.14 0 0 1-1.75-3.38c0-2.3 1.3-4.28 3.88-5.95 2.59-1.68 5.9-2.52 9.96-2.52 4.48 0 8.26.95 11.33 2.85 3.08 1.9 4.62 4.32 4.62 7.29.01 5.84-5.44 9.38-16.32 10.6zM160.7 155.4v40.2h3.93c6.02 0 9.66-1.58 10.9-4.73 1.26-3.16 1.88-8.56 1.88-16.2 0-5.98-.38-10.28-1.15-12.9-.76-2.6-1.93-4.33-3.49-5.14a12.74 12.74 0 0 0-5.94-1.24h-6.14zm-12.17 40.2v-40.2h-6.3v-2.18h25.27c7.3 0 13.1 2.07 17.35 6.21 4.26 4.15 6.4 9.38 6.4 15.69 0 3.27-.66 6.36-1.96 9.23-1.3 2.88-3.3 5.5-6 7.86-2.7 2.36-5.47 3.87-8.3 4.55a45.81 45.81 0 0 1-10.47 1.02h-22.3v-2.18h6.31zM239.9 175.52c0-6.83-.13-11.32-.41-13.49a9.6 9.6 0 0 0-2.19-5.25c-1.18-1.33-3.11-2-5.8-2-2.28 0-4.09.54-5.44 1.61-1.35 1.08-2.19 2.8-2.52 5.17-.33 2.37-.5 7-.5 13.89 0 6.82.14 11.33.43 13.54a9.17 9.17 0 0 0 2.26 5.26c1.22 1.31 3.14 1.96 5.77 1.96a8.5 8.5 0 0 0 5.32-1.57c1.37-1.06 2.23-2.76 2.57-5.13.35-2.38.52-7.04.52-14zm-30.69-.2c0-6.66 2.2-12.11 6.6-16.35a22.01 22.01 0 0 1 15.83-6.36c5.72 0 10.83 2 15.34 5.98 4.51 3.99 6.76 9.66 6.76 17 0 6.9-2.12 12.42-6.39 16.57a21.57 21.57 0 0 1-15.63 6.23c-6.65 0-12.07-2.2-16.24-6.61-4.18-4.41-6.27-9.9-6.27-16.45z"/>
  <radialGradient id="a" cx="49.89" cy="-77.32" r="10.65" gradientTransform="matrix(1 0 0 -1 -6 113)" gradientUnits="userSpaceOnUse">
    <stop offset=".52" stop-color="#ffe41b"/>
    <stop offset=".89" stop-color="#716a13"/>
    <stop offset="1" stop-color="#49482e"/>
  </radialGradient>
  <path fill="url(#a)" d="M33.84 192.06a8.83 8.83 0 1 1 17.65 0 8.83 8.83 0 1 1-17.65 0z"/>
  <path fill="#0000A0" d="M34.45 169c-1.3.86-1.65 5.89-1.65 5.89s.35 5.03 1.65 5.9c1.3.86 8.22 1.38 8.22 1.38s6.92-.52 8.21-1.39c1.3-.86 1.65-5.9 1.65-5.9s-.35-5.02-1.65-5.89c-1.3-.87-8.21-1.39-8.21-1.39s-6.92.52-8.22 1.4z"/>
  <path fill="red" d="M42.67 146.31L53 156.68l-10.33 10.36-10.34-10.36z"/>
</svg>
