<?xml version="1.0" encoding="UTF-8" standalone="no"?>
<svg
   xmlns:dc="http://purl.org/dc/elements/1.1/"
   xmlns:cc="http://creativecommons.org/ns#"
   xmlns:rdf="http://www.w3.org/1999/02/22-rdf-syntax-ns#"
   xmlns:svg="http://www.w3.org/2000/svg"
   xmlns="http://www.w3.org/2000/svg"
   xmlns:sodipodi="http://sodipodi.sourceforge.net/DTD/sodipodi-0.dtd"
   xmlns:inkscape="http://www.inkscape.org/namespaces/inkscape"
   width="765"
   height="228"
   version="1.1"
   id="svg4536"
   sodipodi:docname="system.svg"
   inkscape:version="0.92.2 (5c3e80d, 2017-08-06)">
  <metadata
     id="metadata4542">
    <rdf:RDF>
      <cc:Work
         rdf:about="">
        <dc:format>image/svg+xml</dc:format>
        <dc:type
           rdf:resource="http://purl.org/dc/dcmitype/StillImage" />
        <dc:title></dc:title>
      </cc:Work>
    </rdf:RDF>
  </metadata>
  <defs
     id="defs4540" />
  <sodipodi:namedview
     pagecolor="#ffffff"
     bordercolor="#666666"
     borderopacity="1"
     objecttolerance="10"
     gridtolerance="10"
     guidetolerance="10"
     inkscape:pageopacity="0"
     inkscape:pageshadow="2"
     inkscape:window-width="1366"
     inkscape:window-height="705"
     id="namedview4538"
     showgrid="false"
     inkscape:pagecheckerboard="true"
     inkscape:zoom="1.1372549"
     inkscape:cx="382.5"
     inkscape:cy="114"
     inkscape:window-x="-8"
     inkscape:window-y="-8"
     inkscape:window-maximized="1"
     inkscape:current-layer="svg4536" />
  <g
     fill="#fff"
     id="g4530"
     style="fill:#000000;fill-opacity:1">
    <path
       d="M37.02 93.46l74.42 127.58h101L138.02 93.46h-101zm15.95 7.98h77.07L193.6 210.4h-77.07L52.97 101.44zM63.63 161.85l-58.5 59.19h93.02l-34.52-59.2zM60.5 178.5l21.7 34.55H26.4l34.1-34.55zM183.3 152.6l58.5-59.17h-93.03l34.53 59.18zm3.13-16.65l-21.7-34.55h55.8l-34.1 34.55z"
       id="path4524"
       style="fill:#000000;fill-opacity:1" />
    <g
       id="g4528"
       style="fill:#000000;fill-opacity:1">
      <path
         d="M257.84 176.53c-.14-.2-.44 1.44-.9 4.88s-.72 6-.76 7.66c.48 3.56 1.69 3.6 3.66 5.39 1.64 1 3.03.72 6.98 1.17 3.94.45 27.4.46 31.38.02 3.96-.44 7.27-.98 9.43-2.4 4.22-2.65 7.08-6.46 8.58-16.76 1.07-5.55 1.54-6.98 1.42-9.6-.16-3.51-1.95-5.87-5.37-7.05-3.42-1.2-8.41-.61-13.96-.61h-10.95c-11.77 0-18.9.05-22.43 2.48-4.01 2.69-5.6 6.26-7.08 14.82zm84.2-41.01h-16.68c.56-4.02.4-6.7.3-9.15-.12-2.5-.38-4.7-1.51-5.5-2.38-2.04-12.05-1.86-22.35-1.86h-9.63c-10.24 0-16.23-.06-19.34 2.25-4.02 3.12-6.45 7.9-7.29 14.34l-2.71 11.06s1.8-2.7 5.87-3.14c7.12-.77 18.98-.06 23.44-.06 10.86.2 19.83-.45 25.67.5 5.84.97 12.2 2.23 15.23 5.53 2.69 2.75 4.16 6.98 4.42 12.68.18 3.75-.56 9.9-2.22 18.4-.93 4.1-2.01 7.8-3.25 11.09a34.86 34.86 0 0 1-5.11 9.17c-2.17 2.82-4.76 7.7-7.76 9.33-4.74 2.42-10.82 2.26-16.32 2.9-5.49.65-14.3 0-23.02 0-7.79 0-15.7.18-21.36-.5-5.68-.67-10.36-2.3-14.03-4.9-4.5-3.28-7.02-8.68-7.56-16.21-.03-3.9.4-8.31 1.3-13.28l9.3-48.77c1.76-10.68 5.03-19 12.8-23.97 4.32-2.7 9.57-4.47 15.73-5.34 6.18-.88 16.36-1.31 25.24-1.31h13.66c9.29 0 11.87 1.24 18.38 3.71 6.52 2.47 9.95 7.4 10.29 14.8.1 2.16-.4 11.79-1.5 18.23zM406.1 114.37c-10.96 0-20.94.5-24.62 1.49-3.58 1-5.84.91-7.46 3.48a21.3 21.3 0 0 0-3.08 8.09c-.44 2.82-.84 6.6-1.19 11.36.35 2.85 1.26 4.82 2.74 5.88 2.83 1.79 12.77 1.95 25.67 1.95 11.55 0 20.17-.24 24.69-2.2 1.91-.75 3.56-2.45 4.94-5.1 1.4-2.64 2.23-4.57 3.22-9.56.55-3.02.79-5.57.74-7.67-.06-2.67-.88-4.44-2.47-5.33-1.75-.96-4.41-1.6-8-1.91-3.6-.32-8.66-.48-15.19-.48zm27.96 39.57c6.87 2.81 6.87 9.44 7.05 17.07.02 1.07.28 6.87-.07 8.89-.36 2-.24 3.54-.37 4.18-1.51 7-2 10.09-4.37 14.22-2.37 4.15-3.76 7.12-7.89 9.33-3.6 2.04-8.16 3.46-13.68 4.25-5.52.78-15.2 1.18-23.74 1.18h-11.02c-9.54 0-17-.34-22.39-1.03-5.38-.7-8.55-3.17-11.71-6.07-2.99-2.6-5.82-8.93-6.3-15.03.15-2.84.66-4.3 1.5-9.65 1.1-4.95 1.37-8.94 2.25-11.6a28.81 28.81 0 0 1 4.56-8.2c1.92-2.43 4.77-4.21 8.13-6.13 2.08-1.2 2.7-1.64.58-3.42-2.33-1.93-2.95-3.75-3.6-6.13-.34-.74-.52-7.97-.56-8.2 1.03-16.51 5.36-24.92 13.1-31.27 4.53-3.9 6.54-6.21 16.62-6.93 5.17-.42 19.36-.62 26.6-.62 10 0 19.71.21 23.85.64 3.63.53 6.79 1.3 9.48 2.33 2.7 1.02 2.42 2.77 4.48 5.24 1.8 2.28 2.75 5.9 2.87 10.84.08 3.4-.15 6.96-.68 10.67a44.8 44.8 0 0 1-2.9 10.72 22.65 22.65 0 0 1-5.44 8.26c-2.8 3.05-2.41 5.18-6.12 6.4-.8.26-1.22.08-1.2-.05 0-.1.33-.16.97.1zm-39.14 7.36c-7.05 0-14.25-.03-18.05.4-3.8.42-6.91 1.24-9.35 2.43-2.24 1.01-4.04 2.84-5.4 5.48-1.38 2.65-2.58 6.33-3.63 11.06-.9 5.47-.78 6.56-.95 8.16.33 2.9.95 4.61 3.14 5.58 2.2.96 5.38 2.65 9.75 2.83 3.33.36 12.02.54 20.75.54 9.06 0 16.17.63 21.08-1.2 2.32-1.02 4.88-1.3 6.35-3.93 1.48-2.61 2.12-5.32 3.25-10.37.9-3.86 1.32-6.9 1.26-9.1-.06-2.49-.76-7.05-2.12-8.36-1.12-1.26-3.63-2.2-7.5-2.82-3.89-.63-10.67-.7-18.58-.7zM490.46 213.06c-9.94 0-20.48-.63-26.32-1.88-5.84-1.26-10.08-3.47-12.75-6.63-3.3-3.7-2.68-9-3.14-16.23.2-5.8.92-11.6 1.85-17.06l6.02-31.6a89.43 89.43 0 0 1 5.35-18.4 36.82 36.82 0 0 1 9.73-13.71c2.4-2.31 5.54-4.14 9.43-5.5a54.43 54.43 0 0 1 13.27-2.64 223.7 223.7 0 0 1 18.27-.63c5.46 0 10.36.18 14.71.55 4.36.38 8.18 1.05 11.47 2.03 3.29.99 6.08 2.46 8.36 4.4 4.15 3.77 6.32 9.7 6.5 17.79.08 3.26-.41 8.86-1.47 16.8l-6.14 31.75c-3.33 18.04-7.3 29.89-17.22 35.54-4.03 2.23-8.88 3.7-14.55 4.39-5.68.69-15.24 1.03-23.37 1.03zm18.83-97.92c-7.58 0-13 .14-16.26.43a29.8 29.8 0 0 0-8.42 1.8c-1.81.74-3.43 1.8-4.88 3.18-1.43 1.38-2.87 3.7-4.3 6.93-1.42 3.24-2.67 4.95-3.73 10.42l-6.8 36.1c-.78 5.35-1.27 7.03-1.46 10.37.2 3 .7 5.18 1.5 6.57.81 1.4 2.01 2.5 3.58 3.33 2 1.03 4.55 1.7 7.66 1.99 3.11.3 8.24.44 15.39.44 8.69 0 15.15-.26 19.4-.78 4.25-.52 7.48-1.72 9.68-3.58 4.05-3.65 6.4-9.1 8.78-20.47l6.3-33.29c.9-6.36 1.32-8.52 1.25-11.8-.1-4.54-.26-6.92-2.24-8.31-1.9-1.44-4.55-2.35-7.96-2.74-3.42-.4-9.24-.59-17.5-.59zM594.12 213.06c-9.94 0-20.49-.63-26.33-1.88-5.83-1.26-10.08-3.47-12.74-6.63-3.3-3.7-2.69-9-3.15-16.23.2-5.8.92-11.6 1.86-17.06l6.01-31.6a89.37 89.37 0 0 1 5.35-18.4 36.8 36.8 0 0 1 9.74-13.71c2.4-2.31 5.54-4.14 9.43-5.5a54.43 54.43 0 0 1 13.27-2.64 223.7 223.7 0 0 1 18.26-.63c5.46 0 10.37.18 14.72.55 4.36.38 8.18 1.05 11.47 2.03 3.28.99 6.07 2.46 8.36 4.4 4.14 3.77 6.31 9.7 6.5 17.79.08 3.26-.42 8.86-1.48 16.8l-6.14 31.75c-3.32 18.04-7.29 29.89-17.21 35.54-4.03 2.23-8.88 3.7-14.56 4.39-5.68.69-15.24 1.03-23.36 1.03zm18.82-97.92c-7.57 0-13 .14-16.25.43a29.8 29.8 0 0 0-8.43 1.8c-1.8.74-3.43 1.8-4.87 3.18-1.44 1.38-2.87 3.7-4.3 6.93-1.42 3.24-2.67 4.95-3.74 10.42l-6.8 36.1c-.78 5.35-1.27 7.03-1.45 10.37.2 3 .7 5.18 1.5 6.57.8 1.4 2 2.5 3.57 3.33 2 1.03 4.56 1.7 7.67 1.99 3.1.3 8.24.44 15.38.44 8.7 0 15.15-.26 19.4-.78 4.26-.52 7.48-1.72 9.68-3.58 4.06-3.65 6.4-9.1 8.79-20.47l6.29-33.29c.91-6.36 1.33-8.52 1.26-11.8-.1-4.54-.27-6.92-2.24-8.31-1.9-1.44-4.56-2.35-7.97-2.74-3.42-.4-9.24-.59-17.49-.59zM697.77 213.06c-9.94 0-20.48-.63-26.32-1.88-5.84-1.26-10.08-3.47-12.75-6.63-3.3-3.7-2.68-9-3.14-16.23.2-5.8.92-11.6 1.85-17.06l6.01-31.6a89.43 89.43 0 0 1 5.35-18.4 36.82 36.82 0 0 1 9.74-13.71c2.4-2.31 5.54-4.14 9.43-5.5a54.43 54.43 0 0 1 13.27-2.64c4.95-.42 11.05-.63 18.27-.63 5.46 0 10.36.18 14.71.55 4.36.38 8.18 1.05 11.47 2.03 3.28.99 6.08 2.46 8.36 4.4 4.15 3.77 6.32 9.7 6.5 17.79.08 3.26-.41 8.86-1.47 16.8l-6.14 31.75c-3.33 18.04-7.3 29.89-17.22 35.54-4.03 2.23-8.88 3.7-14.56 4.39-5.67.69-15.23 1.03-23.36 1.03zm18.83-97.92c-7.58 0-13 .14-16.26.43a29.8 29.8 0 0 0-8.42 1.8c-1.81.74-3.43 1.8-4.88 3.18-1.43 1.38-2.87 3.7-4.3 6.93-1.42 3.24-2.67 4.95-3.73 10.42l-6.8 36.1c-.79 5.35-1.27 7.03-1.46 10.37.2 3 .7 5.18 1.5 6.57.81 1.4 2.01 2.5 3.58 3.33 2 1.03 4.55 1.7 7.66 1.99 3.1.3 8.24.44 15.39.44 8.69 0 15.15-.26 19.4-.78 4.25-.52 7.48-1.72 9.68-3.58 4.05-3.65 6.4-9.1 8.78-20.47l6.3-33.29c.9-6.36 1.32-8.52 1.25-11.8-.1-4.54-.26-6.92-2.24-8.31-1.9-1.44-4.55-2.35-7.96-2.74-3.42-.4-9.24-.59-17.5-.59z"
         id="path4526"
         style="fill:#000000;fill-opacity:1" />
    </g>
  </g>
  <g
     fill="#fff"
     id="g4534"
     style="fill:#000000;fill-opacity:1">
    <path
       d="M258.18 14.3v58.21h19.93V49.39h38.27V72.5h19.94v-58.2h-19.94v22.32h-38.27V14.3zM381.37 26.87l12.6 20.92h-25.22l12.62-20.92zm19.82 32.88l7.69 12.76H432l-35.08-58.2H373.79l-35.08 58.2h15.15l7.69-12.76h39.64zM518.11 14.3v58.21h19.14V51.43a107.37 107.37 0 0 0 21.13 1.94c25.32 0 36.86-9.1 37.08-20.33.24-13.47-14.95-21.13-40.27-21.13-6.57 0-8.88.27-17.94.8s-19.14 1.6-19.14 1.6zm19.14 9.2s4.67-.54 8.88-.82c4.2-.26 5.31-.2 8.36-.2 11.75 0 18.75 3.73 18.64 10.64-.1 5.76-5.46 10.44-17.2 10.44-3.54 0-8.86-.5-12.45-1-3.6-.5-6.23-1.64-6.23-1.64V23.5zM434.4 14.3v58.21h19.13v-49s4.67-.55 8.88-.83c4.2-.26 5.31-.2 8.36-.2 11.75 0 19.55 3.73 19.44 10.64-.1 5.76-6.26 8.84-18 8.84-3.54 0-7.9-.49-11.48-.98-.2-.03-4.01 6.16-4.01 6.16l28.7 25.37h28.7L488.79 50.7c15.87-2.66 23.74-9.87 23.75-17.66.02-15.11-15.02-21.43-41.06-21.13-6.58.08-8.88.28-17.94.8s-19.14 1.6-19.14 1.6zM245.42 31.84s6.68-12.26 6.38-12.75c-.3-.5-13.48-7.48-39.87-7.18-40.88.46-40.66 17.54-40.66 17.54s-4.09 15.88 27.7 19.14c19.5 2 33.38 5.25 33.3 10-.08 4.74-8.26 4.46-11.93 4.16-31.9-2.59-43.3-11.53-43.3-11.53l-6.92 14.34s15.4 9.63 47.4 9.34c32.03-.3 36.42-7.9 37-18.12.73-12.74-17.07-17.76-17.07-17.76s-9.76-2.14-19.92-3.6c-11.67-1.67-23.82-3.54-22.3-8.15 0-.16 3.44-6.76 27.9-2.17 11.9 2.23 22.3 6.74 22.3 6.74z"
       id="path4532"
       style="fill:#000000;fill-opacity:1" />
  </g>
</svg>
