<?xml version="1.0" encoding="UTF-8" standalone="no"?>
<!-- Created with Inkscape (http://www.inkscape.org/) -->

<svg
   xmlns:dc="http://purl.org/dc/elements/1.1/"
   xmlns:cc="http://creativecommons.org/ns#"
   xmlns:rdf="http://www.w3.org/1999/02/22-rdf-syntax-ns#"
   xmlns:svg="http://www.w3.org/2000/svg"
   xmlns="http://www.w3.org/2000/svg"
   xmlns:sodipodi="http://sodipodi.sourceforge.net/DTD/sodipodi-0.dtd"
   xmlns:inkscape="http://www.inkscape.org/namespaces/inkscape"
   width="199mm"
   height="35mm"
   viewBox="0 0 199 35"
   version="1.1"
   id="svg11813"
   inkscape:version="0.92.2 (5c3e80d, 2017-08-06)"
   sodipodi:docname="system.svg">
  <defs
     id="defs11807" />
  <sodipodi:namedview
     id="base"
     pagecolor="#ffffff"
     bordercolor="#666666"
     borderopacity="1.0"
     inkscape:pageopacity="0.0"
     inkscape:pageshadow="2"
     inkscape:zoom="1.4"
     inkscape:cx="412.57511"
     inkscape:cy="185.44823"
     inkscape:document-units="mm"
     inkscape:current-layer="layer1"
     showgrid="false"
     inkscape:pagecheckerboard="true"
     inkscape:window-width="1920"
     inkscape:window-height="1017"
     inkscape:window-x="1912"
     inkscape:window-y="-8"
     inkscape:window-maximized="1" />
  <metadata
     id="metadata11810">
    <rdf:RDF>
      <cc:Work
         rdf:about="">
        <dc:format>image/svg+xml</dc:format>
        <dc:type
           rdf:resource="http://purl.org/dc/dcmitype/StillImage" />
        <dc:title></dc:title>
      </cc:Work>
    </rdf:RDF>
  </metadata>
  <g
     inkscape:label="Layer 1"
     inkscape:groupmode="layer"
     id="layer1"
     transform="translate(0,-262)">
    <path
       style="fill:#00d400;fill-opacity:1;stroke-width:0.26458335"
       d="m 1.6913074,295.2838 c 7.8502845,-6.22734 18.8488896,-15.37141 18.8488896,-15.67068 0,-0.29926 -10.9986051,-9.44334 -18.8488896,-15.67068 -0.5523175,-0.43813 -0.3997873,-0.45738 3.6689677,-0.46302 l 4.245243,-0.006 7.6575339,6.21771 c 4.211643,3.41974 7.798442,6.21771 7.970664,6.21771 0.172222,0 3.74566,-2.79451 7.940973,-6.21002 l 7.627845,-6.21001 4.220105,-0.008 c 2.736395,-0.005 4.129561,0.0829 3.962569,0.24984 -0.141642,0.14165 -4.48147,3.69051 -9.644063,7.88637 -5.16259,4.19586 -9.386528,7.79688 -9.386528,8.00227 0,0.20539 4.217012,3.79652 9.37114,7.98029 5.154126,4.18377 9.493954,7.72968 9.644063,7.87978 0.187508,0.18751 -1.0478,0.27031 -3.947181,0.26457 l -4.220105,-0.008 -7.635608,-6.20935 c -4.199586,-3.41514 -7.773025,-6.20935 -7.940976,-6.20935 -0.167951,0 -3.751255,2.79797 -7.962898,6.21771 l -7.6575339,6.21771 -4.245243,-0.006 c -4.068755,-0.006 -4.2212852,-0.0249 -3.6689677,-0.46302 z m 55.0512206,-0.94076 c -1.983942,-2.98803 -3.17749,-5.87049 -3.889074,-9.39223 l -0.463714,-2.29498 -2.486311,-0.13229 -2.486311,-0.13229 v -2.77813 -2.77812 l 2.486311,-0.13229 2.486311,-0.13229 0.480412,-2.38125 c 0.703638,-3.48773 1.874737,-6.31233 3.866848,-9.32657 l 0.918033,-1.38906 h 16.719199 16.719199 l 1.131808,1.72148 c 1.564148,2.37907 2.635086,4.84238 3.377298,7.76826 0.917763,3.61794 0.871654,4.13466 -0.428125,4.79776 -1.019876,0.5203 -1.058333,0.5876 -1.058333,1.85208 0,1.26448 0.03846,1.33179 1.058333,1.85209 1.301052,0.66374 1.347108,1.18629 0.422595,4.79472 -0.749424,2.92505 -1.8493,5.45562 -3.389199,7.79781 l -1.114377,1.69497 H 74.385964 57.678496 Z m 31.542425,-4.72565 c 0.678998,-0.72882 2.086536,-4.34383 2.301251,-5.91035 l 0.162218,-1.1835 H 74.456197 c -8.960723,0 -16.355719,0.10274 -16.433327,0.22831 -0.416062,0.6732 2.011765,6.94458 2.81305,7.26644 0.186743,0.075 6.317785,0.14579 13.624537,0.15728 l 13.285008,0.0209 0.539488,-0.57907 z m 2.301251,-14.09819 c -0.214715,-1.56652 -1.622253,-5.18152 -2.301251,-5.91034 l -0.539488,-0.57907 H 74.280038 60.814611 l -0.533493,0.74922 c -0.97472,1.36887 -2.591036,6.15693 -2.259494,6.69337 0.07829,0.12668 7.47385,0.23033 16.434573,0.23033 h 16.292225 z m 16.338506,18.37292 c -1.45762,-2.25326 -2.28251,-4.07597 -3.21256,-7.09858 -0.64718,-2.10329 -0.70445,-2.66555 -0.71791,-7.04812 -0.0119,-3.86324 0.0794,-5.11222 0.48314,-6.61459 0.70132,-2.6095 2.23532,-6.06178 3.55636,-8.00364 l 1.12497,-1.65365 h 16.72902 16.72902 l 1.36754,2.18281 c 2.74387,4.37963 3.89882,8.48196 3.89207,13.82448 -0.004,3.54403 -0.27055,5.36044 -1.22084,8.33438 -0.66551,2.0827 -2.24374,5.28129 -3.36166,6.81302 l -0.82068,1.12448 h -16.67243 -16.67243 z m 31.54053,-3.89815 c 0.46013,-0.30215 1.56755,-2.64894 2.21422,-4.6923 0.89235,-2.81968 1.0219,-7.24608 0.30035,-10.26189 -0.55083,-2.30224 -1.89117,-5.41725 -2.4966,-5.80223 -0.1727,-0.10981 -6.33797,-0.20148 -13.7006,-0.20371 -15.21137,-0.005 -13.71524,-0.2487 -14.90033,2.431 -1.59646,3.60988 -2.0897,7.83965 -1.36304,11.68884 0.48241,2.55543 1.48993,5.33514 2.313,6.3815 l 0.52016,0.66128 13.4084,-0.004 c 7.37463,-0.002 13.54162,-0.0915 13.70444,-0.19844 z m 11.36504,5.5012 c 0.14165,-0.14164 4.48147,-3.69051 9.64407,-7.88636 5.16259,-4.19586 9.38652,-7.7943 9.38652,-7.99652 0,-0.20223 -4.2041,-3.78045 -9.34244,-7.9516 -5.13835,-4.17115 -9.47817,-7.71964 -9.64406,-7.88553 -0.22577,-0.22577 0.75962,-0.29872 3.91848,-0.2901 l 4.22011,0.0115 7.62909,6.20618 c 4.19599,3.4134 7.76787,6.20485 7.9375,6.20322 0.16962,-0.002 3.75673,-2.79959 7.97134,-6.2177 l 7.66293,-6.21475 h 4.23009 c 2.37755,0 4.12001,0.0996 3.97874,0.2274 -0.13825,0.12507 -4.47808,3.65467 -9.64407,7.84355 -5.71697,4.63564 -9.39271,7.79322 -9.39271,8.06863 0,0.27542 3.67574,3.433 9.39271,8.06864 5.16599,4.18888 9.50582,7.71847 9.64407,7.84355 0.14127,0.12781 -1.60386,0.2274 -3.98477,0.2274 h -4.23612 l -7.6569,-6.21487 c -4.2113,-3.41818 -7.79569,-6.21615 -7.96531,-6.21771 -0.16963,-0.002 -3.74151,2.78994 -7.9375,6.20335 l -7.62909,6.20618 -4.22011,0.0115 c -2.73639,0.007 -4.12956,-0.079 -3.96257,-0.24601 z"
       id="path12369"
       inkscape:connector-curvature="0" />
  </g>
</svg>
